999
DXF generated by OpenJsCad
  0
SECTION
  2
HEADER
  0
ENDSEC
  0
SECTION
  2
TABLES
  0
TABLE
  2
LTYPE
  70
1
  0
LTYPE
  2
CONTINUOUS
  3
Solid Line
  72
65
  73
0
  40
0.0
  0
ENDTAB
  0
TABLE
  2
LAYER
  70
1
  0
LAYER
  2
OpenJsCad
  62
7
  6
continuous
  0
ENDTAB
  0
TABLE
  2
STYLE
  70
0
  0
ENDTAB
  0
TABLE
  2
VIEW
  70
0
  0
ENDTAB
  0
ENDSEC
  0
SECTION
  2
BLOCKS
  0
ENDSEC
  0
SECTION
  2
ENTITIES
  0
LWPOLYLINE
  8
OpenJsCad
  90
466
  70
1
 10
1898.3082263707888
 20
-942.8521399020393
 30
0.0
 10
1940.299949185003
 20
-863.8771954798588
 30
0.0
 10
1970.8918235259832
 20
-779.8267115092227
 30
0.0
 10
1944.9214478125757
 20
-742.89965194574
 30
0.0
 10
1890.3266460190796
 20
-677.6473156751524
 30
0.0
 10
1839.2248567987679
 20
-626.0405080089389
 30
0.0
 10
1793.4553365114186
 20
-586.9748906768135
 30
0.0
 10
1754.692047317844
 20
-559.1393892470506
 30
0.0
 10
1724.4224257617225
 20
-541.036507649898
 30
0.0
 10
1703.9284233320388
 20
-531.0047054058984
 30
0.0
 10
1694.2700117956774
 20
-527.242597315778
 30
0.0
 10
1647.0647234640298
 20
-513.276133419059
 30
0.0
 10
1604.9128734329968
 20
-492.4365412807182
 30
0.0
 10
1577.755508010799
 20
-469.2431368985054
 30
0.0
 10
1565.5989791386453
 20
-446.0514400718803
 30
0.0
 10
1568.1615727598496
 20
-425.1938598745314
 30
0.0
 10
1574.4823718476302
 20
-404.25836325873985
 30
0.0
 10
1602.7879085468471
 20
-271.0912830382492
 30
0.0
 10
1605.5288048662128
 20
-249.39485459874044
 30
0.0
 10
1611.6713012559612
 20
-229.29820622511983
 30
0.0
 10
1632.2097559023168
 20
-213.05604267920336
 30
0.0
 10
1666.452851165217
 20
-202.91370910519936
 30
0.0
 10
1713.4367080336647
 20
-201.0204964100679
 30
0.0
 10
1762.2415574147637
 20
-207.46161720826984
 30
0.0
 10
1772.5951426173438
 20
-207.95319033710973
 30
0.0
 10
1795.3976470146274
 20
-207.12434471655106
 30
0.0
 10
1830.4134275826054
 20
-202.8983037221438
 30
0.0
 10
1877.1471727572837
 20
-193.23575794480894
 30
0.0
 10
1934.8491281844817
 20
-176.16368171793934
 30
0.0
 10
2002.5233152990797
 20
-149.8034871995361
 30
0.0
 10
2078.93866469544
 20
-112.39821821011223
 30
0.0
 10
2117.6833717072063
 20
-89.22677411888338
 30
0.0
 10
2123.9227155613435
 20
-2.110077554024204e-13
 30
0.0
 10
2117.6833717072063
 20
89.22677411888345
 30
0.0
 10
2078.93866469544
 20
112.39821821011232
 30
0.0
 10
2002.5233152985415
 20
149.80348719979986
 30
0.0
 10
1934.8491281689019
 20
176.16368172406783
 30
0.0
 10
1877.1471727585606
 20
193.23575795096883
 30
0.0
 10
1830.413427582611
 20
202.89830372216187
 30
0.0
 10
1795.3976470146306
 20
207.1243447165707
 30
0.0
 10
1772.5951426173524
 20
207.9531903371086
 30
0.0
 10
1762.2415574148022
 20
207.46161720825438
 30
0.0
 10
1713.4367080417258
 20
201.0204963489918
 30
0.0
 10
1666.4528511652256
 20
202.91370910504048
 30
0.0
 10
1632.2097559023161
 20
213.05604267907148
 30
0.0
 10
1611.6713012559655
 20
229.29820622514526
 30
0.0
 10
1605.528804866247
 20
249.39485459890577
 30
0.0
 10
1602.7879085469285
 20
271.09128303827464
 30
0.0
 10
1574.4823718475457
 20
404.25836325873007
 30
0.0
 10
1568.1615727597514
 20
425.19385987466865
 30
0.0
 10
1565.598979138631
 20
446.05144007190177
 30
0.0
 10
1577.7555080108534
 20
469.24313689838533
 30
0.0
 10
1604.9128734330534
 20
492.4365412805695
 30
0.0
 10
1647.0647234815076
 20
513.2761333599846
 30
0.0
 10
1694.2700117956485
 20
527.2425973157481
 30
0.0
 10
1703.9284233320318
 20
531.0047054058939
 30
0.0
 10
1724.4224257617113
 20
541.0365076499146
 30
0.0
 10
1754.6920473178318
 20
559.139389247065
 30
0.0
 10
1793.4553365077466
 20
586.9748906819215
 30
0.0
 10
1839.2248568105083
 20
626.0405080208744
 30
0.0
 10
1890.326646019464
 20
677.6473156756123
 30
0.0
 10
1944.9214478125755
 20
742.89965194574
 30
0.0
 10
1970.8918235259832
 20
779.8267115092228
 30
0.0
 10
1940.2999491850032
 20
863.8771954798583
 30
0.0
 10
1898.3082263707886
 20
942.8521399020395
 30
0.0
 10
1853.4884998876112
 20
948.2614153316798
 30
0.0
 10
1768.4655110096894
 20
951.3519062159497
 30
0.0
 10
1695.920407726126
 20
947.9075704901768
 30
0.0
 10
1636.2632094890491
 20
940.0341885372789
 30
0.0
 10
1589.6396974343916
 20
929.8530367045902
 30
0.0
 10
1555.9323044231369
 20
919.4715162159447
 30
0.0
 10
1534.764058222802
 20
910.9540902754037
 30
0.0
 10
1525.5055282949536
 20
906.2938333873557
 30
0.0
 10
1483.5399197151899
 20
880.558856084424
 30
0.0
 10
1439.8479916821098
 20
863.1783357733617
 30
0.0
 10
1404.4401088381994
 20
858.5158969240532
 30
0.0
 10
1379.071013812009
 20
865.0001095570359
 30
0.0
 10
1365.2855208399772
 20
880.860933031066
 30
0.0
 10
1353.9568549874316
 20
899.5667837109808
 30
0.0
 10
1273.9345293325007
 20
1009.7080659763399
 30
0.0
 10
1259.6449584224831
 20
1026.2626932107967
 30
0.0
 10
1248.8203705080175
 20
1044.2747401303732
 30
0.0
 10
1250.492999325502
 20
1070.4059151661731
 30
0.0
 10
1265.868879708584
 20
1102.6400400333941
 30
0.0
 10
1295.9002851261312
 20
1138.8226567048112
 30
0.0
 10
1333.3437891772173
 20
1170.781776915247
 30
0.0
 10
1340.6369999488488
 20
1178.1470635579133
 30
0.0
 10
1355.2789012086662
 20
1195.6472326813425
 30
0.0
 10
1375.5684711949966
 20
1224.4968021935724
 30
0.0
 10
1399.6587795457847
 20
1265.6922482102718
 30
0.0
 10
1425.5818988607239
 20
1319.9966065234114
 30
0.0
 10
1451.2753265646288
 20
1387.9267414378503
 30
0.0
 10
1474.609643546259
 20
1469.743423248712
 30
0.0
 10
1483.3151740670028
 20
1514.0410742141182
 30
0.0
 10
1421.1816945229148
 20
1578.3821757833075
 30
0.0
 10
1350.6983431060257
 20
1633.4498051533449
 30
0.0
 10
1307.553335034811
 20
1620.1615990578873
 30
0.0
 10
1228.623953862464
 20
1588.4029378866207
 30
0.0
 10
1163.751641834278
 20
1555.7496288486013
 30
0.0
 10
1112.4544723142876
 20
1524.29216798299
 30
0.0
 10
1074.0028221764833
 20
1496.027732191152
 30
0.0
 10
1047.4321311956517
 20
1472.833709425092
 30
0.0
 10
1031.558325267778
 20
1456.4427522469773
 30
0.0
 10
1024.9957345502594
 20
1448.4196123527834
 30
0.0
 10
997.1256017328352
 20
1407.8405899767886
 30
0.0
 10
964.2803338287995
 20
1374.1915864574682
 30
0.0
 10
933.8300080181178
 20
1355.5305532187926
 30
0.0
 10
908.0168196131091
 20
1351.1356356672193
 30
0.0
 10
888.9719670309007
 20
1360.0181537718013
 30
0.0
 10
871.014360888731
 20
1372.4990151723862
 30
0.0
 10
753.1118333639955
 20
1440.5700711768316
 30
0.0
 10
733.324287258773
 20
1449.8813835869018
 30
0.0
 10
716.1093746396677
 20
1461.9334506821178
 30
0.0
 10
707.0088906845152
 20
1486.4857863692723
 30
0.0
 10
707.944656624756
 20
1522.1870586941561
 30
0.0
 10
720.6629145879491
 20
1567.456396826334
 30
0.0
 10
741.8703123619925
 20
1611.8821510675657
 30
0.0
 10
745.5372599697174
 20
1621.5770912907067
 30
0.0
 10
751.7953423143526
 20
1643.519689068058
 30
0.0
 10
758.5966097553004
 20
1678.127593836592
 30
0.0
 10
763.8485040995296
 20
1725.5599175699692
 30
0.0
 10
765.4428795929476
 20
1785.7132999653456
 30
0.0
 10
761.2853187243333
 20
1858.2210246868776
 30
0.0
 10
749.3244355027433
 20
1942.455204472155
 30
0.0
 10
739.2598555165254
 20
1986.4639805560407
 30
0.0
 10
656.3282138474428
 20
2019.9705387419135
 30
0.0
 10
569.5404456090054
 20
2041.60915966802
 30
0.0
 10
535.5303198053595
 20
2011.9211236009319
 30
0.0
 10
476.34215339420314
 20
1950.80467140902
 30
0.0
 10
430.3596447175212
 20
1894.5884428374272
 30
0.0
 10
396.29225054477854
 20
1844.9861838248266
 30
0.0
 10
372.6611019549284
 20
1803.5256417965868
 30
0.0
 10
357.82142686225563
 20
1771.5295740004458
 30
0.0
 10
349.9867864607718
 20
1750.0992309880246
 30
0.0
 10
347.25486650790737
 20
1740.1004818633285
 30
0.0
 10
338.29920860916343
 20
1691.6938960319253
 30
0.0
 10
321.9798460446715
 20
1647.5946277044377
 30
0.0
 10
301.7522152324109
 20
1618.1616622535269
 30
0.0
 10
279.9582682292644
 20
1603.647535688637
 30
0.0
 10
258.94708406539723
 20
1604.0158803483448
 30
0.0
 10
237.46557087531485
 20
1608.1136981483728
 30
0.0
 10
102.06925960063823
 20
1622.3444239026057
 30
0.0
 10
80.20518478601663
 20
1622.8024109819708
 30
0.0
 10
59.57656224668621
 20
1626.8105863624712
 30
0.0
 10
41.276521870043965
 20
1645.5387608097035
 30
0.0
 10
27.610370935209414
 20
1678.5341062714008
 30
0.0
 10
20.81637910046576
 20
1725.0626860422603
 30
0.0
 10
22.120718859173966
 20
1774.2734578106713
 30
0.0
 10
21.527354748443546
 20
1784.6217083739393
 30
0.0
 10
18.319538887615867
 20
1807.212660307266
 30
0.0
 10
10.456502855065823
 20
1841.5948791946796
 30
0.0
 10
-4.038117051343194
 20
1887.0626009621005
 30
0.0
 10
-27.048167386704822
 20
1942.6639411472302
 30
0.0
 10
-60.337836783400185
 20
2007.2120113595022
 30
0.0
 10
-105.52577483798443
 20
2079.2988341908217
 30
0.0
 10
-132.62020801770876
 20
2115.409218201103
 30
0.0
 10
-222.0103775568879
 20
2112.287644695797
 30
0.0
 10
-310.0961690463256
 20
2096.7557430391494
 30
0.0
 10
-329.090752858659
 20
2055.801208143771
 30
0.0
 10
-358.30353282852445
 20
1975.8945547407332
 30
0.0
 10
-377.445444665527
 20
1905.8357032639988
 30
0.0
 10
-388.39250154599466
 20
1846.6653273100646
 30
0.0
 10
-393.1171083144602
 20
1799.1775834193047
 30
0.0
 10
-393.65985288123545
 20
1763.911881390186
 30
0.0
 10
-392.10064725543896
 20
1741.1476535388601
 30
0.0
 10
-390.52952266508555
 20
1730.9021697431062
 30
0.0
 10
-379.0221910348586
 20
1683.0379589065706
 30
0.0
 10
-375.9938822156517
 20
1636.1135898940138
 30
0.0
 10
-382.50127689979445
 20
1600.9979193474271
 30
0.0
 10
-396.5076110724418
 20
1578.8742081089904
 30
0.0
 10
-415.8521021954193
 20
1570.664689185855
 30
0.0
 10
-437.1431736494283
 20
1565.6709134601947
 30
0.0
 10
-566.622016417782
 20
1523.6006871992238
 30
0.0
 10
-586.7821227774706
 20
1515.1261588211794
 30
0.0
 10
-607.2575789948233
 20
1510.3973925505454
 30
0.0
 10
-631.5929325611863
 20
1520.0631342558058
 30
0.0
 10
-657.4979987213798
 20
1544.647357870686
 30
0.0
 10
-682.6294974443547
 20
1584.389965138968
 30
0.0
 10
-701.453747894817
 20
1629.8767649299737
 30
0.0
 10
-706.2048256787139
 20
1639.0890193000748
 30
0.0
 10
-718.3238792405749
 20
1658.4221445677495
 30
0.0
 10
-739.491628383155
 20
1686.633679575756
 30
0.0
 10
-771.2265110788961
 20
1722.2750172223487
 30
0.0
 10
-814.8623405003087
 20
1763.7103383569047
 30
0.0
 10
-871.5280321592442
 20
1809.1378063194063
 30
0.0
 10
-942.1296200376556
 20
1856.6128056410064
 30
0.0
 10
-981.5690327689139
 20
1878.5809841297666
 30
0.0
 10
-1061.9613577806713
 20
1839.3710273509544
 30
0.0
 10
-1136.114338938292
 20
1789.3542100108832
 30
0.0
 10
-1136.8090446577835
 20
1744.2145874308942
 30
0.0
 10
-1130.995283139794
 20
1659.3343191192725
 30
0.0
 10
-1119.9867876816897
 20
1587.5466566224088
 30
0.0
 10
-1105.9206616843599
 20
1529.0392592755657
 30
0.0
 10
-1090.921799199468
 20
1483.735375853608
 30
0.0
 10
-1077.0737677740706
 20
1451.2977998511915
 30
0.0
 10
-1066.3903169386324
 20
1431.135828962973
 30
0.0
 10
-1060.7878095199521
 20
1422.4151477217454
 30
0.0
 10
-1030.8072105404465
 20
1383.369468766419
 30
0.0
 10
-1008.9548524437034
 20
1341.7336487655737
 30
0.0
 10
-1000.6168233410154
 20
1307.0070915766678
 30
0.0
 10
-1004.4137222611618
 20
1281.0991863254167
 30
0.0
 10
-1018.7466820889019
 20
1265.731304222386
 30
0.0
 10
-1036.1658921291273
 20
1252.5094041610325
 30
0.0
 10
-1137.3391981981508
 20
1161.4125502013867
 30
0.0
 10
-1152.3094705644994
 20
1145.47082931117
 30
0.0
 10
-1169.0913680662143
 20
1132.8227680370871
 30
0.0
 10
-1195.2542311109273
 20
1131.754782449029
 30
0.0
 10
-1228.9189912172442
 20
1143.6770486134194
 30
0.0
 10
-1268.0425323867496
 20
1169.7618255321854
 30
0.0
 10
-1303.740489130551
 20
1203.6595724273184
 30
0.0
 10
-1311.8277760765916
 20
1210.142948132958
 30
0.0
 10
-1330.7625728804953
 20
1222.8753737402703
 30
0.0
 10
-1361.5749390033895
 20
1240.0381941722367
 30
0.0
 10
-1405.0628349680107
 20
1259.690436627517
 30
0.0
 10
-1461.7794121494467
 20
1279.7951952592598
 30
0.0
 10
-1532.0231131911448
 20
1298.2472390656844
 30
0.0
 10
-1615.8306949539158
 20
1312.9015561980311
 30
0.0
 10
-1660.795654479657
 20
1316.929031529927
 30
0.0
 10
-1718.2895716281143
 20
1248.4104492159393
 30
0.0
 10
-1765.6880183530802
 20
1172.557078299064
 30
0.0
 10
-1747.962725049627
 20
1131.037418859142
 30
0.0
 10
-1708.127674226608
 20
1055.860105143045
 30
0.0
 10
-1668.8722403471447
 20
994.7563706421996
 30
0.0
 10
-1632.2250924436985
 20
947.0284124267356
 30
0.0
 10
-1600.096200289475
 20
911.7418424900967
 30
0.0
 10
-1574.251843310772
 20
887.7411440913268
 30
0.0
 10
-1556.2914129712435
 20
873.6676180985438
 30
0.0
 10
-1547.6262471541081
 20
867.9796244233526
 30
0.0
 10
-1504.3562987540715
 20
844.5038299594688
 30
0.0
 10
-1467.4583626171602
 20
815.3557704980311
 30
0.0
 10
-1445.7166307081122
 20
787.0228638856357
 30
0.0
 10
-1438.6475760587202
 20
761.8104768054422
 30
0.0
 10
-1445.4907056261547
 20
741.9414779509559
 30
0.0
 10
-1456.0261145880868
 20
722.7776401917084
 30
0.0
 10
-1511.4001002078146
 20
598.4056321719476
 30
0.0
 10
-1518.5920424880271
 20
577.7531871374649
 30
0.0
 10
-1528.778638737305
 20
559.3727955582516
 30
0.0
 10
-1552.245214557788
 20
547.755747087395
 30
0.0
 10
-1587.8487257531017
 20
544.9545876710843
 30
0.0
 10
-1634.1994936747167
 20
552.8712393383211
 30
0.0
 10
-1680.5986556850983
 20
569.3187049480493
 30
0.0
 10
-1690.623786409617
 20
571.9521674301035
 30
0.0
 10
-1713.1003280709394
 20
575.8823413190939
 30
0.0
 10
-1748.2295731499407
 20
579.0288396030037
 30
0.0
 10
-1795.9510300960271
 20
579.2939356114367
 30
0.0
 10
-1855.9415435888882
 20
574.5918363269393
 30
0.0
 10
-1927.617479959249
 20
562.8779299716002
 30
0.0
 10
-2010.1399633516185
 20
542.1777003522197
 30
0.0
 10
-2052.8556196760082
 20
527.5680854539017
 30
0.0
 10
-2077.509908370357
 20
441.5883629586058
 30
0.0
 10
-2089.958198622551
 20
353.01417540269534
 30
0.0
 10
-2056.877770537554
 20
322.2936054142674
 30
0.0
 10
-1989.9092725868816
 20
269.8180867996629
 30
0.0
 10
-1929.1945214282396
 20
229.96367110003297
 30
0.0
 10
-1876.3029764200699
 20
201.26774958629005
 30
0.0
 10
-1832.5994319318022
 20
182.09986164543898
 30
0.0
 10
-1799.2274735100239
 20
170.68597964296293
 30
0.0
 10
-1777.0955852374966
 20
165.13433904373755
 30
0.0
 10
-1766.866046912249
 20
163.4625387148236
 30
0.0
 10
-1717.7885162651883
 20
159.61580687608523
 30
0.0
 10
-1672.2249904534071
 20
147.9954722367449
 30
0.0
 10
-1640.8388987025073
 20
130.95523315051935
 30
0.0
 10
-1624.1261942528024
 20
110.7978150148946
 30
0.0
 10
-1622.2962542898413
 20
89.86322981508154
 30
0.0
 10
-1624.1261942527758
 20
68.07105600451446
 30
0.0
 10
-1624.126194252691
 20
-68.07105600452302
 30
0.0
 10
-1622.296254289774
 20
-89.86322981523672
 30
0.0
 10
-1624.1261942527926
 20
-110.79781501491924
 30
0.0
 10
-1640.8388987025355
 20
-130.95523315039117
 30
0.0
 10
-1672.2249904534317
 20
-147.99547223658828
 30
0.0
 10
-1717.788516270002
 20
-159.61580681466847
 30
0.0
 10
-1766.8660469122144
 20
-163.46253871480098
 30
0.0
 10
-1777.0955852374886
 20
-165.13433904373522
 30
0.0
 10
-1799.2274735100164
 20
-170.68597964298206
 30
0.0
 10
-1832.599431931793
 20
-182.09986164545617
 30
0.0
 10
-1876.3029764175399
 20
-201.26774959205048
 30
0.0
 10
-1929.1945214422046
 20
-229.96367110926735
 30
0.0
 10
-1989.9092725873531
 20
-269.8180868000334
 30
0.0
 10
-2056.877770537554
 20
-322.2936054142681
 30
0.0
 10
-2089.958198622551
 20
-353.01417540269614
 30
0.0
 10
-2077.509908370357
 20
-441.58836295860533
 30
0.0
 10
-2052.8556196760082
 20
-527.5680854539016
 30
0.0
 10
-2010.1399633516185
 20
-542.1777003522195
 30
0.0
 10
-1927.6174799586677
 20
-562.8779299717462
 30
0.0
 10
-1855.9415435723745
 20
-574.5918363296945
 30
0.0
 10
-1795.9510300959955
 20
-579.2939356177274
 30
0.0
 10
-1748.229573149942
 20
-579.0288396030224
 30
0.0
 10
-1713.1003280709388
 20
-575.8823413191136
 30
0.0
 10
-1690.6237864096256
 20
-571.9521674301039
 30
0.0
 10
-1680.5986556851392
 20
-569.3187049480421
 30
0.0
 10
-1634.1994936953001
 20
-552.8712392802555
 30
0.0
 10
-1587.8487257531433
 20
-544.9545876709306
 30
0.0
 10
-1552.2452145578145
 20
-547.7557470872657
 30
0.0
 10
-1528.778638737304
 20
-559.3727955582773
 30
0.0
 10
-1518.592042488026
 20
-577.7531871376335
 30
0.0
 10
-1511.4001002078887
 20
-598.4056321719893
 30
0.0
 10
-1456.0261145880058
 20
-722.7776401916813
 30
0.0
 10
-1445.4907056260301
 20
-741.9414779510696
 30
0.0
 10
-1438.6475760587018
 20
-761.8104768054602
 30
0.0
 10
-1445.7166307081905
 20
-787.0228638855295
 30
0.0
 10
-1467.4583626172466
 20
-815.3557704978974
 30
0.0
 10
-1504.3562987834498
 20
-844.5038299053191
 30
0.0
 10
-1547.626247154086
 20
-867.9796244233172
 30
0.0
 10
-1556.2914129712376
 20
-873.6676180985377
 30
0.0
 10
-1574.251843310758
 20
-887.7411440913406
 30
0.0
 10
-1600.0962002894603
 20
-911.7418424901081
 30
0.0
 10
-1632.2250924390446
 20
-947.0284124309683
 30
0.0
 10
-1668.8722403561467
 20
-994.7563706563149
 30
0.0
 10
-1708.1276742268883
 20
-1055.8601051435744
 30
0.0
 10
-1747.962725049627
 20
-1131.0374188591416
 30
0.0
 10
-1765.68801835308
 20
-1172.5570782990637
 30
0.0
 10
-1718.2895716281155
 20
-1248.4104492159377
 30
0.0
 10
-1660.795654479658
 20
-1316.929031529926
 30
0.0
 10
-1615.8306949539171
 20
-1312.90155619803
 30
0.0
 10
-1532.0231131905553
 20
-1298.24723906558
 30
0.0
 10
-1461.7794121332413
 20
-1279.7951952550593
 30
0.0
 10
-1405.0628349654244
 20
-1259.6904366332503
 30
0.0
 10
-1361.5749390033843
 20
-1240.0381941722535
 30
0.0
 10
-1330.7625728804874
 20
-1222.8753737402872
 30
0.0
 10
-1311.8277760766005
 20
-1210.142948132961
 30
0.0
 10
-1303.7404891305923
 20
-1203.6595724273275
 30
0.0
 10
-1268.0425324291716
 20
-1169.7618254875113
 30
0.0
 10
-1228.9189912173454
 20
-1143.677048613295
 30
0.0
 10
-1195.254231111005
 20
-1131.7547824489213
 30
0.0
 10
-1169.0913680662038
 20
-1132.8227680371097
 30
0.0
 10
-1152.3094705644307
 20
-1145.4708293113229
 30
0.0
 10
-1137.3391981982022
 20
-1161.4125502014542
 30
0.0
 10
-1036.1658921290655
 20
-1252.509404160974
 30
0.0
 10
-1018.7466820887425
 20
-1265.7313042224384
 30
0.0
 10
-1004.4137222611381
 20
-1281.0991863254253
 30
0.0
 10
-1000.6168233411307
 20
-1307.0070915766019
 30
0.0
 10
-1008.9548524438377
 20
-1341.733648765486
 30
0.0
 10
-1030.8072105893107
 20
-1383.3694687288994
 30
0.0
 10
-1060.7878095199474
 20
-1422.4151477217035
 30
0.0
 10
-1066.3903169386303
 20
-1431.1358289629645
 30
0.0
 10
-1077.073767774053
 20
-1451.2977998511979
 30
0.0
 10
-1090.9217991994508
 20
-1483.735375853612
 30
0.0
 10
-1105.920661678388
 20
-1529.039259277539
 30
0.0
 10
-1119.9867876841736
 20
-1587.5466566389648
 30
0.0
 10
-1130.9952831398361
 20
-1659.3343191198696
 30
0.0
 10
-1136.8090446577849
 20
-1744.2145874308933
 30
0.0
 10
-1136.114338938293
 20
-1789.3542100108828
 30
0.0
 10
-1061.961357780672
 20
-1839.371027350954
 30
0.0
 10
-981.5690327689141
 20
-1878.5809841297666
 30
0.0
 10
-942.1296200376559
 20
-1856.6128056410064
 30
0.0
 10
-871.528032158747
 20
-1809.137806319072
 30
0.0
 10
-814.8623404872117
 20
-1763.7103383464764
 30
0.0
 10
-771.2265110742004
 20
-1722.2750172265344
 30
0.0
 10
-739.4916283831424
 20
-1686.63367957577
 30
0.0
 10
-718.3238792405598
 20
-1658.4221445677622
 30
0.0
 10
-706.2048256787193
 20
-1639.0890193000814
 30
0.0
 10
-701.4537478948499
 20
-1629.8767649299996
 30
0.0
 10
-682.6294975012787
 20
-1584.3899651154106
 30
0.0
 10
-657.4979987215219
 20
-1544.647357870614
 30
0.0
 10
-631.5929325613002
 20
-1520.0631342557392
 30
0.0
 10
-607.2575789948037
 20
-1510.397392550562
 30
0.0
 10
-586.7821227773445
 20
-1515.1261588212915
 30
0.0
 10
-566.6220164178008
 20
-1523.600687199307
 30
0.0
 10
-437.1431736493947
 20
-1565.6709134601167
 30
0.0
 10
-415.8521021952516
 20
-1570.6646891858384
 30
0.0
 10
-396.5076110724162
 20
-1578.8742081089888
 30
0.0
 10
-382.50127689992587
 20
-1600.9979193474144
 30
0.0
 10
-375.9938822158089
 20
-1636.1135898939888
 30
0.0
 10
-379.0221910947578
 20
-1683.0379588921699
 30
0.0
 10
-390.52952266509715
 20
-1730.9021697430662
 30
0.0
 10
-392.10064725543947
 20
-1741.1476535388517
 30
0.0
 10
-393.6598528812158
 20
-1763.9118813901848
 30
0.0
 10
-393.1171083144419
 20
-1799.1775834193013
 30
0.0
 10
-388.39250153973535
 20
-1846.6653273094385
 30
0.0
 10
-377.445444661061
 20
-1905.8357032801339
 30
0.0
 10
-358.3035328283188
 20
-1975.8945547412964
 30
0.0
 10
-329.09075285865924
 20
-2055.8012081437705
 30
0.0
 10
-310.09616904632577
 20
-2096.75574303915
 30
0.0
 10
-222.01037755688944
 20
-2112.287644695797
 30
0.0
 10
-132.6202080177089
 20
-2115.4092182011036
 30
0.0
 10
-105.52577483798471
 20
-2079.2988341908217
 30
0.0
 10
-60.337836783081904
 20
-2007.2120113589945
 30
0.0
 10
-27.0481673789817
 20
-1942.6639411323765
 30
0.0
 10
-4.0381170453507576
 20
-1887.0626009640146
 30
0.0
 10
10.45650285508293
 20
-1841.5948791946869
 30
0.0
 10
18.319538887634845
 20
-1807.2126603072716
 30
0.0
 10
21.52735474844121
 20
-1784.6217083739477
 30
0.0
 10
22.12071885915429
 20
-1774.2734578107081
 30
0.0
 10
20.816379038881387
 20
-1725.0626860438929
 30
0.0
 10
27.610370935050287
 20
-1678.5341062713928
 30
0.0
 10
41.276521869912685
 20
-1645.5387608096892
 30
0.0
 10
59.57656224671091
 20
-1626.8105863624783
 30
0.0
 10
80.2051847861773
 20
-1622.802410982022
 30
0.0
 10
102.06925960065489
 20
-1622.3444239026894
 30
0.0
 10
237.46557087531372
 20
-1608.1136981482878
 30
0.0
 10
258.9470840655438
 20
-1604.0158803482616
 30
0.0
 10
279.9582682292871
 20
-1603.6475356886249
 30
0.0
 10
301.7522152322855
 20
-1618.1616622535685
 30
0.0
 10
321.97984604451756
 20
-1647.5946277044786
 30
0.0
 10
338.2992085485854
 20
-1691.6938960431326
 30
0.0
 10
347.2548665078805
 20
-1740.1004818632966
 30
0.0
 10
349.9867864607679
 20
-1750.099230988017
 30
0.0
 10
357.82142686227303
 20
-1771.5295740004365
 30
0.0
 10
372.6611019549438
 20
-1803.5256417965763
 30
0.0
 10
396.2922505502421
 20
-1844.986183821709
 30
0.0
 10
430.35964472816397
 20
-1894.588442850351
 30
0.0
 10
476.3421533946199
 20
-1950.804671409451
 30
0.0
 10
535.5303198053592
 20
-2011.921123600932
 30
0.0
 10
569.5404456090052
 20
-2041.6091596680203
 30
0.0
 10
656.3282138474415
 20
-2019.9705387419142
 30
0.0
 10
739.2598555165242
 20
-1986.463980556041
 30
0.0
 10
749.3244355027423
 20
-1942.4552044721556
 30
0.0
 10
761.2853187244167
 20
-1858.2210246862846
 30
0.0
 10
765.4428795939606
 20
-1785.713299948635
 30
0.0
 10
763.8485041057816
 20
-1725.5599175692807
 30
0.0
 10
758.5966097553182
 20
-1678.127593836592
 30
0.0
 10
751.7953423143714
 20
-1643.5196890680559
 30
0.0
 10
745.537259969718
 20
-1621.5770912907158
 30
0.0
 10
741.8703123619887
 20
-1611.8821510676075
 30
0.0
 10
720.6629145323523
 20
-1567.4563968528746
 30
0.0
 10
707.9446566246069
 20
-1522.187058694214
 30
0.0
 10
707.0088906843887
 20
-1486.4857863693128
 30
0.0
 10
716.1093746396924
 20
-1461.9334506821147
 30
0.0
 10
733.3242872589398
 20
-1449.8813835868837
 30
0.0
 10
753.1118333640442
 20
-1440.5700711769014
 30
0.0
 10
871.0143608886947
 20
-1372.4990151723096
 30
0.0
 10
888.9719670310002
 20
-1360.018153771666
 30
0.0
 10
908.0168196131243
 20
-1351.1356356671997
 30
0.0
 10
933.8300080180196
 20
-1355.5305532188822
 30
0.0
 10
964.280333828675
 20
-1374.1915864575687
 30
0.0
 10
997.1256016820521
 20
-1407.8405900116668
 30
0.0
 10
1024.995734550221
 20
-1448.4196123527656
 30
0.0
 10
1031.5583252677704
 20
-1456.4427522469728
 30
0.0
 10
1047.432131195663
 20
-1472.833709425077
 30
0.0
 10
1074.002822176492
 20
-1496.027732191137
 30
0.0
 10
1112.4544723180097
 20
-1524.2921679779197
 30
0.0
 10
1163.7516418492562
 20
-1555.7496288560792
 30
0.0
 10
1228.6239538630189
 20
-1588.4029378868452
 30
0.0
 10
1307.5533350348098
 20
-1620.1615990578882
 30
0.0
 10
1350.6983431060248
 20
-1633.4498051533458
 30
0.0
 10
1421.1816945229143
 20
-1578.382175783308
 30
0.0
 10
1483.315174067003
 20
-1514.0410742141182
 30
0.0
 10
1474.609643546259
 20
-1469.7434232487121
 30
0.0
 10
1451.2753265644646
 20
-1387.9267414372741
 30
0.0
 10
1425.581898854853
 20
-1319.9966065077328
 30
0.0
 10
1399.6587795512169
 20
-1265.6922482070993
 30
0.0
 10
1375.568471195014
 20
-1224.4968021935642
 30
0.0
 10
1355.2789012086828
 20
-1195.6472326813318
 30
0.0
 10
1340.6369999488536
 20
-1178.1470635579205
 30
0.0
 10
1333.3437891772317
 20
-1170.7817769152862
 30
0.0
 10
1295.9002850861364
 20
-1138.8226567516695
 30
0.0
 10
1265.8688797084717
 20
-1102.640040033507
 30
0.0
 10
1250.4929993254036
 20
-1070.405915166261
 30
0.0
 10
1248.8203705080396
 20
-1044.2747401303595
 30
0.0
 10
1259.6449584226286
 20
-1026.2626932107112
 30
0.0
 10
1273.9345293325741
 20
-1009.7080659763832
 30
0.0
 10
1353.9568549873675
 20
-899.5667837109244
 30
0.0
 10
1365.2855208400135
 20
-880.8609330309009
 30
0.0
 10
1379.0710138120155
 20
-865.0001095570109
 30
0.0
 10
1404.4401088381464
 20
-858.515896924174
 30
0.0
 10
1439.8479916820372
 20
-863.1783357735034
 30
0.0
 10
1483.539919682984
 20
-880.558856136941
 30
0.0
 10
1525.5055282949118
 20
-906.2938333873539
 30
0.0
 10
1534.764058222794
 20
-910.9540902754014
 30
0.0
 10
1555.9323044231419
 20
-919.4715162159255
 30
0.0
 10
1589.6396974343943
 20
-929.8530367045714
 30
0.0
 10
1636.263209490388
 20
-940.034188531132
 30
0.0
 10
1695.9204077428517
 20
-947.9075704909151
 30
0.0
 10
1768.4655110102883
 20
-951.3519062159276
 30
0.0
 10
1853.4884998876112
 20
-948.2614153316797
 30
0.0
 10
1898.3082263707888
 20
-942.8521399020393
 30
0.0
  0
ENDSEC
  0
EOF
