999
DXF generated by OpenJsCad
  0
SECTION
  2
HEADER
  0
ENDSEC
  0
SECTION
  2
TABLES
  0
TABLE
  2
LTYPE
  70
1
  0
LTYPE
  2
CONTINUOUS
  3
Solid Line
  72
65
  73
0
  40
0.0
  0
ENDTAB
  0
TABLE
  2
LAYER
  70
1
  0
LAYER
  2
OpenJsCad
  62
7
  6
continuous
  0
ENDTAB
  0
TABLE
  2
STYLE
  70
0
  0
ENDTAB
  0
TABLE
  2
VIEW
  70
0
  0
ENDTAB
  0
ENDSEC
  0
SECTION
  2
BLOCKS
  0
ENDSEC
  0
SECTION
  2
ENTITIES
  0
LWPOLYLINE
  8
OpenJsCad
  90
593
  70
1
 10
2034.083657909908
 20
-942.1551050149665
 30
0.0
 10
2077.675121163088
 20
-860.6012133909146
 30
0.0
 10
2104.5186116944406
 20
-772.1100843232274
 30
0.0
 10
2081.7056069947766
 20
-742.2376510740063
 30
0.0
 10
2035.1982919804036
 20
-688.9596359552465
 30
0.0
 10
1991.0240033697132
 20
-644.5817683083632
 30
0.0
 10
1950.1232993382293
 20
-608.5461308444643
 30
0.0
 10
1913.3721929918436
 20
-580.2115412622996
 30
0.0
 10
1881.575399911532
 20
-558.8597043095677
 30
0.0
 10
1855.46012022052
 20
-543.7018830509172
 30
0.0
 10
1835.6703936721372
 20
-533.8860453784191
 30
0.0
 10
1822.7620627676158
 20
-528.5044390224735
 30
0.0
 10
1817.1983750332763
 20
-526.601545865495
 30
0.0
 10
1786.7921082562812
 20
-518.3792429352044
 30
0.0
 10
1749.0628245623489
 20
-503.297815066328
 30
0.0
 10
1720.9576041842445
 20
-486.0611885799268
 30
0.0
 10
1702.5601559341144
 20
-467.86247082373046
 30
0.0
 10
1693.8394914385476
 20
-449.8940957412144
 30
0.0
 10
1694.65052778316
 20
-433.3379454952621
 30
0.0
 10
1704.2845154415788
 20
-397.3834140745287
 30
0.0
 10
1726.625630255372
 20
-285.06704527293357
 30
0.0
 10
1731.4841897344775
 20
-248.1626221278193
 30
0.0
 10
1737.0706542584417
 20
-232.55636360626454
 30
0.0
 10
1752.003697146383
 20
-219.29300345663327
 30
0.0
 10
1775.9650708107001
 20
-209.51997924353964
 30
0.0
 10
1808.527080057539
 20
-204.35081508249237
 30
0.0
 10
1849.15580562393
 20
-204.8557642838359
 30
0.0
 10
1880.3940724279973
 20
-208.89532155504486
 30
0.0
 10
1886.2624551741033
 20
-209.266408510174
 30
0.0
 10
1900.247649487865
 20
-209.23425692290857
 30
0.0
 10
1922.287331251962
 20
-207.73880588395002
 30
0.0
 10
1952.215350710731
 20
-203.7286899349497
 30
0.0
 10
1989.762751289214
 20
-196.17027070574676
 30
0.0
 10
2034.5595242592988
 20
-184.0565628417389
 30
0.0
 10
2086.1370889880463
 20
-166.4159967608239
 30
0.0
 10
2143.931484810984
 20
-142.32096153314828
 30
0.0
 10
2207.287254960062
 20
-110.89607277188472
 30
0.0
 10
2239.795408366073
 20
-92.0277020476493
 30
0.0
 10
2248.859345888481
 20
1.3770291998374695e-13
 30
0.0
 10
2239.7954083660734
 20
92.02770204764866
 30
0.0
 10
2207.287254960061
 20
110.89607277188534
 30
0.0
 10
2143.931484810981
 20
142.32096153314959
 30
0.0
 10
2086.1370889881646
 20
166.41599676077476
 30
0.0
 10
2034.5595242360262
 20
184.056562849751
 30
0.0
 10
1989.7627512894958
 20
196.1702707069711
 30
0.0
 10
1952.2153507107282
 20
203.72868993494217
 30
0.0
 10
1922.2873312519573
 20
207.73880588394297
 30
0.0
 10
1900.2476494878613
 20
209.23425692291562
 30
0.0
 10
1886.2624551743602
 20
209.26640851055976
 30
0.0
 10
1880.3940722665832
 20
208.89532143206338
 30
0.0
 10
1849.15580562393
 20
204.8557642838374
 30
0.0
 10
1808.5270800609662
 20
204.3508150282674
 30
0.0
 10
1775.9650708107054
 20
209.51997924692512
 30
0.0
 10
1752.00369714639
 20
219.29300345670578
 30
0.0
 10
1737.0706542584376
 20
232.55636360626022
 30
0.0
 10
1731.4841897344743
 20
248.16262212780646
 30
0.0
 10
1726.625630255389
 20
285.0670452729426
 30
0.0
 10
1704.2845154415595
 20
397.38341407453055
 30
0.0
 10
1694.650527783168
 20
433.3379454952514
 30
0.0
 10
1693.8394914385533
 20
449.89409574121214
 30
0.0
 10
1702.5601559340803
 20
467.86247082379475
 30
0.0
 10
1720.9576041829441
 20
486.06118858305257
 30
0.0
 10
1749.0628245799337
 20
503.29781501491914
 30
0.0
 10
1786.7921082562805
 20
518.3792429352058
 30
0.0
 10
1817.1983752294666
 20
526.6015458136454
 30
0.0
 10
1822.7620627672309
 20
528.5044390227316
 30
0.0
 10
1835.6703936721378
 20
533.886045378427
 30
0.0
 10
1855.460120220527
 20
543.7018830509124
 30
0.0
 10
1881.5753999115375
 20
558.8597043095618
 30
0.0
 10
1913.3721929911148
 20
580.211541263323
 30
0.0
 10
1950.1232993566643
 20
608.5461308607726
 30
0.0
 10
1991.0240033696227
 20
644.5817683082726
 30
0.0
 10
2035.1982919804057
 20
688.9596359552488
 30
0.0
 10
2081.705606994777
 20
742.2376510740071
 30
0.0
 10
2104.5186116944406
 20
772.1100843232265
 30
0.0
 10
2077.675121163088
 20
860.6012133909145
 30
0.0
 10
2034.0836579099087
 20
942.1551050149662
 30
0.0
 10
1996.829427466469
 20
947.1468748136601
 30
0.0
 10
1926.2705438663927
 20
951.9344827708525
 30
0.0
 10
1863.6547136879715
 20
952.078434887852
 30
0.0
 10
1809.2525048969023
 20
948.6383133269886
 30
0.0
 10
1763.2299679475786
 20
942.6869372490377
 30
0.0
 10
1725.6482112404387
 20
935.3012379420301
 30
0.0
 10
1696.4637216783353
 20
927.5531447799375
 30
0.0
 10
1675.5294264568965
 20
920.5005403209983
 30
0.0
 10
1662.596487792544
 20
915.178342352577
 30
0.0
 10
1657.316817812015
 20
912.5897696823941
 30
0.0
 10
1630.002294224456
 20
896.9033384127922
 30
0.0
 10
1592.6594819591073
 20
880.8888859795601
 30
0.0
 10
1560.5979545696932
 20
873.203629536774
 30
0.0
 10
1534.7205574211912
 20
873.0631058568849
 30
0.0
 10
1515.8485565521726
 20
879.6022247233673
 30
0.0
 10
1504.7150797419806
 20
891.8826801316877
 30
0.0
 10
1486.1036447631307
 20
924.1186311168085
 30
0.0
 10
1422.4815325293741
 20
1019.3358509187661
 30
0.0
 10
1399.8216850221595
 20
1048.8667391349277
 30
0.0
 10
1392.736620740371
 20
1063.8522573122225
 30
0.0
 10
1393.9172647270602
 20
1083.7901251051592
 30
0.0
 10
1403.9499428378647
 20
1107.6439466035215
 30
0.0
 10
1423.3196093540207
 20
1134.3239151823632
 30
0.0
 10
1452.4055097174078
 20
1162.6957095369007
 30
0.0
 10
1477.3506983465415
 20
1181.928101487108
 30
0.0
 10
1481.7626696832929
 20
1185.815276619096
 30
0.0
 10
1491.628960813384
 20
1195.7270369599496
 30
0.0
 10
1506.1559256733908
 20
1212.3688889611165
 30
0.0
 10
1524.4826509992865
 20
1236.3667746487772
 30
0.0
 10
1545.6880630722394
 20
1268.2614057057706
 30
0.0
 10
1568.7984800387078
 20
1308.5031926241445
 30
0.0
 10
1592.795561915709
 20
1357.4478023007146
 30
0.0
 10
1616.6246083142696
 20
1415.352374304111
 30
0.0
 10
1639.2031510728564
 20
1482.3724209449429
 30
0.0
 10
1648.8479339010507
 20
1518.7011095512344
 30
0.0
 10
1590.183693412489
 20
1590.1836934124885
 30
0.0
 10
1518.7011095512357
 20
1648.8479339010503
 30
0.0
 10
1482.3724209449424
 20
1639.203151072856
 30
0.0
 10
1415.3523743041087
 20
1616.6246083142678
 30
0.0
 10
1357.4478023008332
 20
1592.7955619157576
 30
0.0
 10
1308.5031926020233
 20
1568.7984800279166
 30
0.0
 10
1268.2614057051046
 20
1545.6880630733042
 30
0.0
 10
1236.366774648781
 20
1524.482650999279
 30
0.0
 10
1212.3688889611185
 20
1506.155925673382
 30
0.0
 10
1195.7270369599428
 20
1491.6289608133861
 30
0.0
 10
1185.8152766190053
 20
1481.762669683747
 30
0.0
 10
1181.9281014599326
 20
1477.3506981454432
 30
0.0
 10
1162.6957095369003
 20
1452.4055097174087
 30
0.0
 10
1134.32391522313
 20
1423.319609318101
 30
0.0
 10
1107.6439466011316
 20
1403.949942840262
 30
0.0
 10
1083.7901251051132
 20
1393.9172647271162
 30
0.0
 10
1063.852257312223
 20
1392.7366207403647
 30
0.0
 10
1048.866739134935
 20
1399.8216850221481
 30
0.0
 10
1019.335850918772
 20
1422.4815325293923
 30
0.0
 10
924.1186311167938
 20
1486.1036447631182
 30
0.0
 10
891.882680131701
 20
1504.7150797419786
 30
0.0
 10
879.6022247233732
 20
1515.8485565521748
 30
0.0
 10
873.0631058568156
 20
1534.7205574212126
 30
0.0
 10
873.2036295336444
 20
1560.5979545709838
 30
0.0
 10
880.8888860283461
 20
1592.6594819351897
 30
0.0
 10
896.9033384127912
 20
1630.0022942244561
 30
0.0
 10
912.5897698577851
 20
1657.3168179140791
 30
0.0
 10
915.1783423521227
 20
1662.596487792454
 30
0.0
 10
920.5005403209935
 20
1675.5294264569025
 30
0.0
 10
927.5531447799459
 20
1696.4637216783365
 30
0.0
 10
935.3012379420384
 20
1725.648211240438
 30
0.0
 10
942.6869372477989
 20
1763.229967947787
 30
0.0
 10
948.6383133284927
 20
1809.2525049214694
 30
0.0
 10
952.0784348878523
 20
1863.654713687843
 30
0.0
 10
951.9344827708527
 20
1926.2705438663954
 30
0.0
 10
947.1468748136602
 20
1996.82942746647
 30
0.0
 10
942.1551050149671
 20
2034.0836579099077
 30
0.0
 10
860.6012133909147
 20
2077.675121163088
 30
0.0
 10
772.1100843232275
 20
2104.5186116944406
 30
0.0
 10
742.2376510740064
 20
2081.7056069947766
 30
0.0
 10
688.9596359552467
 20
2035.1982919804036
 30
0.0
 10
644.5817683083633
 20
1991.0240033697132
 30
0.0
 10
608.5461308444644
 20
1950.1232993382293
 30
0.0
 10
580.2115412622998
 20
1913.3721929918436
 30
0.0
 10
558.8597043095679
 20
1881.575399911532
 30
0.0
 10
543.7018830509173
 20
1855.46012022052
 30
0.0
 10
533.8860453784192
 20
1835.6703936721372
 30
0.0
 10
528.5044390224737
 20
1822.7620627676158
 30
0.0
 10
526.6015458654952
 20
1817.1983750332763
 30
0.0
 10
518.3792429352045
 20
1786.7921082562812
 30
0.0
 10
503.2978150663281
 20
1749.0628245623489
 30
0.0
 10
486.0611885799269
 20
1720.9576041842445
 30
0.0
 10
467.8624708237306
 20
1702.5601559341144
 30
0.0
 10
449.8940957412145
 20
1693.8394914385476
 30
0.0
 10
433.3379454952622
 20
1694.65052778316
 30
0.0
 10
397.3834140745288
 20
1704.2845154415788
 30
0.0
 10
285.0670452729337
 20
1726.625630255372
 30
0.0
 10
248.16262212781942
 20
1731.4841897344775
 30
0.0
 10
232.55636360626465
 20
1737.0706542584417
 30
0.0
 10
219.2930034566334
 20
1752.003697146383
 30
0.0
 10
209.51997924353975
 20
1775.9650708107001
 30
0.0
 10
204.3508150824925
 20
1808.527080057539
 30
0.0
 10
204.855764283836
 20
1849.15580562393
 30
0.0
 10
208.89532155504497
 20
1880.3940724279973
 30
0.0
 10
209.2664085101741
 20
1886.2624551741033
 30
0.0
 10
209.23425692290868
 20
1900.247649487865
 30
0.0
 10
207.73880588395014
 20
1922.287331251962
 30
0.0
 10
203.7286899349498
 20
1952.215350710731
 30
0.0
 10
196.17027070574687
 20
1989.762751289214
 30
0.0
 10
184.056562841739
 20
2034.5595242592988
 30
0.0
 10
166.41599676082402
 20
2086.1370889880463
 30
0.0
 10
142.32096153314842
 20
2143.931484810984
 30
0.0
 10
110.89607277188486
 20
2207.287254960062
 30
0.0
 10
92.02770204764944
 20
2239.795408366073
 30
0.0
 10
-2.4016082262130925e-14
 20
2248.859345888481
 30
0.0
 10
-92.02770204764855
 20
2239.7954083660734
 30
0.0
 10
-110.89607277188523
 20
2207.287254960061
 30
0.0
 10
-142.32096153314947
 20
2143.9314848109807
 30
0.0
 10
-166.41599676077465
 20
2086.1370889881646
 30
0.0
 10
-184.0565628497509
 20
2034.559524236026
 30
0.0
 10
-196.170270706971
 20
1989.7627512894958
 30
0.0
 10
-203.72868993494205
 20
1952.2153507107282
 30
0.0
 10
-207.73880588394286
 20
1922.2873312519573
 30
0.0
 10
-209.2342569229155
 20
1900.2476494878613
 30
0.0
 10
-209.26640851055964
 20
1886.26245517436
 30
0.0
 10
-208.89532143206327
 20
1880.3940722665832
 30
0.0
 10
-204.8557642838373
 20
1849.15580562393
 30
0.0
 10
-204.35081502826728
 20
1808.5270800609662
 30
0.0
 10
-209.519979246925
 20
1775.9650708107054
 30
0.0
 10
-219.29300345670566
 20
1752.00369714639
 30
0.0
 10
-232.55636360626022
 20
1737.0706542584373
 30
0.0
 10
-248.16262212780634
 20
1731.4841897344743
 30
0.0
 10
-285.0670452729425
 20
1726.625630255389
 30
0.0
 10
-397.38341407453044
 20
1704.2845154415595
 30
0.0
 10
-433.3379454952513
 20
1694.650527783168
 30
0.0
 10
-449.894095741212
 20
1693.8394914385533
 30
0.0
 10
-467.86247082379464
 20
1702.5601559340803
 30
0.0
 10
-486.06118858305246
 20
1720.9576041829441
 30
0.0
 10
-503.297815014919
 20
1749.0628245799337
 30
0.0
 10
-518.3792429352055
 20
1786.7921082562805
 30
0.0
 10
-526.6015458136454
 20
1817.1983752294666
 30
0.0
 10
-528.5044390227316
 20
1822.7620627672309
 30
0.0
 10
-533.886045378427
 20
1835.6703936721378
 30
0.0
 10
-543.7018830509124
 20
1855.4601202205267
 30
0.0
 10
-558.8597043095617
 20
1881.5753999115375
 30
0.0
 10
-580.2115412633228
 20
1913.3721929911148
 30
0.0
 10
-608.5461308607725
 20
1950.1232993566643
 30
0.0
 10
-644.5817683082724
 20
1991.0240033696227
 30
0.0
 10
-688.9596359552487
 20
2035.1982919804057
 30
0.0
 10
-742.237651074007
 20
2081.705606994777
 30
0.0
 10
-772.1100843232264
 20
2104.5186116944406
 30
0.0
 10
-860.6012133909145
 20
2077.675121163088
 30
0.0
 10
-942.1551050149662
 20
2034.0836579099087
 30
0.0
 10
-947.1468748136601
 20
1996.829427466469
 30
0.0
 10
-951.9344827708525
 20
1926.2705438663927
 30
0.0
 10
-952.078434887852
 20
1863.6547136879715
 30
0.0
 10
-948.6383133269886
 20
1809.2525048969023
 30
0.0
 10
-942.6869372490377
 20
1763.2299679475786
 30
0.0
 10
-935.3012379420301
 20
1725.6482112404387
 30
0.0
 10
-927.5531447799375
 20
1696.4637216783353
 30
0.0
 10
-920.5005403209983
 20
1675.5294264568965
 30
0.0
 10
-915.178342352577
 20
1662.596487792544
 30
0.0
 10
-912.5897696823941
 20
1657.316817812015
 30
0.0
 10
-896.9033384127922
 20
1630.002294224456
 30
0.0
 10
-880.8888859795601
 20
1592.6594819591073
 30
0.0
 10
-873.203629536774
 20
1560.5979545696932
 30
0.0
 10
-873.0631058568849
 20
1534.7205574211912
 30
0.0
 10
-879.6022247233673
 20
1515.8485565521726
 30
0.0
 10
-891.8826801316877
 20
1504.7150797419806
 30
0.0
 10
-924.1186311168085
 20
1486.1036447631307
 30
0.0
 10
-1019.3358509187661
 20
1422.4815325293741
 30
0.0
 10
-1048.8667391349277
 20
1399.8216850221595
 30
0.0
 10
-1063.8522573122225
 20
1392.736620740371
 30
0.0
 10
-1083.7901251051592
 20
1393.9172647270602
 30
0.0
 10
-1107.6439466035215
 20
1403.9499428378647
 30
0.0
 10
-1134.3239151823632
 20
1423.3196093540207
 30
0.0
 10
-1162.6957095369007
 20
1452.4055097174078
 30
0.0
 10
-1181.928101487108
 20
1477.3506983465415
 30
0.0
 10
-1185.815276619096
 20
1481.7626696832929
 30
0.0
 10
-1195.7270369599496
 20
1491.628960813384
 30
0.0
 10
-1212.3688889611165
 20
1506.1559256733908
 30
0.0
 10
-1236.3667746487772
 20
1524.4826509992865
 30
0.0
 10
-1268.2614057057706
 20
1545.6880630722394
 30
0.0
 10
-1308.5031926241445
 20
1568.7984800387078
 30
0.0
 10
-1357.4478023007146
 20
1592.795561915709
 30
0.0
 10
-1415.352374304111
 20
1616.6246083142696
 30
0.0
 10
-1482.3724209449429
 20
1639.2031510728564
 30
0.0
 10
-1518.7011095512344
 20
1648.8479339010507
 30
0.0
 10
-1590.183693412489
 20
1590.183693412488
 30
0.0
 10
-1648.847933901051
 20
1518.701109551235
 30
0.0
 10
-1639.2031510728564
 20
1482.372420944942
 30
0.0
 10
-1616.6246083142685
 20
1415.352374304108
 30
0.0
 10
-1592.795561915758
 20
1357.4478023008326
 30
0.0
 10
-1568.798480027917
 20
1308.5031926020226
 30
0.0
 10
-1545.6880630733046
 20
1268.2614057051037
 30
0.0
 10
-1524.4826509992795
 20
1236.3667746487804
 30
0.0
 10
-1506.1559256733824
 20
1212.368888961118
 30
0.0
 10
-1491.6289608133866
 20
1195.727036959942
 30
0.0
 10
-1481.7626696837474
 20
1185.8152766190046
 30
0.0
 10
-1477.3506981454436
 20
1181.928101459932
 30
0.0
 10
-1452.405509717409
 20
1162.6957095368998
 30
0.0
 10
-1423.3196093181011
 20
1134.3239152231292
 30
0.0
 10
-1403.9499428402626
 20
1107.6439466011311
 30
0.0
 10
-1393.9172647271166
 20
1083.7901251051126
 30
0.0
 10
-1392.736620740365
 20
1063.8522573122223
 30
0.0
 10
-1399.8216850221484
 20
1048.8667391349345
 30
0.0
 10
-1422.4815325293926
 20
1019.3358509187714
 30
0.0
 10
-1486.1036447631184
 20
924.1186311167934
 30
0.0
 10
-1504.7150797419786
 20
891.8826801317005
 30
0.0
 10
-1515.848556552175
 20
879.6022247233726
 30
0.0
 10
-1534.7205574212128
 20
873.0631058568149
 30
0.0
 10
-1560.597954570984
 20
873.2036295336438
 30
0.0
 10
-1592.65948193519
 20
880.8888860283454
 30
0.0
 10
-1630.0022942244564
 20
896.9033384127905
 30
0.0
 10
-1657.3168179140794
 20
912.5897698577844
 30
0.0
 10
-1662.5964877924541
 20
915.1783423521221
 30
0.0
 10
-1675.5294264569027
 20
920.5005403209929
 30
0.0
 10
-1696.463721678337
 20
927.5531447799452
 30
0.0
 10
-1725.6482112404383
 20
935.3012379420376
 30
0.0
 10
-1763.2299679477871
 20
942.686937247798
 30
0.0
 10
-1809.2525049214696
 20
948.6383133284919
 30
0.0
 10
-1863.6547136878435
 20
952.0784348878515
 30
0.0
 10
-1926.2705438663957
 20
951.9344827708518
 30
0.0
 10
-1996.8294274664702
 20
947.1468748136593
 30
0.0
 10
-2034.083657909908
 20
942.1551050149662
 30
0.0
 10
-2077.675121163088
 20
860.6012133909148
 30
0.0
 10
-2104.5186116944406
 20
772.1100843232276
 30
0.0
 10
-2081.7056069947766
 20
742.2376510740065
 30
0.0
 10
-2035.1982919804036
 20
688.9596359552468
 30
0.0
 10
-1991.0240033697132
 20
644.5817683083634
 30
0.0
 10
-1950.1232993382293
 20
608.5461308444645
 30
0.0
 10
-1913.3721929918436
 20
580.2115412622999
 30
0.0
 10
-1881.575399911532
 20
558.859704309568
 30
0.0
 10
-1855.46012022052
 20
543.7018830509174
 30
0.0
 10
-1835.6703936721372
 20
533.8860453784193
 30
0.0
 10
-1822.7620627676158
 20
528.5044390224738
 30
0.0
 10
-1817.1983750332763
 20
526.6015458654953
 30
0.0
 10
-1786.7921082562812
 20
518.3792429352046
 30
0.0
 10
-1749.0628245623489
 20
503.2978150663282
 30
0.0
 10
-1720.9576041842445
 20
486.06118857992703
 30
0.0
 10
-1702.5601559341144
 20
467.8624708237307
 30
0.0
 10
-1693.8394914385476
 20
449.89409574121464
 30
0.0
 10
-1694.65052778316
 20
433.3379454952623
 30
0.0
 10
-1704.2845154415788
 20
397.3834140745289
 30
0.0
 10
-1726.625630255372
 20
285.0670452729338
 30
0.0
 10
-1731.4841897344775
 20
248.1626221278195
 30
0.0
 10
-1737.0706542584417
 20
232.55636360626474
 30
0.0
 10
-1752.003697146383
 20
219.2930034566335
 30
0.0
 10
-1775.9650708107001
 20
209.51997924353986
 30
0.0
 10
-1808.527080057539
 20
204.3508150824926
 30
0.0
 10
-1849.15580562393
 20
204.85576428383612
 30
0.0
 10
-1880.3940724279973
 20
208.8953215550451
 30
0.0
 10
-1886.2624551741033
 20
209.26640851017422
 30
0.0
 10
-1900.247649487865
 20
209.2342569229088
 30
0.0
 10
-1922.287331251962
 20
207.73880588395025
 30
0.0
 10
-1952.215350710731
 20
203.72868993494993
 30
0.0
 10
-1989.762751289214
 20
196.17027070574701
 30
0.0
 10
-2034.5595242592988
 20
184.05656284173915
 30
0.0
 10
-2086.1370889880463
 20
166.41599676082416
 30
0.0
 10
-2143.931484810984
 20
142.32096153314853
 30
0.0
 10
-2207.287254960062
 20
110.89607277188499
 30
0.0
 10
-2239.795408366073
 20
92.02770204764957
 30
0.0
 10
-2248.859345888481
 20
2.0335759318110113e-13
 30
0.0
 10
-2239.795408366074
 20
-92.02770204764832
 30
0.0
 10
-2207.2872549600615
 20
-110.896072771885
 30
0.0
 10
-2143.931484810981
 20
-142.32096153314924
 30
0.0
 10
-2086.137088988165
 20
-166.41599676077465
 30
0.0
 10
-2034.5595242360262
 20
-184.05656284975066
 30
0.0
 10
-1989.762751289496
 20
-196.17027070697088
 30
0.0
 10
-1952.2153507107284
 20
-203.72868993494183
 30
0.0
 10
-1922.2873312519575
 20
-207.7388058839427
 30
0.0
 10
-1900.2476494878615
 20
-209.23425692291534
 30
0.0
 10
-1886.2624551743602
 20
-209.26640851055947
 30
0.0
 10
-1880.3940722665834
 20
-208.8953214320631
 30
0.0
 10
-1849.1558056239303
 20
-204.85576428383712
 30
0.0
 10
-1808.5270800609662
 20
-204.3508150282671
 30
0.0
 10
-1775.9650708107056
 20
-209.51997924692483
 30
0.0
 10
-1752.00369714639
 20
-219.2930034567055
 30
0.0
 10
-1737.0706542584373
 20
-232.55636360626005
 30
0.0
 10
-1731.4841897344745
 20
-248.16262212780617
 30
0.0
 10
-1726.6256302553893
 20
-285.0670452729423
 30
0.0
 10
-1704.2845154415597
 20
-397.38341407453026
 30
0.0
 10
-1694.650527783168
 20
-433.3379454952511
 30
0.0
 10
-1693.8394914385535
 20
-449.8940957412119
 30
0.0
 10
-1702.5601559340805
 20
-467.8624708237945
 30
0.0
 10
-1720.9576041829444
 20
-486.0611885830523
 30
0.0
 10
-1749.062824579934
 20
-503.2978150149189
 30
0.0
 10
-1786.7921082562807
 20
-518.3792429352055
 30
0.0
 10
-1817.1983752294668
 20
-526.6015458136453
 30
0.0
 10
-1822.762062767231
 20
-528.5044390227314
 30
0.0
 10
-1835.670393672138
 20
-533.8860453784267
 30
0.0
 10
-1855.460120220527
 20
-543.7018830509122
 30
0.0
 10
-1881.5753999115377
 20
-558.8597043095616
 30
0.0
 10
-1913.372192991115
 20
-580.2115412633228
 30
0.0
 10
-1950.1232993566646
 20
-608.5461308607723
 30
0.0
 10
-1991.024003369623
 20
-644.5817683082723
 30
0.0
 10
-2035.1982919804059
 20
-688.9596359552486
 30
0.0
 10
-2081.7056069947776
 20
-742.2376510740067
 30
0.0
 10
-2104.5186116944406
 20
-772.1100843232261
 30
0.0
 10
-2077.6751211630885
 20
-860.6012133909144
 30
0.0
 10
-2034.0836579099089
 20
-942.1551050149661
 30
0.0
 10
-1996.8294274664695
 20
-947.14687481366
 30
0.0
 10
-1926.270543866393
 20
-951.9344827708524
 30
0.0
 10
-1863.6547136879717
 20
-952.0784348878518
 30
0.0
 10
-1809.2525048969026
 20
-948.6383133269885
 30
0.0
 10
-1763.2299679475789
 20
-942.6869372490374
 30
0.0
 10
-1725.648211240439
 20
-935.3012379420301
 30
0.0
 10
-1696.4637216783356
 20
-927.5531447799375
 30
0.0
 10
-1675.5294264568968
 20
-920.5005403209982
 30
0.0
 10
-1662.596487792544
 20
-915.178342352577
 30
0.0
 10
-1657.3168178120152
 20
-912.5897696823941
 30
0.0
 10
-1630.0022942244561
 20
-896.9033384127921
 30
0.0
 10
-1592.6594819591073
 20
-880.8888859795601
 30
0.0
 10
-1560.5979545696937
 20
-873.203629536774
 30
0.0
 10
-1534.7205574211916
 20
-873.0631058568848
 30
0.0
 10
-1515.8485565521728
 20
-879.6022247233672
 30
0.0
 10
-1504.7150797419808
 20
-891.8826801316876
 30
0.0
 10
-1486.103644763131
 20
-924.1186311168085
 30
0.0
 10
-1422.4815325293744
 20
-1019.3358509187661
 30
0.0
 10
-1399.8216850221597
 20
-1048.8667391349277
 30
0.0
 10
-1392.7366207403713
 20
-1063.8522573122225
 30
0.0
 10
-1393.9172647270605
 20
-1083.7901251051592
 30
0.0
 10
-1403.949942837865
 20
-1107.6439466035215
 30
0.0
 10
-1423.319609354021
 20
-1134.3239151823632
 30
0.0
 10
-1452.405509717408
 20
-1162.6957095369007
 30
0.0
 10
-1477.3506983465418
 20
-1181.928101487108
 30
0.0
 10
-1481.762669683293
 20
-1185.815276619096
 30
0.0
 10
-1491.6289608133843
 20
-1195.7270369599496
 30
0.0
 10
-1506.155925673391
 20
-1212.3688889611165
 30
0.0
 10
-1524.4826509992868
 20
-1236.3667746487772
 30
0.0
 10
-1545.6880630722396
 20
-1268.2614057057706
 30
0.0
 10
-1568.798480038708
 20
-1308.5031926241445
 30
0.0
 10
-1592.7955619157092
 20
-1357.4478023007143
 30
0.0
 10
-1616.6246083142698
 20
-1415.352374304111
 30
0.0
 10
-1639.2031510728566
 20
-1482.3724209449429
 30
0.0
 10
-1648.847933901051
 20
-1518.7011095512344
 30
0.0
 10
-1590.1836934124883
 20
-1590.183693412489
 30
0.0
 10
-1518.7011095512353
 20
-1648.8479339010507
 30
0.0
 10
-1482.372420944942
 20
-1639.2031510728564
 30
0.0
 10
-1415.3523743041083
 20
-1616.6246083142682
 30
0.0
 10
-1357.4478023008328
 20
-1592.795561915758
 30
0.0
 10
-1308.5031926020229
 20
-1568.798480027917
 30
0.0
 10
-1268.2614057051037
 20
-1545.6880630733046
 30
0.0
 10
-1236.3667746487806
 20
-1524.4826509992795
 30
0.0
 10
-1212.368888961118
 20
-1506.1559256733824
 30
0.0
 10
-1195.727036959942
 20
-1491.6289608133866
 30
0.0
 10
-1185.8152766190046
 20
-1481.7626696837474
 30
0.0
 10
-1181.928101459932
 20
-1477.3506981454436
 30
0.0
 10
-1162.6957095368998
 20
-1452.405509717409
 30
0.0
 10
-1134.3239152231295
 20
-1423.3196093181011
 30
0.0
 10
-1107.6439466011311
 20
-1403.9499428402626
 30
0.0
 10
-1083.7901251051126
 20
-1393.9172647271166
 30
0.0
 10
-1063.8522573122225
 20
-1392.736620740365
 30
0.0
 10
-1048.8667391349345
 20
-1399.8216850221484
 30
0.0
 10
-1019.3358509187715
 20
-1422.4815325293926
 30
0.0
 10
-924.1186311167934
 20
-1486.1036447631184
 30
0.0
 10
-891.8826801317006
 20
-1504.7150797419786
 30
0.0
 10
-879.6022247233726
 20
-1515.848556552175
 30
0.0
 10
-873.063105856815
 20
-1534.7205574212128
 30
0.0
 10
-873.203629533644
 20
-1560.597954570984
 30
0.0
 10
-880.8888860283455
 20
-1592.65948193519
 30
0.0
 10
-896.9033384127905
 20
-1630.0022942244564
 30
0.0
 10
-912.5897698577845
 20
-1657.3168179140794
 30
0.0
 10
-915.1783423521221
 20
-1662.5964877924541
 30
0.0
 10
-920.5005403209929
 20
-1675.5294264569027
 30
0.0
 10
-927.5531447799453
 20
-1696.463721678337
 30
0.0
 10
-935.3012379420377
 20
-1725.6482112404383
 30
0.0
 10
-942.6869372477983
 20
-1763.2299679477871
 30
0.0
 10
-948.638313328492
 20
-1809.2525049214696
 30
0.0
 10
-952.0784348878516
 20
-1863.6547136878432
 30
0.0
 10
-951.9344827708519
 20
-1926.2705438663957
 30
0.0
 10
-947.1468748136595
 20
-1996.8294274664702
 30
0.0
 10
-942.1551050149664
 20
-2034.083657909908
 30
0.0
 10
-860.601213390915
 20
-2077.675121163088
 30
0.0
 10
-772.1100843232277
 20
-2104.5186116944406
 30
0.0
 10
-742.2376510740066
 20
-2081.7056069947766
 30
0.0
 10
-688.9596359552469
 20
-2035.1982919804034
 30
0.0
 10
-644.5817683083635
 20
-1991.024003369713
 30
0.0
 10
-608.5461308444646
 20
-1950.1232993382293
 30
0.0
 10
-580.2115412623
 20
-1913.3721929918436
 30
0.0
 10
-558.8597043095681
 20
-1881.575399911532
 30
0.0
 10
-543.7018830509176
 20
-1855.46012022052
 30
0.0
 10
-533.8860453784195
 20
-1835.6703936721372
 30
0.0
 10
-528.5044390224739
 20
-1822.7620627676158
 30
0.0
 10
-526.6015458654954
 20
-1817.1983750332763
 30
0.0
 10
-518.3792429352047
 20
-1786.7921082562812
 30
0.0
 10
-503.2978150663283
 20
-1749.0628245623489
 30
0.0
 10
-486.06118857992715
 20
-1720.9576041842445
 30
0.0
 10
-467.8624708237308
 20
-1702.5601559341144
 30
0.0
 10
-449.8940957412147
 20
-1693.8394914385476
 30
0.0
 10
-433.3379454952624
 20
-1694.65052778316
 30
0.0
 10
-397.383414074529
 20
-1704.2845154415788
 30
0.0
 10
-285.0670452729339
 20
-1726.625630255372
 30
0.0
 10
-248.16262212781962
 20
-1731.4841897344775
 30
0.0
 10
-232.55636360626485
 20
-1737.0706542584417
 30
0.0
 10
-219.29300345663358
 20
-1752.003697146383
 30
0.0
 10
-209.51997924353995
 20
-1775.9650708107001
 30
0.0
 10
-204.35081508249272
 20
-1808.527080057539
 30
0.0
 10
-204.85576428383624
 20
-1849.15580562393
 30
0.0
 10
-208.8953215550452
 20
-1880.3940724279973
 30
0.0
 10
-209.26640851017433
 20
-1886.2624551741033
 30
0.0
 10
-209.2342569229089
 20
-1900.247649487865
 30
0.0
 10
-207.73880588395036
 20
-1922.287331251962
 30
0.0
 10
-203.72868993495007
 20
-1952.215350710731
 30
0.0
 10
-196.17027070574713
 20
-1989.762751289214
 30
0.0
 10
-184.05656284173926
 20
-2034.5595242592988
 30
0.0
 10
-166.41599676082427
 20
-2086.1370889880463
 30
0.0
 10
-142.32096153314868
 20
-2143.931484810984
 30
0.0
 10
-110.89607277188513
 20
-2207.287254960062
 30
0.0
 10
-92.02770204764971
 20
-2239.795408366073
 30
0.0
 10
7.061371085918271e-13
 20
-2248.859345888481
 30
0.0
 10
92.02770204764923
 20
-2239.7954083660734
 30
0.0
 10
110.89607277188591
 20
-2207.287254960061
 30
0.0
 10
142.32096153315015
 20
-2143.9314848109807
 30
0.0
 10
166.41599676077533
 20
-2086.1370889881646
 30
0.0
 10
184.05656284975146
 20
-2034.559524236026
 30
0.0
 10
196.17027070697168
 20
-1989.7627512894956
 30
0.0
 10
203.72868993494262
 20
-1952.2153507107282
 30
0.0
 10
207.73880588394348
 20
-1922.2873312519573
 30
0.0
 10
209.23425692291602
 20
-1900.2476494878613
 30
0.0
 10
209.26640851056015
 20
-1886.26245517436
 30
0.0
 10
208.89532143206378
 20
-1880.394072266583
 30
0.0
 10
204.8557642838378
 20
-1849.1558056239303
 30
0.0
 10
204.3508150282679
 20
-1808.5270800609662
 30
0.0
 10
209.51997924692552
 20
-1775.9650708107054
 30
0.0
 10
219.29300345670612
 20
-1752.0036971463899
 30
0.0
 10
232.55636360626073
 20
-1737.0706542584373
 30
0.0
 10
248.16262212780686
 20
-1731.4841897344743
 30
0.0
 10
285.067045272943
 20
-1726.6256302553888
 30
0.0
 10
397.38341407453095
 20
-1704.2845154415595
 30
0.0
 10
433.3379454952518
 20
-1694.6505277831677
 30
0.0
 10
449.89409574121254
 20
-1693.839491438553
 30
0.0
 10
467.86247082379515
 20
-1702.5601559340803
 30
0.0
 10
486.06118858305297
 20
-1720.957604182944
 30
0.0
 10
503.2978150149195
 20
-1749.0628245799335
 30
0.0
 10
518.3792429352062
 20
-1786.7921082562802
 30
0.0
 10
526.6015458136459
 20
-1817.1983752294664
 30
0.0
 10
528.5044390227321
 20
-1822.7620627672306
 30
0.0
 10
533.8860453784274
 20
-1835.6703936721376
 30
0.0
 10
543.701883050913
 20
-1855.4601202205267
 30
0.0
 10
558.8597043095623
 20
-1881.5753999115373
 30
0.0
 10
580.2115412633235
 20
-1913.3721929911148
 30
0.0
 10
608.546130860773
 20
-1950.1232993566641
 30
0.0
 10
644.581768308273
 20
-1991.0240033696225
 30
0.0
 10
688.9596359552493
 20
-2035.1982919804054
 30
0.0
 10
742.2376510740075
 20
-2081.705606994777
 30
0.0
 10
772.1100843232269
 20
-2104.51861169444
 30
0.0
 10
860.6012133909161
 20
-2077.6751211630876
 30
0.0
 10
942.1551050149681
 20
-2034.083657909908
 30
0.0
 10
947.1468748136616
 20
-1996.8294274664684
 30
0.0
 10
951.9344827708541
 20
-1926.270543866392
 30
0.0
 10
952.0784348878534
 20
-1863.6547136879708
 30
0.0
 10
948.63831332699
 20
-1809.2525048969014
 30
0.0
 10
942.686937249039
 20
-1763.2299679475777
 30
0.0
 10
935.3012379420314
 20
-1725.6482112404378
 30
0.0
 10
927.5531447799386
 20
-1696.4637216783344
 30
0.0
 10
920.5005403209997
 20
-1675.5294264568959
 30
0.0
 10
915.1783423525785
 20
-1662.5964877925433
 30
0.0
 10
912.5897696823957
 20
-1657.3168178120145
 30
0.0
 10
896.9033384127937
 20
-1630.0022942244555
 30
0.0
 10
880.8888859795612
 20
-1592.6594819591064
 30
0.0
 10
873.2036295367752
 20
-1560.5979545696928
 30
0.0
 10
873.0631058568861
 20
-1534.7205574211907
 30
0.0
 10
879.6022247233686
 20
-1515.8485565521719
 30
0.0
 10
891.8826801316889
 20
-1504.71507974198
 30
0.0
 10
924.1186311168099
 20
-1486.10364476313
 30
0.0
 10
1019.3358509187672
 20
-1422.4815325293735
 30
0.0
 10
1048.8667391349288
 20
-1399.8216850221588
 30
0.0
 10
1063.8522573122239
 20
-1392.7366207403702
 30
0.0
 10
1083.7901251051603
 20
-1393.9172647270595
 30
0.0
 10
1107.6439466035224
 20
-1403.949942837864
 30
0.0
 10
1134.323915182364
 20
-1423.3196093540198
 30
0.0
 10
1162.6957095369019
 20
-1452.4055097174069
 30
0.0
 10
1181.9281014871092
 20
-1477.3506983465409
 30
0.0
 10
1185.8152766190972
 20
-1481.7626696832922
 30
0.0
 10
1195.727036959951
 20
-1491.6289608133832
 30
0.0
 10
1212.3688889611176
 20
-1506.1559256733897
 30
0.0
 10
1236.3667746487786
 20
-1524.4826509992856
 30
0.0
 10
1268.2614057057717
 20
-1545.6880630722385
 30
0.0
 10
1308.5031926241456
 20
-1568.7984800387069
 30
0.0
 10
1357.4478023007157
 20
-1592.795561915708
 30
0.0
 10
1415.3523743041126
 20
-1616.6246083142682
 30
0.0
 10
1482.3724209449442
 20
-1639.2031510728552
 30
0.0
 10
1518.7011095512357
 20
-1648.8479339010496
 30
0.0
 10
1590.183693412489
 20
-1590.1836934124885
 30
0.0
 10
1648.8479339010507
 20
-1518.7011095512353
 30
0.0
 10
1639.2031510728564
 20
-1482.372420944942
 30
0.0
 10
1616.6246083142682
 20
-1415.3523743041083
 30
0.0
 10
1592.795561915758
 20
-1357.4478023008328
 30
0.0
 10
1568.798480027917
 20
-1308.5031926020229
 30
0.0
 10
1545.6880630733046
 20
-1268.261405705104
 30
0.0
 10
1524.4826509992795
 20
-1236.3667746487806
 30
0.0
 10
1506.1559256733824
 20
-1212.368888961118
 30
0.0
 10
1491.6289608133866
 20
-1195.7270369599423
 30
0.0
 10
1481.7626696837474
 20
-1185.8152766190049
 30
0.0
 10
1477.3506981454436
 20
-1181.9281014599321
 30
0.0
 10
1452.405509717409
 20
-1162.6957095368998
 30
0.0
 10
1423.3196093181011
 20
-1134.3239152231295
 30
0.0
 10
1403.9499428402623
 20
-1107.6439466011311
 30
0.0
 10
1393.9172647271166
 20
-1083.7901251051128
 30
0.0
 10
1392.736620740365
 20
-1063.8522573122225
 30
0.0
 10
1399.8216850221484
 20
-1048.8667391349345
 30
0.0
 10
1422.4815325293926
 20
-1019.3358509187716
 30
0.0
 10
1486.1036447631184
 20
-924.1186311167935
 30
0.0
 10
1504.7150797419786
 20
-891.8826801317007
 30
0.0
 10
1515.848556552175
 20
-879.6022247233727
 30
0.0
 10
1534.7205574212128
 20
-873.0631058568151
 30
0.0
 10
1560.597954570984
 20
-873.203629533644
 30
0.0
 10
1592.65948193519
 20
-880.8888860283456
 30
0.0
 10
1630.0022942244564
 20
-896.9033384127905
 30
0.0
 10
1657.3168179140794
 20
-912.5897698577846
 30
0.0
 10
1662.5964877924541
 20
-915.1783423521223
 30
0.0
 10
1675.5294264569027
 20
-920.5005403209931
 30
0.0
 10
1696.463721678337
 20
-927.5531447799455
 30
0.0
 10
1725.6482112404383
 20
-935.3012379420378
 30
0.0
 10
1763.2299679477871
 20
-942.6869372477983
 30
0.0
 10
1809.2525049214696
 20
-948.6383133284921
 30
0.0
 10
1863.6547136878432
 20
-952.0784348878517
 30
0.0
 10
1926.2705438663957
 20
-951.934482770852
 30
0.0
 10
1996.8294274664702
 20
-947.1468748136596
 30
0.0
 10
2034.083657909908
 20
-942.1551050149665
 30
0.0
  0
ENDSEC
  0
EOF
