999
DXF generated by OpenJsCad
  0
SECTION
  2
HEADER
  0
ENDSEC
  0
SECTION
  2
TABLES
  0
TABLE
  2
LTYPE
  70
1
  0
LTYPE
  2
CONTINUOUS
  3
Solid Line
  72
65
  73
0
  40
0.0
  0
ENDTAB
  0
TABLE
  2
LAYER
  70
1
  0
LAYER
  2
OpenJsCad
  62
7
  6
continuous
  0
ENDTAB
  0
TABLE
  2
STYLE
  70
0
  0
ENDTAB
  0
TABLE
  2
VIEW
  70
0
  0
ENDTAB
  0
ENDSEC
  0
SECTION
  2
BLOCKS
  0
ENDSEC
  0
SECTION
  2
ENTITIES
  0
LWPOLYLINE
  8
OpenJsCad
  90
1051
  70
1
 10
3884.882334642729
 20
-927.2304877562667
 30
0.0
 10
3910.606886344202
 20
-831.2251538044338
 30
0.0
 10
3926.1552262363675
 20
-733.0567992595913
 30
0.0
 10
3870.1454370056244
 20
-691.0313948415519
 30
0.0
 10
3814.151557632326
 20
-652.5741632990974
 30
0.0
 10
3761.869427735456
 20
-619.8008830469014
 30
0.0
 10
3713.667602647219
 20
-592.3274243017495
 30
0.0
 10
3669.8887432788806
 20
-569.7491543373337
 30
0.0
 10
3630.848562188458
 20
-551.6424417677716
 30
0.0
 10
3596.8348505829135
 20
-537.5662124231405
 30
0.0
 10
3568.106588712414
 20
-527.0635526669844
 30
0.0
 10
3544.8931418364577
 20
-519.6633558692384
 30
0.0
 10
3537.6622972303717
 20
-517.6876998737488
 30
0.0
 10
3509.5926955611944
 20
-508.4099538699093
 30
0.0
 10
3488.51214722462
 20
-497.9649131044562
 30
0.0
 10
3474.4576346648296
 20
-486.92164361520156
 30
0.0
 10
3467.430751596692
 20
-475.84977783829663
 30
0.0
 10
3467.397740667473
 20
-465.3175499444599
 30
0.0
 10
3471.3528143485473
 20
-438.53384340378705
 30
0.0
 10
3486.671739518054
 20
-292.784006290132
 30
0.0
 10
3488.3717393998622
 20
-265.7632819424375
 30
0.0
 10
3490.5938022705263
 20
-255.46807185570603
 30
0.0
 10
3499.7691014184666
 20
-246.099124050353
 30
0.0
 10
3515.812513989924
 20
-238.21927396478702
 30
0.0
 10
3538.6040478537975
 20
-232.38537484933616
 30
0.0
 10
3567.9892132386385
 20
-229.14636819849
 30
0.0
 10
3575.4728085286124
 20
-228.71726215422223
 30
0.0
 10
3599.717573308402
 20
-226.30512440261168
 30
0.0
 10
3630.0016794847847
 20
-222.004914459697
 30
0.0
 10
3666.1987225272023
 20
-215.3081327897346
 30
0.0
 10
3708.1503792185144
 20
-205.7140053929793
 30
0.0
 10
3755.666851743422
 20
-192.73126142475107
 30
0.0
 10
3808.527405284799
 20
-175.87988641270368
 30
0.0
 10
3866.480992607949
 20
-154.69284725094093
 30
0.0
 10
3929.2469794076096
 20
-128.71778062247125
 30
0.0
 10
3992.7703932511117
 20
-99.25582210241241
 30
0.0
 10
3997.9721704684116
 20
6.995525419686809e-13
 30
0.0
 10
3992.7703932511113
 20
99.2558221024134
 30
0.0
 10
3929.246979407599
 20
128.7177806224763
 30
0.0
 10
3866.4809926086677
 20
154.6928472506445
 30
0.0
 10
3808.5274045779124
 20
175.8798866710947
 30
0.0
 10
3755.6668517565467
 20
192.73126147192704
 30
0.0
 10
3708.150379218502
 20
205.71400539299623
 30
0.0
 10
3666.198722527203
 20
215.3081327897488
 30
0.0
 10
3630.001679484807
 20
222.00491445968214
 30
0.0
 10
3599.7175733149397
 20
226.3051244017388
 30
0.0
 10
3575.472808519858
 20
228.71726215472364
 30
0.0
 10
3567.989213238639
 20
229.14636819849545
 30
0.0
 10
3538.6040478537443
 20
232.3853748487491
 30
0.0
 10
3515.8125139899653
 20
238.2192739650211
 30
0.0
 10
3499.7691014184556
 20
246.09912405026688
 30
0.0
 10
3490.5938022705363
 20
255.46807185571805
 30
0.0
 10
3488.371739399837
 20
265.7632819423467
 30
0.0
 10
3486.6717395184673
 20
292.7840062902051
 30
0.0
 10
3471.352814348128
 20
438.5338434037726
 30
0.0
 10
3467.3977406675167
 20
465.31754994437637
 30
0.0
 10
3467.4307515966802
 20
475.8497778383063
 30
0.0
 10
3474.4576346648587
 20
486.9216436151197
 30
0.0
 10
3488.512147224532
 20
497.9649131046767
 30
0.0
 10
3509.5926955613695
 20
508.40995386934617
 30
0.0
 10
3537.6622972303703
 20
517.687699873754
 30
0.0
 10
3544.893141844917
 20
519.6633558715491
 30
0.0
 10
3568.106588706201
 20
527.0635526647714
 30
0.0
 10
3596.834850582895
 20
537.5662124231213
 30
0.0
 10
3630.8485621884547
 20
551.6424417677855
 30
0.0
 10
3669.8887432788897
 20
569.749154337353
 30
0.0
 10
3713.667602624573
 20
592.3274243451658
 30
0.0
 10
3761.8694283731734
 20
619.8008834466159
 30
0.0
 10
3814.151557631685
 20
652.5741632986582
 30
0.0
 10
3870.145437005634
 20
691.0313948415592
 30
0.0
 10
3926.155226236368
 20
733.0567992595925
 30
0.0
 10
3910.6068863442015
 20
831.2251538044353
 30
0.0
 10
3884.8823346427284
 20
927.2304877562653
 30
0.0
 10
3816.6215741905676
 20
942.8413714168632
 30
0.0
 10
3749.8266547737358
 20
955.1990380768954
 30
0.0
 10
3688.7344584982097
 20
963.8738613762314
 30
0.0
 10
3633.525437755083
 20
969.3666662920798
 30
0.0
 10
3584.3480499065777
 20
972.1864759623346
 30
0.0
 10
3541.3184063181952
 20
972.8487087813085
 30
0.0
 10
3504.520016312584
 20
971.8733612828443
 30
0.0
 10
3474.0036266022366
 20
969.7831816016369
 30
0.0
 10
3449.7871564488632
 20
967.1018383153341
 30
0.0
 10
3442.3778795165754
 20
965.9656404141961
 30
0.0
 10
3412.96142314895
 20
963.0243475777693
 30
0.0
 10
3389.455003153727
 20
963.9921356593253
 30
0.0
 10
3372.1238646847087
 20
968.3641790801212
 30
0.0
 10
3361.201154057742
 20
975.6207409378208
 30
0.0
 10
3356.887154055653
 20
985.2289831345568
 30
0.0
 10
3349.606378764159
 20
1011.3057899757783
 30
0.0
 10
3304.3191137922763
 20
1150.6856598220813
 30
0.0
 10
3294.8818222476375
 20
1176.0617720572866
 30
0.0
 10
3292.724338499291
 20
1186.3707088602137
 30
0.0
 10
3297.2956969789025
 20
1198.661598945334
 30
0.0
 10
3308.7470598869004
 20
1212.385643970702
 30
0.0
 10
3327.195301578688
 20
1226.9853279823078
 30
0.0
 10
3352.7225632460204
 20
1241.8963313203199
 30
0.0
 10
3359.384634578043
 20
1245.3321916242894
 30
0.0
 10
3380.5522245025063
 20
1257.3970233491755
 30
0.0
 10
3406.469079182005
 20
1273.6431162941678
 30
0.0
 10
3436.812896937647
 20
1294.4835945459295
 30
0.0
 10
3471.2353591779793
 20
1320.3115420633724
 30
0.0
 10
3509.3632591167584
 20
1351.4985593688687
 30
0.0
 10
3550.799705989345
 20
1388.3933805647046
 30
0.0
 10
3595.1253972571317
 20
1431.3205515138472
 30
0.0
 10
3641.899967988283
 20
1480.5791824144835
 30
0.0
 10
3687.9482360520788
 20
1533.331320897159
 30
0.0
 10
3652.329316112947
 20
1626.121779726793
 30
0.0
 10
3607.2062762767496
 20
1714.6807317496414
 30
0.0
 10
3537.191491999169
 20
1715.7582700254748
 30
0.0
 10
3469.286898460538
 20
1713.9584473856642
 30
0.0
 10
3407.726116070363
 20
1709.7419231592842
 30
0.0
 10
3352.5815265342244
 20
1703.6360962579242
 30
0.0
 10
3303.8925112035263
 20
1696.169732463826
 30
0.0
 10
3261.665482622011
 20
1687.8711279530864
 30
0.0
 10
3225.874011874697
 20
1679.2662786521444
 30
0.0
 10
3196.459051288095
 20
1670.8770602295365
 30
0.0
 10
3173.3292517256486
 20
1663.2194234720703
 30
0.0
 10
3166.3181140978886
 20
1660.5675789263842
 30
0.0
 10
3138.1560070466167
 20
1651.5745352141178
 30
0.0
 10
3114.962044270059
 20
1647.6339152778316
 30
0.0
 10
3097.1006338186567
 20
1648.3070727572967
 30
0.0
 10
3084.9078865800216
 20
1653.1341020932161
 30
0.0
 10
3078.6904919475023
 20
1661.6354501106007
 30
0.0
 10
3066.1471460631597
 20
1685.6286578558218
 30
0.0
 10
2992.870812081412
 20
1812.5469913037573
 30
0.0
 10
2978.3637575983953
 20
1835.406451360789
 30
0.0
 10
2974.1100715650987
 20
1845.0415470666583
 30
0.0
 10
2976.026115154772
 20
1858.0142905851314
 30
0.0
 10
2984.3738489022785
 20
1873.8193045234273
 30
0.0
 10
2999.3835072626002
 20
1891.9355555336056
 30
0.0
 10
3021.25276510001
 20
1911.8281338084187
 30
0.0
 10
3027.0548986641334
 20
1916.5740348361921
 30
0.0
 10
3045.2515063987116
 20
1932.7762104528788
 30
0.0
 10
3067.2242629686543
 20
1954.055704365414
 30
0.0
 10
3092.572016432665
 20
1980.7496026209612
 30
0.0
 10
3120.872333045692
 20
2013.1699798435247
 30
0.0
 10
3151.682901392279
 20
2051.6027221385407
 30
0.0
 10
3184.542997826388
 20
2096.306424701511
 30
0.0
 10
3218.9750056967814
 20
2147.511363389856
 30
0.0
 10
3254.485994594892
 20
2205.418555108734
 30
0.0
 10
3288.560211213255
 20
2266.5919060715137
 30
0.0
 10
3234.4274289470386
 20
2349.949080877062
 30
0.0
 10
3171.8779943413274
 20
2427.19119981453
 30
0.0
 10
3103.1691682794676
 20
2413.688299112343
 30
0.0
 10
3037.1226571990665
 20
2397.8096480585564
 30
0.0
 10
2977.7837902861015
 20
2380.886058648281
 30
0.0
 10
2925.1137151327794
 20
2363.44845386431
 30
0.0
 10
2879.0410159256567
 20
2346.02223253125
 30
0.0
 10
2839.4621261277857
 20
2329.1254795290392
 30
0.0
 10
2806.241833656957
 20
2313.267201630718
 30
0.0
 10
2779.2138771203768
 20
2298.9455935677142
 30
0.0
 10
2758.1816313788295
 20
2286.646338810803
 30
0.0
 10
2751.875053413101
 20
2282.594745952178
 30
0.0
 10
2726.198114893106
 20
2267.9429905277098
 30
0.0
 10
2704.3302968055295
 20
2259.266186573989
 30
0.0
 10
2686.719243717027
 20
2256.2110379001033
 30
0.0
 10
2673.7893414283444
 20
2258.397570369606
 30
0.0
 10
2665.940282145206
 20
2265.4204745052857
 30
0.0
 10
2648.682570072811
 20
2286.2814648438557
 30
0.0
 10
2550.6196944950634
 20
2395.1913217000147
 30
0.0
 10
2531.676904967147
 20
2414.5350614825215
 30
0.0
 10
2525.512923140005
 20
2423.0752161746673
 30
0.0
 10
2524.6899115406745
 20
2436.1628419846065
 30
0.0
 10
2529.569180106053
 20
2453.3580698858555
 30
0.0
 10
2540.4842610402306
 20
2474.199120794044
 30
0.0
 10
2557.7397235398817
 20
2498.2038728798675
 30
0.0
 10
2562.4283382576273
 20
2504.0523959831717
 30
0.0
 10
2576.8586847273077
 20
2523.683802670545
 30
0.0
 10
2593.927028288603
 20
2549.0666815563045
 30
0.0
 10
2613.1708990025895
 20
2580.4473483703346
 30
0.0
 10
2634.112210352336
 20
2618.0432292431624
 30
0.0
 10
2656.2588774244746
 20
2662.0420012686486
 30
0.0
 10
2679.1064795256993
 20
2712.600818884586
 30
0.0
 10
2702.1399600316586
 20
2769.8456237828955
 30
0.0
 10
2724.8353664812503
 20
2833.8705541723657
 30
0.0
 10
2745.446324881726
 20
2900.7915486358697
 30
0.0
 10
2675.165542631368
 20
2971.072330886226
 30
0.0
 10
2597.9234236939
 20
3033.6217654919383
 30
0.0
 10
2533.523461248192
 20
3006.1285673665225
 30
0.0
 10
2472.2215820865567
 20
2976.8650611440316
 30
0.0
 10
2417.698023874373
 20
2947.9740486154824
 30
0.0
 10
2369.8043981271294
 20
2919.9667729528715
 30
0.0
 10
2328.361613080273
 20
2893.3423035733913
 30
0.0
 10
2293.1606494707976
 20
2868.5858712655217
 30
0.0
 10
2263.963421466079
 20
2846.167247610438
 30
0.0
 10
2240.5037203746933
 20
2826.5391729020917
 30
0.0
 10
2222.488238516863
 20
2810.1358365969863
 30
0.0
 10
2217.161847932587
 20
2804.861569475043
 30
0.0
 10
2195.0922833688137
 20
2785.1914543573453
 30
0.0
 10
2175.5063385540802
 20
2772.1576843548924
 30
0.0
 10
2158.9153303556527
 20
2765.5077541849337
 30
0.0
 10
2145.813371791493
 20
2764.9582278269563
 30
0.0
 10
2136.6756894123737
 20
2770.195753470568
 30
0.0
 10
2115.4578559811807
 20
2787.0128010225544
 30
0.0
 10
1996.8942570280647
 20
2873.1542979348474
 30
0.0
 10
1974.3436232552085
 20
2888.136903192771
 30
0.0
 10
1966.5387412181333
 20
2895.208871130938
 30
0.0
 10
1963.0126439859373
 20
2907.8393871830526
 30
0.0
 10
1964.210199919553
 20
2925.6733150761124
 30
0.0
 10
1970.5536620143937
 20
2948.3283119511657
 30
0.0
 10
1982.4411826641547
 20
2975.396114994268
 30
0.0
 10
1985.8113635738882
 20
2982.091651649161
 30
0.0
 10
1995.8447733934606
 20
3004.294302733042
 30
0.0
 10
2007.2627354294816
 20
3032.6712129841526
 30
0.0
 10
2019.561673900905
 20
3067.367162635746
 30
0.0
 10
2032.2287441938267
 20
3108.495426759643
 30
0.0
 10
2044.7435943689657
 20
3156.1372710485525
 30
0.0
 10
2056.580152290523
 20
3210.3415407795164
 30
0.0
 10
2067.2084318070356
 20
3271.124339222685
 30
0.0
 10
2076.096357641618
 20
3338.468811599025
 30
0.0
 10
2082.3432600397546
 20
3408.212680982639
 30
0.0
 10
1998.9860852342051
 20
3462.3454632488542
 30
0.0
 10
1910.4271332113567
 20
3507.468503085052
 30
0.0
 10
1853.1506217659828
 20
3467.1865922214897
 30
0.0
 10
1799.2725608015298
 20
3425.8171864741003
 30
0.0
 10
1751.9472524170603
 20
3386.221426709234
 30
0.0
 10
1710.9232573401634
 20
3348.868532508258
 30
0.0
 10
1675.9216350246672
 20
3314.20943215262
 30
0.0
 10
1646.6370486262856
 20
3282.675295425488
 30
0.0
 10
1622.7389440553277
 20
3254.6761274438613
 30
0.0
 10
1603.8727999189662
 20
3230.5994271408795
 30
0.0
 10
1589.6614449499132
 20
3210.808913796052
 30
0.0
 10
1585.5480305744798
 20
3204.5424831927617
 30
0.0
 10
1568.0503858398858
 20
3180.7136868001617
 30
0.0
 10
1551.6023140701893
 20
3163.892589041052
 30
0.0
 10
1536.7564574325986
 20
3153.938511233353
 30
0.0
 10
1524.055061052388
 20
3150.676942986659
 30
0.0
 10
1514.0281161447203
 20
3153.9001851351413
 30
0.0
 10
1489.777482490133
 20
3165.938304225374
 30
0.0
 10
1355.8949583671701
 20
3225.546644425971
 30
0.0
 10
1330.7220512551942
 20
3235.5133034150244
 30
0.0
 10
1321.6173798051855
 20
3240.808005665247
 30
0.0
 10
1315.5423043092626
 20
3252.429397800119
 30
0.0
 10
1313.0058086703052
 20
3270.1225974593817
 30
0.0
 10
1314.5004121929562
 20
3293.601408227124
 30
0.0
 10
1320.50044929778
 20
3322.549269348793
 30
0.0
 10
1322.4049033218237
 20
3329.7991924747057
 30
0.0
 10
1327.6028683365312
 20
3353.602725562589
 30
0.0
 10
1332.8714291168424
 20
3383.733460033553
 30
0.0
 10
1337.6879127176474
 20
3420.2283130332976
 30
0.0
 10
1341.527130198596
 20
3463.0914579107425
 30
0.0
 10
1343.8632044711678
 20
3512.294197256717
 30
0.0
 10
1344.171403833779
 20
3567.77493241452
 30
0.0
 10
1341.9299755458298
 20
3629.4392244423543
 30
0.0
 10
1336.621975757432
 20
3697.159962208086
 30
0.0
 10
1328.2318025424674
 20
3766.6785647515308
 30
0.0
 10
1235.4413437128326
 20
3802.2974846906613
 30
0.0
 10
1139.4360097610024
 20
3828.0220363921344
 30
0.0
 10
1091.786207709321
 20
3776.7119255892176
 30
0.0
 10
1047.6866947418173
 20
3725.0446618605233
 30
0.0
 10
1009.6279792534881
 20
3676.4746795626
 30
0.0
 10
977.2665602867678
 20
3631.4086675389144
 30
0.0
 10
950.2358395542374
 20
3590.229705205476
 30
0.0
 10
928.1475073155952
 20
3553.296057151634
 30
0.0
 10
910.5929880239773
 20
3520.9400428391755
 30
0.0
 10
897.144941871203
 20
3493.466984277624
 30
0.0
 10
887.3588181967214
 20
3471.154234291664
 30
0.0
 10
884.6381559766899
 20
3464.16951329406
 30
0.0
 10
872.4771621091918
 20
3437.2234683721663
 30
0.0
 10
859.8858230474727
 20
3417.350205545055
 30
0.0
 10
847.433953144106
 20
3404.527021064777
 30
0.0
 10
835.6882309177214
 20
3398.695957112487
 30
0.0
 10
825.21024908859
 20
3399.76404461712
 30
0.0
 10
798.9866842687654
 20
3406.4971116760516
 30
0.0
 10
655.6365437197569
 20
3436.967124665635
 30
0.0
 10
628.9415401024646
 20
3441.4822465626603
 30
0.0
 10
618.9349970709485
 20
3444.768279229804
 30
0.0
 10
610.5764532619175
 20
3454.8726368455127
 30
0.0
 10
604.416763081266
 20
3471.651830544478
 30
0.0
 10
600.997186685884
 20
3494.9283185105237
 30
0.0
 10
600.8475098329172
 20
3524.491077272493
 30
0.0
 10
601.2030031918362
 20
3531.978530439833
 30
0.0
 10
601.3383473879321
 20
3556.342616913753
 30
0.0
 10
600.227245525075
 20
3586.9103179248846
 30
0.0
 10
597.3507708098534
 20
3623.609074074957
 30
0.0
 10
592.1943432523027
 20
3666.3337745946164
 30
0.0
 10
584.2495439668676
 20
3714.947013187298
 30
0.0
 10
573.0159149794823
 20
3769.2794394194407
 30
0.0
 10
558.0027400588208
 20
3829.130199572221
 30
0.0
 10
538.7307997088044
 20
3894.2674815268288
 30
0.0
 10
516.0702417107505
 20
3960.5225207116887
 30
0.0
 10
417.9018871659071
 20
3976.0708606038543
 30
0.0
 10
318.6460650634945
 20
3981.272637821154
 30
0.0
 10
282.7054974042824
 20
3921.1768251341987
 30
0.0
 10
250.31189276334936
 20
3861.469810776182
 30
0.0
 10
223.18311866397937
 20
3806.0483472362544
 30
0.0
 10
200.89862510359842
 20
3755.238818366013
 30
0.0
 10
183.02017815783427
 20
3709.3397123073296
 30
0.0
 10
169.09346618933768
 20
3668.6207305740363
 30
0.0
 10
158.64974890603327
 20
3633.321983017583
 30
0.0
 10
151.20754488460682
 20
3603.653270686964
 30
0.0
 10
146.27435306830336
 20
3579.7934583027104
 30
0.0
 10
145.0653489978746
 20
3572.395712734798
 30
0.0
 10
138.7724997844051
 20
3543.5100907481665
 30
0.0
 10
130.58819536760933
 20
3521.453219801094
 30
0.0
 10
121.07451866394406
 20
3506.321363342491
 30
0.0
 10
110.79781501490739
 20
3498.17564915987
 30
0.0
 10
100.3267343491806
 20
3497.041901471448
 30
0.0
 10
73.27633398136994
 20
3498.175649159763
 30
0.0
 10
-73.2763339814001
 20
3498.1756491593437
 30
0.0
 10
-100.32673434909348
 20
3497.0419014714826
 30
0.0
 10
-110.79781501491887
 20
3498.1756491598594
 30
0.0
 10
-121.07451866386016
 20
3506.321363342511
 30
0.0
 10
-130.58819536783852
 20
3521.4532198010284
 30
0.0
 10
-138.77249978382739
 20
3543.5100907482815
 30
0.0
 10
-145.06534899788068
 20
3572.395712734797
 30
0.0
 10
-146.27435306971782
 20
3579.7934583113647
 30
0.0
 10
-151.20754488305604
 20
3603.653270680553
 30
0.0
 10
-158.64974890601678
 20
3633.3219830175626
 30
0.0
 10
-169.0934661893523
 20
3668.6207305740345
 30
0.0
 10
-183.02017815785314
 20
3709.33971230734
 30
0.0
 10
-200.89862514914475
 20
3755.2388183480293
 30
0.0
 10
-223.18311899484533
 20
3806.0483479122595
 30
0.0
 10
-250.31189276298008
 20
3861.469810775499
 30
0.0
 10
-282.7054974042893
 20
3921.1768251342087
 30
0.0
 10
-318.6460650634961
 20
3981.272637821154
 30
0.0
 10
-417.9018871659084
 20
3976.070860603854
 30
0.0
 10
-516.0702417107509
 20
3960.5225207116882
 30
0.0
 10
-538.730799708808
 20
3894.2674815268183
 30
0.0
 10
-558.0027400586008
 20
3829.1301995729673
 30
0.0
 10
-573.0159151625678
 20
3769.279438689418
 30
0.0
 10
-584.2495440151566
 20
3714.94701319542
 30
0.0
 10
-592.1943432523179
 20
3666.3337745946023
 30
0.0
 10
-597.3507708098673
 20
3623.6090740749564
 30
0.0
 10
-600.2272455250622
 20
3586.9103179249087
 30
0.0
 10
-601.3383473877473
 20
3556.3426169203467
 30
0.0
 10
-601.2030031914194
 20
3531.978530431074
 30
0.0
 10
-600.8475098329225
 20
3524.4910772724934
 30
0.0
 10
-600.9971866852943
 20
3494.9283185105323
 30
0.0
 10
-604.416763081503
 20
3471.6518305444943
 30
0.0
 10
-610.5764532618305
 20
3454.8726368455114
 30
0.0
 10
-618.9349970709611
 20
3444.7682792298133
 30
0.0
 10
-628.9415401023714
 20
3441.482246562645
 30
0.0
 10
-655.6365437198726
 20
3436.9671246660387
 30
0.0
 10
-798.986684268707
 20
3406.4971116756365
 30
0.0
 10
-825.2102490885111
 20
3399.764044617172
 30
0.0
 10
-835.6882309177295
 20
3398.6959571124744
 30
0.0
 10
-847.4339531440273
 20
3404.5270210648146
 30
0.0
 10
-859.8858230476826
 20
3417.350205544944
 30
0.0
 10
-872.4771621086498
 20
3437.2234683723996
 30
0.0
 10
-884.6381559766946
 20
3464.169513294058
 30
0.0
 10
-887.3588181999035
 20
3471.154234299836
 30
0.0
 10
-897.1449418683524
 20
3493.4669842716767
 30
0.0
 10
-910.5929880239561
 20
3520.940042839159
 30
0.0
 10
-928.1475073156082
 20
3553.2960571516296
 30
0.0
 10
-950.2358395542573
 20
3590.2297052054837
 30
0.0
 10
-977.2665603275789
 20
3631.4086675118547
 30
0.0
 10
-1009.6279797176724
 20
3676.4746801550427
 30
0.0
 10
-1047.6866947413132
 20
3725.044661859932
 30
0.0
 10
-1091.786207709329
 20
3776.7119255892267
 30
0.0
 10
-1139.4360097610033
 20
3828.022036392135
 30
0.0
 10
-1235.441343712833
 20
3802.297484690661
 30
0.0
 10
-1328.2318025424672
 20
3766.6785647515303
 30
0.0
 10
-1336.6219757574324
 20
3697.159962208075
 30
0.0
 10
-1341.929975545769
 20
3629.4392244431297
 30
0.0
 10
-1344.1714038610828
 20
3567.7749316623845
 30
0.0
 10
-1343.8632045200895
 20
3512.2941972546214
 30
0.0
 10
-1341.5271301986074
 20
3463.0914579107257
 30
0.0
 10
-1337.6879127176599
 20
3420.228313033294
 30
0.0
 10
-1332.8714291168342
 20
3383.733460033579
 30
0.0
 10
-1327.6028683377206
 20
3353.602725569077
 30
0.0
 10
-1322.4049033195945
 20
3329.799192466225
 30
0.0
 10
-1320.5004492977846
 20
3322.549269348792
 30
0.0
 10
-1314.5004121923805
 20
3293.6014082272545
 30
0.0
 10
-1313.0058086705399
 20
3270.122597459349
 30
0.0
 10
-1315.5423043091766
 20
3252.429397800136
 30
0.0
 10
-1321.617379805199
 20
3240.8080056652534
 30
0.0
 10
-1330.7220512550991
 20
3235.5133034150285
 30
0.0
 10
-1355.8949583673666
 20
3225.5466444263416
 30
0.0
 10
-1489.777482489989
 20
3165.93830422498
 30
0.0
 10
-1514.0281161446535
 20
3153.9001851352095
 30
0.0
 10
-1524.0550610523926
 20
3150.676942986645
 30
0.0
 10
-1536.756457432529
 20
3153.9385112334066
 30
0.0
 10
-1551.6023140703708
 20
3163.8925890409
 30
0.0
 10
-1568.0503858394036
 20
3180.7136868005027
 30
0.0
 10
-1585.5480305744836
 20
3204.5424831927585
 30
0.0
 10
-1589.661444954724
 20
3210.808913803384
 30
0.0
 10
-1603.8727999149407
 20
3230.5994271356544
 30
0.0
 10
-1622.7389440553027
 20
3254.67612744385
 30
0.0
 10
-1646.6370486262967
 20
3282.675295425481
 30
0.0
 10
-1675.9216350246872
 20
3314.2094321526233
 30
0.0
 10
-1710.9232573744557
 20
3348.868532473304
 30
0.0
 10
-1751.9472529942757
 20
3386.2214271922207
 30
0.0
 10
-1799.272560800913
 20
3425.8171864736264
 30
0.0
 10
-1853.1506217659914
 20
3467.186592221497
 30
0.0
 10
-1910.427133211357
 20
3507.4685030850524
 30
0.0
 10
-1998.9860852342065
 20
3462.3454632488542
 30
0.0
 10
-2082.3432600397546
 20
3408.212680982639
 30
0.0
 10
-2076.0963576416166
 20
3338.468811599014
 30
0.0
 10
-2067.2084318071375
 20
3271.1243392234564
 30
0.0
 10
-2056.5801521608523
 20
3210.3415400381396
 30
0.0
 10
-2044.7435944163828
 20
3156.137271036331
 30
0.0
 10
-2032.228744193835
 20
3108.4954267596245
 30
0.0
 10
-2019.5616739009172
 20
3067.3671626357395
 30
0.0
 10
-2007.2627354294796
 20
3032.67121298418
 30
0.0
 10
-1995.8447733959736
 20
3004.294302739141
 30
0.0
 10
-1985.811363569945
 20
2982.091651641329
 30
0.0
 10
-1982.4411826641597
 20
2975.3961149942666
 30
0.0
 10
-1970.553662013858
 20
2948.328311951413
 30
0.0
 10
-1964.210199919776
 20
2925.673315076031
 30
0.0
 10
-1963.012643985857
 20
2907.8393871830867
 30
0.0
 10
-1966.5387412181485
 20
2895.2088711309416
 30
0.0
 10
-1974.3436232551169
 20
2888.136903192795
 30
0.0
 10
-1996.894257028334
 20
2873.1542979351693
 30
0.0
 10
-2115.457855980958
 20
2787.012801022199
 30
0.0
 10
-2136.6756894123223
 20
2770.1957534706485
 30
0.0
 10
-2145.8133717914943
 20
2764.9582278269413
 30
0.0
 10
-2158.9153303555954
 20
2765.5077541849996
 30
0.0
 10
-2175.506338554226
 20
2772.157684354706
 30
0.0
 10
-2195.092283368413
 20
2785.191454357778
 30
0.0
 10
-2217.1618479325903
 20
2804.8615694750392
 30
0.0
 10
-2222.4882385230935
 20
2810.1358366031573
 30
0.0
 10
-2240.5037203696697
 20
2826.539172897818
 30
0.0
 10
-2263.9634214660523
 20
2846.1672476104322
 30
0.0
 10
-2293.160649470807
 20
2868.585871265512
 30
0.0
 10
-2328.3616130802934
 20
2893.3423035733904
 30
0.0
 10
-2369.804398153405
 20
2919.9667729115513
 30
0.0
 10
-2417.698024539394
 20
2947.9740489679048
 30
0.0
 10
-2472.221582085855
 20
2976.8650611436965
 30
0.0
 10
-2533.523461248202
 20
3006.128567366527
 30
0.0
 10
-2597.9234236939005
 20
3033.6217654919383
 30
0.0
 10
-2675.165542631368
 20
2971.0723308862266
 30
0.0
 10
-2745.4463248817256
 20
2900.7915486358697
 30
0.0
 10
-2724.8353664812457
 20
2833.870554172355
 30
0.0
 10
-2702.1399600319182
 20
2769.8456237836285
 30
0.0
 10
-2679.106479244721
 20
2712.6008181863695
 30
0.0
 10
-2656.2588774683145
 20
2662.0420012468358
 30
0.0
 10
-2634.1122103523394
 20
2618.0432292431424
 30
0.0
 10
-2613.170899002599
 20
2580.4473483703264
 30
0.0
 10
-2593.9270282886064
 20
2549.066681556332
 30
0.0
 10
-2576.858684731033
 20
2523.6838026759883
 30
0.0
 10
-2562.428338252141
 20
2504.0523959763304
 30
0.0
 10
-2557.739723539885
 20
2498.203872879865
 30
0.0
 10
-2540.4842610397573
 20
2474.199120794398
 30
0.0
 10
-2529.5691801062535
 20
2453.35806988573
 30
0.0
 10
-2524.689911540602
 20
2436.1628419846566
 30
0.0
 10
-2525.5129231400197
 20
2423.0752161746673
 30
0.0
 10
-2531.676904967062
 20
2414.535061482564
 30
0.0
 10
-2550.6196944953936
 20
2395.191321700274
 30
0.0
 10
-2648.682570072519
 20
2286.2814648435547
 30
0.0
 10
-2665.940282145172
 20
2265.420474505375
 30
0.0
 10
-2673.7893414283426
 20
2258.3975703695914
 30
0.0
 10
-2686.7192437169847
 20
2256.2110379001797
 30
0.0
 10
-2704.330296805633
 20
2259.2661865737764
 30
0.0
 10
-2726.1981148928035
 20
2267.942990528217
 30
0.0
 10
-2751.875053413103
 20
2282.594745952174
 30
0.0
 10
-2758.181631386206
 20
2286.6463388155444
 30
0.0
 10
-2779.2138771145737
 20
2298.945593564578
 30
0.0
 10
-2806.2418336569294
 20
2313.2672016307174
 30
0.0
 10
-2839.462126127793
 20
2329.1254795290283
 30
0.0
 10
-2879.041015925676
 20
2346.022232531245
 30
0.0
 10
-2925.11371514989
 20
2363.4484538184306
 30
0.0
 10
-2977.7837910098624
 20
2380.8860588547373
 30
0.0
 10
-3037.12265719831
 20
2397.8096480583745
 30
0.0
 10
-3103.1691682794785
 20
2413.688299112346
 30
0.0
 10
-3171.8779943413274
 20
2427.1911998145306
 30
0.0
 10
-3234.4274289470386
 20
2349.9490808770615
 30
0.0
 10
-3288.5602112132538
 20
2266.5919060715137
 30
0.0
 10
-3254.4859945948856
 20
2205.418555108725
 30
0.0
 10
-3218.9750056971875
 20
2147.511363390519
 30
0.0
 10
-3184.5429974063823
 20
2096.306424076972
 30
0.0
 10
-3151.682901430625
 20
2051.6027221080903
 30
0.0
 10
-3120.8723330456905
 20
2013.169979843504
 30
0.0
 10
-3092.5720164326726
 20
1980.7496026209508
 30
0.0
 10
-3067.224262968662
 20
1954.0557043654399
 30
0.0
 10
-3045.251506403487
 20
1932.7762104574283
 30
0.0
 10
-3027.0548986573444
 20
1916.5740348306413
 30
0.0
 10
-3021.2527651000128
 20
1911.828133808415
 30
0.0
 10
-2999.3835072622105
 20
1891.9355555340496
 30
0.0
 10
-2984.373848902448
 20
1873.8193045232626
 30
0.0
 10
-2976.0261151547115
 20
1858.0142905851953
 30
0.0
 10
-2974.110071565113
 20
1845.0415470666549
 30
0.0
 10
-2978.3637575983207
 20
1835.4064513608482
 30
0.0
 10
-2992.8708120817887
 20
1812.5469913039415
 30
0.0
 10
-3066.147146062811
 20
1685.6286578555876
 30
0.0
 10
-3078.6904919474878
 20
1661.6354501106944
 30
0.0
 10
-3084.907886580016
 20
1653.134102093202
 30
0.0
 10
-3097.100633818631
 20
1648.3070727573806
 30
0.0
 10
-3114.9620442701157
 20
1647.6339152776018
 30
0.0
 10
-3138.1560070464266
 20
1651.5745352146766
 30
0.0
 10
-3166.3181140978895
 20
1660.5675789263796
 30
0.0
 10
-3173.32925173385
 20
1663.2194234751737
 30
0.0
 10
-3196.4590512817667
 20
1670.8770602276754
 30
0.0
 10
-3225.8740118746696
 20
1679.2662786521494
 30
0.0
 10
-3261.6654826220156
 20
1687.8711279530742
 30
0.0
 10
-3303.8925112035436
 20
1696.1697324638164
 30
0.0
 10
-3352.581526541422
 20
1703.636096209489
 30
0.0
 10
-3407.726116821232
 20
1709.7419232107495
 30
0.0
 10
-3469.286898459761
 20
1713.9584473856437
 30
0.0
 10
-3537.19149199918
 20
1715.7582700254752
 30
0.0
 10
-3607.2062762767496
 20
1714.6807317496416
 30
0.0
 10
-3652.3293161129477
 20
1626.1217797267916
 30
0.0
 10
-3687.9482360520788
 20
1533.3313208971579
 30
0.0
 10
-3641.899967988276
 20
1480.5791824144746
 30
0.0
 10
-3595.125397257668
 20
1431.3205515144102
 30
0.0
 10
-3550.7997054486696
 20
1388.3933800411362
 30
0.0
 10
-3509.3632591479363
 20
1351.4985593311092
 30
0.0
 10
-3471.2353591779747
 20
1320.3115420633517
 30
0.0
 10
-3436.8128969376535
 20
1294.4835945459165
 30
0.0
 10
-3406.4690791820194
 20
1273.6431162941906
 30
0.0
 10
-3380.552224508124
 20
1257.397023352632
 30
0.0
 10
-3359.384634570249
 20
1245.3321916202704
 30
0.0
 10
-3352.7225632460236
 20
1241.896331320315
 30
0.0
 10
-3327.1953015784
 20
1226.9853279828221
 30
0.0
 10
-3308.7470598870327
 20
1212.3856439705048
 30
0.0
 10
-3297.2956969788574
 20
1198.661598945408
 30
0.0
 10
-3292.7243384993058
 20
1186.3707088602066
 30
0.0
 10
-3294.8818222475775
 20
1176.0617720573591
 30
0.0
 10
-3304.3191137926838
 20
1150.6856598221825
 30
0.0
 10
-3349.6063787637704
 20
1011.3057899756208
 30
0.0
 10
-3356.8871540556584
 20
985.2289831346507
 30
0.0
 10
-3361.201154057735
 20
975.6207409378069
 30
0.0
 10
-3372.123864684702
 20
968.3641790802076
 30
0.0
 10
-3389.4550031537356
 20
963.9921356590877
 30
0.0
 10
-3412.961423148881
 20
963.0243475783545
 30
0.0
 10
-3442.3778795165763
 20
965.9656404141904
 30
0.0
 10
-3449.787156457531
 20
967.1018383166637
 30
0.0
 10
-3474.00362659566
 20
969.7831816011313
 30
0.0
 10
-3504.5200163125596
 20
971.8733612828539
 30
0.0
 10
-3541.318406318198
 20
972.8487087812944
 30
0.0
 10
-3584.3480499065936
 20
972.1864759623206
 30
0.0
 10
-3633.525437752054
 20
969.3666662432059
 30
0.0
 10
-3688.734459243372
 20
963.8738612704567
 30
0.0
 10
-3749.826654772972
 20
955.199038077036
 30
0.0
 10
-3816.6215741905794
 20
942.8413714168602
 30
0.0
 10
-3884.8823346427293
 20
927.2304877562647
 30
0.0
 10
-3910.606886344202
 20
831.2251538044343
 30
0.0
 10
-3926.1552262363675
 20
733.0567992595918
 30
0.0
 10
-3870.1454370056244
 20
691.0313948415524
 30
0.0
 10
-3814.151557632326
 20
652.5741632990979
 30
0.0
 10
-3761.869427735456
 20
619.8008830469018
 30
0.0
 10
-3713.667602647219
 20
592.3274243017499
 30
0.0
 10
-3669.8887432788806
 20
569.7491543373342
 30
0.0
 10
-3630.848562188458
 20
551.6424417677721
 30
0.0
 10
-3596.8348505829135
 20
537.566212423141
 30
0.0
 10
-3568.106588712414
 20
527.0635526669848
 30
0.0
 10
-3544.8931418364577
 20
519.6633558692389
 30
0.0
 10
-3537.6622972303717
 20
517.6876998737492
 30
0.0
 10
-3509.5926955611944
 20
508.40995386990977
 30
0.0
 10
-3488.51214722462
 20
497.9649131044566
 30
0.0
 10
-3474.4576346648296
 20
486.92164361520196
 30
0.0
 10
-3467.430751596692
 20
475.84977783829703
 30
0.0
 10
-3467.397740667473
 20
465.3175499444603
 30
0.0
 10
-3471.3528143485473
 20
438.53384340378744
 30
0.0
 10
-3486.671739518054
 20
292.7840062901325
 30
0.0
 10
-3488.3717393998622
 20
265.76328194243797
 30
0.0
 10
-3490.5938022705263
 20
255.46807185570646
 30
0.0
 10
-3499.7691014184666
 20
246.09912405035342
 30
0.0
 10
-3515.812513989924
 20
238.21927396478745
 30
0.0
 10
-3538.6040478537975
 20
232.38537484933659
 30
0.0
 10
-3567.9892132386385
 20
229.14636819849042
 30
0.0
 10
-3575.4728085286124
 20
228.71726215422265
 30
0.0
 10
-3599.717573308402
 20
226.30512440261214
 30
0.0
 10
-3630.0016794847847
 20
222.00491445969746
 30
0.0
 10
-3666.1987225272023
 20
215.30813278973505
 30
0.0
 10
-3708.1503792185144
 20
205.71400539297974
 30
0.0
 10
-3755.666851743422
 20
192.73126142475152
 30
0.0
 10
-3808.527405284799
 20
175.87988641270414
 30
0.0
 10
-3866.480992607949
 20
154.6928472509414
 30
0.0
 10
-3929.2469794076096
 20
128.71778062247174
 30
0.0
 10
-3992.7703932511117
 20
99.25582210241289
 30
0.0
 10
-3997.972170468411
 20
-1.4953604060199931e-12
 30
0.0
 10
-3992.7703932511113
 20
-99.25582210241409
 30
0.0
 10
-3929.2469794075987
 20
-128.7177806224771
 30
0.0
 10
-3866.4809926086673
 20
-154.69284725064517
 30
0.0
 10
-3808.5274045779124
 20
-175.8798866710954
 30
0.0
 10
-3755.6668517565463
 20
-192.73126147192772
 30
0.0
 10
-3708.1503792185017
 20
-205.7140053929969
 30
0.0
 10
-3666.1987225272023
 20
-215.30813278974938
 30
0.0
 10
-3630.001679484807
 20
-222.0049144596827
 30
0.0
 10
-3599.7175733149393
 20
-226.3051244017396
 30
0.0
 10
-3575.4728085198576
 20
-228.71726215472438
 30
0.0
 10
-3567.989213238639
 20
-229.14636819849608
 30
0.0
 10
-3538.604047853744
 20
-232.38537484874973
 30
0.0
 10
-3515.812513989965
 20
-238.21927396502173
 30
0.0
 10
-3499.769101418455
 20
-246.0991240502675
 30
0.0
 10
-3490.5938022705363
 20
-255.46807185571868
 30
0.0
 10
-3488.371739399837
 20
-265.7632819423473
 30
0.0
 10
-3486.671739518467
 20
-292.78400629020575
 30
0.0
 10
-3471.3528143481276
 20
-438.53384340377323
 30
0.0
 10
-3467.3977406675167
 20
-465.31754994437694
 30
0.0
 10
-3467.43075159668
 20
-475.8497778383069
 30
0.0
 10
-3474.4576346648582
 20
-486.9216436151203
 30
0.0
 10
-3488.5121472245314
 20
-497.9649131046773
 30
0.0
 10
-3509.592695561369
 20
-508.40995386934674
 30
0.0
 10
-3537.66229723037
 20
-517.6876998737546
 30
0.0
 10
-3544.893141844917
 20
-519.6633558715498
 30
0.0
 10
-3568.1065887062005
 20
-527.0635526647719
 30
0.0
 10
-3596.8348505828944
 20
-537.566212423122
 30
0.0
 10
-3630.8485621884543
 20
-551.6424417677861
 30
0.0
 10
-3669.8887432788893
 20
-569.7491543373536
 30
0.0
 10
-3713.6676026245727
 20
-592.3274243451665
 30
0.0
 10
-3761.869428373173
 20
-619.8008834466166
 30
0.0
 10
-3814.1515576316847
 20
-652.5741632986587
 30
0.0
 10
-3870.1454370056335
 20
-691.0313948415599
 30
0.0
 10
-3926.1552262363675
 20
-733.056799259593
 30
0.0
 10
-3910.6068863442015
 20
-831.2251538044353
 30
0.0
 10
-3884.8823346427284
 20
-927.2304877562653
 30
0.0
 10
-3816.6215741905676
 20
-942.8413714168632
 30
0.0
 10
-3749.8266547737358
 20
-955.1990380768954
 30
0.0
 10
-3688.7344584982097
 20
-963.8738613762314
 30
0.0
 10
-3633.525437755083
 20
-969.3666662920798
 30
0.0
 10
-3584.3480499065777
 20
-972.1864759623346
 30
0.0
 10
-3541.3184063181952
 20
-972.8487087813085
 30
0.0
 10
-3504.520016312584
 20
-971.8733612828443
 30
0.0
 10
-3474.0036266022366
 20
-969.7831816016369
 30
0.0
 10
-3449.7871564488632
 20
-967.1018383153341
 30
0.0
 10
-3442.3778795165754
 20
-965.9656404141961
 30
0.0
 10
-3412.96142314895
 20
-963.0243475777693
 30
0.0
 10
-3389.455003153727
 20
-963.9921356593253
 30
0.0
 10
-3372.1238646847087
 20
-968.3641790801212
 30
0.0
 10
-3361.201154057742
 20
-975.6207409378208
 30
0.0
 10
-3356.887154055653
 20
-985.2289831345568
 30
0.0
 10
-3349.606378764159
 20
-1011.3057899757783
 30
0.0
 10
-3304.3191137922763
 20
-1150.6856598220813
 30
0.0
 10
-3294.8818222476375
 20
-1176.0617720572866
 30
0.0
 10
-3292.724338499291
 20
-1186.3707088602137
 30
0.0
 10
-3297.2956969789025
 20
-1198.661598945334
 30
0.0
 10
-3308.7470598869004
 20
-1212.385643970702
 30
0.0
 10
-3327.195301578688
 20
-1226.9853279823078
 30
0.0
 10
-3352.7225632460204
 20
-1241.8963313203199
 30
0.0
 10
-3359.384634578043
 20
-1245.3321916242894
 30
0.0
 10
-3380.5522245025063
 20
-1257.3970233491755
 30
0.0
 10
-3406.469079182005
 20
-1273.6431162941678
 30
0.0
 10
-3436.812896937647
 20
-1294.4835945459295
 30
0.0
 10
-3471.2353591779793
 20
-1320.3115420633724
 30
0.0
 10
-3509.3632591167584
 20
-1351.4985593688687
 30
0.0
 10
-3550.799705989345
 20
-1388.3933805647046
 30
0.0
 10
-3595.1253972571317
 20
-1431.3205515138472
 30
0.0
 10
-3641.899967988283
 20
-1480.5791824144835
 30
0.0
 10
-3687.9482360520788
 20
-1533.331320897159
 30
0.0
 10
-3652.329316112947
 20
-1626.1217797267925
 30
0.0
 10
-3607.2062762767496
 20
-1714.680731749641
 30
0.0
 10
-3537.191491999169
 20
-1715.7582700254743
 30
0.0
 10
-3469.286898460538
 20
-1713.9584473856637
 30
0.0
 10
-3407.726116070363
 20
-1709.7419231592837
 30
0.0
 10
-3352.5815265342244
 20
-1703.6360962579238
 30
0.0
 10
-3303.892511203526
 20
-1696.1697324638255
 30
0.0
 10
-3261.665482622011
 20
-1687.871127953086
 30
0.0
 10
-3225.874011874697
 20
-1679.266278652144
 30
0.0
 10
-3196.459051288095
 20
-1670.877060229536
 30
0.0
 10
-3173.3292517256486
 20
-1663.2194234720698
 30
0.0
 10
-3166.3181140978886
 20
-1660.5675789263837
 30
0.0
 10
-3138.1560070466167
 20
-1651.5745352141173
 30
0.0
 10
-3114.962044270059
 20
-1647.6339152778312
 30
0.0
 10
-3097.1006338186567
 20
-1648.3070727572963
 30
0.0
 10
-3084.9078865800216
 20
-1653.1341020932157
 30
0.0
 10
-3078.6904919475023
 20
-1661.6354501106002
 30
0.0
 10
-3066.1471460631597
 20
-1685.6286578558218
 30
0.0
 10
-2992.870812081412
 20
-1812.5469913037568
 30
0.0
 10
-2978.3637575983953
 20
-1835.4064513607887
 30
0.0
 10
-2974.1100715650987
 20
-1845.0415470666578
 30
0.0
 10
-2976.026115154772
 20
-1858.014290585131
 30
0.0
 10
-2984.3738489022785
 20
-1873.8193045234273
 30
0.0
 10
-2999.3835072626002
 20
-1891.935555533605
 30
0.0
 10
-3021.25276510001
 20
-1911.8281338084182
 30
0.0
 10
-3027.0548986641334
 20
-1916.5740348361917
 30
0.0
 10
-3045.2515063987116
 20
-1932.7762104528783
 30
0.0
 10
-3067.2242629686543
 20
-1954.055704365414
 30
0.0
 10
-3092.572016432665
 20
-1980.7496026209608
 30
0.0
 10
-3120.872333045692
 20
-2013.1699798435243
 30
0.0
 10
-3151.682901392279
 20
-2051.6027221385402
 30
0.0
 10
-3184.542997826388
 20
-2096.3064247015104
 30
0.0
 10
-3218.9750056967814
 20
-2147.5113633898554
 30
0.0
 10
-3254.485994594892
 20
-2205.4185551087335
 30
0.0
 10
-3288.560211213255
 20
-2266.591906071513
 30
0.0
 10
-3234.4274289470395
 20
-2349.9490808770606
 30
0.0
 10
-3171.8779943413283
 20
-2427.191199814529
 30
0.0
 10
-3103.169168279468
 20
-2413.688299112342
 30
0.0
 10
-3037.1226571990674
 20
-2397.8096480585555
 30
0.0
 10
-2977.7837902861024
 20
-2380.8860586482806
 30
0.0
 10
-2925.11371513278
 20
-2363.448453864309
 30
0.0
 10
-2879.0410159256576
 20
-2346.0222325312493
 30
0.0
 10
-2839.4621261277866
 20
-2329.125479529038
 30
0.0
 10
-2806.2418336569576
 20
-2313.267201630717
 30
0.0
 10
-2779.213877120377
 20
-2298.9455935677133
 30
0.0
 10
-2758.1816313788304
 20
-2286.6463388108023
 30
0.0
 10
-2751.8750534131013
 20
-2282.594745952177
 30
0.0
 10
-2726.198114893107
 20
-2267.942990527709
 30
0.0
 10
-2704.3302968055305
 20
-2259.266186573988
 30
0.0
 10
-2686.7192437170274
 20
-2256.2110379001024
 30
0.0
 10
-2673.7893414283444
 20
-2258.397570369605
 30
0.0
 10
-2665.9402821452068
 20
-2265.4204745052843
 30
0.0
 10
-2648.682570072812
 20
-2286.281464843855
 30
0.0
 10
-2550.619694495064
 20
-2395.191321700014
 30
0.0
 10
-2531.676904967148
 20
-2414.5350614825206
 30
0.0
 10
-2525.512923140006
 20
-2423.0752161746664
 30
0.0
 10
-2524.689911540675
 20
-2436.1628419846056
 30
0.0
 10
-2529.569180106054
 20
-2453.3580698858545
 30
0.0
 10
-2540.484261040231
 20
-2474.199120794043
 30
0.0
 10
-2557.739723539882
 20
-2498.2038728798666
 30
0.0
 10
-2562.4283382576277
 20
-2504.0523959831708
 30
0.0
 10
-2576.8586847273086
 20
-2523.683802670544
 30
0.0
 10
-2593.927028288604
 20
-2549.0666815563036
 30
0.0
 10
-2613.1708990025904
 20
-2580.4473483703337
 30
0.0
 10
-2634.112210352337
 20
-2618.0432292431615
 30
0.0
 10
-2656.2588774244755
 20
-2662.0420012686477
 30
0.0
 10
-2679.1064795257003
 20
-2712.6008188845844
 30
0.0
 10
-2702.1399600316595
 20
-2769.845623782895
 30
0.0
 10
-2724.835366481251
 20
-2833.870554172365
 30
0.0
 10
-2745.446324881727
 20
-2900.7915486358693
 30
0.0
 10
-2675.16554263137
 20
-2971.0723308862257
 30
0.0
 10
-2597.9234236939014
 20
-3033.6217654919374
 30
0.0
 10
-2533.5234612481927
 20
-3006.128567366522
 30
0.0
 10
-2472.2215820865576
 20
-2976.8650611440307
 30
0.0
 10
-2417.698023874374
 20
-2947.9740486154815
 30
0.0
 10
-2369.8043981271303
 20
-2919.9667729528705
 30
0.0
 10
-2328.361613080274
 20
-2893.342303573391
 30
0.0
 10
-2293.160649470799
 20
-2868.585871265521
 30
0.0
 10
-2263.96342146608
 20
-2846.1672476104377
 30
0.0
 10
-2240.5037203746947
 20
-2826.539172902091
 30
0.0
 10
-2222.4882385168644
 20
-2810.1358365969854
 30
0.0
 10
-2217.161847932588
 20
-2804.861569475042
 30
0.0
 10
-2195.092283368815
 20
-2785.1914543573444
 30
0.0
 10
-2175.506338554081
 20
-2772.1576843548914
 30
0.0
 10
-2158.915330355654
 20
-2765.507754184933
 30
0.0
 10
-2145.813371791494
 20
-2764.958227826956
 30
0.0
 10
-2136.6756894123746
 20
-2770.195753470568
 30
0.0
 10
-2115.4578559811816
 20
-2787.012801022554
 30
0.0
 10
-1996.8942570280658
 20
-2873.154297934847
 30
0.0
 10
-1974.3436232552096
 20
-2888.1369031927707
 30
0.0
 10
-1966.5387412181344
 20
-2895.208871130938
 30
0.0
 10
-1963.0126439859384
 20
-2907.839387183052
 30
0.0
 10
-1964.210199919554
 20
-2925.673315076112
 30
0.0
 10
-1970.5536620143948
 20
-2948.3283119511652
 30
0.0
 10
-1982.4411826641558
 20
-2975.3961149942675
 30
0.0
 10
-1985.8113635738894
 20
-2982.0916516491607
 30
0.0
 10
-1995.8447733934618
 20
-3004.2943027330416
 30
0.0
 10
-2007.2627354294827
 20
-3032.6712129841517
 30
0.0
 10
-2019.561673900906
 20
-3067.3671626357454
 30
0.0
 10
-2032.2287441938279
 20
-3108.4954267596427
 30
0.0
 10
-2044.7435943689668
 20
-3156.137271048552
 30
0.0
 10
-2056.580152290524
 20
-3210.341540779516
 30
0.0
 10
-2067.208431807037
 20
-3271.1243392226847
 30
0.0
 10
-2076.0963576416193
 20
-3338.4688115990243
 30
0.0
 10
-2082.343260039756
 20
-3408.212680982639
 30
0.0
 10
-1998.9860852342056
 20
-3462.3454632488542
 30
0.0
 10
-1910.4271332113572
 20
-3507.468503085052
 30
0.0
 10
-1853.1506217659833
 20
-3467.1865922214897
 30
0.0
 10
-1799.27256080153
 20
-3425.8171864741003
 30
0.0
 10
-1751.9472524170608
 20
-3386.221426709234
 30
0.0
 10
-1710.923257340164
 20
-3348.868532508258
 30
0.0
 10
-1675.9216350246677
 20
-3314.20943215262
 30
0.0
 10
-1646.637048626286
 20
-3282.675295425488
 30
0.0
 10
-1622.7389440553281
 20
-3254.6761274438613
 30
0.0
 10
-1603.8727999189666
 20
-3230.5994271408795
 30
0.0
 10
-1589.6614449499136
 20
-3210.808913796052
 30
0.0
 10
-1585.5480305744802
 20
-3204.5424831927617
 30
0.0
 10
-1568.0503858398863
 20
-3180.7136868001617
 30
0.0
 10
-1551.6023140701895
 20
-3163.892589041052
 30
0.0
 10
-1536.756457432599
 20
-3153.938511233353
 30
0.0
 10
-1524.0550610523885
 20
-3150.676942986659
 30
0.0
 10
-1514.0281161447203
 20
-3153.9001851351413
 30
0.0
 10
-1489.7774824901335
 20
-3165.938304225374
 30
0.0
 10
-1355.8949583671704
 20
-3225.546644425971
 30
0.0
 10
-1330.7220512551946
 20
-3235.5133034150244
 30
0.0
 10
-1321.617379805186
 20
-3240.808005665247
 30
0.0
 10
-1315.542304309263
 20
-3252.429397800119
 30
0.0
 10
-1313.0058086703057
 20
-3270.1225974593817
 30
0.0
 10
-1314.5004121929567
 20
-3293.601408227124
 30
0.0
 10
-1320.5004492977805
 20
-3322.5492693487927
 30
0.0
 10
-1322.4049033218241
 20
-3329.7991924747057
 30
0.0
 10
-1327.6028683365314
 20
-3353.602725562589
 30
0.0
 10
-1332.8714291168428
 20
-3383.733460033553
 30
0.0
 10
-1337.6879127176478
 20
-3420.2283130332976
 30
0.0
 10
-1341.5271301985965
 20
-3463.0914579107425
 30
0.0
 10
-1343.8632044711683
 20
-3512.2941972567164
 30
0.0
 10
-1344.1714038337796
 20
-3567.77493241452
 30
0.0
 10
-1341.9299755458303
 20
-3629.4392244423543
 30
0.0
 10
-1336.6219757574322
 20
-3697.159962208086
 30
0.0
 10
-1328.2318025424677
 20
-3766.6785647515308
 30
0.0
 10
-1235.4413437128323
 20
-3802.297484690662
 30
0.0
 10
-1139.4360097610022
 20
-3828.022036392135
 30
0.0
 10
-1091.7862077093205
 20
-3776.711925589218
 30
0.0
 10
-1047.6866947418168
 20
-3725.044661860524
 30
0.0
 10
-1009.6279792534876
 20
-3676.4746795626006
 30
0.0
 10
-977.2665602867676
 20
-3631.4086675389153
 30
0.0
 10
-950.2358395542371
 20
-3590.229705205477
 30
0.0
 10
-928.1475073155948
 20
-3553.296057151634
 30
0.0
 10
-910.5929880239771
 20
-3520.940042839176
 30
0.0
 10
-897.1449418712025
 20
-3493.4669842776248
 30
0.0
 10
-887.358818196721
 20
-3471.1542342916646
 30
0.0
 10
-884.6381559766896
 20
-3464.1695132940604
 30
0.0
 10
-872.4771621091916
 20
-3437.2234683721667
 30
0.0
 10
-859.8858230474725
 20
-3417.3502055450554
 30
0.0
 10
-847.4339531441057
 20
-3404.5270210647773
 30
0.0
 10
-835.6882309177211
 20
-3398.6959571124876
 30
0.0
 10
-825.2102490885898
 20
-3399.7640446171204
 30
0.0
 10
-798.9866842687652
 20
-3406.497111676052
 30
0.0
 10
-655.6365437197566
 20
-3436.9671246656353
 30
0.0
 10
-628.9415401024644
 20
-3441.4822465626607
 30
0.0
 10
-618.9349970709482
 20
-3444.768279229804
 30
0.0
 10
-610.5764532619173
 20
-3454.872636845513
 30
0.0
 10
-604.4167630812658
 20
-3471.6518305444783
 30
0.0
 10
-600.9971866858837
 20
-3494.928318510524
 30
0.0
 10
-600.8475098329169
 20
-3524.4910772724934
 30
0.0
 10
-601.2030031918358
 20
-3531.9785304398333
 30
0.0
 10
-601.3383473879319
 20
-3556.3426169137533
 30
0.0
 10
-600.2272455250746
 20
-3586.9103179248846
 30
0.0
 10
-597.3507708098531
 20
-3623.6090740749573
 30
0.0
 10
-592.1943432523024
 20
-3666.333774594617
 30
0.0
 10
-584.2495439668672
 20
-3714.9470131872986
 30
0.0
 10
-573.015914979482
 20
-3769.279439419441
 30
0.0
 10
-558.0027400588205
 20
-3829.1301995722215
 30
0.0
 10
-538.7307997088039
 20
-3894.267481526829
 30
0.0
 10
-516.07024171075
 20
-3960.522520711689
 30
0.0
 10
-417.90188716590586
 20
-3976.0708606038543
 30
0.0
 10
-318.64606506349327
 20
-3981.272637821154
 30
0.0
 10
-282.70549740428123
 20
-3921.1768251341987
 30
0.0
 10
-250.31189276334817
 20
-3861.4698107761824
 30
0.0
 10
-223.18311866397818
 20
-3806.048347236255
 30
0.0
 10
-200.89862510359723
 20
-3755.238818366013
 30
0.0
 10
-183.02017815783307
 20
-3709.3397123073296
 30
0.0
 10
-169.09346618933648
 20
-3668.6207305740368
 30
0.0
 10
-158.64974890603213
 20
-3633.3219830175835
 30
0.0
 10
-151.20754488460568
 20
-3603.653270686964
 30
0.0
 10
-146.27435306830228
 20
-3579.793458302711
 30
0.0
 10
-145.06534899787346
 20
-3572.3957127347985
 30
0.0
 10
-138.77249978440398
 20
-3543.510090748167
 30
0.0
 10
-130.5881953676082
 20
-3521.453219801094
 30
0.0
 10
-121.07451866394298
 20
-3506.321363342491
 30
0.0
 10
-110.79781501490625
 20
-3498.1756491598703
 30
0.0
 10
-100.32673434917946
 20
-3497.041901471448
 30
0.0
 10
-73.27633398136886
 20
-3498.175649159763
 30
0.0
 10
73.27633398140118
 20
-3498.1756491593437
 30
0.0
 10
100.32673434909462
 20
-3497.0419014714826
 30
0.0
 10
110.79781501491995
 20
-3498.1756491598594
 30
0.0
 10
121.0745186638613
 20
-3506.321363342511
 30
0.0
 10
130.5881953678396
 20
-3521.4532198010284
 30
0.0
 10
138.77249978382852
 20
-3543.5100907482815
 30
0.0
 10
145.0653489978818
 20
-3572.395712734797
 30
0.0
 10
146.27435306971896
 20
-3579.7934583113647
 30
0.0
 10
151.20754488305718
 20
-3603.6532706805533
 30
0.0
 10
158.64974890601798
 20
-3633.3219830175626
 30
0.0
 10
169.0934661893535
 20
-3668.6207305740345
 30
0.0
 10
183.02017815785433
 20
-3709.33971230734
 30
0.0
 10
200.89862514914594
 20
-3755.2388183480293
 30
0.0
 10
223.18311899484652
 20
-3806.0483479122595
 30
0.0
 10
250.31189276298127
 20
-3861.469810775499
 30
0.0
 10
282.70549740429055
 20
-3921.1768251342087
 30
0.0
 10
318.64606506349736
 20
-3981.272637821154
 30
0.0
 10
417.90188716590797
 20
-3976.070860603854
 30
0.0
 10
516.0702417107507
 20
-3960.5225207116882
 30
0.0
 10
538.7307997088076
 20
-3894.2674815268183
 30
0.0
 10
558.0027400586004
 20
-3829.1301995729673
 30
0.0
 10
573.0159151625674
 20
-3769.279438689418
 30
0.0
 10
584.2495440151562
 20
-3714.94701319542
 30
0.0
 10
592.1943432523177
 20
-3666.3337745946023
 30
0.0
 10
597.3507708098668
 20
-3623.609074074956
 30
0.0
 10
600.2272455250618
 20
-3586.910317924908
 30
0.0
 10
601.3383473877468
 20
-3556.3426169203467
 30
0.0
 10
601.2030031914189
 20
-3531.978530431074
 30
0.0
 10
600.847509832922
 20
-3524.4910772724934
 30
0.0
 10
600.9971866852939
 20
-3494.9283185105323
 30
0.0
 10
604.4167630815025
 20
-3471.6518305444943
 30
0.0
 10
610.5764532618302
 20
-3454.8726368455114
 30
0.0
 10
618.9349970709609
 20
-3444.7682792298133
 30
0.0
 10
628.9415401023709
 20
-3441.482246562645
 30
0.0
 10
655.6365437198722
 20
-3436.9671246660387
 30
0.0
 10
798.9866842687065
 20
-3406.4971116756365
 30
0.0
 10
825.2102490885109
 20
-3399.764044617172
 30
0.0
 10
835.688230917729
 20
-3398.6959571124744
 30
0.0
 10
847.4339531440269
 20
-3404.527021064814
 30
0.0
 10
859.8858230476824
 20
-3417.350205544944
 30
0.0
 10
872.4771621086494
 20
-3437.2234683723996
 30
0.0
 10
884.6381559766942
 20
-3464.169513294058
 30
0.0
 10
887.358818199903
 20
-3471.154234299836
 30
0.0
 10
897.1449418683519
 20
-3493.4669842716767
 30
0.0
 10
910.5929880239559
 20
-3520.940042839159
 30
0.0
 10
928.1475073156078
 20
-3553.2960571516296
 30
0.0
 10
950.2358395542568
 20
-3590.2297052054837
 30
0.0
 10
977.2665603275784
 20
-3631.4086675118547
 30
0.0
 10
1009.6279797176719
 20
-3676.4746801550427
 30
0.0
 10
1047.6866947413127
 20
-3725.044661859932
 30
0.0
 10
1091.7862077093284
 20
-3776.7119255892267
 30
0.0
 10
1139.4360097610029
 20
-3828.022036392135
 30
0.0
 10
1235.4413437128346
 20
-3802.297484690661
 30
0.0
 10
1328.2318025424686
 20
-3766.67856475153
 30
0.0
 10
1336.6219757574338
 20
-3697.159962208075
 30
0.0
 10
1341.9299755457703
 20
-3629.439224443129
 30
0.0
 10
1344.1714038610842
 20
-3567.774931662384
 30
0.0
 10
1343.863204520091
 20
-3512.294197254621
 30
0.0
 10
1341.5271301986088
 20
-3463.0914579107257
 30
0.0
 10
1337.6879127176614
 20
-3420.2283130332935
 30
0.0
 10
1332.8714291168355
 20
-3383.7334600335794
 30
0.0
 10
1327.6028683377217
 20
-3353.6027255690765
 30
0.0
 10
1322.4049033195959
 20
-3329.7991924662247
 30
0.0
 10
1320.5004492977857
 20
-3322.5492693487918
 30
0.0
 10
1314.5004121923816
 20
-3293.6014082272545
 30
0.0
 10
1313.005808670541
 20
-3270.1225974593485
 30
0.0
 10
1315.5423043091778
 20
-3252.4293978001356
 30
0.0
 10
1321.6173798052002
 20
-3240.8080056652534
 30
0.0
 10
1330.7220512551005
 20
-3235.5133034150285
 30
0.0
 10
1355.8949583673677
 20
-3225.546644426342
 30
0.0
 10
1489.7774824899902
 20
-3165.9383042249797
 30
0.0
 10
1514.0281161446546
 20
-3153.900185135209
 30
0.0
 10
1524.055061052394
 20
-3150.6769429866445
 30
0.0
 10
1536.7564574325302
 20
-3153.938511233406
 30
0.0
 10
1551.602314070372
 20
-3163.8925890408996
 30
0.0
 10
1568.0503858394047
 20
-3180.7136868005023
 30
0.0
 10
1585.5480305744848
 20
-3204.5424831927585
 30
0.0
 10
1589.661444954725
 20
-3210.8089138033833
 30
0.0
 10
1603.872799914942
 20
-3230.599427135654
 30
0.0
 10
1622.738944055304
 20
-3254.6761274438495
 30
0.0
 10
1646.6370486262983
 20
-3282.675295425481
 30
0.0
 10
1675.9216350246886
 20
-3314.209432152623
 30
0.0
 10
1710.923257374457
 20
-3348.8685324733037
 30
0.0
 10
1751.947252994277
 20
-3386.2214271922203
 30
0.0
 10
1799.2725608009143
 20
-3425.817186473626
 30
0.0
 10
1853.1506217659928
 20
-3467.1865922214965
 30
0.0
 10
1910.4271332113583
 20
-3507.468503085052
 30
0.0
 10
1998.9860852342042
 20
-3462.345463248855
 30
0.0
 10
2082.3432600397527
 20
-3408.21268098264
 30
0.0
 10
2076.0963576416143
 20
-3338.4688115990148
 30
0.0
 10
2067.2084318071356
 20
-3271.124339223457
 30
0.0
 10
2056.5801521608505
 20
-3210.3415400381405
 30
0.0
 10
2044.7435944163815
 20
-3156.137271036332
 30
0.0
 10
2032.2287441938329
 20
-3108.4954267596254
 30
0.0
 10
2019.5616739009156
 20
-3067.367162635741
 30
0.0
 10
2007.262735429478
 20
-3032.6712129841803
 30
0.0
 10
1995.8447733959717
 20
-3004.2943027391416
 30
0.0
 10
1985.8113635699428
 20
-2982.09165164133
 30
0.0
 10
1982.4411826641576
 20
-2975.3961149942675
 30
0.0
 10
1970.5536620138566
 20
-2948.3283119514144
 30
0.0
 10
1964.210199919774
 20
-2925.6733150760324
 30
0.0
 10
1963.012643985855
 20
-2907.8393871830876
 30
0.0
 10
1966.5387412181465
 20
-2895.208871130942
 30
0.0
 10
1974.3436232551155
 20
-2888.136903192796
 30
0.0
 10
1996.8942570283327
 20
-2873.1542979351707
 30
0.0
 10
2115.457855980956
 20
-2787.0128010221997
 30
0.0
 10
2136.675689412321
 20
-2770.1957534706494
 30
0.0
 10
2145.813371791493
 20
-2764.9582278269427
 30
0.0
 10
2158.915330355594
 20
-2765.507754185001
 30
0.0
 10
2175.5063385542244
 20
-2772.157684354707
 30
0.0
 10
2195.092283368411
 20
-2785.1914543577795
 30
0.0
 10
2217.1618479325884
 20
-2804.86156947504
 30
0.0
 10
2222.4882385230912
 20
-2810.135836603158
 30
0.0
 10
2240.503720369668
 20
-2826.539172897819
 30
0.0
 10
2263.963421466051
 20
-2846.167247610433
 30
0.0
 10
2293.1606494708053
 20
-2868.5858712655136
 30
0.0
 10
2328.3616130802916
 20
-2893.342303573391
 30
0.0
 10
2369.804398153404
 20
-2919.9667729115527
 30
0.0
 10
2417.698024539392
 20
-2947.9740489679057
 30
0.0
 10
2472.2215820858532
 20
-2976.865061143698
 30
0.0
 10
2533.5234612482
 20
-3006.1285673665284
 30
0.0
 10
2597.9234236938987
 20
-3033.6217654919396
 30
0.0
 10
2675.165542631368
 20
-2971.072330886227
 30
0.0
 10
2745.4463248817256
 20
-2900.7915486358697
 30
0.0
 10
2724.8353664812457
 20
-2833.8705541723557
 30
0.0
 10
2702.1399600319182
 20
-2769.845623783629
 30
0.0
 10
2679.106479244721
 20
-2712.60081818637
 30
0.0
 10
2656.2588774683145
 20
-2662.0420012468358
 30
0.0
 10
2634.1122103523394
 20
-2618.043229243143
 30
0.0
 10
2613.170899002599
 20
-2580.447348370327
 30
0.0
 10
2593.9270282886064
 20
-2549.0666815563322
 30
0.0
 10
2576.858684731033
 20
-2523.6838026759888
 30
0.0
 10
2562.428338252141
 20
-2504.052395976331
 30
0.0
 10
2557.739723539885
 20
-2498.203872879865
 30
0.0
 10
2540.4842610397573
 20
-2474.1991207943984
 30
0.0
 10
2529.5691801062535
 20
-2453.3580698857304
 30
0.0
 10
2524.689911540602
 20
-2436.162841984657
 30
0.0
 10
2525.5129231400197
 20
-2423.0752161746677
 30
0.0
 10
2531.676904967062
 20
-2414.5350614825643
 30
0.0
 10
2550.619694495393
 20
-2395.1913217002743
 30
0.0
 10
2648.682570072519
 20
-2286.281464843555
 30
0.0
 10
2665.940282145172
 20
-2265.420474505375
 30
0.0
 10
2673.7893414283426
 20
-2258.3975703695914
 30
0.0
 10
2686.7192437169847
 20
-2256.21103790018
 30
0.0
 10
2704.330296805633
 20
-2259.266186573777
 30
0.0
 10
2726.1981148928035
 20
-2267.9429905282177
 30
0.0
 10
2751.875053413103
 20
-2282.594745952174
 30
0.0
 10
2758.181631386206
 20
-2286.646338815545
 30
0.0
 10
2779.2138771145737
 20
-2298.9455935645783
 30
0.0
 10
2806.2418336569294
 20
-2313.267201630718
 30
0.0
 10
2839.462126127793
 20
-2329.125479529029
 30
0.0
 10
2879.041015925676
 20
-2346.022232531245
 30
0.0
 10
2925.11371514989
 20
-2363.448453818431
 30
0.0
 10
2977.783791009862
 20
-2380.8860588547373
 30
0.0
 10
3037.12265719831
 20
-2397.809648058375
 30
0.0
 10
3103.1691682794785
 20
-2413.6882991123466
 30
0.0
 10
3171.8779943413274
 20
-2427.191199814531
 30
0.0
 10
3234.42742894704
 20
-2349.949080877061
 30
0.0
 10
3288.5602112132547
 20
-2266.5919060715123
 30
0.0
 10
3254.4859945948865
 20
-2205.418555108724
 30
0.0
 10
3218.9750056971884
 20
-2147.5113633905185
 30
0.0
 10
3184.5429974063836
 20
-2096.306424076971
 30
0.0
 10
3151.682901430626
 20
-2051.6027221080894
 30
0.0
 10
3120.8723330456914
 20
-2013.1699798435034
 30
0.0
 10
3092.5720164326735
 20
-1980.7496026209496
 30
0.0
 10
3067.2242629686634
 20
-1954.0557043654392
 30
0.0
 10
3045.2515064034874
 20
-1932.7762104574274
 30
0.0
 10
3027.0548986573453
 20
-1916.5740348306401
 30
0.0
 10
3021.252765100014
 20
-1911.8281338084141
 30
0.0
 10
2999.3835072622114
 20
-1891.9355555340487
 30
0.0
 10
2984.373848902449
 20
-1873.819304523262
 30
0.0
 10
2976.0261151547124
 20
-1858.0142905851942
 30
0.0
 10
2974.1100715651137
 20
-1845.0415470666537
 30
0.0
 10
2978.3637575983216
 20
-1835.4064513608473
 30
0.0
 10
2992.870812081789
 20
-1812.5469913039408
 30
0.0
 10
3066.1471460628118
 20
-1685.6286578555869
 30
0.0
 10
3078.6904919474887
 20
-1661.6354501106937
 30
0.0
 10
3084.9078865800175
 20
-1653.1341020932011
 30
0.0
 10
3097.1006338186316
 20
-1648.3070727573797
 30
0.0
 10
3114.962044270116
 20
-1647.6339152776009
 30
0.0
 10
3138.156007046427
 20
-1651.5745352146757
 30
0.0
 10
3166.318114097891
 20
-1660.5675789263785
 30
0.0
 10
3173.329251733851
 20
-1663.2194234751726
 30
0.0
 10
3196.4590512817676
 20
-1670.8770602276745
 30
0.0
 10
3225.8740118746705
 20
-1679.2662786521482
 30
0.0
 10
3261.6654826220165
 20
-1687.8711279530733
 30
0.0
 10
3303.8925112035445
 20
-1696.1697324638158
 30
0.0
 10
3352.581526541423
 20
-1703.6360962094882
 30
0.0
 10
3407.726116821233
 20
-1709.7419232107486
 30
0.0
 10
3469.2868984597612
 20
-1713.9584473856426
 30
0.0
 10
3537.191491999181
 20
-1715.758270025474
 30
0.0
 10
3607.206276276751
 20
-1714.6807317496407
 30
0.0
 10
3652.329316112947
 20
-1626.1217797267939
 30
0.0
 10
3687.948236052078
 20
-1533.33132089716
 30
0.0
 10
3641.899967988275
 20
-1480.5791824144765
 30
0.0
 10
3595.125397257667
 20
-1431.320551514412
 30
0.0
 10
3550.7997054486686
 20
-1388.393380041138
 30
0.0
 10
3509.3632591479354
 20
-1351.4985593311112
 30
0.0
 10
3471.2353591779743
 20
-1320.3115420633537
 30
0.0
 10
3436.8128969376526
 20
-1294.4835945459185
 30
0.0
 10
3406.4690791820185
 20
-1273.6431162941924
 30
0.0
 10
3380.552224508123
 20
-1257.3970233526338
 30
0.0
 10
3359.3846345702486
 20
-1245.3321916202724
 30
0.0
 10
3352.7225632460227
 20
-1241.896331320317
 30
0.0
 10
3327.1953015783997
 20
-1226.9853279828242
 30
0.0
 10
3308.7470598870323
 20
-1212.3856439705066
 30
0.0
 10
3297.295696978857
 20
-1198.6615989454099
 30
0.0
 10
3292.724338499305
 20
-1186.3707088602084
 30
0.0
 10
3294.881822247577
 20
-1176.061772057361
 30
0.0
 10
3304.319113792683
 20
-1150.6856598221846
 30
0.0
 10
3349.60637876377
 20
-1011.3057899756227
 30
0.0
 10
3356.8871540556584
 20
-985.2289831346525
 30
0.0
 10
3361.201154057734
 20
-975.6207409378087
 30
0.0
 10
3372.1238646847014
 20
-968.3641790802095
 30
0.0
 10
3389.455003153735
 20
-963.9921356590896
 30
0.0
 10
3412.96142314888
 20
-963.0243475783566
 30
0.0
 10
3442.377879516576
 20
-965.9656404141922
 30
0.0
 10
3449.7871564575303
 20
-967.1018383166656
 30
0.0
 10
3474.0036265956596
 20
-969.7831816011334
 30
0.0
 10
3504.520016312559
 20
-971.873361282856
 30
0.0
 10
3541.3184063181975
 20
-972.8487087812964
 30
0.0
 10
3584.348049906593
 20
-972.1864759623226
 30
0.0
 10
3633.5254377520537
 20
-969.366666243208
 30
0.0
 10
3688.734459243371
 20
-963.8738612704587
 30
0.0
 10
3749.8266547729713
 20
-955.1990380770382
 30
0.0
 10
3816.6215741905785
 20
-942.8413714168623
 30
0.0
 10
3884.882334642729
 20
-927.2304877562667
 30
0.0
  0
ENDSEC
  0
EOF
