999
DXF generated by OpenJsCad
  0
SECTION
  2
HEADER
  0
ENDSEC
  0
SECTION
  2
TABLES
  0
TABLE
  2
LTYPE
  70
1
  0
LTYPE
  2
CONTINUOUS
  3
Solid Line
  72
65
  73
0
  40
0.0
  0
ENDTAB
  0
TABLE
  2
LAYER
  70
1
  0
LAYER
  2
OpenJsCad
  62
7
  6
continuous
  0
ENDTAB
  0
TABLE
  2
STYLE
  70
0
  0
ENDTAB
  0
TABLE
  2
VIEW
  70
0
  0
ENDTAB
  0
ENDSEC
  0
SECTION
  2
BLOCKS
  0
ENDSEC
  0
SECTION
  2
ENTITIES
  0
LWPOLYLINE
  8
OpenJsCad
  90
2753
  70
1
 10
8190.609193442103
 20
-912.7411139943788
 30
0.0
 10
8206.111736028224
 20
-808.2314609871164
 30
0.0
 10
8211.295892309912
 20
-702.7055356323447
 30
0.0
 10
8188.212156143445
 20
-690.2987068570797
 30
0.0
 10
8142.49587284447
 20
-666.6833479025642
 30
0.0
 10
8098.213965317216
 20
-644.7192234841233
 30
0.0
 10
8055.407742493971
 20
-624.3528324833952
 30
0.0
 10
8014.117142712114
 20
-605.5297720709406
 30
0.0
 10
7974.380715375556
 20
-588.194768284959
 30
0.0
 10
7936.2356033040605
 20
-572.2917069926693
 30
0.0
 10
7899.717525662885
 20
-557.763665163568
 30
0.0
 10
7864.860761592789
 20
-544.5529424988792
 30
0.0
 10
7831.698134593983
 20
-532.6010934316391
 30
0.0
 10
7800.260996368117
 20
-521.8489588961404
 30
0.0
 10
7770.57921584507
 20
-512.2367002156302
 30
0.0
 10
7766.9026998196705
 20
-511.1122048530283
 30
0.0
 10
7755.359665373447
 20
-507.3079441384556
 30
0.0
 10
7746.021080287481
 20
-503.2978150005634
 30
0.0
 10
7738.890017795242
 20
-499.1529409606873
 30
0.0
 10
7733.967814033248
 20
-494.9444812689348
 30
0.0
 10
7731.254067552373
 20
-490.7435938949475
 30
0.0
 10
7730.746640147948
 20
-486.62139699762525
 30
0.0
 10
7733.581073268602
 20
-443.37630435627614
 30
0.0
 10
7739.800244038522
 20
-316.78217504471
 30
0.0
 10
7741.218219804591
 20
-273.46749631597726
 30
0.0
 10
7742.1272497590335
 20
-269.41488550625445
 30
0.0
 10
7745.239687775742
 20
-265.50022022143366
 30
0.0
 10
7750.550690982617
 20
-261.79448581819526
 30
0.0
 10
7758.053684139942
 20
-258.36853675145386
 30
0.0
 10
7767.74036278019
 20
-255.29305890107526
 30
0.0
 10
7779.60069711683
 20
-252.6385319688418
 30
0.0
 10
7783.369729532383
 20
-251.87981294591364
 30
0.0
 10
7813.8507507101
 20
-245.2231630704856
 30
0.0
 10
7846.190403429776
 20
-237.6041815389321
 30
0.0
 10
7880.364829521671
 20
-228.96038970210515
 30
0.0
 10
7916.348626003423
 20
-219.22984061326318
 30
0.0
 10
7954.114856234054
 20
-208.35115281719953
 30
0.0
 10
7993.6350617570815
 20
-196.26354391444403
 30
0.0
 10
8034.879274805291
 20
-182.9068638936179
 30
0.0
 10
8077.816031645559
 20
-168.22162816517047
 30
0.0
 10
8122.412386208596
 20
-152.14905045394377
 30
0.0
 10
8168.633924912952
 20
-134.6310752421486
 30
0.0
 10
8216.444781764927
 20
-115.61041005117995
 30
0.0
 10
8240.63344530941
 20
-105.52592535476947
 30
0.0
 10
8245.817601591096
 20
-1.0231815394945443e-12
 30
0.0
 10
8240.633445309408
 20
105.52592535477066
 30
0.0
 10
8216.4447817649
 20
115.6104100511922
 30
0.0
 10
8168.633924912962
 20
134.6310752421461
 30
0.0
 10
8122.412386208591
 20
152.14905045394678
 30
0.0
 10
8077.816031643645
 20
168.22162816586106
 30
0.0
 10
8034.879274831728
 20
182.90686388445388
 30
0.0
 10
7993.635061755162
 20
196.26354391462476
 30
0.0
 10
7954.114856234054
 20
208.35115281724453
 30
0.0
 10
7916.34862600345
 20
219.2298406133
 30
0.0
 10
7880.364829522394
 20
228.96038970220755
 30
0.0
 10
7846.190403569634
 20
237.60418148517752
 30
0.0
 10
7813.850750277361
 20
245.223163164986
 30
0.0
 10
7783.369729532417
 20
251.87981294589324
 30
0.0
 10
7779.600697116818
 20
252.63853196878293
 30
0.0
 10
7767.740362780174
 20
255.29305890106028
 30
0.0
 10
7758.053684143444
 20
258.3685367662231
 30
0.0
 10
7750.550690965808
 20
261.7944857516871
 30
0.0
 10
7745.239687776125
 20
265.5002202228648
 30
0.0
 10
7742.127249759053
 20
269.41488550629225
 30
0.0
 10
7741.218219804523
 20
273.4674963157362
 30
0.0
 10
7739.800244040981
 20
316.78217504487304
 30
0.0
 10
7733.58107326614
 20
443.3763043561974
 30
0.0
 10
7730.74664014804
 20
486.6213969973921
 30
0.0
 10
7731.2540675523505
 20
490.74359389498323
 30
0.0
 10
7733.967814032727
 20
494.94448127032155
 30
0.0
 10
7738.8900178184895
 20
499.15294089614713
 30
0.0
 10
7746.021080282549
 20
503.2978150149182
 30
0.0
 10
7755.359665373464
 20
507.30794413844217
 30
0.0
 10
7766.902699819689
 20
511.11220485297093
 30
0.0
 10
7770.5792158450395
 20
512.2367002156064
 30
0.0
 10
7800.2609967895105
 20
521.8489590326016
 30
0.0
 10
7831.698134460068
 20
532.6010933644349
 30
0.0
 10
7864.86076159206
 20
544.5529424989103
 30
0.0
 10
7899.717525662856
 20
557.7636651636021
 30
0.0
 10
7936.235603304057
 20
572.2917069927141
 30
0.0
 10
7974.3807153774505
 20
588.194768285327
 30
0.0
 10
8014.117142686704
 20
605.5297720592295
 30
0.0
 10
8055.407742495809
 20
624.3528324842699
 30
0.0
 10
8098.213965317223
 20
644.7192234841268
 30
0.0
 10
8142.495872844461
 20
666.6833479025605
 30
0.0
 10
8188.212156143472
 20
690.2987068570947
 30
0.0
 10
8211.29589230991
 20
702.7055356323458
 30
0.0
 10
8206.111736028222
 20
808.2314609871139
 30
0.0
 10
8190.609193442101
 20
912.7411139943806
 30
0.0
 10
8165.548552572353
 20
920.4061355115923
 30
0.0
 10
8116.103566855012
 20
934.6489275354421
 30
0.0
 10
8068.387535658508
 20
947.5520458630137
 30
0.0
 10
8022.43053662517
 20
959.1760225765837
 30
0.0
 10
7978.26112722291
 20
969.5820067535783
 30
0.0
 10
7935.906332724643
 20
978.8317308977437
 30
0.0
 10
7895.391634937034
 20
986.9874771292024
 30
0.0
 10
7856.740961559242
 20
994.1120431818406
 30
0.0
 10
7819.9766762980835
 20
1000.2687081879811
 30
0.0
 10
7785.119569794937
 20
1005.5211982466338
 30
0.0
 10
7752.188849976115
 20
1009.9336521122166
 30
0.0
 10
7721.202137901669
 20
1013.5705858172357
 30
0.0
 10
7717.376886938393
 20
1013.9562216214647
 30
0.0
 10
7705.31347421451
 20
1015.4354502259769
 30
0.0
 10
7695.3719900375645
 20
1017.5466582853416
 30
0.0
 10
7687.5693241003855
 20
1020.2206884548493
 30
0.0
 10
7681.9206693470205
 20
1023.3880094567342
 30
0.0
 10
7678.439514273287
 20
1026.9787522829488
 30
0.0
 10
7677.137636224042
 20
1030.922748147037
 30
0.0
 10
7671.480907458049
 20
1073.889868929588
 30
0.0
 10
7652.8832891527545
 20
1199.264827572012
 30
0.0
 10
7645.82374429087
 20
1242.0238602433615
 30
0.0
 10
7645.924682341759
 20
1246.1759442192752
 30
0.0
 10
7648.2136024237125
 20
1250.6225968432677
 30
0.0
 10
7652.699603275156
 20
1255.293251924906
 30
0.0
 10
7659.390059016185
 20
1260.1171336921243
 30
0.0
 10
7668.290614878352
 20
1265.0232943531744
 30
0.0
 10
7679.405183702381
 20
1269.9406517396972
 30
0.0
 10
7682.9537764784145
 20
1271.4200939369864
 30
0.0
 10
7711.550465413433
 20
1283.8953903885456
 30
0.0
 10
7741.782331213818
 20
1297.6771285893285
 30
0.0
 10
7773.613785158089
 20
1312.8219321807421
 30
0.0
 10
7807.007827125282
 20
1329.3856019403074
 30
0.0
 10
7841.926063126557
 20
1347.4230848178179
 30
0.0
 10
7878.328723468809
 20
1366.9884433265424
 30
0.0
 10
7916.1746815219785
 20
1388.1348252909017
 30
0.0
 10
7955.4214732520195
 20
1410.9144340509106
 30
0.0
 10
7996.025317005779
 20
1435.3784988606672
 30
0.0
 10
8037.941134379459
 20
1461.5772459607783
 30
0.0
 10
8081.122571326276
 20
1489.5598698626773
 30
0.0
 10
8102.879071116542
 20
1504.1695581734014
 30
0.0
 10
8087.37652853042
 20
1608.6792111806644
 30
0.0
 10
8061.704897599514
 20
1711.166106751178
 30
0.0
 10
8036.013627075642
 20
1716.3378467418418
 30
0.0
 10
7985.410694734732
 20
1725.6655997254957
 30
0.0
 10
7936.659702510756
 20
1733.8295970857819
 30
0.0
 10
7889.784650032367
 20
1740.893027550944
 30
0.0
 10
7844.807963597762
 20
1746.9195448702262
 30
0.0
 10
7801.750487502299
 20
1751.9732332284646
 30
0.0
 10
7760.631476135469
 20
1756.1185724941688
 30
0.0
 10
7721.468586723729
 20
1759.4204033376182
 30
0.0
 10
7684.277872846933
 20
1761.9438922114077
 30
0.0
 10
7649.073778783857
 20
1763.7544961951749
 30
0.0
 10
7615.869133272104
 20
1764.9179279037132
 30
0.0
 10
7584.675148844491
 20
1765.5001198731154
 30
0.0
 10
7580.830518591413
 20
1765.5089585750789
 30
0.0
 10
7568.680204739353
 20
1765.7986430717358
 30
0.0
 10
7558.579656949384
 20
1766.925249237587
 30
0.0
 10
7550.552462191007
 20
1768.8216082188324
 30
0.0
 10
7544.620555507104
 20
1771.4200127187428
 30
0.0
 10
7540.8042088030625
 20
1774.652252271428
 30
0.0
 10
7539.122020456394
 20
1778.4496503539822
 30
0.0
 10
7529.28101607825
 20
1820.6554163285937
 30
0.0
 10
7498.4840554732755
 20
1943.603774913467
 30
0.0
 10
7487.267386143767
 20
1985.4649547558813
 30
0.0
 10
7486.960862752623
 20
1989.6069389716693
 30
0.0
 10
7488.802912884514
 20
1994.2565331487594
 30
0.0
 10
7492.809508161142
 20
1999.3444027245343
 30
0.0
 10
7498.994924432979
 20
2004.8008355217796
 30
0.0
 10
7507.371733847907
 20
2010.5557787112102
 30
0.0
 10
7517.9507976761215
 20
2016.5388759299933
 30
0.0
 10
7521.337292314549
 20
2018.3590171248309
 30
0.0
 10
7548.5734874931295
 20
2033.577207286435
 30
0.0
 10
7577.308932029265
 20
2050.2558236834298
 30
0.0
 10
7607.50265848349
 20
2068.4477289942047
 30
0.0
 10
7639.112375467894
 20
2088.2048286542354
 30
0.0
 10
7672.094488128301
 20
2109.578041759743
 30
0.0
 10
7706.404119220599
 20
2132.6172723866275
 30
0.0
 10
7741.995130752927
 20
2157.371381323338
 30
0.0
 10
7778.820146345067
 20
2183.8881583333555
 30
0.0
 10
7816.830573819502
 20
2212.2142946354757
 30
0.0
 10
7855.9766288047995
 20
2242.3953561609983
 30
0.0
 10
7896.2073585562475
 20
2274.4757570452284
 30
0.0
 10
7916.427094984045
 20
2291.147605606525
 30
0.0
 10
7890.755464053143
 20
2393.634501177036
 30
0.0
 10
7855.161976616866
 20
2493.111634481417
 30
0.0
 10
7829.087497418292
 20
2495.7402862622616
 30
0.0
 10
7777.813952354633
 20
2500.063168845419
 30
0.0
 10
7728.497497808304
 20
2503.409421480945
 30
0.0
 10
7681.155824264742
 20
2505.8442810010556
 30
0.0
 10
7635.805010874916
 20
2507.433292806412
 30
0.0
 10
7592.459520214666
 20
2508.2422755972057
 30
0.0
 10
7551.132193826016
 20
2508.3372860139534
 30
0.0
 10
7511.834248413972
 20
2507.784583212228
 30
0.0
 10
7474.575272826689
 20
2506.6505933763324
 30
0.0
 10
7439.363225874025
 20
2505.001874179073
 30
0.0
 10
7406.204433557124
 20
2502.9050792472185
 30
0.0
 10
7375.10359189875
 20
2500.4269226540787
 30
0.0
 10
7371.276608246893
 20
2500.0588791322452
 30
0.0
 10
7359.156407431091
 20
2499.1562297009864
 30
0.0
 10
7348.9940698248365
 20
2499.287384140081
 30
0.0
 10
7340.819652518897
 20
2500.38780895942
 30
0.0
 10
7334.661621408531
 20
2502.392272901589
 30
0.0
 10
7330.546836579169
 20
2505.234880946931
 30
0.0
 10
7328.500538328433
 20
2508.849110228547
 30
0.0
 10
7314.57003258994
 20
2549.887056796865
 30
0.0
 10
7271.870321251241
 20
2669.224755420606
 30
0.0
 10
7256.604550111407
 20
2709.784936388554
 30
0.0
 10
7255.893517266051
 20
2713.8769312719796
 30
0.0
 10
7257.270957498143
 20
2718.6846888685154
 30
0.0
 10
7260.759561497212
 20
2724.1407739730994
 30
0.0
 10
7266.3803693598675
 20
2730.1772093697446
 30
0.0
 10
7274.1527590736605
 20
2736.725511838669
 30
0.0
 10
7284.094435738291
 20
2743.7167283928025
 30
0.0
 10
7287.2862184444975
 20
2745.860039630492
 30
0.0
 10
7312.899620418252
 20
2763.674564011775
 30
0.0
 10
7339.861905650862
 20
2783.0894344116195
 30
0.0
 10
7368.127122523718
 20
2804.153243448906
 30
0.0
 10
7397.648095671145
 20
2826.9135013393466
 30
0.0
 10
7428.376449215908
 20
2851.4166089468586
 30
0.0
 10
7460.262630555279
 20
2877.707831306441
 30
0.0
 10
7493.2559346696835
 20
2905.831271614471
 30
0.0
 10
7527.304529093168
 20
2935.829845816346
 30
0.0
 10
7562.3554790930875
 20
2967.745257433599
 30
0.0
 10
7598.354773781084
 20
3001.6179732633955
 30
0.0
 10
7635.247352417304
 20
3037.487199332511
 30
0.0
 10
7653.735598367594
 20
3056.0606491289736
 30
0.0
 10
7618.1421109313205
 20
3155.537782433351
 30
0.0
 10
7572.969551731066
 20
3251.047134298147
 30
0.0
 10
7546.762975346231
 20
3251.107382515556
 30
0.0
 10
7495.312609827758
 20
3250.383762975813
 30
0.0
 10
7445.905637375473
 20
3248.880044644451
 30
0.0
 10
7398.553268962553
 20
3246.662884191302
 30
0.0
 10
7353.265081741726
 20
3243.7990874304037
 30
0.0
 10
7310.049017286805
 20
3240.355573707243
 30
0.0
 10
7268.911380621272
 20
3236.3993402727833
 30
0.0
 10
7229.856839905686
 20
3231.997426656002
 30
0.0
 10
7192.888426910646
 20
3227.2168790524424
 30
0.0
 10
7158.0075383294125
 20
3222.124714741309
 30
0.0
 10
7125.213936503815
 20
3216.7878864504783
 30
0.0
 10
7094.5057557212995
 20
3211.273247297488
 30
0.0
 10
7090.733274615274
 20
3210.5318660121657
 30
0.0
 10
7078.75991099516
 20
3208.4455756604525
 30
0.0
 10
7068.633652439067
 20
3207.5800152838465
 30
0.0
 10
7060.3907366928115
 20
3207.873908248715
 30
0.0
 10
7054.065886361898
 20
3209.2651275496273
 30
0.0
 10
7049.692291034493
 20
3211.6907282182224
 30
0.0
 10
7047.3015898504655
 20
3215.086981695179
 30
0.0
 10
7029.415741137073
 20
3254.5618909981276
 30
0.0
 10
6975.224500626879
 20
3369.1396423863666
 30
0.0
 10
6956.0566453979145
 20
3408.008207764677
 30
0.0
 10
6954.947950733338
 20
3412.010805168101
 30
0.0
 10
6955.8475155632095
 20
3416.93042485024
 30
0.0
 10
6958.784531121144
 20
3422.7021804014767
 30
0.0
 10
6963.786599122254
 20
3429.260484224801
 30
0.0
 10
6970.879716773149
 20
3436.539082240777
 30
0.0
 10
6980.088262493241
 20
3444.4710888930567
 30
0.0
 10
6983.05459465496
 20
3446.9169289147258
 30
0.0
 10
7006.798532361172
 20
3467.156223907488
 30
0.0
 10
7031.727996744383
 20
3489.1203724949833
 30
0.0
 10
7057.792494546043
 20
3512.8532292631025
 30
0.0
 10
7084.940420747278
 20
3538.3974516584462
 30
0.0
 10
7113.119084333934
 20
3565.794475446941
 30
0.0
 10
7142.2747345633215
 20
3595.084490695655
 30
0.0
 10
7172.352587705205
 20
3626.3064182710004
 30
0.0
 10
7203.296854382881
 20
3659.49788699628
 30
0.0
 10
7235.050767098988
 20
3694.695211068053
 30
0.0
 10
7267.556608602621
 20
3731.9333684319727
 30
0.0
 10
7300.7557404238105
 20
3771.2459794308147
 30
0.0
 10
7317.334443981402
 20
3791.5421579876274
 30
0.0
 10
7272.161884781147
 20
3887.0515098524183
 30
0.0
 10
7217.845290255831
 20
3977.6732730084423
 30
0.0
 10
7191.759000341296
 20
3975.1645374391487
 30
0.0
 10
7140.627309513582
 20
3969.4013846282432
 30
0.0
 10
7091.605635308655
 20
3963.0621769595405
 30
0.0
 10
7044.698601219633
 20
3956.2143490003186
 30
0.0
 10
6999.909190167783
 20
3948.9253236014843
 30
0.0
 10
6957.2387462431925
 20
3941.262476283939
 30
0.0
 10
6916.686977229987
 20
3933.293099688944
 30
0.0
 10
6878.251957787333
 20
3925.084368091566
 30
0.0
 10
6841.930133410669
 20
3916.703302007078
 30
0.0
 10
6807.716325225737
 20
3908.216732908046
 30
0.0
 10
6775.603734203829
 20
3899.6912678320887
 30
0.0
 10
6745.583950864907
 20
3891.193255108898
 30
0.0
 10
6741.902303360013
 20
3890.085675967145
 30
0.0
 10
6730.191086972554
 20
3886.8358368115473
 30
0.0
 10
6720.198428872094
 20
3884.98189743883
 30
0.0
 10
6711.966398470196
 20
3884.4664281993178
 30
0.0
 10
6705.535640684936
 20
3885.2310046565894
 30
0.0
 10
6700.945354973342
 20
3887.2162380880295
 30
0.0
 10
6698.233274615314
 20
3890.3618079827634
 30
0.0
 10
6676.564333427533
 20
3927.893515064574
 30
0.0
 10
6611.403455015901
 20
4036.6078728368734
 30
0.0
 10
6588.518112621878
 20
4073.410497093233
 30
0.0
 10
6587.022433473774
 20
4077.285149815618
 30
0.0
 10
6587.43545960036
 20
4082.2692529564843
 30
0.0
 10
6589.792601651803
 20
4088.301093793252
 30
0.0
 10
6594.12775714211
 20
4095.318105992303
 30
0.0
 10
6600.473292129634
 20
4103.256902677551
 30
0.0
 10
6608.860023576001
 20
4112.05330986784
 30
0.0
 10
6611.572337792952
 20
4114.778123897047
 30
0.0
 10
6633.218144131753
 20
4137.247274026583
 30
0.0
 10
6655.8747032957235
 20
4161.549174044007
 30
0.0
 10
6679.4874666640535
 20
4187.722518158584
 30
0.0
 10
6704.000896549214
 20
4215.8047002332705
 30
0.0
 10
6729.358494243398
 20
4245.831791886927
 30
0.0
 10
6755.502828512993
 20
4277.838521166377
 30
0.0
 10
6782.375564514373
 20
4311.858251778846
 30
0.0
 10
6809.917493242278
 20
4347.922963039404
 30
0.0
 10
6838.068561136662
 20
4386.0632300940715
 30
0.0
 10
6866.767900432751
 20
4426.308205180252
 30
0.0
 10
6895.953859650981
 20
4468.685599174441
 30
0.0
 10
6910.463358837763
 20
4490.509043197078
 30
0.0
 10
6856.146764312456
 20
4581.130806353103
 30
0.0
 10
6793.209232959842
 20
4665.992243682274
 30
0.0
 10
6767.494454747698
 20
4660.938684821223
 30
0.0
 10
6717.17386474484
 20
4650.191501051184
 30
0.0
 10
6669.009594307837
 20
4639.077854080354
 30
0.0
 10
6622.999634922981
 20
4627.665306941711
 30
0.0
 10
6579.140346552921
 20
4616.021250204118
 30
0.0
 10
6537.426462859695
 20
4604.212866700794
 30
0.0
 10
6497.851097202264
 20
4592.307096398376
 30
0.0
 10
6460.405749280493
 20
4580.370601393034
 30
0.0
 10
6425.080312546483
 20
4568.469731075569
 30
0.0
 10
6391.863082433842
 20
4556.670487488293
 30
0.0
 10
6360.740764021693
 20
4545.038490516382
 30
0.0
 10
6331.6984850504
 20
4533.638944731003
 30
0.0
 10
6328.143127424704
 20
4532.175834325418
 30
0.0
 10
6316.806843685714
 20
4527.793744093547
 30
0.0
 10
6307.044020800937
 20
4524.969280174344
 30
0.0
 10
6298.902154696252
 20
4523.649412981013
 30
0.0
 10
6292.427421169528
 20
4523.779983305399
 30
0.0
 10
6287.664652034449
 20
4525.305730616501
 30
0.0
 10
6284.657311318845
 20
4528.170323371382
 30
0.0
 10
6259.413961405762
 20
4563.39737737594
 30
0.0
 10
6183.910979972356
 20
4665.201362837637
 30
0.0
 10
6157.528548770929
 20
4699.583616582098
 30
0.0
 10
6155.660289347115
 20
4703.293009599626
 30
0.0
 10
6155.5827991030355
 20
4708.293596561385
 30
0.0
 10
6157.337367081485
 20
4714.527432759087
 30
0.0
 10
6160.963860143778
 20
4721.935575670499
 30
0.0
 10
6166.500701497181
 20
4730.458116073152
 30
0.0
 10
6173.984849861341
 20
4740.034209591601
 30
0.0
 10
6176.417025064913
 20
4743.011756179712
 30
0.0
 10
6195.756239088459
 20
4767.494371247388
 30
0.0
 10
6215.921697983105
 20
4793.899982112803
 30
0.0
 10
6236.855323098821
 20
4822.2617499622065
 30
0.0
 10
6258.498178937707
 20
4852.611444951575
 30
0.0
 10
6280.790503211752
 20
4884.979427163293
 30
0.0
 10
6303.671737290591
 20
4919.394628173859
 30
0.0
 10
6327.080557013643
 20
4955.884533220577
 30
0.0
 10
6350.954903962176
 20
4994.475164131996
 30
0.0
 10
6375.232016862074
 20
5035.1910625482315
 30
0.0
 10
6399.848463624544
 20
5078.055274246452
 30
0.0
 10
6424.740173497874
 20
5123.089333765985
 30
0.0
 10
6437.040733904981
 20
5146.2298715586
 30
0.0
 10
6374.103202552373
 20
5231.09130888777
 30
0.0
 10
6303.150857204541
 20
5309.375158358626
 30
0.0
 10
6278.055238066098
 20
5301.825444740205
 30
0.0
 10
6229.030363677855
 20
5286.197731265746
 30
0.0
 10
6182.187345262353
 20
5270.4166754884545
 30
0.0
 10
6137.517561642143
 20
5254.549318238068
 30
0.0
 10
6095.010784876802
 20
5238.662368793387
 30
0.0
 10
6054.655188918033
 20
5222.822170292542
 30
0.0
 10
6016.437359021755
 20
5207.09466535907
 30
0.0
 10
5980.342301791063
 20
5191.545361917818
 30
0.0
 10
5946.353455966302
 20
5176.239299254209
 30
0.0
 10
5914.452704010322
 20
5161.241014344558
 30
0.0
 10
5884.620383147432
 20
5146.614507966229
 30
0.0
 10
5856.835301566388
 20
5132.4232129762
 30
0.0
 10
5853.440473857378
 20
5130.6186618598085
 30
0.0
 10
5842.588297376307
 20
5125.14652247609
 30
0.0
 10
5833.149331028496
 20
5121.378735141952
 30
0.0
 10
5825.1760398424085
 20
5119.267181037386
 30
0.0
 10
5818.719685797532
 20
5118.762487765286
 30
0.0
 10
5813.830301309336
 20
5119.814055175386
 30
0.0
 10
5810.5566625712245
 20
5122.37008319624
 30
0.0
 10
5781.982011191922
 20
5154.953228336412
 30
0.0
 10
5696.864061722073
 20
5248.866413455795
 30
0.0
 10
5667.238618947816
 20
5280.497176789544
 30
0.0
 10
5665.015771607838
 20
5284.005586619698
 30
0.0
 10
5664.448511266503
 20
5288.974499016307
 30
0.0
 10
5665.583607723182
 20
5295.350295324598
 30
0.0
 10
5668.46651324683
 20
5303.078224482431
 30
0.0
 10
5673.141338157132
 20
5312.102431879517
 30
0.0
 10
5679.650826999086
 20
5322.36598871072
 30
0.0
 10
5681.779440012507
 20
5325.5675924563975
 30
0.0
 10
5698.625814517863
 20
5351.827891495552
 30
0.0
 10
5716.105968750467
 20
5380.082912741549
 30
0.0
 10
5734.158853360219
 20
5410.35996499727
 30
0.0
 10
5752.722702619914
 20
5442.684888747744
 30
0.0
 10
5771.7350662048375
 20
5477.082040154683
 30
0.0
 10
5791.132841300587
 20
5513.574275697371
 30
0.0
 10
5810.852305014813
 20
5552.182937445328
 30
0.0
 10
5830.829147171817
 20
5592.927839136147
 30
0.0
 10
5850.998503208784
 20
5635.827252554626
 30
0.0
 10
5871.294987598592
 20
5680.897895074272
 30
0.0
 10
5891.65272735375
 20
5728.154917507855
 30
0.0
 10
5901.625887860292
 20
5752.389693041605
 30
0.0
 10
5830.6735425124625
 20
5830.67354251246
 30
0.0
 10
5752.389693041602
 20
5901.6258878602885
 30
0.0
 10
5728.154917507828
 20
5891.652727353737
 30
0.0
 10
5680.89789507428
 20
5871.294987598596
 30
0.0
 10
5635.827252554622
 20
5850.99850320878
 30
0.0
 10
5592.927839134307
 20
5830.82914717095
 30
0.0
 10
5552.182937470502
 20
5810.852305027025
 30
0.0
 10
5513.574275695886
 20
5791.132841299354
 30
0.0
 10
5477.082040154652
 20
5771.7350662048675
 30
0.0
 10
5442.684888747737
 20
5752.722702619956
 30
0.0
 10
5410.35996499771
 20
5734.158853360801
 30
0.0
 10
5380.082912878454
 20
5716.105968811349
 30
0.0
 10
5351.827891122737
 20
5698.62581427869
 30
0.0
 10
5325.567592456436
 20
5681.779440012516
 30
0.0
 10
5322.365988710754
 20
5679.6508269990345
 30
0.0
 10
5312.102431879517
 20
5673.141338157109
 30
0.0
 10
5303.078224474465
 20
5668.466513259747
 30
0.0
 10
5295.350295359741
 20
5665.583607664266
 30
0.0
 10
5288.974499015567
 20
5664.448511267785
 30
0.0
 10
5284.005586619685
 20
5665.0157716078775
 30
0.0
 10
5280.497176789668
 20
5667.238618947596
 30
0.0
 10
5248.866413457419
 20
5696.864061723925
 30
0.0
 10
5154.953228334728
 20
5781.982011190123
 30
0.0
 10
5122.37008319647
 20
5810.556662571123
 30
0.0
 10
5119.814055175346
 20
5813.830301309345
 30
0.0
 10
5118.762487763938
 20
5818.719685798143
 30
0.0
 10
5119.2671810994625
 20
5825.176039813208
 30
0.0
 10
5121.378735128315
 20
5833.149331035156
 30
0.0
 10
5125.146522476111
 20
5842.588297376308
 30
0.0
 10
5130.618661859862
 20
5853.4404738573485
 30
0.0
 10
5132.423212976196
 20
5856.835301566347
 30
0.0
 10
5146.614508167708
 20
5884.620383541894
 30
0.0
 10
5161.241014297386
 20
5914.452703868108
 30
0.0
 10
5176.2392992536725
 20
5946.3534559658065
 30
0.0
 10
5191.545361917774
 20
5980.3423017910645
 30
0.0
 10
5207.094665359037
 20
6016.437359021782
 30
0.0
 10
5222.822170293622
 20
6054.655188919631
 30
0.0
 10
5238.662368783702
 20
6095.010784850551
 30
0.0
 10
5254.549318238748
 20
6137.517561644059
 30
0.0
 10
5270.416675488457
 20
6182.187345262359
 30
0.0
 10
5286.197731265744
 20
6229.0303636778435
 30
0.0
 10
5301.825444740215
 20
6278.055238066127
 30
0.0
 10
5309.375158358626
 20
6303.1508572045395
 30
0.0
 10
5231.091308887772
 20
6374.10320255237
 30
0.0
 10
5146.229871558599
 20
6437.040733904977
 30
0.0
 10
5123.089333765959
 20
6424.74017349786
 30
0.0
 10
5078.055274246461
 20
6399.848463624549
 30
0.0
 10
5035.191062548226
 20
6375.232016862072
 30
0.0
 10
4994.475164130249
 20
6350.954903961135
 30
0.0
 10
4955.8845332444325
 20
6327.080557028264
 30
0.0
 10
4919.394628172501
 20
6303.671737289222
 30
0.0
 10
4884.979427163257
 20
6280.79050321178
 30
0.0
 10
4852.611444951564
 20
6258.49817893775
 30
0.0
 10
4822.261749962586
 20
6236.855323099444
 30
0.0
 10
4793.899982243081
 20
6215.9216980571155
 30
0.0
 10
4767.494370899812
 20
6195.756238813898
 30
0.0
 10
4743.01175617975
 20
6176.417025064927
 30
0.0
 10
4740.034209591639
 20
6173.984849861294
 30
0.0
 10
4730.458116073154
 20
6166.50070149716
 30
0.0
 10
4721.935575661304
 20
6160.9638601558545
 30
0.0
 10
4714.527432799835
 20
6157.337367026298
 30
0.0
 10
4708.293596560522
 20
6155.58279910424
 30
0.0
 10
4703.29300959961
 20
6155.6602893471545
 30
0.0
 10
4699.583616582241
 20
6157.528548770723
 30
0.0
 10
4665.201362839071
 20
6183.910979974359
 30
0.0
 10
4563.397377374438
 20
6259.413961403809
 30
0.0
 10
4528.170323371621
 20
6284.657311318768
 30
0.0
 10
4525.305730616459
 20
6287.664652034455
 30
0.0
 10
4523.779983303997
 20
6292.427421170004
 30
0.0
 10
4523.649413045651
 20
6298.902154673278
 30
0.0
 10
4524.969280160119
 20
6307.044020806231
 30
0.0
 10
4527.793744093568
 20
6316.806843685718
 30
0.0
 10
4532.175834325475
 20
6328.143127424682
 30
0.0
 10
4533.638944731001
 20
6331.698485050361
 30
0.0
 10
4545.038490678226
 20
6360.7407644340055
 30
0.0
 10
4556.670487455288
 20
6391.863082287689
 30
0.0
 10
4568.469731075083
 20
6425.080312545939
 30
0.0
 10
4580.37060139299
 20
6460.405749280491
 30
0.0
 10
4592.30709639834
 20
6497.85109720229
 30
0.0
 10
4604.212866701711
 20
6537.426462861392
 30
0.0
 10
4616.021250197049
 20
6579.140346525849
 30
0.0
 10
4627.6653069422
 20
6622.999634924957
 30
0.0
 10
4639.077854080355
 20
6669.009594307844
 30
0.0
 10
4650.191501051182
 20
6717.173864744831
 30
0.0
 10
4660.93868482123
 20
6767.494454747728
 30
0.0
 10
4665.992243682271
 20
6793.209232959838
 30
0.0
 10
4581.1308063531005
 20
6856.146764312447
 30
0.0
 10
4490.509043197077
 20
6910.46335883776
 30
0.0
 10
4468.685599174416
 20
6895.953859650964
 30
0.0
 10
4426.30820518026
 20
6866.767900432757
 30
0.0
 10
4386.063230094066
 20
6838.068561136659
 30
0.0
 10
4347.922963037767
 20
6809.917493241071
 30
0.0
 10
4311.8582518011535
 20
6782.375564531262
 30
0.0
 10
4277.83852116516
 20
6755.502828511497
 30
0.0
 10
4245.83179188689
 20
6729.358494243423
 30
0.0
 10
4215.804700233255
 20
6704.000896549256
 30
0.0
 10
4187.7225181589
 20
6679.487466664712
 30
0.0
 10
4161.549174166405
 20
6655.874703382146
 30
0.0
 10
4137.247273707592
 20
6633.218143824444
 30
0.0
 10
4114.778123897084
 20
6611.572337792969
 30
0.0
 10
4112.053309867882
 20
6608.860023575958
 30
0.0
 10
4103.256902677555
 20
6600.473292129612
 30
0.0
 10
4095.3181059819685
 20
6594.1277571532255
 30
0.0
 10
4088.3010938392126
 20
6589.792601600876
 30
0.0
 10
4082.2692529555065
 20
6587.435459601474
 30
0.0
 10
4077.2851498155974
 20
6587.02243347381
 30
0.0
 10
4073.410497093396
 20
6588.518112621687
 30
0.0
 10
4036.607872838103
 20
6611.403455018036
 30
0.0
 10
3927.8935150632715
 20
6676.564333425442
 30
0.0
 10
3890.3618079830085
 20
6698.23327461526
 30
0.0
 10
3887.2162380879868
 20
6700.945354973341
 30
0.0
 10
3885.2310046551465
 20
6705.535640685273
 30
0.0
 10
3884.466428265897
 20
6711.966398453669
 30
0.0
 10
3884.981897424154
 20
6720.198428875968
 30
0.0
 10
3886.8358368115673
 20
6730.191086972561
 30
0.0
 10
3890.085675967203
 20
6741.902303359996
 30
0.0
 10
3891.1932551089
 20
6745.583950864867
 30
0.0
 10
3899.6912679527386
 20
6775.603734630018
 30
0.0
 10
3908.216732889525
 20
6807.716325077054
 30
0.0
 10
3916.703302006647
 20
6841.930133410079
 30
0.0
 10
3925.0843680915204
 20
6878.251957787326
 30
0.0
 10
3933.293099688904
 20
6916.686977230009
 30
0.0
 10
3941.2624762846854
 20
6957.2387462449715
 30
0.0
 10
3948.925323597104
 20
6999.909190140148
 30
0.0
 10
3956.214349000612
 20
7044.698601221646
 30
0.0
 10
3963.0621769595405
 20
7091.605635308661
 30
0.0
 10
3969.401384628241
 20
7140.627309513573
 30
0.0
 10
3975.164537439151
 20
7191.759000341326
 30
0.0
 10
3977.6732730084423
 20
7217.845290255835
 30
0.0
 10
3887.05150985242
 20
7272.161884781141
 30
0.0
 10
3791.5421579876247
 20
7317.334443981397
 30
0.0
 10
3771.245979430791
 20
7300.7557404237905
 30
0.0
 10
3731.9333684319804
 20
7267.556608602627
 30
0.0
 10
3694.695211068048
 20
7235.050767098984
 30
0.0
 10
3659.4978869947695
 20
7203.296854381518
 30
0.0
 10
3626.3064182915455
 20
7172.352587724199
 30
0.0
 10
3595.084490694591
 20
7142.274734561712
 30
0.0
 10
3565.7944754469013
 20
7113.119084333955
 30
0.0
 10
3538.3974516584267
 20
7084.940420747318
 30
0.0
 10
3512.853229263353
 20
7057.7924945467275
 30
0.0
 10
3489.1203726083195
 20
7031.727996842386
 30
0.0
 10
3467.1562236201544
 20
7006.798532024076
 30
0.0
 10
3446.9169289147603
 20
6983.05459465498
 30
0.0
 10
3444.4710888931036
 20
6980.088262493202
 30
0.0
 10
3436.5390822407835
 20
6970.879716773127
 30
0.0
 10
3429.260484213427
 20
6963.786599132304
 30
0.0
 10
3422.702180452208
 20
6958.784531074966
 30
0.0
 10
3416.930424849159
 20
6955.84751556422
 30
0.0
 10
3412.0108051680772
 20
6954.947950733373
 30
0.0
 10
3408.008207764858
 20
6956.056645397741
 30
0.0
 10
3369.1396423873825
 20
6975.224500629123
 30
0.0
 10
3254.5618909970367
 20
7029.415741134864
 30
0.0
 10
3215.086981695428
 20
7047.301589850435
 30
0.0
 10
3211.69072821818
 20
7049.692291034489
 30
0.0
 10
3209.2651275481594
 20
7054.065886362091
 30
0.0
 10
3207.8739083165933
 20
7060.39073668289
 30
0.0
 10
3207.580015268862
 20
7068.633652441482
 30
0.0
 10
3208.445575660473
 20
7078.759910995168
 30
0.0
 10
3210.5318660122257
 20
7090.733274615263
 30
0.0
 10
3211.2732472974944
 20
7094.505755721259
 30
0.0
 10
3216.7878865287744
 20
7125.213936939776
 30
0.0
 10
3222.124714737451
 20
7158.00753817963
 30
0.0
 10
3227.216879052072
 20
7192.888426910016
 30
0.0
 10
3231.9974266559584
 20
7229.856839905674
 30
0.0
 10
3236.399340272743
 20
7268.91138062129
 30
0.0
 10
3240.355573707812
 20
7310.049017288647
 30
0.0
 10
3243.799087428754
 20
7353.265081713795
 30
0.0
 10
3246.6628841913966
 20
7398.553268964584
 30
0.0
 10
3248.880044644451
 20
7445.905637375478
 30
0.0
 10
3250.3837629758123
 20
7495.312609827748
 30
0.0
 10
3251.1073825155563
 20
7546.762975346261
 30
0.0
 10
3251.047134298148
 20
7572.96955173107
 30
0.0
 10
3155.537782433356
 20
7618.142110931327
 30
0.0
 10
3056.0606491289727
 20
7653.735598367598
 30
0.0
 10
3037.4871993324887
 20
7635.247352417282
 30
0.0
 10
3001.617973263401
 20
7598.354773781092
 30
0.0
 10
2967.745257433594
 20
7562.355479093083
 30
0.0
 10
2935.8298458149757
 20
7527.304529091664
 30
0.0
 10
2905.8312716330533
 20
7493.2559346906
 30
0.0
 10
2877.7078313055395
 20
7460.262630553575
 30
0.0
 10
2851.4166089468167
 20
7428.376449215924
 30
0.0
 10
2826.9135013393225
 20
7397.648095671184
 30
0.0
 10
2804.1532434490873
 20
7368.1271225244245
 30
0.0
 10
2783.089434514803
 20
7339.861905759503
 30
0.0
 10
2763.674563758866
 20
7312.899620054617
 30
0.0
 10
2745.8600396305233
 20
7287.286218444522
 30
0.0
 10
2743.7167283928516
 20
7284.094435738257
 30
0.0
 10
2736.7255118386765
 20
7274.1527590736405
 30
0.0
 10
2730.1772093574396
 20
7266.380369368755
 30
0.0
 10
2724.1407740281115
 20
7260.759561456231
 30
0.0
 10
2718.6846888673394
 20
7257.270957499044
 30
0.0
 10
2713.876931271952
 20
7255.893517266084
 30
0.0
 10
2709.78493638875
 20
7256.604550111252
 30
0.0
 10
2669.2247554213955
 20
7271.870321253576
 30
0.0
 10
2549.8870567959952
 20
7314.570032587635
 30
0.0
 10
2508.849110228797
 20
7328.500538328429
 30
0.0
 10
2505.234880946889
 20
7330.546836579161
 30
0.0
 10
2502.392272900108
 20
7334.66162140858
 30
0.0
 10
2500.387809027944
 20
7340.819652515676
 30
0.0
 10
2499.287384124931
 20
7348.994069825772
 30
0.0
 10
2499.156229701005
 20
7359.156407431102
 30
0.0
 10
2500.058879132305
 20
7371.276608246889
 30
0.0
 10
2500.4269226540882
 20
7375.103591898712
 30
0.0
 10
2502.9050792824046
 20
7406.204433998661
 30
0.0
 10
2505.0018741899144
 20
7439.363225724586
 30
0.0
 10
2506.650593376024
 20
7474.575272826028
 30
0.0
 10
2507.7845832121848
 20
7511.834248413958
 30
0.0
 10
2508.33728601391
 20
7551.132193826031
 30
0.0
 10
2508.24227559759
 20
7592.459520216557
 30
0.0
 10
2507.4332928075064
 20
7635.805010846958
 30
0.0
 10
2505.8442810009496
 20
7681.155824266774
 30
0.0
 10
2503.4094214809434
 20
7728.49749780831
 30
0.0
 10
2500.063168845418
 20
7777.813952354624
 30
0.0
 10
2495.7402862622575
 20
7829.0874974183225
 30
0.0
 10
2493.111634481416
 20
7855.1619766168715
 30
0.0
 10
2393.634501177038
 20
7890.755464053146
 30
0.0
 10
2291.1476056065217
 20
7916.427094984041
 30
0.0
 10
2274.475757045208
 20
7896.207358556224
 30
0.0
 10
2242.3953561610024
 20
7855.976628804809
 30
0.0
 10
2212.21429463547
 20
7816.830573819497
 30
0.0
 10
2183.8881583321386
 20
7778.820146343436
 30
0.0
 10
2157.3713813397803
 20
7741.995130775564
 30
0.0
 10
2132.617272385896
 20
7706.404119218813
 30
0.0
 10
2109.5780417596984
 20
7672.094488128314
 30
0.0
 10
2088.2048286542067
 20
7639.11237546793
 30
0.0
 10
2068.447728994315
 20
7607.502658484211
 30
0.0
 10
2050.2558237754674
 20
7577.308932147496
 30
0.0
 10
2033.5772070703852
 20
7548.573487106456
 30
0.0
 10
2018.3590171248593
 20
7521.337292314576
 30
0.0
 10
2016.538875930045
 20
7517.950797676092
 30
0.0
 10
2010.5557787112189
 20
7507.371733847887
 30
0.0
 10
2004.8008355086617
 20
7498.994924440617
 30
0.0
 10
1999.344402783298
 20
7492.80950812575
 30
0.0
 10
1994.2565331475005
 20
7488.802912885296
 30
0.0
 10
1989.6069389716379
 20
7486.960862752653
 30
0.0
 10
1985.4649547560912
 20
7487.2673861436315
 30
0.0
 10
1943.6037749140237
 20
7498.484055475675
 30
0.0
 10
1820.6554163279532
 20
7529.281016075871
 30
0.0
 10
1778.449650354231
 20
7539.122020456414
 30
0.0
 10
1774.6522522713863
 20
7540.804208803052
 30
0.0
 10
1771.420012717263
 20
7544.620555507007
 30
0.0
 10
1768.8216082873412
 20
7550.552462194519
 30
0.0
 10
1766.9252492224173
 20
7558.57965694883
 30
0.0
 10
1765.7986430717526
 20
7568.680204739366
 30
0.0
 10
1765.508958575138
 20
7580.830518591414
 30
0.0
 10
1765.5001198731277
 20
7584.675148844453
 30
0.0
 10
1764.9179278954512
 20
7615.869133714963
 30
0.0
 10
1763.7544962206107
 20
7649.0737786362
 30
0.0
 10
1761.9438922111653
 20
7684.2778728462445
 30
0.0
 10
1759.420403337576
 20
7721.468586723709
 30
0.0
 10
1756.1185724941233
 20
7760.631476135479
 30
0.0
 10
1751.9732332286608
 20
7801.750487504218
 30
0.0
 10
1746.9195448740556
 20
7844.807963570046
 30
0.0
 10
1740.8930275506389
 20
7889.7846500343785
 30
0.0
 10
1733.8295970857791
 20
7936.659702510762
 30
0.0
 10
1725.6655997254954
 20
7985.410694734722
 30
0.0
 10
1716.337846741834
 20
8036.013627075672
 30
0.0
 10
1711.166106751175
 20
8061.704897599511
 30
0.0
 10
1608.679211180665
 20
8087.376528530412
 30
0.0
 10
1504.1695581733995
 20
8102.879071116539
 30
0.0
 10
1489.5598698626595
 20
8081.12257132625
 30
0.0
 10
1461.5772459607824
 20
8037.941134379468
 30
0.0
 10
1435.3784988606628
 20
7996.025317005773
 30
0.0
 10
1410.9144340498597
 20
7955.421473250278
 30
0.0
 10
1388.134825305047
 20
7916.174681546119
 30
0.0
 10
1366.9884433259904
 20
7878.328723466961
 30
0.0
 10
1347.4230848177735
 20
7841.926063126565
 30
0.0
 10
1329.385601940276
 20
7807.007827125315
 30
0.0
 10
1312.8219321807826
 20
7773.613785158817
 30
0.0
 10
1297.6771286693352
 20
7741.7823313405015
 30
0.0
 10
1283.8953902114376
 20
7711.550465007445
 30
0.0
 10
1271.4200939370128
 20
7682.9537764784445
 30
0.0
 10
1269.9406517397522
 20
7679.405183702357
 30
0.0
 10
1265.023294353186
 20
7668.290614878335
 30
0.0
 10
1260.1171336783218
 20
7659.3900590225
 30
0.0
 10
1255.2932519868564
 20
7652.699603245695
 30
0.0
 10
1250.6225968419387
 20
7648.213602424367
 30
0.0
 10
1246.1759442192417
 20
7645.924682341785
 30
0.0
 10
1242.0238602435843
 20
7645.8237442907575
 30
0.0
 10
1199.2648275723313
 20
7652.883289155198
 30
0.0
 10
1073.8898689291846
 20
7671.480907455619
 30
0.0
 10
1030.9227481472833
 20
7677.137636224086
 30
0.0
 10
1026.978752282909
 20
7678.439514273272
 30
0.0
 10
1023.3880094552721
 20
7681.92066934678
 30
0.0
 10
1020.2206885226847
 20
7687.5693241105955
 30
0.0
 10
1017.5466582702999
 20
7695.371990035527
 30
0.0
 10
1015.4354502259931
 20
7705.313474214525
 30
0.0
 10
1013.9562216215243
 20
7717.376886938401
 30
0.0
 10
1013.5705858172525
 20
7721.202137901632
 30
0.0
 10
1009.9336520605867
 20
7752.188850416033
 30
0.0
 10
1005.5211982864208
 20
7785.119569650484
 30
0.0
 10
1000.2687081878083
 20
7819.976676297375
 30
0.0
 10
994.112043181801
 20
7856.7409615592205
 30
0.0
 10
986.9874771291575
 20
7895.391634937038
 30
0.0
 10
978.8317308977521
 20
7935.906332726572
 30
0.0
 10
969.5820067601068
 20
7978.261127195703
 30
0.0
 10
959.1760225760837
 20
8022.430536627144
 30
0.0
 10
947.552045863011
 20
8068.387535658515
 30
0.0
 10
934.6489275354435
 20
8116.103566855002
 30
0.0
 10
920.4061355115825
 20
8165.548552572383
 30
0.0
 10
912.7411139943786
 20
8190.609193442098
 30
0.0
 10
808.2314609871162
 20
8206.11173602822
 30
0.0
 10
702.7055356323451
 20
8211.295892309912
 30
0.0
 10
690.2987068570801
 20
8188.212156143445
 30
0.0
 10
666.6833479025646
 20
8142.49587284447
 30
0.0
 10
644.7192234841237
 20
8098.213965317216
 30
0.0
 10
624.3528324833957
 20
8055.407742493971
 30
0.0
 10
605.529772070941
 20
8014.117142712114
 30
0.0
 10
588.1947682849594
 20
7974.380715375556
 30
0.0
 10
572.2917069926698
 20
7936.2356033040605
 30
0.0
 10
557.7636651635685
 20
7899.717525662885
 30
0.0
 10
544.5529424988797
 20
7864.860761592789
 30
0.0
 10
532.6010934316396
 20
7831.698134593983
 30
0.0
 10
521.8489588961409
 20
7800.260996368117
 30
0.0
 10
512.2367002156307
 20
7770.57921584507
 30
0.0
 10
511.11220485302874
 20
7766.9026998196705
 30
0.0
 10
507.30794413845604
 20
7755.359665373447
 30
0.0
 10
503.29781500056384
 20
7746.021080287481
 30
0.0
 10
499.1529409606878
 20
7738.890017795242
 30
0.0
 10
494.94448126893525
 20
7733.967814033248
 30
0.0
 10
490.74359389494794
 20
7731.254067552373
 30
0.0
 10
486.6213969976257
 20
7730.746640147948
 30
0.0
 10
443.3763043562766
 20
7733.581073268602
 30
0.0
 10
316.78217504471047
 20
7739.800244038522
 30
0.0
 10
273.4674963159777
 20
7741.218219804591
 30
0.0
 10
269.4148855062549
 20
7742.1272497590335
 30
0.0
 10
265.5002202214341
 20
7745.239687775742
 30
0.0
 10
261.7944858181957
 20
7750.550690982617
 30
0.0
 10
258.3685367514543
 20
7758.053684139942
 30
0.0
 10
255.29305890107574
 20
7767.74036278019
 30
0.0
 10
252.63853196884227
 20
7779.60069711683
 30
0.0
 10
251.87981294591413
 20
7783.369729532383
 30
0.0
 10
245.2231630704861
 20
7813.8507507101
 30
0.0
 10
237.60418153893258
 20
7846.190403429776
 30
0.0
 10
228.96038970210563
 20
7880.364829521671
 30
0.0
 10
219.22984061326366
 20
7916.348626003423
 30
0.0
 10
208.35115281720002
 20
7954.114856234054
 30
0.0
 10
196.2635439144445
 20
7993.6350617570815
 30
0.0
 10
182.90686389361838
 20
8034.879274805291
 30
0.0
 10
168.22162816517096
 20
8077.816031645559
 30
0.0
 10
152.14905045394426
 20
8122.412386208596
 30
0.0
 10
134.6310752421491
 20
8168.633924912952
 30
0.0
 10
115.61041005118045
 20
8216.444781764927
 30
0.0
 10
105.52592535476998
 20
8240.63344530941
 30
0.0
 10
6.821210263296962e-13
 20
8245.817601591096
 30
0.0
 10
-105.525925354771
 20
8240.633445309408
 30
0.0
 10
-115.61041005119255
 20
8216.4447817649
 30
0.0
 10
-134.63107524214632
 20
8168.633924912962
 30
0.0
 10
-152.14905045394713
 20
8122.412386208591
 30
0.0
 10
-168.2216281658614
 20
8077.816031643645
 30
0.0
 10
-182.90686388445422
 20
8034.879274831728
 30
0.0
 10
-196.2635439146251
 20
7993.635061755162
 30
0.0
 10
-208.35115281724487
 20
7954.114856234054
 30
0.0
 10
-219.22984061330035
 20
7916.34862600345
 30
0.0
 10
-228.96038970220778
 20
7880.364829522394
 30
0.0
 10
-237.60418148517775
 20
7846.190403569634
 30
0.0
 10
-245.22316316498635
 20
7813.850750277361
 30
0.0
 10
-251.87981294589358
 20
7783.369729532417
 30
0.0
 10
-252.63853196878327
 20
7779.600697116818
 30
0.0
 10
-255.2930589010605
 20
7767.740362780174
 30
0.0
 10
-258.3685367662233
 20
7758.053684143444
 30
0.0
 10
-261.79448575168743
 20
7750.550690965808
 30
0.0
 10
-265.50022022286515
 20
7745.239687776125
 30
0.0
 10
-269.4148855062926
 20
7742.127249759053
 30
0.0
 10
-273.4674963157365
 20
7741.218219804523
 30
0.0
 10
-316.7821750448734
 20
7739.800244040981
 30
0.0
 10
-443.37630435619775
 20
7733.58107326614
 30
0.0
 10
-486.6213969973924
 20
7730.74664014804
 30
0.0
 10
-490.7435938949836
 20
7731.2540675523505
 30
0.0
 10
-494.9444812703218
 20
7733.967814032727
 30
0.0
 10
-499.15294089614747
 20
7738.8900178184895
 30
0.0
 10
-503.29781501491857
 20
7746.021080282549
 30
0.0
 10
-507.3079441384425
 20
7755.359665373464
 30
0.0
 10
-511.1122048529713
 20
7766.90269981969
 30
0.0
 10
-512.2367002156068
 20
7770.5792158450395
 30
0.0
 10
-521.8489590326019
 20
7800.2609967895105
 30
0.0
 10
-532.6010933644352
 20
7831.698134460068
 30
0.0
 10
-544.5529424989106
 20
7864.86076159206
 30
0.0
 10
-557.7636651636025
 20
7899.717525662856
 30
0.0
 10
-572.2917069927145
 20
7936.235603304057
 30
0.0
 10
-588.1947682853272
 20
7974.3807153774505
 30
0.0
 10
-605.5297720592298
 20
8014.117142686704
 30
0.0
 10
-624.3528324842703
 20
8055.407742495809
 30
0.0
 10
-644.7192234841272
 20
8098.213965317223
 30
0.0
 10
-666.6833479025609
 20
8142.495872844461
 30
0.0
 10
-690.298706857095
 20
8188.212156143472
 30
0.0
 10
-702.705535632346
 20
8211.29589230991
 30
0.0
 10
-808.2314609871135
 20
8206.111736028222
 30
0.0
 10
-912.7411139943802
 20
8190.609193442101
 30
0.0
 10
-920.4061355115919
 20
8165.548552572353
 30
0.0
 10
-934.6489275354417
 20
8116.103566855012
 30
0.0
 10
-947.5520458630133
 20
8068.387535658508
 30
0.0
 10
-959.1760225765833
 20
8022.43053662517
 30
0.0
 10
-969.5820067535778
 20
7978.26112722291
 30
0.0
 10
-978.8317308977432
 20
7935.906332724643
 30
0.0
 10
-986.9874771292021
 20
7895.391634937034
 30
0.0
 10
-994.1120431818401
 20
7856.740961559242
 30
0.0
 10
-1000.2687081879809
 20
7819.9766762980835
 30
0.0
 10
-1005.5211982466334
 20
7785.119569794937
 30
0.0
 10
-1009.9336521122161
 20
7752.188849976115
 30
0.0
 10
-1013.5705858172353
 20
7721.202137901669
 30
0.0
 10
-1013.9562216214642
 20
7717.376886938393
 30
0.0
 10
-1015.4354502259764
 20
7705.31347421451
 30
0.0
 10
-1017.5466582853411
 20
7695.3719900375645
 30
0.0
 10
-1020.2206884548489
 20
7687.5693241003855
 30
0.0
 10
-1023.3880094567337
 20
7681.9206693470205
 30
0.0
 10
-1026.9787522829483
 20
7678.439514273287
 30
0.0
 10
-1030.9227481470368
 20
7677.137636224042
 30
0.0
 10
-1073.8898689295875
 20
7671.480907458049
 30
0.0
 10
-1199.2648275720117
 20
7652.8832891527545
 30
0.0
 10
-1242.0238602433612
 20
7645.82374429087
 30
0.0
 10
-1246.1759442192747
 20
7645.924682341759
 30
0.0
 10
-1250.6225968432673
 20
7648.2136024237125
 30
0.0
 10
-1255.2932519249055
 20
7652.699603275156
 30
0.0
 10
-1260.1171336921238
 20
7659.390059016185
 30
0.0
 10
-1265.023294353174
 20
7668.290614878352
 30
0.0
 10
-1269.9406517396967
 20
7679.405183702381
 30
0.0
 10
-1271.420093936986
 20
7682.9537764784145
 30
0.0
 10
-1283.8953903885451
 20
7711.550465413433
 30
0.0
 10
-1297.677128589328
 20
7741.782331213818
 30
0.0
 10
-1312.8219321807417
 20
7773.613785158089
 30
0.0
 10
-1329.385601940307
 20
7807.007827125282
 30
0.0
 10
-1347.4230848178174
 20
7841.926063126557
 30
0.0
 10
-1366.988443326542
 20
7878.328723468809
 30
0.0
 10
-1388.1348252909013
 20
7916.1746815219785
 30
0.0
 10
-1410.9144340509101
 20
7955.4214732520195
 30
0.0
 10
-1435.3784988606667
 20
7996.025317005779
 30
0.0
 10
-1461.5772459607779
 20
8037.941134379459
 30
0.0
 10
-1489.5598698626768
 20
8081.122571326276
 30
0.0
 10
-1504.169558173401
 20
8102.879071116542
 30
0.0
 10
-1608.6792111806649
 20
8087.37652853042
 30
0.0
 10
-1711.1661067511782
 20
8061.704897599514
 30
0.0
 10
-1716.3378467418422
 20
8036.013627075642
 30
0.0
 10
-1725.6655997254961
 20
7985.410694734732
 30
0.0
 10
-1733.8295970857823
 20
7936.659702510756
 30
0.0
 10
-1740.8930275509445
 20
7889.784650032367
 30
0.0
 10
-1746.9195448702267
 20
7844.807963597762
 30
0.0
 10
-1751.973233228465
 20
7801.750487502299
 30
0.0
 10
-1756.1185724941693
 20
7760.631476135469
 30
0.0
 10
-1759.4204033376186
 20
7721.468586723729
 30
0.0
 10
-1761.9438922114082
 20
7684.277872846933
 30
0.0
 10
-1763.7544961951753
 20
7649.073778783857
 30
0.0
 10
-1764.9179279037137
 20
7615.869133272104
 30
0.0
 10
-1765.5001198731154
 20
7584.675148844491
 30
0.0
 10
-1765.5089585750793
 20
7580.830518591413
 30
0.0
 10
-1765.7986430717363
 20
7568.680204739353
 30
0.0
 10
-1766.9252492375874
 20
7558.579656949384
 30
0.0
 10
-1768.8216082188328
 20
7550.552462191007
 30
0.0
 10
-1771.4200127187432
 20
7544.620555507104
 30
0.0
 10
-1774.652252271428
 20
7540.8042088030625
 30
0.0
 10
-1778.4496503539826
 20
7539.122020456394
 30
0.0
 10
-1820.6554163285941
 20
7529.28101607825
 30
0.0
 10
-1943.6037749134675
 20
7498.4840554732755
 30
0.0
 10
-1985.4649547558818
 20
7487.267386143767
 30
0.0
 10
-1989.6069389716697
 20
7486.960862752623
 30
0.0
 10
-1994.25653314876
 20
7488.802912884514
 30
0.0
 10
-1999.3444027245348
 20
7492.809508161142
 30
0.0
 10
-2004.80083552178
 20
7498.994924432979
 30
0.0
 10
-2010.5557787112107
 20
7507.371733847907
 30
0.0
 10
-2016.5388759299938
 20
7517.9507976761215
 30
0.0
 10
-2018.3590171248313
 20
7521.337292314549
 30
0.0
 10
-2033.5772072864354
 20
7548.5734874931295
 30
0.0
 10
-2050.25582368343
 20
7577.308932029265
 30
0.0
 10
-2068.447728994205
 20
7607.50265848349
 30
0.0
 10
-2088.2048286542354
 20
7639.112375467894
 30
0.0
 10
-2109.5780417597434
 20
7672.094488128301
 30
0.0
 10
-2132.617272386628
 20
7706.404119220599
 30
0.0
 10
-2157.3713813233385
 20
7741.995130752927
 30
0.0
 10
-2183.888158333356
 20
7778.820146345067
 30
0.0
 10
-2212.214294635476
 20
7816.830573819502
 30
0.0
 10
-2242.3953561609987
 20
7855.9766288047995
 30
0.0
 10
-2274.475757045229
 20
7896.2073585562475
 30
0.0
 10
-2291.147605606525
 20
7916.427094984045
 30
0.0
 10
-2393.6345011770354
 20
7890.755464053143
 30
0.0
 10
-2493.111634481416
 20
7855.161976616866
 30
0.0
 10
-2495.7402862622607
 20
7829.087497418292
 30
0.0
 10
-2500.063168845418
 20
7777.813952354633
 30
0.0
 10
-2503.4094214809447
 20
7728.497497808304
 30
0.0
 10
-2505.844281001055
 20
7681.155824264742
 30
0.0
 10
-2507.433292806411
 20
7635.805010874916
 30
0.0
 10
-2508.242275597205
 20
7592.459520214666
 30
0.0
 10
-2508.337286013953
 20
7551.132193826016
 30
0.0
 10
-2507.7845832122275
 20
7511.834248413972
 30
0.0
 10
-2506.6505933763315
 20
7474.575272826689
 30
0.0
 10
-2505.0018741790727
 20
7439.363225874025
 30
0.0
 10
-2502.905079247218
 20
7406.204433557124
 30
0.0
 10
-2500.426922654078
 20
7375.10359189875
 30
0.0
 10
-2500.058879132245
 20
7371.276608246893
 30
0.0
 10
-2499.156229700986
 20
7359.156407431091
 30
0.0
 10
-2499.2873841400806
 20
7348.9940698248365
 30
0.0
 10
-2500.38780895942
 20
7340.819652518897
 30
0.0
 10
-2502.3922729015885
 20
7334.661621408531
 30
0.0
 10
-2505.2348809469304
 20
7330.546836579169
 30
0.0
 10
-2508.8491102285466
 20
7328.500538328433
 30
0.0
 10
-2549.8870567968647
 20
7314.57003258994
 30
0.0
 10
-2669.2247554206056
 20
7271.870321251241
 30
0.0
 10
-2709.7849363885534
 20
7256.604550111407
 30
0.0
 10
-2713.876931271979
 20
7255.893517266051
 30
0.0
 10
-2718.684688868515
 20
7257.270957498143
 30
0.0
 10
-2724.140773973099
 20
7260.759561497212
 30
0.0
 10
-2730.177209369744
 20
7266.3803693598675
 30
0.0
 10
-2736.7255118386684
 20
7274.1527590736605
 30
0.0
 10
-2743.716728392802
 20
7284.094435738291
 30
0.0
 10
-2745.8600396304914
 20
7287.2862184444975
 30
0.0
 10
-2763.6745640117747
 20
7312.899620418252
 30
0.0
 10
-2783.089434411619
 20
7339.861905650862
 30
0.0
 10
-2804.1532434489054
 20
7368.127122523718
 30
0.0
 10
-2826.913501339346
 20
7397.648095671145
 30
0.0
 10
-2851.416608946858
 20
7428.376449215908
 30
0.0
 10
-2877.7078313064408
 20
7460.262630555279
 30
0.0
 10
-2905.8312716144706
 20
7493.2559346696835
 30
0.0
 10
-2935.829845816346
 20
7527.304529093168
 30
0.0
 10
-2967.7452574335985
 20
7562.3554790930875
 30
0.0
 10
-3001.617973263395
 20
7598.354773781084
 30
0.0
 10
-3037.4871993325105
 20
7635.247352417304
 30
0.0
 10
-3056.060649128975
 20
7653.735598367599
 30
0.0
 10
-3155.5377824333536
 20
7618.142110931325
 30
0.0
 10
-3251.047134298147
 20
7572.9695517310665
 30
0.0
 10
-3251.1073825155563
 20
7546.762975346231
 30
0.0
 10
-3250.383762975813
 20
7495.312609827758
 30
0.0
 10
-3248.8800446444516
 20
7445.905637375473
 30
0.0
 10
-3246.6628841913025
 20
7398.553268962553
 30
0.0
 10
-3243.799087430404
 20
7353.265081741726
 30
0.0
 10
-3240.3555737072434
 20
7310.049017286805
 30
0.0
 10
-3236.3993402727842
 20
7268.911380621272
 30
0.0
 10
-3231.9974266560025
 20
7229.856839905686
 30
0.0
 10
-3227.216879052443
 20
7192.888426910646
 30
0.0
 10
-3222.1247147413096
 20
7158.0075383294125
 30
0.0
 10
-3216.7878864504787
 20
7125.213936503815
 30
0.0
 10
-3211.273247297488
 20
7094.5057557212995
 30
0.0
 10
-3210.531866012166
 20
7090.733274615274
 30
0.0
 10
-3208.445575660453
 20
7078.75991099516
 30
0.0
 10
-3207.580015283847
 20
7068.633652439067
 30
0.0
 10
-3207.8739082487155
 20
7060.3907366928115
 30
0.0
 10
-3209.265127549628
 20
7054.065886361898
 30
0.0
 10
-3211.6907282182224
 20
7049.692291034493
 30
0.0
 10
-3215.0869816951795
 20
7047.3015898504655
 30
0.0
 10
-3254.561890998128
 20
7029.415741137073
 30
0.0
 10
-3369.139642386367
 20
6975.224500626879
 30
0.0
 10
-3408.0082077646775
 20
6956.0566453979145
 30
0.0
 10
-3412.0108051681013
 20
6954.947950733338
 30
0.0
 10
-3416.9304248502403
 20
6955.8475155632095
 30
0.0
 10
-3422.702180401477
 20
6958.784531121144
 30
0.0
 10
-3429.2604842248015
 20
6963.786599122254
 30
0.0
 10
-3436.5390822407776
 20
6970.879716773149
 30
0.0
 10
-3444.471088893057
 20
6980.088262493241
 30
0.0
 10
-3446.916928914726
 20
6983.05459465496
 30
0.0
 10
-3467.1562239074883
 20
7006.798532361172
 30
0.0
 10
-3489.1203724949837
 20
7031.727996744383
 30
0.0
 10
-3512.853229263103
 20
7057.792494546043
 30
0.0
 10
-3538.3974516584467
 20
7084.940420747278
 30
0.0
 10
-3565.7944754469413
 20
7113.119084333934
 30
0.0
 10
-3595.0844906956554
 20
7142.2747345633215
 30
0.0
 10
-3626.306418271001
 20
7172.352587705205
 30
0.0
 10
-3659.4978869962806
 20
7203.296854382881
 30
0.0
 10
-3694.6952110680536
 20
7235.050767098988
 30
0.0
 10
-3731.933368431973
 20
7267.556608602621
 30
0.0
 10
-3771.245979430815
 20
7300.7557404238105
 30
0.0
 10
-3791.5421579876274
 20
7317.334443981402
 30
0.0
 10
-3887.0515098524193
 20
7272.161884781145
 30
0.0
 10
-3977.6732730084436
 20
7217.84529025583
 30
0.0
 10
-3975.16453743915
 20
7191.759000341295
 30
0.0
 10
-3969.401384628244
 20
7140.627309513582
 30
0.0
 10
-3963.0621769595414
 20
7091.605635308654
 30
0.0
 10
-3956.2143490003195
 20
7044.698601219632
 30
0.0
 10
-3948.925323601485
 20
6999.909190167782
 30
0.0
 10
-3941.26247628394
 20
6957.2387462431925
 30
0.0
 10
-3933.293099688944
 20
6916.686977229986
 30
0.0
 10
-3925.084368091567
 20
6878.251957787332
 30
0.0
 10
-3916.703302007079
 20
6841.9301334106685
 30
0.0
 10
-3908.216732908047
 20
6807.716325225736
 30
0.0
 10
-3899.6912678320896
 20
6775.603734203828
 30
0.0
 10
-3891.193255108899
 20
6745.583950864906
 30
0.0
 10
-3890.085675967146
 20
6741.902303360012
 30
0.0
 10
-3886.8358368115482
 20
6730.191086972553
 30
0.0
 10
-3884.981897438831
 20
6720.198428872093
 30
0.0
 10
-3884.4664281993187
 20
6711.966398470195
 30
0.0
 10
-3885.2310046565904
 20
6705.535640684935
 30
0.0
 10
-3887.2162380880304
 20
6700.945354973341
 30
0.0
 10
-3890.3618079827643
 20
6698.233274615313
 30
0.0
 10
-3927.8935150645752
 20
6676.564333427533
 30
0.0
 10
-4036.6078728368743
 20
6611.4034550159
 30
0.0
 10
-4073.410497093234
 20
6588.518112621877
 30
0.0
 10
-4077.2851498156188
 20
6587.022433473773
 30
0.0
 10
-4082.269252956485
 20
6587.43545960036
 30
0.0
 10
-4088.301093793253
 20
6589.792601651802
 30
0.0
 10
-4095.318105992304
 20
6594.127757142109
 30
0.0
 10
-4103.256902677552
 20
6600.473292129633
 30
0.0
 10
-4112.053309867841
 20
6608.8600235760005
 30
0.0
 10
-4114.778123897047
 20
6611.572337792951
 30
0.0
 10
-4137.247274026584
 20
6633.2181441317525
 30
0.0
 10
-4161.5491740440075
 20
6655.874703295723
 30
0.0
 10
-4187.7225181585845
 20
6679.4874666640535
 30
0.0
 10
-4215.804700233271
 20
6704.000896549213
 30
0.0
 10
-4245.831791886928
 20
6729.358494243397
 30
0.0
 10
-4277.838521166377
 20
6755.502828512993
 30
0.0
 10
-4311.858251778847
 20
6782.375564514372
 30
0.0
 10
-4347.922963039405
 20
6809.9174932422775
 30
0.0
 10
-4386.063230094072
 20
6838.068561136661
 30
0.0
 10
-4426.308205180253
 20
6866.76790043275
 30
0.0
 10
-4468.685599174442
 20
6895.95385965098
 30
0.0
 10
-4490.509043197079
 20
6910.463358837762
 30
0.0
 10
-4581.130806353101
 20
6856.146764312457
 30
0.0
 10
-4665.992243682272
 20
6793.209232959844
 30
0.0
 10
-4660.938684821222
 20
6767.4944547477
 30
0.0
 10
-4650.191501051182
 20
6717.173864744842
 30
0.0
 10
-4639.077854080352
 20
6669.009594307839
 30
0.0
 10
-4627.665306941709
 20
6622.999634922983
 30
0.0
 10
-4616.021250204116
 20
6579.140346552922
 30
0.0
 10
-4604.212866700792
 20
6537.426462859697
 30
0.0
 10
-4592.307096398375
 20
6497.851097202266
 30
0.0
 10
-4580.370601393032
 20
6460.405749280495
 30
0.0
 10
-4568.469731075567
 20
6425.0803125464845
 30
0.0
 10
-4556.670487488291
 20
6391.863082433843
 30
0.0
 10
-4545.03849051638
 20
6360.740764021695
 30
0.0
 10
-4533.638944731001
 20
6331.698485050402
 30
0.0
 10
-4532.175834325417
 20
6328.143127424704
 30
0.0
 10
-4527.793744093545
 20
6316.806843685716
 30
0.0
 10
-4524.969280174342
 20
6307.044020800939
 30
0.0
 10
-4523.649412981011
 20
6298.902154696253
 30
0.0
 10
-4523.779983305397
 20
6292.427421169529
 30
0.0
 10
-4525.305730616499
 20
6287.664652034451
 30
0.0
 10
-4528.170323371381
 20
6284.657311318847
 30
0.0
 10
-4563.397377375938
 20
6259.413961405764
 30
0.0
 10
-4665.201362837636
 20
6183.910979972357
 30
0.0
 10
-4699.5836165820965
 20
6157.528548770931
 30
0.0
 10
-4703.293009599624
 20
6155.660289347117
 30
0.0
 10
-4708.293596561383
 20
6155.582799103037
 30
0.0
 10
-4714.527432759085
 20
6157.337367081486
 30
0.0
 10
-4721.935575670497
 20
6160.96386014378
 30
0.0
 10
-4730.4581160731495
 20
6166.5007014971825
 30
0.0
 10
-4740.034209591599
 20
6173.984849861343
 30
0.0
 10
-4743.011756179711
 20
6176.417025064915
 30
0.0
 10
-4767.494371247386
 20
6195.7562390884605
 30
0.0
 10
-4793.899982112801
 20
6215.921697983107
 30
0.0
 10
-4822.261749962205
 20
6236.855323098823
 30
0.0
 10
-4852.6114449515735
 20
6258.498178937709
 30
0.0
 10
-4884.979427163291
 20
6280.790503211754
 30
0.0
 10
-4919.394628173857
 20
6303.671737290593
 30
0.0
 10
-4955.884533220576
 20
6327.0805570136445
 30
0.0
 10
-4994.4751641319945
 20
6350.954903962178
 30
0.0
 10
-5035.19106254823
 20
6375.232016862075
 30
0.0
 10
-5078.055274246451
 20
6399.848463624546
 30
0.0
 10
-5123.089333765984
 20
6424.740173497876
 30
0.0
 10
-5146.229871558597
 20
6437.04073390498
 30
0.0
 10
-5231.091308887768
 20
6374.10320255237
 30
0.0
 10
-5309.375158358626
 20
6303.150857204541
 30
0.0
 10
-5301.825444740205
 20
6278.055238066098
 30
0.0
 10
-5286.197731265746
 20
6229.030363677855
 30
0.0
 10
-5270.4166754884545
 20
6182.187345262353
 30
0.0
 10
-5254.549318238068
 20
6137.517561642143
 30
0.0
 10
-5238.662368793387
 20
6095.010784876802
 30
0.0
 10
-5222.822170292542
 20
6054.655188918033
 30
0.0
 10
-5207.09466535907
 20
6016.437359021755
 30
0.0
 10
-5191.545361917818
 20
5980.342301791063
 30
0.0
 10
-5176.239299254209
 20
5946.353455966302
 30
0.0
 10
-5161.241014344558
 20
5914.452704010322
 30
0.0
 10
-5146.614507966229
 20
5884.620383147432
 30
0.0
 10
-5132.4232129762
 20
5856.835301566388
 30
0.0
 10
-5130.6186618598085
 20
5853.440473857378
 30
0.0
 10
-5125.14652247609
 20
5842.588297376307
 30
0.0
 10
-5121.378735141952
 20
5833.149331028496
 30
0.0
 10
-5119.267181037386
 20
5825.1760398424085
 30
0.0
 10
-5118.762487765286
 20
5818.719685797532
 30
0.0
 10
-5119.814055175386
 20
5813.830301309336
 30
0.0
 10
-5122.37008319624
 20
5810.5566625712245
 30
0.0
 10
-5154.953228336412
 20
5781.982011191922
 30
0.0
 10
-5248.866413455795
 20
5696.864061722073
 30
0.0
 10
-5280.497176789544
 20
5667.238618947816
 30
0.0
 10
-5284.005586619698
 20
5665.015771607838
 30
0.0
 10
-5288.974499016307
 20
5664.448511266503
 30
0.0
 10
-5295.350295324598
 20
5665.583607723182
 30
0.0
 10
-5303.078224482431
 20
5668.46651324683
 30
0.0
 10
-5312.102431879517
 20
5673.141338157132
 30
0.0
 10
-5322.36598871072
 20
5679.650826999086
 30
0.0
 10
-5325.5675924563975
 20
5681.779440012507
 30
0.0
 10
-5351.827891495552
 20
5698.625814517863
 30
0.0
 10
-5380.082912741549
 20
5716.105968750467
 30
0.0
 10
-5410.35996499727
 20
5734.158853360219
 30
0.0
 10
-5442.684888747744
 20
5752.722702619914
 30
0.0
 10
-5477.082040154683
 20
5771.7350662048375
 30
0.0
 10
-5513.574275697371
 20
5791.132841300587
 30
0.0
 10
-5552.182937445328
 20
5810.852305014813
 30
0.0
 10
-5592.927839136147
 20
5830.829147171817
 30
0.0
 10
-5635.827252554626
 20
5850.998503208784
 30
0.0
 10
-5680.897895074272
 20
5871.294987598592
 30
0.0
 10
-5728.154917507855
 20
5891.65272735375
 30
0.0
 10
-5752.389693041605
 20
5901.625887860292
 30
0.0
 10
-5830.673542512461
 20
5830.6735425124625
 30
0.0
 10
-5901.6258878602885
 20
5752.389693041601
 30
0.0
 10
-5891.652727353738
 20
5728.154917507828
 30
0.0
 10
-5871.294987598597
 20
5680.897895074281
 30
0.0
 10
-5850.998503208781
 20
5635.827252554622
 30
0.0
 10
-5830.829147170951
 20
5592.927839134307
 30
0.0
 10
-5810.852305027026
 20
5552.182937470502
 30
0.0
 10
-5791.132841299355
 20
5513.574275695886
 30
0.0
 10
-5771.735066204868
 20
5477.082040154652
 30
0.0
 10
-5752.722702619957
 20
5442.684888747737
 30
0.0
 10
-5734.158853360802
 20
5410.35996499771
 30
0.0
 10
-5716.10596881135
 20
5380.082912878454
 30
0.0
 10
-5698.625814278691
 20
5351.827891122737
 30
0.0
 10
-5681.779440012517
 20
5325.567592456436
 30
0.0
 10
-5679.650826999035
 20
5322.365988710754
 30
0.0
 10
-5673.14133815711
 20
5312.102431879517
 30
0.0
 10
-5668.466513259748
 20
5303.078224474465
 30
0.0
 10
-5665.583607664266
 20
5295.350295359741
 30
0.0
 10
-5664.448511267786
 20
5288.974499015567
 30
0.0
 10
-5665.015771607878
 20
5284.005586619685
 30
0.0
 10
-5667.2386189475965
 20
5280.497176789668
 30
0.0
 10
-5696.864061723926
 20
5248.866413457419
 30
0.0
 10
-5781.982011190124
 20
5154.953228334728
 30
0.0
 10
-5810.5566625711235
 20
5122.37008319647
 30
0.0
 10
-5813.8303013093455
 20
5119.814055175346
 30
0.0
 10
-5818.7196857981435
 20
5118.762487763938
 30
0.0
 10
-5825.17603981321
 20
5119.2671810994625
 30
0.0
 10
-5833.149331035157
 20
5121.378735128316
 30
0.0
 10
-5842.588297376309
 20
5125.146522476112
 30
0.0
 10
-5853.440473857349
 20
5130.618661859862
 30
0.0
 10
-5856.835301566348
 20
5132.423212976196
 30
0.0
 10
-5884.620383541895
 20
5146.614508167708
 30
0.0
 10
-5914.452703868109
 20
5161.241014297386
 30
0.0
 10
-5946.353455965807
 20
5176.2392992536725
 30
0.0
 10
-5980.342301791065
 20
5191.545361917774
 30
0.0
 10
-6016.437359021783
 20
5207.094665359037
 30
0.0
 10
-6054.655188919632
 20
5222.822170293622
 30
0.0
 10
-6095.010784850552
 20
5238.662368783702
 30
0.0
 10
-6137.51756164406
 20
5254.549318238748
 30
0.0
 10
-6182.1873452623595
 20
5270.416675488457
 30
0.0
 10
-6229.030363677844
 20
5286.197731265744
 30
0.0
 10
-6278.0552380661275
 20
5301.825444740215
 30
0.0
 10
-6303.1508572045395
 20
5309.375158358626
 30
0.0
 10
-6374.103202552371
 20
5231.091308887771
 30
0.0
 10
-6437.040733904978
 20
5146.2298715585985
 30
0.0
 10
-6424.740173497861
 20
5123.089333765958
 30
0.0
 10
-6399.848463624551
 20
5078.05527424646
 30
0.0
 10
-6375.232016862073
 20
5035.191062548225
 30
0.0
 10
-6350.954903961136
 20
4994.475164130248
 30
0.0
 10
-6327.080557028265
 20
4955.884533244432
 30
0.0
 10
-6303.671737289223
 20
4919.3946281725
 30
0.0
 10
-6280.790503211781
 20
4884.979427163257
 30
0.0
 10
-6258.498178937751
 20
4852.6114449515635
 30
0.0
 10
-6236.855323099445
 20
4822.261749962585
 30
0.0
 10
-6215.921698057116
 20
4793.89998224308
 30
0.0
 10
-6195.756238813899
 20
4767.494370899811
 30
0.0
 10
-6176.417025064928
 20
4743.011756179749
 30
0.0
 10
-6173.984849861295
 20
4740.0342095916385
 30
0.0
 10
-6166.500701497161
 20
4730.458116073153
 30
0.0
 10
-6160.963860155855
 20
4721.935575661303
 30
0.0
 10
-6157.337367026299
 20
4714.527432799834
 30
0.0
 10
-6155.582799104241
 20
4708.293596560521
 30
0.0
 10
-6155.660289347155
 20
4703.293009599609
 30
0.0
 10
-6157.528548770723
 20
4699.58361658224
 30
0.0
 10
-6183.91097997436
 20
4665.2013628390705
 30
0.0
 10
-6259.4139614038095
 20
4563.397377374437
 30
0.0
 10
-6284.657311318769
 20
4528.17032337162
 30
0.0
 10
-6287.664652034456
 20
4525.305730616458
 30
0.0
 10
-6292.427421170005
 20
4523.779983303996
 30
0.0
 10
-6298.90215467328
 20
4523.64941304565
 30
0.0
 10
-6307.044020806232
 20
4524.969280160118
 30
0.0
 10
-6316.806843685719
 20
4527.7937440935675
 30
0.0
 10
-6328.1431274246825
 20
4532.175834325474
 30
0.0
 10
-6331.698485050362
 20
4533.638944731001
 30
0.0
 10
-6360.740764434006
 20
4545.038490678225
 30
0.0
 10
-6391.86308228769
 20
4556.670487455287
 30
0.0
 10
-6425.08031254594
 20
4568.469731075082
 30
0.0
 10
-6460.405749280492
 20
4580.370601392989
 30
0.0
 10
-6497.8510972022905
 20
4592.307096398339
 30
0.0
 10
-6537.426462861393
 20
4604.212866701711
 30
0.0
 10
-6579.14034652585
 20
4616.021250197048
 30
0.0
 10
-6622.999634924958
 20
4627.665306942199
 30
0.0
 10
-6669.009594307845
 20
4639.077854080354
 30
0.0
 10
-6717.173864744832
 20
4650.191501051181
 30
0.0
 10
-6767.494454747729
 20
4660.938684821229
 30
0.0
 10
-6793.209232959839
 20
4665.99224368227
 30
0.0
 10
-6856.146764312446
 20
4581.130806353102
 30
0.0
 10
-6910.463358837759
 20
4490.509043197078
 30
0.0
 10
-6895.953859650963
 20
4468.685599174419
 30
0.0
 10
-6866.7679004327565
 20
4426.308205180262
 30
0.0
 10
-6838.068561136657
 20
4386.063230094069
 30
0.0
 10
-6809.91749324107
 20
4347.9229630377695
 30
0.0
 10
-6782.375564531261
 20
4311.858251801156
 30
0.0
 10
-6755.502828511496
 20
4277.838521165162
 30
0.0
 10
-6729.358494243422
 20
4245.8317918868925
 30
0.0
 10
-6704.000896549255
 20
4215.804700233257
 30
0.0
 10
-6679.487466664711
 20
4187.722518158902
 30
0.0
 10
-6655.8747033821455
 20
4161.549174166406
 30
0.0
 10
-6633.218143824443
 20
4137.247273707594
 30
0.0
 10
-6611.572337792968
 20
4114.778123897086
 30
0.0
 10
-6608.860023575957
 20
4112.053309867884
 30
0.0
 10
-6600.473292129611
 20
4103.256902677557
 30
0.0
 10
-6594.127757153225
 20
4095.3181059819703
 30
0.0
 10
-6589.792601600875
 20
4088.3010938392144
 30
0.0
 10
-6587.435459601473
 20
4082.2692529555084
 30
0.0
 10
-6587.0224334738095
 20
4077.285149815599
 30
0.0
 10
-6588.518112621686
 20
4073.4104970933977
 30
0.0
 10
-6611.403455018034
 20
4036.6078728381053
 30
0.0
 10
-6676.564333425441
 20
3927.8935150632738
 30
0.0
 10
-6698.233274615259
 20
3890.36180798301
 30
0.0
 10
-6700.94535497334
 20
3887.216238087989
 30
0.0
 10
-6705.5356406852725
 20
3885.231004655149
 30
0.0
 10
-6711.966398453668
 20
3884.4664282658987
 30
0.0
 10
-6720.198428875967
 20
3884.9818974241557
 30
0.0
 10
-6730.19108697256
 20
3886.8358368115696
 30
0.0
 10
-6741.902303359996
 20
3890.085675967205
 30
0.0
 10
-6745.583950864866
 20
3891.193255108902
 30
0.0
 10
-6775.603734630017
 20
3899.6912679527404
 30
0.0
 10
-6807.716325077053
 20
3908.216732889527
 30
0.0
 10
-6841.930133410078
 20
3916.703302006649
 30
0.0
 10
-6878.251957787325
 20
3925.0843680915227
 30
0.0
 10
-6916.686977230007
 20
3933.293099688906
 30
0.0
 10
-6957.238746244971
 20
3941.2624762846876
 30
0.0
 10
-6999.909190140147
 20
3948.9253235971064
 30
0.0
 10
-7044.698601221645
 20
3956.214349000614
 30
0.0
 10
-7091.60563530866
 20
3963.0621769595427
 30
0.0
 10
-7140.627309513572
 20
3969.4013846282432
 30
0.0
 10
-7191.759000341325
 20
3975.1645374391533
 30
0.0
 10
-7217.845290255834
 20
3977.6732730084445
 30
0.0
 10
-7272.161884781143
 20
3887.051509852417
 30
0.0
 10
-7317.3344439814
 20
3791.5421579876224
 30
0.0
 10
-7300.755740423792
 20
3771.245979430788
 30
0.0
 10
-7267.556608602629
 20
3731.933368431977
 30
0.0
 10
-7235.050767098985
 20
3694.6952110680454
 30
0.0
 10
-7203.296854381519
 20
3659.4978869947668
 30
0.0
 10
-7172.3525877242
 20
3626.306418291542
 30
0.0
 10
-7142.274734561714
 20
3595.084490694588
 30
0.0
 10
-7113.1190843339555
 20
3565.794475446898
 30
0.0
 10
-7084.940420747319
 20
3538.3974516584235
 30
0.0
 10
-7057.792494546728
 20
3512.85322926335
 30
0.0
 10
-7031.727996842386
 20
3489.1203726083168
 30
0.0
 10
-7006.798532024077
 20
3467.156223620151
 30
0.0
 10
-6983.054594654981
 20
3446.9169289147576
 30
0.0
 10
-6980.088262493203
 20
3444.4710888931004
 30
0.0
 10
-6970.879716773128
 20
3436.5390822407803
 30
0.0
 10
-6963.786599132306
 20
3429.260484213424
 30
0.0
 10
-6958.784531074967
 20
3422.702180452205
 30
0.0
 10
-6955.847515564222
 20
3416.9304248491558
 30
0.0
 10
-6954.947950733374
 20
3412.0108051680745
 30
0.0
 10
-6956.056645397742
 20
3408.008207764855
 30
0.0
 10
-6975.224500629124
 20
3369.1396423873794
 30
0.0
 10
-7029.415741134865
 20
3254.5618909970335
 30
0.0
 10
-7047.301589850436
 20
3215.0869816954255
 30
0.0
 10
-7049.69229103449
 20
3211.6907282181774
 30
0.0
 10
-7054.065886362092
 20
3209.265127548156
 30
0.0
 10
-7060.390736682891
 20
3207.8739083165906
 30
0.0
 10
-7068.633652441484
 20
3207.580015268859
 30
0.0
 10
-7078.759910995169
 20
3208.44557566047
 30
0.0
 10
-7090.733274615264
 20
3210.5318660122225
 30
0.0
 10
-7094.505755721259
 20
3211.2732472974913
 30
0.0
 10
-7125.213936939777
 20
3216.7878865287717
 30
0.0
 10
-7158.0075381796305
 20
3222.124714737448
 30
0.0
 10
-7192.888426910018
 20
3227.2168790520686
 30
0.0
 10
-7229.856839905675
 20
3231.9974266559557
 30
0.0
 10
-7268.911380621291
 20
3236.3993402727397
 30
0.0
 10
-7310.0490172886475
 20
3240.3555737078086
 30
0.0
 10
-7353.265081713796
 20
3243.7990874287507
 30
0.0
 10
-7398.553268964585
 20
3246.662884191394
 30
0.0
 10
-7445.905637375479
 20
3248.880044644448
 30
0.0
 10
-7495.312609827749
 20
3250.383762975809
 30
0.0
 10
-7546.762975346262
 20
3251.107382515553
 30
0.0
 10
-7572.969551731068
 20
3251.0471342981436
 30
0.0
 10
-7618.142110931323
 20
3155.5377824333555
 30
0.0
 10
-7653.735598367596
 20
3056.0606491289736
 30
0.0
 10
-7635.247352417281
 20
3037.487199332489
 30
0.0
 10
-7598.354773781091
 20
3001.6179732634014
 30
0.0
 10
-7562.355479093082
 20
2967.7452574335944
 30
0.0
 10
-7527.304529091663
 20
2935.829845814976
 30
0.0
 10
-7493.255934690599
 20
2905.831271633054
 30
0.0
 10
-7460.262630553574
 20
2877.7078313055395
 30
0.0
 10
-7428.3764492159235
 20
2851.4166089468167
 30
0.0
 10
-7397.648095671183
 20
2826.913501339323
 30
0.0
 10
-7368.127122524424
 20
2804.1532434490878
 30
0.0
 10
-7339.861905759502
 20
2783.0894345148035
 30
0.0
 10
-7312.899620054616
 20
2763.674563758866
 30
0.0
 10
-7287.286218444521
 20
2745.8600396305233
 30
0.0
 10
-7284.094435738257
 20
2743.716728392852
 30
0.0
 10
-7274.15275907364
 20
2736.725511838677
 30
0.0
 10
-7266.380369368754
 20
2730.17720935744
 30
0.0
 10
-7260.75956145623
 20
2724.140774028112
 30
0.0
 10
-7257.270957499043
 20
2718.68468886734
 30
0.0
 10
-7255.893517266083
 20
2713.876931271952
 30
0.0
 10
-7256.604550111251
 20
2709.7849363887503
 30
0.0
 10
-7271.870321253575
 20
2669.224755421396
 30
0.0
 10
-7314.570032587634
 20
2549.8870567959957
 30
0.0
 10
-7328.500538328428
 20
2508.8491102287976
 30
0.0
 10
-7330.54683657916
 20
2505.234880946889
 30
0.0
 10
-7334.661621408579
 20
2502.3922729001083
 30
0.0
 10
-7340.819652515675
 20
2500.3878090279445
 30
0.0
 10
-7348.9940698257715
 20
2499.2873841249316
 30
0.0
 10
-7359.156407431101
 20
2499.1562297010055
 30
0.0
 10
-7371.276608246888
 20
2500.0588791323053
 30
0.0
 10
-7375.103591898711
 20
2500.4269226540887
 30
0.0
 10
-7406.2044339986605
 20
2502.905079282405
 30
0.0
 10
-7439.363225724585
 20
2505.001874189915
 30
0.0
 10
-7474.575272826027
 20
2506.6505933760245
 30
0.0
 10
-7511.8342484139575
 20
2507.784583212185
 30
0.0
 10
-7551.13219382603
 20
2508.3372860139107
 30
0.0
 10
-7592.4595202165565
 20
2508.24227559759
 30
0.0
 10
-7635.805010846957
 20
2507.433292807507
 30
0.0
 10
-7681.155824266773
 20
2505.84428100095
 30
0.0
 10
-7728.497497808309
 20
2503.409421480944
 30
0.0
 10
-7777.813952354623
 20
2500.0631688454187
 30
0.0
 10
-7829.087497418322
 20
2495.740286262258
 30
0.0
 10
-7855.16197661687
 20
2493.1116344814154
 30
0.0
 10
-7890.755464053144
 20
2393.6345011770377
 30
0.0
 10
-7916.427094984041
 20
2291.147605606522
 30
0.0
 10
-7896.207358556224
 20
2274.475757045208
 30
0.0
 10
-7855.976628804809
 20
2242.395356161003
 30
0.0
 10
-7816.830573819497
 20
2212.2142946354707
 30
0.0
 10
-7778.820146343436
 20
2183.888158332139
 30
0.0
 10
-7741.995130775564
 20
2157.3713813397812
 30
0.0
 10
-7706.404119218813
 20
2132.6172723858963
 30
0.0
 10
-7672.094488128314
 20
2109.578041759699
 30
0.0
 10
-7639.11237546793
 20
2088.204828654207
 30
0.0
 10
-7607.502658484211
 20
2068.4477289943156
 30
0.0
 10
-7577.308932147496
 20
2050.255823775468
 30
0.0
 10
-7548.573487106456
 20
2033.5772070703856
 30
0.0
 10
-7521.337292314575
 20
2018.3590171248597
 30
0.0
 10
-7517.950797676092
 20
2016.5388759300454
 30
0.0
 10
-7507.371733847887
 20
2010.5557787112193
 30
0.0
 10
-7498.994924440617
 20
2004.8008355086622
 30
0.0
 10
-7492.80950812575
 20
1999.3444027832984
 30
0.0
 10
-7488.802912885296
 20
1994.2565331475007
 30
0.0
 10
-7486.960862752653
 20
1989.6069389716383
 30
0.0
 10
-7487.2673861436315
 20
1985.4649547560916
 30
0.0
 10
-7498.484055475675
 20
1943.603774914024
 30
0.0
 10
-7529.281016075871
 20
1820.6554163279536
 30
0.0
 10
-7539.122020456414
 20
1778.4496503542314
 30
0.0
 10
-7540.804208803052
 20
1774.6522522713865
 30
0.0
 10
-7544.620555507007
 20
1771.4200127172635
 30
0.0
 10
-7550.552462194519
 20
1768.8216082873416
 30
0.0
 10
-7558.57965694883
 20
1766.9252492224177
 30
0.0
 10
-7568.680204739366
 20
1765.798643071753
 30
0.0
 10
-7580.830518591413
 20
1765.5089585751384
 30
0.0
 10
-7584.675148844453
 20
1765.500119873128
 30
0.0
 10
-7615.869133714963
 20
1764.9179278954516
 30
0.0
 10
-7649.0737786362
 20
1763.7544962206111
 30
0.0
 10
-7684.2778728462445
 20
1761.9438922111658
 30
0.0
 10
-7721.468586723709
 20
1759.4204033375765
 30
0.0
 10
-7760.631476135479
 20
1756.1185724941238
 30
0.0
 10
-7801.750487504218
 20
1751.9732332286612
 30
0.0
 10
-7844.807963570046
 20
1746.919544874056
 30
0.0
 10
-7889.7846500343785
 20
1740.8930275506393
 30
0.0
 10
-7936.659702510762
 20
1733.8295970857796
 30
0.0
 10
-7985.410694734722
 20
1725.665599725496
 30
0.0
 10
-8036.013627075672
 20
1716.3378467418345
 30
0.0
 10
-8061.704897599511
 20
1711.1661067511754
 30
0.0
 10
-8087.376528530412
 20
1608.6792111806672
 30
0.0
 10
-8102.879071116538
 20
1504.1695581734018
 30
0.0
 10
-8081.122571326249
 20
1489.5598698626616
 30
0.0
 10
-8037.941134379467
 20
1461.5772459607847
 30
0.0
 10
-7996.025317005772
 20
1435.378498860665
 30
0.0
 10
-7955.421473250277
 20
1410.914434049862
 30
0.0
 10
-7916.174681546118
 20
1388.134825305049
 30
0.0
 10
-7878.32872346696
 20
1366.9884433259926
 30
0.0
 10
-7841.926063126564
 20
1347.4230848177754
 30
0.0
 10
-7807.007827125314
 20
1329.3856019402783
 30
0.0
 10
-7773.613785158816
 20
1312.8219321807846
 30
0.0
 10
-7741.782331340501
 20
1297.677128669337
 30
0.0
 10
-7711.550465007444
 20
1283.8953902114397
 30
0.0
 10
-7682.953776478444
 20
1271.4200939370148
 30
0.0
 10
-7679.405183702356
 20
1269.9406517397542
 30
0.0
 10
-7668.290614878333
 20
1265.023294353188
 30
0.0
 10
-7659.390059022499
 20
1260.1171336783239
 30
0.0
 10
-7652.699603245694
 20
1255.2932519868586
 30
0.0
 10
-7648.213602424366
 20
1250.6225968419408
 30
0.0
 10
-7645.924682341785
 20
1246.1759442192438
 30
0.0
 10
-7645.823744290756
 20
1242.0238602435866
 30
0.0
 10
-7652.883289155197
 20
1199.2648275723336
 30
0.0
 10
-7671.480907455618
 20
1073.8898689291866
 30
0.0
 10
-7677.137636224085
 20
1030.9227481472853
 30
0.0
 10
-7678.439514273271
 20
1026.978752282911
 30
0.0
 10
-7681.9206693467795
 20
1023.3880094552743
 30
0.0
 10
-7687.5693241105955
 20
1020.2206885226867
 30
0.0
 10
-7695.371990035526
 20
1017.546658270302
 30
0.0
 10
-7705.313474214524
 20
1015.4354502259953
 30
0.0
 10
-7717.376886938399
 20
1013.9562216215264
 30
0.0
 10
-7721.202137901631
 20
1013.5705858172546
 30
0.0
 10
-7752.188850416032
 20
1009.9336520605889
 30
0.0
 10
-7785.119569650483
 20
1005.521198286423
 30
0.0
 10
-7819.976676297374
 20
1000.2687081878105
 30
0.0
 10
-7856.74096155922
 20
994.1120431818033
 30
0.0
 10
-7895.391634937038
 20
986.9874771291597
 30
0.0
 10
-7935.906332726571
 20
978.8317308977541
 30
0.0
 10
-7978.261127195702
 20
969.582006760109
 30
0.0
 10
-8022.430536627143
 20
959.176022576086
 30
0.0
 10
-8068.387535658514
 20
947.5520458630133
 30
0.0
 10
-8116.103566855001
 20
934.6489275354458
 30
0.0
 10
-8165.5485525723825
 20
920.4061355115848
 30
0.0
 10
-8190.609193442097
 20
912.7411139943811
 30
0.0
 10
-8206.111736028219
 20
808.2314609871169
 30
0.0
 10
-8211.295892309912
 20
702.7055356323456
 30
0.0
 10
-8188.212156143445
 20
690.2987068570807
 30
0.0
 10
-8142.49587284447
 20
666.6833479025652
 30
0.0
 10
-8098.213965317216
 20
644.7192234841243
 30
0.0
 10
-8055.407742493971
 20
624.3528324833962
 30
0.0
 10
-8014.117142712114
 20
605.5297720709416
 30
0.0
 10
-7974.380715375556
 20
588.19476828496
 30
0.0
 10
-7936.2356033040605
 20
572.2917069926704
 30
0.0
 10
-7899.717525662885
 20
557.763665163569
 30
0.0
 10
-7864.860761592789
 20
544.5529424988802
 30
0.0
 10
-7831.698134593983
 20
532.60109343164
 30
0.0
 10
-7800.260996368117
 20
521.8489588961413
 30
0.0
 10
-7770.57921584507
 20
512.2367002156311
 30
0.0
 10
-7766.9026998196705
 20
511.11220485302925
 30
0.0
 10
-7755.359665373447
 20
507.30794413845655
 30
0.0
 10
-7746.021080287481
 20
503.29781500056436
 30
0.0
 10
-7738.890017795242
 20
499.1529409606883
 30
0.0
 10
-7733.967814033248
 20
494.94448126893576
 30
0.0
 10
-7731.254067552373
 20
490.74359389494845
 30
0.0
 10
-7730.746640147948
 20
486.6213969976262
 30
0.0
 10
-7733.581073268602
 20
443.3763043562771
 30
0.0
 10
-7739.800244038522
 20
316.782175044711
 30
0.0
 10
-7741.218219804591
 20
273.4674963159782
 30
0.0
 10
-7742.1272497590335
 20
269.4148855062554
 30
0.0
 10
-7745.239687775742
 20
265.50022022143463
 30
0.0
 10
-7750.550690982617
 20
261.7944858181962
 30
0.0
 10
-7758.053684139942
 20
258.3685367514548
 30
0.0
 10
-7767.74036278019
 20
255.2930589010762
 30
0.0
 10
-7779.60069711683
 20
252.63853196884276
 30
0.0
 10
-7783.369729532383
 20
251.8798129459146
 30
0.0
 10
-7813.8507507101
 20
245.22316307048658
 30
0.0
 10
-7846.190403429776
 20
237.60418153893306
 30
0.0
 10
-7880.364829521671
 20
228.9603897021061
 30
0.0
 10
-7916.348626003423
 20
219.22984061326414
 30
0.0
 10
-7954.114856234054
 20
208.3511528172005
 30
0.0
 10
-7993.6350617570815
 20
196.263543914445
 30
0.0
 10
-8034.879274805291
 20
182.9068638936189
 30
0.0
 10
-8077.816031645559
 20
168.22162816517147
 30
0.0
 10
-8122.412386208596
 20
152.14905045394477
 30
0.0
 10
-8168.633924912952
 20
134.6310752421496
 30
0.0
 10
-8216.444781764927
 20
115.61041005118096
 30
0.0
 10
-8240.63344530941
 20
105.5259253547705
 30
0.0
 10
-8245.817601591098
 20
-2.6147972675971687e-12
 30
0.0
 10
-8240.633445309406
 20
-105.5259253547743
 30
0.0
 10
-8216.4447817649
 20
-115.61041005119584
 30
0.0
 10
-8168.633924912961
 20
-134.63107524214962
 30
0.0
 10
-8122.41238620859
 20
-152.1490504539503
 30
0.0
 10
-8077.816031643644
 20
-168.22162816586447
 30
0.0
 10
-8034.879274831727
 20
-182.90686388445752
 30
0.0
 10
-7993.635061755161
 20
-196.26354391462817
 30
0.0
 10
-7954.114856234053
 20
-208.35115281724805
 30
0.0
 10
-7916.34862600345
 20
-219.22984061330354
 30
0.0
 10
-7880.364829522393
 20
-228.96038970221096
 30
0.0
 10
-7846.190403569633
 20
-237.60418148518093
 30
0.0
 10
-7813.850750277361
 20
-245.2231631649893
 30
0.0
 10
-7783.369729532416
 20
-251.8798129458967
 30
0.0
 10
-7779.600697116817
 20
-252.63853196878628
 30
0.0
 10
-7767.740362780174
 20
-255.29305890106363
 30
0.0
 10
-7758.053684143443
 20
-258.36853676622644
 30
0.0
 10
-7750.550690965807
 20
-261.79448575169056
 30
0.0
 10
-7745.239687776124
 20
-265.50022022286817
 30
0.0
 10
-7742.1272497590535
 20
-269.4148855062956
 30
0.0
 10
-7741.218219804523
 20
-273.46749631573954
 30
0.0
 10
-7739.80024404098
 20
-316.78217504487634
 30
0.0
 10
-7733.581073266139
 20
-443.37630435620076
 30
0.0
 10
-7730.746640148039
 20
-486.62139699739544
 30
0.0
 10
-7731.25406755235
 20
-490.7435938949866
 30
0.0
 10
-7733.967814032726
 20
-494.9444812703249
 30
0.0
 10
-7738.8900178184895
 20
-499.1529408961505
 30
0.0
 10
-7746.021080282548
 20
-503.29781501492164
 30
0.0
 10
-7755.359665373463
 20
-507.3079441384455
 30
0.0
 10
-7766.902699819689
 20
-511.1122048529743
 30
0.0
 10
-7770.579215845039
 20
-512.23670021561
 30
0.0
 10
-7800.26099678951
 20
-521.848959032605
 30
0.0
 10
-7831.698134460067
 20
-532.6010933644383
 30
0.0
 10
-7864.860761592059
 20
-544.5529424989138
 30
0.0
 10
-7899.717525662855
 20
-557.7636651636055
 30
0.0
 10
-7936.235603304057
 20
-572.2917069927175
 30
0.0
 10
-7974.38071537745
 20
-588.1947682853305
 30
0.0
 10
-8014.117142686703
 20
-605.529772059233
 30
0.0
 10
-8055.407742495808
 20
-624.3528324842734
 30
0.0
 10
-8098.213965317222
 20
-644.7192234841303
 30
0.0
 10
-8142.49587284446
 20
-666.683347902564
 30
0.0
 10
-8188.2121561434715
 20
-690.2987068570982
 30
0.0
 10
-8211.29589230991
 20
-702.7055356323492
 30
0.0
 10
-8206.111736028222
 20
-808.2314609871148
 30
0.0
 10
-8190.609193442101
 20
-912.7411139943815
 30
0.0
 10
-8165.548552572353
 20
-920.4061355115932
 30
0.0
 10
-8116.103566855012
 20
-934.648927535443
 30
0.0
 10
-8068.387535658509
 20
-947.5520458630147
 30
0.0
 10
-8022.430536625171
 20
-959.1760225765846
 30
0.0
 10
-7978.26112722291
 20
-969.5820067535792
 30
0.0
 10
-7935.906332724643
 20
-978.8317308977446
 30
0.0
 10
-7895.391634937034
 20
-986.9874771292033
 30
0.0
 10
-7856.740961559243
 20
-994.1120431818415
 30
0.0
 10
-7819.9766762980835
 20
-1000.268708187982
 30
0.0
 10
-7785.119569794937
 20
-1005.5211982466345
 30
0.0
 10
-7752.188849976115
 20
-1009.9336521122173
 30
0.0
 10
-7721.202137901669
 20
-1013.5705858172366
 30
0.0
 10
-7717.376886938393
 20
-1013.9562216214656
 30
0.0
 10
-7705.31347421451
 20
-1015.4354502259775
 30
0.0
 10
-7695.3719900375645
 20
-1017.5466582853425
 30
0.0
 10
-7687.5693241003855
 20
-1020.2206884548502
 30
0.0
 10
-7681.9206693470205
 20
-1023.3880094567351
 30
0.0
 10
-7678.439514273287
 20
-1026.9787522829495
 30
0.0
 10
-7677.137636224042
 20
-1030.922748147038
 30
0.0
 10
-7671.480907458049
 20
-1073.8898689295888
 30
0.0
 10
-7652.8832891527545
 20
-1199.264827572013
 30
0.0
 10
-7645.82374429087
 20
-1242.0238602433624
 30
0.0
 10
-7645.924682341759
 20
-1246.175944219276
 30
0.0
 10
-7648.2136024237125
 20
-1250.6225968432686
 30
0.0
 10
-7652.699603275156
 20
-1255.2932519249068
 30
0.0
 10
-7659.390059016185
 20
-1260.1171336921252
 30
0.0
 10
-7668.290614878352
 20
-1265.0232943531753
 30
0.0
 10
-7679.405183702381
 20
-1269.940651739698
 30
0.0
 10
-7682.9537764784145
 20
-1271.4200939369873
 30
0.0
 10
-7711.550465413433
 20
-1283.8953903885465
 30
0.0
 10
-7741.782331213818
 20
-1297.6771285893294
 30
0.0
 10
-7773.613785158089
 20
-1312.821932180743
 30
0.0
 10
-7807.007827125282
 20
-1329.3856019403083
 30
0.0
 10
-7841.926063126557
 20
-1347.4230848178188
 30
0.0
 10
-7878.328723468809
 20
-1366.9884433265433
 30
0.0
 10
-7916.1746815219785
 20
-1388.1348252909027
 30
0.0
 10
-7955.4214732520195
 20
-1410.9144340509115
 30
0.0
 10
-7996.025317005779
 20
-1435.378498860668
 30
0.0
 10
-8037.941134379459
 20
-1461.5772459607792
 30
0.0
 10
-8081.122571326276
 20
-1489.5598698626782
 30
0.0
 10
-8102.879071116541
 20
-1504.1695581734023
 30
0.0
 10
-8087.37652853042
 20
-1608.679211180666
 30
0.0
 10
-8061.704897599516
 20
-1711.16610675118
 30
0.0
 10
-8036.013627075642
 20
-1716.3378467418436
 30
0.0
 10
-7985.410694734732
 20
-1725.6655997254975
 30
0.0
 10
-7936.659702510756
 20
-1733.8295970857837
 30
0.0
 10
-7889.784650032367
 20
-1740.8930275509454
 30
0.0
 10
-7844.807963597762
 20
-1746.919544870228
 30
0.0
 10
-7801.7504875023
 20
-1751.9732332284664
 30
0.0
 10
-7760.631476135469
 20
-1756.1185724941702
 30
0.0
 10
-7721.468586723729
 20
-1759.42040333762
 30
0.0
 10
-7684.277872846934
 20
-1761.9438922114095
 30
0.0
 10
-7649.073778783857
 20
-1763.7544961951767
 30
0.0
 10
-7615.869133272104
 20
-1764.917927903715
 30
0.0
 10
-7584.675148844492
 20
-1765.5001198731168
 30
0.0
 10
-7580.830518591413
 20
-1765.5089585750807
 30
0.0
 10
-7568.680204739353
 20
-1765.7986430717376
 30
0.0
 10
-7558.579656949384
 20
-1766.9252492375883
 30
0.0
 10
-7550.552462191007
 20
-1768.8216082188342
 30
0.0
 10
-7544.620555507104
 20
-1771.4200127187441
 30
0.0
 10
-7540.8042088030625
 20
-1774.6522522714295
 30
0.0
 10
-7539.122020456394
 20
-1778.449650353984
 30
0.0
 10
-7529.28101607825
 20
-1820.6554163285955
 30
0.0
 10
-7498.4840554732755
 20
-1943.603774913469
 30
0.0
 10
-7487.267386143767
 20
-1985.4649547558831
 30
0.0
 10
-7486.960862752623
 20
-1989.606938971671
 30
0.0
 10
-7488.802912884514
 20
-1994.2565331487613
 30
0.0
 10
-7492.809508161142
 20
-1999.3444027245362
 30
0.0
 10
-7498.994924432979
 20
-2004.8008355217814
 30
0.0
 10
-7507.371733847907
 20
-2010.5557787112116
 30
0.0
 10
-7517.9507976761215
 20
-2016.5388759299951
 30
0.0
 10
-7521.337292314549
 20
-2018.3590171248327
 30
0.0
 10
-7548.5734874931295
 20
-2033.5772072864368
 30
0.0
 10
-7577.308932029265
 20
-2050.2558236834316
 30
0.0
 10
-7607.50265848349
 20
-2068.4477289942065
 30
0.0
 10
-7639.112375467894
 20
-2088.204828654237
 30
0.0
 10
-7672.094488128301
 20
-2109.578041759745
 30
0.0
 10
-7706.4041192206
 20
-2132.6172723866293
 30
0.0
 10
-7741.995130752927
 20
-2157.37138132334
 30
0.0
 10
-7778.820146345067
 20
-2183.8881583333573
 30
0.0
 10
-7816.830573819502
 20
-2212.2142946354775
 30
0.0
 10
-7855.9766288047995
 20
-2242.395356161
 30
0.0
 10
-7896.2073585562475
 20
-2274.4757570452302
 30
0.0
 10
-7916.427094984046
 20
-2291.1476056065267
 30
0.0
 10
-7890.755464053146
 20
-2393.6345011770354
 30
0.0
 10
-7855.161976616866
 20
-2493.1116344814154
 30
0.0
 10
-7829.0874974182925
 20
-2495.7402862622603
 30
0.0
 10
-7777.813952354634
 20
-2500.0631688454177
 30
0.0
 10
-7728.497497808305
 20
-2503.4094214809443
 30
0.0
 10
-7681.1558242647425
 20
-2505.8442810010542
 30
0.0
 10
-7635.805010874917
 20
-2507.433292806411
 30
0.0
 10
-7592.459520214667
 20
-2508.2422755972043
 30
0.0
 10
-7551.132193826017
 20
-2508.3372860139525
 30
0.0
 10
-7511.834248413973
 20
-2507.784583212227
 30
0.0
 10
-7474.57527282669
 20
-2506.650593376331
 30
0.0
 10
-7439.363225874025
 20
-2505.0018741790727
 30
0.0
 10
-7406.2044335571245
 20
-2502.9050792472176
 30
0.0
 10
-7375.103591898751
 20
-2500.4269226540778
 30
0.0
 10
-7371.276608246894
 20
-2500.0588791322443
 30
0.0
 10
-7359.156407431092
 20
-2499.1562297009855
 30
0.0
 10
-7348.994069824837
 20
-2499.28738414008
 30
0.0
 10
-7340.819652518898
 20
-2500.3878089594195
 30
0.0
 10
-7334.661621408532
 20
-2502.392272901588
 30
0.0
 10
-7330.54683657917
 20
-2505.23488094693
 30
0.0
 10
-7328.500538328434
 20
-2508.849110228546
 30
0.0
 10
-7314.570032589941
 20
-2549.8870567968643
 30
0.0
 10
-7271.870321251242
 20
-2669.224755420605
 30
0.0
 10
-7256.604550111408
 20
-2709.784936388553
 30
0.0
 10
-7255.893517266052
 20
-2713.8769312719787
 30
0.0
 10
-7257.270957498144
 20
-2718.6846888685145
 30
0.0
 10
-7260.759561497213
 20
-2724.1407739730985
 30
0.0
 10
-7266.380369359868
 20
-2730.1772093697437
 30
0.0
 10
-7274.152759073661
 20
-2736.725511838668
 30
0.0
 10
-7284.094435738292
 20
-2743.7167283928015
 30
0.0
 10
-7287.2862184444975
 20
-2745.860039630491
 30
0.0
 10
-7312.899620418253
 20
-2763.6745640117742
 30
0.0
 10
-7339.861905650863
 20
-2783.0894344116186
 30
0.0
 10
-7368.127122523718
 20
-2804.153243448905
 30
0.0
 10
-7397.648095671146
 20
-2826.913501339346
 30
0.0
 10
-7428.376449215909
 20
-2851.4166089468577
 30
0.0
 10
-7460.26263055528
 20
-2877.7078313064403
 30
0.0
 10
-7493.255934669684
 20
-2905.83127161447
 30
0.0
 10
-7527.304529093169
 20
-2935.829845816345
 30
0.0
 10
-7562.355479093088
 20
-2967.745257433598
 30
0.0
 10
-7598.354773781085
 20
-3001.6179732633946
 30
0.0
 10
-7635.247352417305
 20
-3037.48719933251
 30
0.0
 10
-7653.735598367599
 20
-3056.060649128974
 30
0.0
 10
-7618.142110931325
 20
-3155.537782433353
 30
0.0
 10
-7572.969551731066
 20
-3251.047134298147
 30
0.0
 10
-7546.762975346231
 20
-3251.107382515556
 30
0.0
 10
-7495.312609827758
 20
-3250.383762975813
 30
0.0
 10
-7445.905637375473
 20
-3248.880044644451
 30
0.0
 10
-7398.553268962553
 20
-3246.662884191302
 30
0.0
 10
-7353.265081741726
 20
-3243.7990874304037
 30
0.0
 10
-7310.049017286805
 20
-3240.355573707243
 30
0.0
 10
-7268.911380621272
 20
-3236.3993402727833
 30
0.0
 10
-7229.856839905686
 20
-3231.997426656002
 30
0.0
 10
-7192.888426910646
 20
-3227.2168790524424
 30
0.0
 10
-7158.0075383294125
 20
-3222.124714741309
 30
0.0
 10
-7125.213936503815
 20
-3216.7878864504783
 30
0.0
 10
-7094.5057557212995
 20
-3211.273247297488
 30
0.0
 10
-7090.733274615274
 20
-3210.5318660121657
 30
0.0
 10
-7078.75991099516
 20
-3208.4455756604525
 30
0.0
 10
-7068.633652439067
 20
-3207.5800152838465
 30
0.0
 10
-7060.3907366928115
 20
-3207.873908248715
 30
0.0
 10
-7054.065886361898
 20
-3209.2651275496273
 30
0.0
 10
-7049.692291034493
 20
-3211.6907282182224
 30
0.0
 10
-7047.3015898504655
 20
-3215.086981695179
 30
0.0
 10
-7029.415741137073
 20
-3254.5618909981276
 30
0.0
 10
-6975.224500626879
 20
-3369.1396423863666
 30
0.0
 10
-6956.0566453979145
 20
-3408.008207764677
 30
0.0
 10
-6954.947950733338
 20
-3412.010805168101
 30
0.0
 10
-6955.8475155632095
 20
-3416.93042485024
 30
0.0
 10
-6958.784531121144
 20
-3422.7021804014767
 30
0.0
 10
-6963.786599122254
 20
-3429.260484224801
 30
0.0
 10
-6970.879716773149
 20
-3436.539082240777
 30
0.0
 10
-6980.088262493241
 20
-3444.4710888930567
 30
0.0
 10
-6983.05459465496
 20
-3446.9169289147258
 30
0.0
 10
-7006.798532361172
 20
-3467.156223907488
 30
0.0
 10
-7031.727996744383
 20
-3489.1203724949833
 30
0.0
 10
-7057.792494546043
 20
-3512.8532292631025
 30
0.0
 10
-7084.940420747278
 20
-3538.3974516584462
 30
0.0
 10
-7113.119084333934
 20
-3565.794475446941
 30
0.0
 10
-7142.2747345633215
 20
-3595.084490695655
 30
0.0
 10
-7172.352587705205
 20
-3626.3064182710004
 30
0.0
 10
-7203.296854382881
 20
-3659.49788699628
 30
0.0
 10
-7235.050767098988
 20
-3694.695211068053
 30
0.0
 10
-7267.556608602621
 20
-3731.9333684319727
 30
0.0
 10
-7300.7557404238105
 20
-3771.2459794308147
 30
0.0
 10
-7317.334443981402
 20
-3791.5421579876274
 30
0.0
 10
-7272.161884781146
 20
-3887.0515098524193
 30
0.0
 10
-7217.84529025583
 20
-3977.673273008443
 30
0.0
 10
-7191.759000341296
 20
-3975.1645374391496
 30
0.0
 10
-7140.627309513583
 20
-3969.401384628244
 30
0.0
 10
-7091.605635308655
 20
-3963.0621769595414
 30
0.0
 10
-7044.698601219633
 20
-3956.2143490003195
 30
0.0
 10
-6999.909190167783
 20
-3948.925323601485
 30
0.0
 10
-6957.2387462431925
 20
-3941.26247628394
 30
0.0
 10
-6916.686977229987
 20
-3933.293099688944
 30
0.0
 10
-6878.251957787333
 20
-3925.084368091567
 30
0.0
 10
-6841.930133410669
 20
-3916.703302007079
 30
0.0
 10
-6807.716325225737
 20
-3908.216732908047
 30
0.0
 10
-6775.603734203829
 20
-3899.6912678320896
 30
0.0
 10
-6745.583950864907
 20
-3891.193255108899
 30
0.0
 10
-6741.902303360013
 20
-3890.085675967146
 30
0.0
 10
-6730.191086972554
 20
-3886.8358368115482
 30
0.0
 10
-6720.198428872094
 20
-3884.981897438831
 30
0.0
 10
-6711.966398470196
 20
-3884.4664281993187
 30
0.0
 10
-6705.535640684936
 20
-3885.2310046565904
 30
0.0
 10
-6700.945354973342
 20
-3887.2162380880304
 30
0.0
 10
-6698.233274615314
 20
-3890.3618079827643
 30
0.0
 10
-6676.564333427533
 20
-3927.893515064575
 30
0.0
 10
-6611.403455015901
 20
-4036.6078728368743
 30
0.0
 10
-6588.518112621878
 20
-4073.410497093234
 30
0.0
 10
-6587.022433473774
 20
-4077.2851498156188
 30
0.0
 10
-6587.43545960036
 20
-4082.269252956485
 30
0.0
 10
-6589.792601651803
 20
-4088.301093793253
 30
0.0
 10
-6594.12775714211
 20
-4095.318105992304
 30
0.0
 10
-6600.473292129634
 20
-4103.256902677552
 30
0.0
 10
-6608.860023576001
 20
-4112.053309867841
 30
0.0
 10
-6611.572337792952
 20
-4114.778123897047
 30
0.0
 10
-6633.218144131753
 20
-4137.247274026584
 30
0.0
 10
-6655.8747032957235
 20
-4161.5491740440075
 30
0.0
 10
-6679.4874666640535
 20
-4187.7225181585845
 30
0.0
 10
-6704.000896549214
 20
-4215.804700233271
 30
0.0
 10
-6729.358494243398
 20
-4245.831791886928
 30
0.0
 10
-6755.502828512993
 20
-4277.838521166377
 30
0.0
 10
-6782.375564514373
 20
-4311.858251778847
 30
0.0
 10
-6809.917493242278
 20
-4347.922963039405
 30
0.0
 10
-6838.068561136662
 20
-4386.063230094072
 30
0.0
 10
-6866.767900432751
 20
-4426.308205180252
 30
0.0
 10
-6895.953859650981
 20
-4468.685599174442
 30
0.0
 10
-6910.463358837763
 20
-4490.509043197078
 30
0.0
 10
-6856.146764312457
 20
-4581.1308063531005
 30
0.0
 10
-6793.209232959844
 20
-4665.992243682271
 30
0.0
 10
-6767.4944547477
 20
-4660.938684821221
 30
0.0
 10
-6717.173864744842
 20
-4650.191501051181
 30
0.0
 10
-6669.009594307839
 20
-4639.077854080351
 30
0.0
 10
-6622.999634922983
 20
-4627.665306941708
 30
0.0
 10
-6579.140346552922
 20
-4616.021250204115
 30
0.0
 10
-6537.426462859696
 20
-4604.212866700791
 30
0.0
 10
-6497.851097202266
 20
-4592.307096398374
 30
0.0
 10
-6460.405749280494
 20
-4580.370601393031
 30
0.0
 10
-6425.0803125464845
 20
-4568.469731075566
 30
0.0
 10
-6391.863082433843
 20
-4556.67048748829
 30
0.0
 10
-6360.740764021695
 20
-4545.038490516379
 30
0.0
 10
-6331.698485050402
 20
-4533.638944731001
 30
0.0
 10
-6328.143127424704
 20
-4532.175834325416
 30
0.0
 10
-6316.806843685716
 20
-4527.793744093544
 30
0.0
 10
-6307.044020800939
 20
-4524.969280174341
 30
0.0
 10
-6298.902154696253
 20
-4523.64941298101
 30
0.0
 10
-6292.427421169529
 20
-4523.779983305396
 30
0.0
 10
-6287.664652034451
 20
-4525.305730616498
 30
0.0
 10
-6284.657311318847
 20
-4528.17032337138
 30
0.0
 10
-6259.413961405764
 20
-4563.397377375937
 30
0.0
 10
-6183.910979972357
 20
-4665.201362837635
 30
0.0
 10
-6157.52854877093
 20
-4699.583616582096
 30
0.0
 10
-6155.660289347117
 20
-4703.2930095996235
 30
0.0
 10
-6155.582799103037
 20
-4708.293596561382
 30
0.0
 10
-6157.337367081486
 20
-4714.527432759084
 30
0.0
 10
-6160.96386014378
 20
-4721.935575670496
 30
0.0
 10
-6166.5007014971825
 20
-4730.458116073149
 30
0.0
 10
-6173.984849861343
 20
-4740.0342095915985
 30
0.0
 10
-6176.417025064915
 20
-4743.01175617971
 30
0.0
 10
-6195.7562390884605
 20
-4767.494371247385
 30
0.0
 10
-6215.921697983107
 20
-4793.8999821128
 30
0.0
 10
-6236.855323098823
 20
-4822.261749962204
 30
0.0
 10
-6258.498178937709
 20
-4852.611444951573
 30
0.0
 10
-6280.790503211754
 20
-4884.97942716329
 30
0.0
 10
-6303.671737290593
 20
-4919.394628173855
 30
0.0
 10
-6327.0805570136445
 20
-4955.884533220575
 30
0.0
 10
-6350.954903962178
 20
-4994.475164131994
 30
0.0
 10
-6375.232016862075
 20
-5035.191062548229
 30
0.0
 10
-6399.848463624546
 20
-5078.05527424645
 30
0.0
 10
-6424.740173497876
 20
-5123.089333765983
 30
0.0
 10
-6437.04073390498
 20
-5146.229871558597
 30
0.0
 10
-6374.10320255237
 20
-5231.091308887767
 30
0.0
 10
-6303.150857204541
 20
-5309.375158358626
 30
0.0
 10
-6278.055238066099
 20
-5301.825444740205
 30
0.0
 10
-6229.030363677856
 20
-5286.197731265746
 30
0.0
 10
-6182.187345262354
 20
-5270.4166754884545
 30
0.0
 10
-6137.517561642144
 20
-5254.549318238068
 30
0.0
 10
-6095.010784876803
 20
-5238.662368793387
 30
0.0
 10
-6054.655188918034
 20
-5222.822170292542
 30
0.0
 10
-6016.437359021756
 20
-5207.09466535907
 30
0.0
 10
-5980.342301791064
 20
-5191.545361917818
 30
0.0
 10
-5946.353455966303
 20
-5176.239299254209
 30
0.0
 10
-5914.452704010323
 20
-5161.241014344558
 30
0.0
 10
-5884.620383147434
 20
-5146.614507966229
 30
0.0
 10
-5856.835301566389
 20
-5132.4232129762
 30
0.0
 10
-5853.4404738573785
 20
-5130.618661859808
 30
0.0
 10
-5842.588297376308
 20
-5125.14652247609
 30
0.0
 10
-5833.149331028497
 20
-5121.378735141952
 30
0.0
 10
-5825.176039842409
 20
-5119.267181037386
 30
0.0
 10
-5818.719685797533
 20
-5118.762487765286
 30
0.0
 10
-5813.830301309337
 20
-5119.814055175386
 30
0.0
 10
-5810.556662571225
 20
-5122.37008319624
 30
0.0
 10
-5781.9820111919225
 20
-5154.953228336412
 30
0.0
 10
-5696.8640617220735
 20
-5248.866413455795
 30
0.0
 10
-5667.238618947817
 20
-5280.497176789544
 30
0.0
 10
-5665.015771607838
 20
-5284.005586619697
 30
0.0
 10
-5664.448511266504
 20
-5288.974499016307
 30
0.0
 10
-5665.5836077231825
 20
-5295.350295324598
 30
0.0
 10
-5668.466513246831
 20
-5303.078224482431
 30
0.0
 10
-5673.141338157133
 20
-5312.102431879517
 30
0.0
 10
-5679.650826999087
 20
-5322.36598871072
 30
0.0
 10
-5681.779440012508
 20
-5325.567592456397
 30
0.0
 10
-5698.625814517864
 20
-5351.827891495552
 30
0.0
 10
-5716.105968750468
 20
-5380.082912741549
 30
0.0
 10
-5734.158853360219
 20
-5410.35996499727
 30
0.0
 10
-5752.722702619915
 20
-5442.684888747744
 30
0.0
 10
-5771.735066204838
 20
-5477.082040154683
 30
0.0
 10
-5791.132841300588
 20
-5513.574275697371
 30
0.0
 10
-5810.852305014814
 20
-5552.182937445328
 30
0.0
 10
-5830.829147171818
 20
-5592.927839136147
 30
0.0
 10
-5850.998503208785
 20
-5635.827252554626
 30
0.0
 10
-5871.294987598593
 20
-5680.897895074272
 30
0.0
 10
-5891.652727353751
 20
-5728.154917507855
 30
0.0
 10
-5901.625887860293
 20
-5752.389693041605
 30
0.0
 10
-5830.67354251246
 20
-5830.6735425124625
 30
0.0
 10
-5752.3896930416
 20
-5901.625887860291
 30
0.0
 10
-5728.154917507825
 20
-5891.6527273537395
 30
0.0
 10
-5680.8978950742785
 20
-5871.294987598599
 30
0.0
 10
-5635.827252554619
 20
-5850.9985032087825
 30
0.0
 10
-5592.927839134304
 20
-5830.829147170953
 30
0.0
 10
-5552.182937470499
 20
-5810.852305027028
 30
0.0
 10
-5513.574275695883
 20
-5791.132841299358
 30
0.0
 10
-5477.082040154649
 20
-5771.73506620487
 30
0.0
 10
-5442.6848887477345
 20
-5752.72270261996
 30
0.0
 10
-5410.359964997708
 20
-5734.158853360804
 30
0.0
 10
-5380.082912878452
 20
-5716.105968811352
 30
0.0
 10
-5351.827891122734
 20
-5698.625814278693
 30
0.0
 10
-5325.567592456434
 20
-5681.7794400125185
 30
0.0
 10
-5322.3659887107515
 20
-5679.650826999036
 30
0.0
 10
-5312.102431879514
 20
-5673.141338157112
 30
0.0
 10
-5303.078224474462
 20
-5668.46651325975
 30
0.0
 10
-5295.350295359738
 20
-5665.583607664268
 30
0.0
 10
-5288.974499015564
 20
-5664.448511267787
 30
0.0
 10
-5284.0055866196835
 20
-5665.01577160788
 30
0.0
 10
-5280.497176789665
 20
-5667.238618947598
 30
0.0
 10
-5248.8664134574165
 20
-5696.864061723928
 30
0.0
 10
-5154.953228334726
 20
-5781.982011190125
 30
0.0
 10
-5122.370083196467
 20
-5810.556662571126
 30
0.0
 10
-5119.814055175343
 20
-5813.830301309347
 30
0.0
 10
-5118.7624877639355
 20
-5818.719685798145
 30
0.0
 10
-5119.26718109946
 20
-5825.176039813212
 30
0.0
 10
-5121.378735128314
 20
-5833.14933103516
 30
0.0
 10
-5125.14652247611
 20
-5842.588297376311
 30
0.0
 10
-5130.61866185986
 20
-5853.440473857351
 30
0.0
 10
-5132.423212976193
 20
-5856.83530156635
 30
0.0
 10
-5146.614508167706
 20
-5884.620383541896
 30
0.0
 10
-5161.241014297383
 20
-5914.452703868111
 30
0.0
 10
-5176.23929925367
 20
-5946.353455965809
 30
0.0
 10
-5191.5453619177715
 20
-5980.342301791068
 30
0.0
 10
-5207.0946653590345
 20
-6016.437359021785
 30
0.0
 10
-5222.82217029362
 20
-6054.6551889196335
 30
0.0
 10
-5238.662368783699
 20
-6095.010784850554
 30
0.0
 10
-5254.549318238745
 20
-6137.517561644062
 30
0.0
 10
-5270.4166754884545
 20
-6182.187345262361
 30
0.0
 10
-5286.197731265741
 20
-6229.030363677846
 30
0.0
 10
-5301.825444740212
 20
-6278.055238066129
 30
0.0
 10
-5309.375158358623
 20
-6303.1508572045395
 30
0.0
 10
-5231.09130888777
 20
-6374.103202552367
 30
0.0
 10
-5146.229871558598
 20
-6437.040733904976
 30
0.0
 10
-5123.089333765958
 20
-6424.74017349786
 30
0.0
 10
-5078.055274246459
 20
-6399.84846362455
 30
0.0
 10
-5035.191062548225
 20
-6375.232016862072
 30
0.0
 10
-4994.475164130248
 20
-6350.954903961135
 30
0.0
 10
-4955.884533244432
 20
-6327.080557028264
 30
0.0
 10
-4919.3946281725
 20
-6303.671737289222
 30
0.0
 10
-4884.979427163257
 20
-6280.79050321178
 30
0.0
 10
-4852.6114449515635
 20
-6258.49817893775
 30
0.0
 10
-4822.261749962585
 20
-6236.855323099444
 30
0.0
 10
-4793.89998224308
 20
-6215.9216980571155
 30
0.0
 10
-4767.494370899811
 20
-6195.756238813898
 30
0.0
 10
-4743.011756179749
 20
-6176.417025064927
 30
0.0
 10
-4740.0342095916385
 20
-6173.984849861294
 30
0.0
 10
-4730.458116073153
 20
-6166.50070149716
 30
0.0
 10
-4721.935575661303
 20
-6160.9638601558545
 30
0.0
 10
-4714.527432799834
 20
-6157.337367026298
 30
0.0
 10
-4708.293596560521
 20
-6155.58279910424
 30
0.0
 10
-4703.293009599609
 20
-6155.6602893471545
 30
0.0
 10
-4699.58361658224
 20
-6157.528548770723
 30
0.0
 10
-4665.2013628390705
 20
-6183.910979974359
 30
0.0
 10
-4563.397377374437
 20
-6259.413961403809
 30
0.0
 10
-4528.17032337162
 20
-6284.657311318768
 30
0.0
 10
-4525.305730616458
 20
-6287.664652034455
 30
0.0
 10
-4523.779983303996
 20
-6292.427421170004
 30
0.0
 10
-4523.64941304565
 20
-6298.902154673278
 30
0.0
 10
-4524.969280160118
 20
-6307.044020806231
 30
0.0
 10
-4527.7937440935675
 20
-6316.806843685718
 30
0.0
 10
-4532.175834325474
 20
-6328.143127424682
 30
0.0
 10
-4533.638944731001
 20
-6331.698485050361
 30
0.0
 10
-4545.038490678225
 20
-6360.7407644340055
 30
0.0
 10
-4556.670487455287
 20
-6391.863082287689
 30
0.0
 10
-4568.469731075082
 20
-6425.080312545939
 30
0.0
 10
-4580.370601392989
 20
-6460.405749280491
 30
0.0
 10
-4592.307096398339
 20
-6497.85109720229
 30
0.0
 10
-4604.212866701711
 20
-6537.426462861392
 30
0.0
 10
-4616.021250197048
 20
-6579.140346525849
 30
0.0
 10
-4627.665306942199
 20
-6622.999634924957
 30
0.0
 10
-4639.077854080354
 20
-6669.009594307844
 30
0.0
 10
-4650.19150105118
 20
-6717.173864744831
 30
0.0
 10
-4660.938684821229
 20
-6767.494454747728
 30
0.0
 10
-4665.992243682269
 20
-6793.209232959837
 30
0.0
 10
-4581.130806353102
 20
-6856.146764312443
 30
0.0
 10
-4490.509043197078
 20
-6910.463358837758
 30
0.0
 10
-4468.685599174419
 20
-6895.953859650963
 30
0.0
 10
-4426.308205180263
 20
-6866.7679004327565
 30
0.0
 10
-4386.063230094069
 20
-6838.068561136657
 30
0.0
 10
-4347.9229630377695
 20
-6809.91749324107
 30
0.0
 10
-4311.858251801156
 20
-6782.375564531261
 30
0.0
 10
-4277.838521165163
 20
-6755.502828511496
 30
0.0
 10
-4245.8317918868925
 20
-6729.358494243422
 30
0.0
 10
-4215.804700233257
 20
-6704.000896549255
 30
0.0
 10
-4187.722518158902
 20
-6679.487466664711
 30
0.0
 10
-4161.549174166406
 20
-6655.8747033821455
 30
0.0
 10
-4137.247273707595
 20
-6633.218143824443
 30
0.0
 10
-4114.7781238970865
 20
-6611.572337792968
 30
0.0
 10
-4112.053309867884
 20
-6608.860023575957
 30
0.0
 10
-4103.256902677558
 20
-6600.473292129611
 30
0.0
 10
-4095.318105981971
 20
-6594.127757153225
 30
0.0
 10
-4088.301093839215
 20
-6589.792601600875
 30
0.0
 10
-4082.2692529555093
 20
-6587.435459601473
 30
0.0
 10
-4077.2851498155997
 20
-6587.0224334738095
 30
0.0
 10
-4073.410497093398
 20
-6588.518112621686
 30
0.0
 10
-4036.607872838106
 20
-6611.403455018034
 30
0.0
 10
-3927.893515063274
 20
-6676.564333425441
 30
0.0
 10
-3890.3618079830107
 20
-6698.233274615259
 30
0.0
 10
-3887.2162380879895
 20
-6700.94535497334
 30
0.0
 10
-3885.2310046551493
 20
-6705.5356406852725
 30
0.0
 10
-3884.466428265899
 20
-6711.966398453668
 30
0.0
 10
-3884.981897424156
 20
-6720.198428875967
 30
0.0
 10
-3886.83583681157
 20
-6730.19108697256
 30
0.0
 10
-3890.0856759672056
 20
-6741.902303359996
 30
0.0
 10
-3891.1932551089026
 20
-6745.583950864866
 30
0.0
 10
-3899.691267952741
 20
-6775.603734630017
 30
0.0
 10
-3908.2167328895275
 20
-6807.716325077053
 30
0.0
 10
-3916.703302006649
 20
-6841.930133410078
 30
0.0
 10
-3925.084368091523
 20
-6878.251957787325
 30
0.0
 10
-3933.2930996889063
 20
-6916.686977230007
 30
0.0
 10
-3941.262476284688
 20
-6957.238746244971
 30
0.0
 10
-3948.925323597107
 20
-6999.909190140147
 30
0.0
 10
-3956.2143490006147
 20
-7044.698601221645
 30
0.0
 10
-3963.062176959543
 20
-7091.60563530866
 30
0.0
 10
-3969.4013846282437
 20
-7140.627309513571
 30
0.0
 10
-3975.1645374391537
 20
-7191.759000341325
 30
0.0
 10
-3977.6732730084445
 20
-7217.845290255834
 30
0.0
 10
-3887.0515098524174
 20
-7272.161884781143
 30
0.0
 10
-3791.5421579876224
 20
-7317.3344439814
 30
0.0
 10
-3771.2459794307883
 20
-7300.755740423791
 30
0.0
 10
-3731.9333684319777
 20
-7267.556608602628
 30
0.0
 10
-3694.6952110680463
 20
-7235.050767098985
 30
0.0
 10
-3659.4978869947668
 20
-7203.296854381519
 30
0.0
 10
-3626.3064182915427
 20
-7172.3525877242
 30
0.0
 10
-3595.084490694588
 20
-7142.274734561714
 30
0.0
 10
-3565.7944754468986
 20
-7113.1190843339555
 30
0.0
 10
-3538.397451658424
 20
-7084.940420747319
 30
0.0
 10
-3512.8532292633504
 20
-7057.792494546728
 30
0.0
 10
-3489.120372608317
 20
-7031.727996842386
 30
0.0
 10
-3467.156223620152
 20
-7006.798532024077
 30
0.0
 10
-3446.916928914758
 20
-6983.054594654981
 30
0.0
 10
-3444.471088893101
 20
-6980.088262493203
 30
0.0
 10
-3436.5390822407808
 20
-6970.879716773128
 30
0.0
 10
-3429.260484213424
 20
-6963.786599132306
 30
0.0
 10
-3422.7021804522055
 20
-6958.784531074967
 30
0.0
 10
-3416.930424849156
 20
-6955.847515564221
 30
0.0
 10
-3412.0108051680745
 20
-6954.947950733374
 30
0.0
 10
-3408.0082077648553
 20
-6956.056645397742
 30
0.0
 10
-3369.13964238738
 20
-6975.224500629124
 30
0.0
 10
-3254.561890997034
 20
-7029.415741134865
 30
0.0
 10
-3215.086981695426
 20
-7047.301589850436
 30
0.0
 10
-3211.690728218178
 20
-7049.69229103449
 30
0.0
 10
-3209.2651275481567
 20
-7054.065886362092
 30
0.0
 10
-3207.873908316591
 20
-7060.390736682891
 30
0.0
 10
-3207.5800152688594
 20
-7068.633652441484
 30
0.0
 10
-3208.4455756604702
 20
-7078.759910995169
 30
0.0
 10
-3210.531866012223
 20
-7090.733274615264
 30
0.0
 10
-3211.2732472974917
 20
-7094.505755721259
 30
0.0
 10
-3216.787886528772
 20
-7125.213936939777
 30
0.0
 10
-3222.1247147374484
 20
-7158.0075381796305
 30
0.0
 10
-3227.216879052069
 20
-7192.888426910018
 30
0.0
 10
-3231.997426655956
 20
-7229.856839905675
 30
0.0
 10
-3236.39934027274
 20
-7268.911380621291
 30
0.0
 10
-3240.355573707809
 20
-7310.0490172886475
 30
0.0
 10
-3243.799087428751
 20
-7353.265081713796
 30
0.0
 10
-3246.6628841913944
 20
-7398.553268964585
 30
0.0
 10
-3248.8800446444484
 20
-7445.905637375479
 30
0.0
 10
-3250.3837629758095
 20
-7495.312609827749
 30
0.0
 10
-3251.1073825155536
 20
-7546.762975346262
 30
0.0
 10
-3251.0471342981436
 20
-7572.969551731068
 30
0.0
 10
-3155.5377824333555
 20
-7618.142110931323
 30
0.0
 10
-3056.060649128973
 20
-7653.735598367595
 30
0.0
 10
-3037.487199332489
 20
-7635.247352417281
 30
0.0
 10
-3001.617973263402
 20
-7598.354773781091
 30
0.0
 10
-2967.7452574335944
 20
-7562.355479093082
 30
0.0
 10
-2935.829845814976
 20
-7527.304529091663
 30
0.0
 10
-2905.8312716330543
 20
-7493.255934690599
 30
0.0
 10
-2877.7078313055404
 20
-7460.262630553573
 30
0.0
 10
-2851.416608946817
 20
-7428.3764492159235
 30
0.0
 10
-2826.9135013393234
 20
-7397.648095671183
 30
0.0
 10
-2804.153243449088
 20
-7368.127122524423
 30
0.0
 10
-2783.089434514804
 20
-7339.861905759502
 30
0.0
 10
-2763.6745637588665
 20
-7312.899620054616
 30
0.0
 10
-2745.8600396305237
 20
-7287.28621844452
 30
0.0
 10
-2743.7167283928525
 20
-7284.094435738257
 30
0.0
 10
-2736.7255118386774
 20
-7274.15275907364
 30
0.0
 10
-2730.1772093574405
 20
-7266.380369368754
 30
0.0
 10
-2724.1407740281124
 20
-7260.75956145623
 30
0.0
 10
-2718.6846888673404
 20
-7257.270957499043
 30
0.0
 10
-2713.8769312719523
 20
-7255.893517266083
 30
0.0
 10
-2709.784936388751
 20
-7256.604550111251
 30
0.0
 10
-2669.2247554213964
 20
-7271.870321253575
 30
0.0
 10
-2549.887056795996
 20
-7314.570032587634
 30
0.0
 10
-2508.849110228798
 20
-7328.500538328428
 30
0.0
 10
-2505.2348809468895
 20
-7330.54683657916
 30
0.0
 10
-2502.3922729001088
 20
-7334.661621408579
 30
0.0
 10
-2500.3878090279445
 20
-7340.819652515675
 30
0.0
 10
-2499.287384124932
 20
-7348.9940698257715
 30
0.0
 10
-2499.156229701006
 20
-7359.156407431101
 30
0.0
 10
-2500.0588791323057
 20
-7371.276608246888
 30
0.0
 10
-2500.4269226540887
 20
-7375.103591898711
 30
0.0
 10
-2502.905079282405
 20
-7406.2044339986605
 30
0.0
 10
-2505.0018741899153
 20
-7439.363225724585
 30
0.0
 10
-2506.650593376025
 20
-7474.575272826027
 30
0.0
 10
-2507.784583212185
 20
-7511.8342484139575
 30
0.0
 10
-2508.337286013911
 20
-7551.13219382603
 30
0.0
 10
-2508.2422755975904
 20
-7592.4595202165565
 30
0.0
 10
-2507.4332928075073
 20
-7635.805010846957
 30
0.0
 10
-2505.8442810009506
 20
-7681.155824266773
 30
0.0
 10
-2503.4094214809443
 20
-7728.497497808309
 30
0.0
 10
-2500.063168845419
 20
-7777.813952354623
 30
0.0
 10
-2495.7402862622585
 20
-7829.087497418322
 30
0.0
 10
-2493.111634481416
 20
-7855.161976616869
 30
0.0
 10
-2393.634501177042
 20
-7890.7554640531425
 30
0.0
 10
-2291.147605606526
 20
-7916.42709498404
 30
0.0
 10
-2274.475757045212
 20
-7896.207358556223
 30
0.0
 10
-2242.395356161007
 20
-7855.976628804808
 30
0.0
 10
-2212.2142946354747
 20
-7816.830573819495
 30
0.0
 10
-2183.8881583321427
 20
-7778.820146343434
 30
0.0
 10
-2157.371381339785
 20
-7741.995130775563
 30
0.0
 10
-2132.6172723859004
 20
-7706.404119218812
 30
0.0
 10
-2109.578041759703
 20
-7672.094488128313
 30
0.0
 10
-2088.204828654211
 20
-7639.112375467928
 30
0.0
 10
-2068.4477289943193
 20
-7607.50265848421
 30
0.0
 10
-2050.2558237754715
 20
-7577.3089321474945
 30
0.0
 10
-2033.5772070703895
 20
-7548.573487106455
 30
0.0
 10
-2018.3590171248636
 20
-7521.337292314574
 30
0.0
 10
-2016.5388759300492
 20
-7517.950797676091
 30
0.0
 10
-2010.555778711223
 20
-7507.371733847887
 30
0.0
 10
-2004.800835508666
 20
-7498.994924440616
 30
0.0
 10
-1999.344402783302
 20
-7492.809508125749
 30
0.0
 10
-1994.2565331475046
 20
-7488.802912885295
 30
0.0
 10
-1989.6069389716422
 20
-7486.960862752651
 30
0.0
 10
-1985.4649547560955
 20
-7487.267386143631
 30
0.0
 10
-1943.6037749140278
 20
-7498.484055475674
 30
0.0
 10
-1820.6554163279575
 20
-7529.28101607587
 30
0.0
 10
-1778.4496503542352
 20
-7539.122020456412
 30
0.0
 10
-1774.6522522713904
 20
-7540.804208803051
 30
0.0
 10
-1771.4200127172676
 20
-7544.620555507006
 30
0.0
 10
-1768.8216082873455
 20
-7550.552462194518
 30
0.0
 10
-1766.9252492224216
 20
-7558.579656948829
 30
0.0
 10
-1765.798643071757
 20
-7568.680204739365
 30
0.0
 10
-1765.5089585751423
 20
-7580.830518591412
 30
0.0
 10
-1765.500119873132
 20
-7584.675148844452
 30
0.0
 10
-1764.9179278954555
 20
-7615.869133714962
 30
0.0
 10
-1763.754496220615
 20
-7649.073778636199
 30
0.0
 10
-1761.94389221117
 20
-7684.277872846244
 30
0.0
 10
-1759.4204033375804
 20
-7721.4685867237085
 30
0.0
 10
-1756.1185724941279
 20
-7760.631476135478
 30
0.0
 10
-1751.973233228665
 20
-7801.750487504217
 30
0.0
 10
-1746.9195448740602
 20
-7844.807963570045
 30
0.0
 10
-1740.8930275506434
 20
-7889.784650034378
 30
0.0
 10
-1733.8295970857837
 20
-7936.659702510761
 30
0.0
 10
-1725.6655997255
 20
-7985.410694734721
 30
0.0
 10
-1716.3378467418386
 20
-8036.013627075671
 30
0.0
 10
-1711.1661067511802
 20
-8061.704897599515
 30
0.0
 10
-1608.6792111806656
 20
-8087.376528530417
 30
0.0
 10
-1504.1695581733984
 20
-8102.879071116538
 30
0.0
 10
-1489.5598698626586
 20
-8081.12257132625
 30
0.0
 10
-1461.5772459607817
 20
-8037.941134379468
 30
0.0
 10
-1435.3784988606621
 20
-7996.025317005773
 30
0.0
 10
-1410.914434049859
 20
-7955.421473250278
 30
0.0
 10
-1388.134825305046
 20
-7916.174681546119
 30
0.0
 10
-1366.9884433259895
 20
-7878.328723466961
 30
0.0
 10
-1347.4230848177726
 20
-7841.926063126565
 30
0.0
 10
-1329.3856019402754
 20
-7807.007827125315
 30
0.0
 10
-1312.821932180782
 20
-7773.613785158818
 30
0.0
 10
-1297.6771286693343
 20
-7741.7823313405015
 30
0.0
 10
-1283.8953902114367
 20
-7711.550465007445
 30
0.0
 10
-1271.420093937012
 20
-7682.9537764784445
 30
0.0
 10
-1269.9406517397515
 20
-7679.405183702357
 30
0.0
 10
-1265.023294353185
 20
-7668.290614878335
 30
0.0
 10
-1260.117133678321
 20
-7659.390059022501
 30
0.0
 10
-1255.2932519868557
 20
-7652.699603245695
 30
0.0
 10
-1250.6225968419378
 20
-7648.213602424367
 30
0.0
 10
-1246.175944219241
 20
-7645.924682341785
 30
0.0
 10
-1242.0238602435838
 20
-7645.8237442907575
 30
0.0
 10
-1199.264827572331
 20
-7652.883289155198
 30
0.0
 10
-1073.8898689291839
 20
-7671.480907455619
 30
0.0
 10
-1030.9227481472826
 20
-7677.137636224086
 30
0.0
 10
-1026.978752282908
 20
-7678.439514273272
 30
0.0
 10
-1023.3880094552715
 20
-7681.92066934678
 30
0.0
 10
-1020.2206885226839
 20
-7687.5693241105955
 30
0.0
 10
-1017.5466582702992
 20
-7695.371990035527
 30
0.0
 10
-1015.4354502259923
 20
-7705.313474214525
 30
0.0
 10
-1013.9562216215236
 20
-7717.376886938401
 30
0.0
 10
-1013.5705858172518
 20
-7721.202137901633
 30
0.0
 10
-1009.933652060586
 20
-7752.188850416033
 30
0.0
 10
-1005.52119828642
 20
-7785.119569650484
 30
0.0
 10
-1000.2687081878075
 20
-7819.976676297375
 30
0.0
 10
-994.1120431818002
 20
-7856.7409615592205
 30
0.0
 10
-986.9874771291567
 20
-7895.391634937038
 30
0.0
 10
-978.8317308977512
 20
-7935.906332726572
 30
0.0
 10
-969.582006760106
 20
-7978.261127195703
 30
0.0
 10
-959.176022576083
 20
-8022.430536627144
 30
0.0
 10
-947.5520458630102
 20
-8068.387535658515
 30
0.0
 10
-934.6489275354427
 20
-8116.103566855002
 30
0.0
 10
-920.4061355115817
 20
-8165.548552572383
 30
0.0
 10
-912.7411139943775
 20
-8190.609193442098
 30
0.0
 10
-808.231460987117
 20
-8206.111736028219
 30
0.0
 10
-702.705535632346
 20
-8211.295892309912
 30
0.0
 10
-690.2987068570811
 20
-8188.212156143445
 30
0.0
 10
-666.6833479025656
 20
-8142.49587284447
 30
0.0
 10
-644.7192234841248
 20
-8098.213965317216
 30
0.0
 10
-624.3528324833967
 20
-8055.407742493971
 30
0.0
 10
-605.529772070942
 20
-8014.117142712114
 30
0.0
 10
-588.1947682849604
 20
-7974.380715375556
 30
0.0
 10
-572.2917069926708
 20
-7936.2356033040605
 30
0.0
 10
-557.7636651635695
 20
-7899.717525662885
 30
0.0
 10
-544.5529424988807
 20
-7864.860761592789
 30
0.0
 10
-532.6010934316406
 20
-7831.698134593983
 30
0.0
 10
-521.8489588961419
 20
-7800.260996368117
 30
0.0
 10
-512.2367002156317
 20
-7770.57921584507
 30
0.0
 10
-511.1122048530297
 20
-7766.9026998196705
 30
0.0
 10
-507.307944138457
 20
-7755.359665373447
 30
0.0
 10
-503.2978150005648
 20
-7746.021080287481
 30
0.0
 10
-499.15294096068874
 20
-7738.890017795242
 30
0.0
 10
-494.9444812689362
 20
-7733.967814033248
 30
0.0
 10
-490.7435938949489
 20
-7731.254067552373
 30
0.0
 10
-486.6213969976267
 20
-7730.746640147948
 30
0.0
 10
-443.37630435627756
 20
-7733.581073268602
 30
0.0
 10
-316.78217504471144
 20
-7739.800244038522
 30
0.0
 10
-273.4674963159787
 20
-7741.218219804591
 30
0.0
 10
-269.41488550625587
 20
-7742.1272497590335
 30
0.0
 10
-265.5002202214351
 20
-7745.239687775742
 30
0.0
 10
-261.7944858181967
 20
-7750.550690982617
 30
0.0
 10
-258.3685367514553
 20
-7758.053684139942
 30
0.0
 10
-255.29305890107668
 20
-7767.74036278019
 30
0.0
 10
-252.6385319688432
 20
-7779.60069711683
 30
0.0
 10
-251.87981294591506
 20
-7783.369729532383
 30
0.0
 10
-245.22316307048706
 20
-7813.8507507101
 30
0.0
 10
-237.60418153893355
 20
-7846.190403429776
 30
0.0
 10
-228.9603897021066
 20
-7880.364829521671
 30
0.0
 10
-219.22984061326463
 20
-7916.348626003423
 30
0.0
 10
-208.35115281720098
 20
-7954.114856234054
 30
0.0
 10
-196.2635439144455
 20
-7993.6350617570815
 30
0.0
 10
-182.90686389361937
 20
-8034.879274805291
 30
0.0
 10
-168.22162816517195
 20
-8077.816031645559
 30
0.0
 10
-152.14905045394525
 20
-8122.412386208596
 30
0.0
 10
-134.6310752421501
 20
-8168.633924912952
 30
0.0
 10
-115.61041005118146
 20
-8216.444781764927
 30
0.0
 10
-105.52592535477095
 20
-8240.63344530941
 30
0.0
 10
2.0463630789890885e-12
 20
-8245.817601591098
 30
0.0
 10
105.52592535477373
 20
-8240.633445309406
 30
0.0
 10
115.61041005119527
 20
-8216.4447817649
 30
0.0
 10
134.63107524214905
 20
-8168.633924912961
 30
0.0
 10
152.14905045394974
 20
-8122.41238620859
 30
0.0
 10
168.2216281658639
 20
-8077.816031643644
 30
0.0
 10
182.90686388445695
 20
-8034.879274831727
 30
0.0
 10
196.2635439146276
 20
-7993.635061755161
 30
0.0
 10
208.35115281724748
 20
-7954.114856234053
 30
0.0
 10
219.22984061330297
 20
-7916.348626003449
 30
0.0
 10
228.9603897022105
 20
-7880.364829522393
 30
0.0
 10
237.60418148518036
 20
-7846.190403569633
 30
0.0
 10
245.22316316498873
 20
-7813.850750277361
 30
0.0
 10
251.87981294589613
 20
-7783.369729532416
 30
0.0
 10
252.63853196878583
 20
-7779.600697116817
 30
0.0
 10
255.29305890106306
 20
-7767.740362780174
 30
0.0
 10
258.3685367662259
 20
-7758.053684143443
 30
0.0
 10
261.79448575169
 20
-7750.550690965807
 30
0.0
 10
265.5002202228676
 20
-7745.239687776124
 30
0.0
 10
269.41488550629515
 20
-7742.1272497590535
 30
0.0
 10
273.4674963157391
 20
-7741.218219804523
 30
0.0
 10
316.7821750448759
 20
-7739.80024404098
 30
0.0
 10
443.3763043562003
 20
-7733.581073266139
 30
0.0
 10
486.62139699739487
 20
-7730.746640148039
 30
0.0
 10
490.743593894986
 20
-7731.25406755235
 30
0.0
 10
494.94448127032433
 20
-7733.967814032726
 30
0.0
 10
499.1529408961499
 20
-7738.8900178184895
 30
0.0
 10
503.29781501492107
 20
-7746.021080282548
 30
0.0
 10
507.30794413844495
 20
-7755.359665373463
 30
0.0
 10
511.1122048529737
 20
-7766.902699819689
 30
0.0
 10
512.2367002156093
 20
-7770.579215845039
 30
0.0
 10
521.8489590326044
 20
-7800.26099678951
 30
0.0
 10
532.6010933644377
 20
-7831.698134460067
 30
0.0
 10
544.5529424989131
 20
-7864.860761592059
 30
0.0
 10
557.7636651636051
 20
-7899.717525662855
 30
0.0
 10
572.2917069927171
 20
-7936.235603304057
 30
0.0
 10
588.1947682853299
 20
-7974.38071537745
 30
0.0
 10
605.5297720592324
 20
-8014.117142686703
 30
0.0
 10
624.3528324842729
 20
-8055.407742495808
 30
0.0
 10
644.7192234841298
 20
-8098.213965317222
 30
0.0
 10
666.6833479025635
 20
-8142.49587284446
 30
0.0
 10
690.2987068570976
 20
-8188.2121561434715
 30
0.0
 10
702.7055356323486
 20
-8211.29589230991
 30
0.0
 10
808.2314609871144
 20
-8206.111736028222
 30
0.0
 10
912.7411139943811
 20
-8190.609193442101
 30
0.0
 10
920.4061355115928
 20
-8165.548552572353
 30
0.0
 10
934.6489275354426
 20
-8116.103566855012
 30
0.0
 10
947.5520458630142
 20
-8068.387535658508
 30
0.0
 10
959.1760225765842
 20
-8022.430536625171
 30
0.0
 10
969.5820067535788
 20
-7978.26112722291
 30
0.0
 10
978.8317308977441
 20
-7935.906332724643
 30
0.0
 10
986.9874771292028
 20
-7895.391634937034
 30
0.0
 10
994.112043181841
 20
-7856.740961559242
 30
0.0
 10
1000.2687081879816
 20
-7819.9766762980835
 30
0.0
 10
1005.5211982466341
 20
-7785.119569794937
 30
0.0
 10
1009.9336521122168
 20
-7752.188849976115
 30
0.0
 10
1013.5705858172362
 20
-7721.202137901669
 30
0.0
 10
1013.9562216214651
 20
-7717.376886938393
 30
0.0
 10
1015.4354502259771
 20
-7705.31347421451
 30
0.0
 10
1017.546658285342
 20
-7695.3719900375645
 30
0.0
 10
1020.2206884548498
 20
-7687.5693241003855
 30
0.0
 10
1023.3880094567346
 20
-7681.9206693470205
 30
0.0
 10
1026.9787522829492
 20
-7678.439514273287
 30
0.0
 10
1030.9227481470375
 20
-7677.137636224042
 30
0.0
 10
1073.8898689295884
 20
-7671.480907458049
 30
0.0
 10
1199.2648275720126
 20
-7652.8832891527545
 30
0.0
 10
1242.023860243362
 20
-7645.82374429087
 30
0.0
 10
1246.1759442192756
 20
-7645.924682341759
 30
0.0
 10
1250.6225968432682
 20
-7648.2136024237125
 30
0.0
 10
1255.2932519249064
 20
-7652.699603275156
 30
0.0
 10
1260.1171336921248
 20
-7659.390059016185
 30
0.0
 10
1265.0232943531748
 20
-7668.290614878352
 30
0.0
 10
1269.9406517396976
 20
-7679.405183702381
 30
0.0
 10
1271.4200939369869
 20
-7682.9537764784145
 30
0.0
 10
1283.895390388546
 20
-7711.550465413433
 30
0.0
 10
1297.677128589329
 20
-7741.782331213818
 30
0.0
 10
1312.8219321807426
 20
-7773.613785158089
 30
0.0
 10
1329.3856019403079
 20
-7807.007827125282
 30
0.0
 10
1347.4230848178183
 20
-7841.926063126557
 30
0.0
 10
1366.988443326543
 20
-7878.328723468809
 30
0.0
 10
1388.1348252909022
 20
-7916.1746815219785
 30
0.0
 10
1410.914434050911
 20
-7955.4214732520195
 30
0.0
 10
1435.3784988606676
 20
-7996.025317005779
 30
0.0
 10
1461.5772459607788
 20
-8037.941134379459
 30
0.0
 10
1489.5598698626777
 20
-8081.122571326276
 30
0.0
 10
1504.1695581734018
 20
-8102.879071116541
 30
0.0
 10
1608.6792111806622
 20
-8087.37652853042
 30
0.0
 10
1711.1661067511754
 20
-8061.704897599515
 30
0.0
 10
1716.3378467418393
 20
-8036.013627075642
 30
0.0
 10
1725.6655997254934
 20
-7985.410694734733
 30
0.0
 10
1733.8295970857794
 20
-7936.659702510756
 30
0.0
 10
1740.8930275509415
 20
-7889.784650032368
 30
0.0
 10
1746.9195448702242
 20
-7844.807963597763
 30
0.0
 10
1751.973233228462
 20
-7801.7504875023
 30
0.0
 10
1756.1185724941663
 20
-7760.63147613547
 30
0.0
 10
1759.4204033376159
 20
-7721.4685867237295
 30
0.0
 10
1761.9438922114055
 20
-7684.277872846934
 30
0.0
 10
1763.7544961951724
 20
-7649.073778783858
 30
0.0
 10
1764.917927903711
 20
-7615.869133272105
 30
0.0
 10
1765.5001198731131
 20
-7584.675148844492
 30
0.0
 10
1765.5089585750766
 20
-7580.830518591413
 30
0.0
 10
1765.7986430717333
 20
-7568.680204739354
 30
0.0
 10
1766.9252492375845
 20
-7558.579656949385
 30
0.0
 10
1768.82160821883
 20
-7550.552462191008
 30
0.0
 10
1771.4200127187405
 20
-7544.620555507105
 30
0.0
 10
1774.6522522714258
 20
-7540.804208803063
 30
0.0
 10
1778.4496503539797
 20
-7539.122020456395
 30
0.0
 10
1820.6554163285914
 20
-7529.281016078251
 30
0.0
 10
1943.6037749134648
 20
-7498.484055473276
 30
0.0
 10
1985.464954755879
 20
-7487.267386143768
 30
0.0
 10
1989.606938971667
 20
-7486.960862752624
 30
0.0
 10
1994.2565331487576
 20
-7488.802912884515
 30
0.0
 10
1999.344402724532
 20
-7492.809508161143
 30
0.0
 10
2004.8008355217773
 20
-7498.99492443298
 30
0.0
 10
2010.5557787112077
 20
-7507.371733847908
 30
0.0
 10
2016.538875929991
 20
-7517.950797676122
 30
0.0
 10
2018.3590171248286
 20
-7521.33729231455
 30
0.0
 10
2033.5772072864327
 20
-7548.57348749313
 30
0.0
 10
2050.2558236834275
 20
-7577.308932029266
 30
0.0
 10
2068.4477289942024
 20
-7607.502658483491
 30
0.0
 10
2088.204828654233
 20
-7639.112375467895
 30
0.0
 10
2109.5780417597407
 20
-7672.094488128302
 30
0.0
 10
2132.6172723866252
 20
-7706.4041192206
 30
0.0
 10
2157.3713813233358
 20
-7741.995130752928
 30
0.0
 10
2183.888158333353
 20
-7778.820146345068
 30
0.0
 10
2212.2142946354734
 20
-7816.830573819503
 30
0.0
 10
2242.395356160996
 20
-7855.9766288048
 30
0.0
 10
2274.475757045226
 20
-7896.207358556248
 30
0.0
 10
2291.1476056065226
 20
-7916.427094984045
 30
0.0
 10
2393.6345011770377
 20
-7890.755464053143
 30
0.0
 10
2493.1116344814177
 20
-7855.161976616863
 30
0.0
 10
2495.7402862622635
 20
-7829.087497418291
 30
0.0
 10
2500.063168845421
 20
-7777.813952354632
 30
0.0
 10
2503.4094214809465
 20
-7728.497497808303
 30
0.0
 10
2505.8442810010574
 20
-7681.155824264741
 30
0.0
 10
2507.433292806413
 20
-7635.805010874915
 30
0.0
 10
2508.2422755972075
 20
-7592.459520214666
 30
0.0
 10
2508.337286013955
 20
-7551.132193826015
 30
0.0
 10
2507.78458321223
 20
-7511.834248413971
 30
0.0
 10
2506.650593376334
 20
-7474.575272826688
 30
0.0
 10
2505.001874179075
 20
-7439.3632258740245
 30
0.0
 10
2502.9050792472203
 20
-7406.204433557123
 30
0.0
 10
2500.4269226540805
 20
-7375.103591898749
 30
0.0
 10
2500.0588791322475
 20
-7371.2766082468925
 30
0.0
 10
2499.156229700988
 20
-7359.15640743109
 30
0.0
 10
2499.287384140083
 20
-7348.994069824836
 30
0.0
 10
2500.387808959422
 20
-7340.819652518896
 30
0.0
 10
2502.392272901591
 20
-7334.66162140853
 30
0.0
 10
2505.2348809469327
 20
-7330.5468365791685
 30
0.0
 10
2508.849110228549
 20
-7328.500538328432
 30
0.0
 10
2549.887056796867
 20
-7314.57003258994
 30
0.0
 10
2669.2247554206074
 20
-7271.87032125124
 30
0.0
 10
2709.7849363885557
 20
-7256.604550111406
 30
0.0
 10
2713.876931271981
 20
-7255.89351726605
 30
0.0
 10
2718.6846888685172
 20
-7257.270957498142
 30
0.0
 10
2724.140773973101
 20
-7260.7595614972115
 30
0.0
 10
2730.177209369746
 20
-7266.380369359867
 30
0.0
 10
2736.7255118386706
 20
-7274.1527590736605
 30
0.0
 10
2743.716728392804
 20
-7284.0944357382905
 30
0.0
 10
2745.8600396304932
 20
-7287.286218444497
 30
0.0
 10
2763.674564011777
 20
-7312.899620418251
 30
0.0
 10
2783.0894344116214
 20
-7339.861905650861
 30
0.0
 10
2804.1532434489077
 20
-7368.127122523717
 30
0.0
 10
2826.9135013393484
 20
-7397.648095671145
 30
0.0
 10
2851.4166089468604
 20
-7428.376449215908
 30
0.0
 10
2877.707831306443
 20
-7460.2626305552785
 30
0.0
 10
2905.831271614473
 20
-7493.255934669683
 30
0.0
 10
2935.8298458163476
 20
-7527.304529093167
 30
0.0
 10
2967.7452574336007
 20
-7562.355479093087
 30
0.0
 10
3001.6179732633973
 20
-7598.354773781083
 30
0.0
 10
3037.487199332513
 20
-7635.247352417303
 30
0.0
 10
3056.060649128975
 20
-7653.735598367592
 30
0.0
 10
3155.5377824333495
 20
-7618.142110931319
 30
0.0
 10
3251.047134298146
 20
-7572.969551731067
 30
0.0
 10
3251.1073825155554
 20
-7546.762975346231
 30
0.0
 10
3250.3837629758123
 20
-7495.312609827758
 30
0.0
 10
3248.8800446444507
 20
-7445.905637375472
 30
0.0
 10
3246.6628841913016
 20
-7398.553268962553
 30
0.0
 10
3243.7990874304032
 20
-7353.265081741726
 30
0.0
 10
3240.355573707243
 20
-7310.049017286805
 30
0.0
 10
3236.3993402727833
 20
-7268.911380621272
 30
0.0
 10
3231.9974266560016
 20
-7229.856839905686
 30
0.0
 10
3227.216879052442
 20
-7192.888426910646
 30
0.0
 10
3222.1247147413087
 20
-7158.0075383294125
 30
0.0
 10
3216.787886450478
 20
-7125.213936503815
 30
0.0
 10
3211.273247297487
 20
-7094.5057557212995
 30
0.0
 10
3210.531866012165
 20
-7090.733274615274
 30
0.0
 10
3208.445575660452
 20
-7078.75991099516
 30
0.0
 10
3207.580015283846
 20
-7068.633652439067
 30
0.0
 10
3207.8739082487145
 20
-7060.3907366928115
 30
0.0
 10
3209.265127549627
 20
-7054.065886361898
 30
0.0
 10
3211.6907282182215
 20
-7049.692291034493
 30
0.0
 10
3215.086981695179
 20
-7047.3015898504655
 30
0.0
 10
3254.561890998127
 20
-7029.415741137073
 30
0.0
 10
3369.139642386366
 20
-6975.224500626879
 30
0.0
 10
3408.0082077646766
 20
-6956.0566453979145
 30
0.0
 10
3412.0108051681004
 20
-6954.947950733338
 30
0.0
 10
3416.9304248502394
 20
-6955.8475155632095
 30
0.0
 10
3422.7021804014767
 20
-6958.784531121144
 30
0.0
 10
3429.2604842248006
 20
-6963.786599122254
 30
0.0
 10
3436.5390822407767
 20
-6970.879716773149
 30
0.0
 10
3444.4710888930563
 20
-6980.088262493241
 30
0.0
 10
3446.9169289147253
 20
-6983.05459465496
 30
0.0
 10
3467.1562239074874
 20
-7006.798532361172
 30
0.0
 10
3489.120372494983
 20
-7031.727996744383
 30
0.0
 10
3512.853229263102
 20
-7057.792494546043
 30
0.0
 10
3538.397451658446
 20
-7084.940420747278
 30
0.0
 10
3565.7944754469404
 20
-7113.119084333934
 30
0.0
 10
3595.0844906956545
 20
-7142.2747345633215
 30
0.0
 10
3626.306418271
 20
-7172.352587705205
 30
0.0
 10
3659.4978869962797
 20
-7203.296854382881
 30
0.0
 10
3694.6952110680527
 20
-7235.050767098988
 30
0.0
 10
3731.933368431972
 20
-7267.556608602621
 30
0.0
 10
3771.2459794308143
 20
-7300.7557404238105
 30
0.0
 10
3791.5421579876265
 20
-7317.334443981402
 30
0.0
 10
3887.0515098524156
 20
-7272.161884781147
 30
0.0
 10
3977.673273008441
 20
-7217.845290255834
 30
0.0
 10
3975.164537439146
 20
-7191.759000341298
 30
0.0
 10
3969.40138462824
 20
-7140.627309513584
 30
0.0
 10
3963.0621769595377
 20
-7091.605635308657
 30
0.0
 10
3956.214349000316
 20
-7044.698601219634
 30
0.0
 10
3948.9253236014815
 20
-6999.909190167784
 30
0.0
 10
3941.2624762839364
 20
-6957.238746243194
 30
0.0
 10
3933.293099688941
 20
-6916.686977229989
 30
0.0
 10
3925.0843680915627
 20
-6878.251957787334
 30
0.0
 10
3916.7033020070753
 20
-6841.930133410671
 30
0.0
 10
3908.2167329080435
 20
-6807.716325225738
 30
0.0
 10
3899.691267832086
 20
-6775.603734203831
 30
0.0
 10
3891.1932551088953
 20
-6745.583950864909
 30
0.0
 10
3890.085675967142
 20
-6741.902303360015
 30
0.0
 10
3886.835836811544
 20
-6730.191086972555
 30
0.0
 10
3884.981897438827
 20
-6720.198428872096
 30
0.0
 10
3884.466428199315
 20
-6711.966398470197
 30
0.0
 10
3885.2310046565867
 20
-6705.535640684938
 30
0.0
 10
3887.216238088027
 20
-6700.945354973342
 30
0.0
 10
3890.361807982761
 20
-6698.233274615315
 30
0.0
 10
3927.893515064571
 20
-6676.564333427535
 30
0.0
 10
4036.6078728368702
 20
-6611.403455015903
 30
0.0
 10
4073.4104970932303
 20
-6588.5181126218795
 30
0.0
 10
4077.2851498156156
 20
-6587.022433473776
 30
0.0
 10
4082.2692529564815
 20
-6587.435459600361
 30
0.0
 10
4088.3010937932495
 20
-6589.792601651804
 30
0.0
 10
4095.3181059923013
 20
-6594.1277571421115
 30
0.0
 10
4103.256902677548
 20
-6600.473292129635
 30
0.0
 10
4112.053309867837
 20
-6608.860023576003
 30
0.0
 10
4114.778123897045
 20
-6611.5723377929535
 30
0.0
 10
4137.24727402658
 20
-6633.218144131755
 30
0.0
 10
4161.549174044004
 20
-6655.874703295724
 30
0.0
 10
4187.72251815858
 20
-6679.487466664055
 30
0.0
 10
4215.804700233268
 20
-6704.000896549216
 30
0.0
 10
4245.831791886924
 20
-6729.3584942434
 30
0.0
 10
4277.838521166374
 20
-6755.502828512995
 30
0.0
 10
4311.8582517788445
 20
-6782.375564514375
 30
0.0
 10
4347.922963039401
 20
-6809.91749324228
 30
0.0
 10
4386.063230094069
 20
-6838.068561136663
 30
0.0
 10
4426.3082051802485
 20
-6866.767900432753
 30
0.0
 10
4468.685599174439
 20
-6895.953859650982
 30
0.0
 10
4490.509043197074
 20
-6910.463358837761
 30
0.0
 10
4581.130806353101
 20
-6856.1467643124515
 30
0.0
 10
4665.992243682274
 20
-6793.209232959842
 30
0.0
 10
4660.938684821223
 20
-6767.494454747698
 30
0.0
 10
4650.191501051184
 20
-6717.17386474484
 30
0.0
 10
4639.077854080354
 20
-6669.009594307837
 30
0.0
 10
4627.665306941711
 20
-6622.999634922981
 30
0.0
 10
4616.021250204118
 20
-6579.140346552921
 30
0.0
 10
4604.212866700794
 20
-6537.426462859695
 30
0.0
 10
4592.307096398376
 20
-6497.851097202264
 30
0.0
 10
4580.370601393034
 20
-6460.405749280493
 30
0.0
 10
4568.469731075569
 20
-6425.080312546483
 30
0.0
 10
4556.670487488293
 20
-6391.863082433842
 30
0.0
 10
4545.038490516382
 20
-6360.740764021693
 30
0.0
 10
4533.638944731003
 20
-6331.6984850504
 30
0.0
 10
4532.175834325418
 20
-6328.143127424704
 30
0.0
 10
4527.793744093547
 20
-6316.806843685714
 30
0.0
 10
4524.969280174344
 20
-6307.044020800937
 30
0.0
 10
4523.649412981013
 20
-6298.902154696252
 30
0.0
 10
4523.779983305399
 20
-6292.427421169528
 30
0.0
 10
4525.305730616501
 20
-6287.664652034449
 30
0.0
 10
4528.170323371382
 20
-6284.657311318845
 30
0.0
 10
4563.39737737594
 20
-6259.413961405762
 30
0.0
 10
4665.201362837637
 20
-6183.910979972356
 30
0.0
 10
4699.583616582098
 20
-6157.528548770929
 30
0.0
 10
4703.293009599626
 20
-6155.660289347115
 30
0.0
 10
4708.293596561385
 20
-6155.5827991030355
 30
0.0
 10
4714.527432759087
 20
-6157.337367081485
 30
0.0
 10
4721.935575670499
 20
-6160.963860143778
 30
0.0
 10
4730.458116073152
 20
-6166.500701497181
 30
0.0
 10
4740.034209591601
 20
-6173.984849861341
 30
0.0
 10
4743.011756179712
 20
-6176.417025064913
 30
0.0
 10
4767.494371247388
 20
-6195.756239088459
 30
0.0
 10
4793.899982112803
 20
-6215.921697983105
 30
0.0
 10
4822.2617499622065
 20
-6236.855323098821
 30
0.0
 10
4852.611444951575
 20
-6258.498178937707
 30
0.0
 10
4884.979427163293
 20
-6280.790503211752
 30
0.0
 10
4919.394628173859
 20
-6303.671737290591
 30
0.0
 10
4955.884533220577
 20
-6327.080557013643
 30
0.0
 10
4994.475164131996
 20
-6350.954903962176
 30
0.0
 10
5035.1910625482315
 20
-6375.232016862074
 30
0.0
 10
5078.055274246452
 20
-6399.848463624544
 30
0.0
 10
5123.089333765985
 20
-6424.740173497874
 30
0.0
 10
5146.2298715586
 20
-6437.040733904981
 30
0.0
 10
5231.091308887774
 20
-6374.103202552369
 30
0.0
 10
5309.375158358629
 20
-6303.150857204534
 30
0.0
 10
5301.8254447402105
 20
-6278.055238066094
 30
0.0
 10
5286.197731265752
 20
-6229.030363677851
 30
0.0
 10
5270.416675488459
 20
-6182.1873452623495
 30
0.0
 10
5254.5493182380715
 20
-6137.517561642139
 30
0.0
 10
5238.662368793392
 20
-6095.0107848767975
 30
0.0
 10
5222.822170292547
 20
-6054.655188918028
 30
0.0
 10
5207.094665359075
 20
-6016.43735902175
 30
0.0
 10
5191.545361917822
 20
-5980.342301791059
 30
0.0
 10
5176.239299254214
 20
-5946.353455966298
 30
0.0
 10
5161.241014344561
 20
-5914.4527040103185
 30
0.0
 10
5146.614507966235
 20
-5884.620383147429
 30
0.0
 10
5132.423212976206
 20
-5856.835301566383
 30
0.0
 10
5130.618661859813
 20
-5853.440473857374
 30
0.0
 10
5125.146522476093
 20
-5842.588297376303
 30
0.0
 10
5121.378735141957
 20
-5833.149331028491
 30
0.0
 10
5119.2671810373895
 20
-5825.176039842404
 30
0.0
 10
5118.762487765292
 20
-5818.719685797528
 30
0.0
 10
5119.81405517539
 20
-5813.830301309333
 30
0.0
 10
5122.370083196244
 20
-5810.556662571222
 30
0.0
 10
5154.953228336418
 20
-5781.982011191917
 30
0.0
 10
5248.866413455799
 20
-5696.864061722069
 30
0.0
 10
5280.4971767895495
 20
-5667.238618947811
 30
0.0
 10
5284.005586619702
 20
-5665.015771607835
 30
0.0
 10
5288.974499016312
 20
-5664.448511266499
 30
0.0
 10
5295.3502953246025
 20
-5665.583607723178
 30
0.0
 10
5303.078224482436
 20
-5668.466513246825
 30
0.0
 10
5312.102431879522
 20
-5673.141338157128
 30
0.0
 10
5322.365988710724
 20
-5679.650826999082
 30
0.0
 10
5325.567592456401
 20
-5681.779440012504
 30
0.0
 10
5351.827891495556
 20
-5698.625814517858
 30
0.0
 10
5380.082912741553
 20
-5716.105968750463
 30
0.0
 10
5410.359964997276
 20
-5734.158853360215
 30
0.0
 10
5442.684888747748
 20
-5752.72270261991
 30
0.0
 10
5477.082040154687
 20
-5771.735066204833
 30
0.0
 10
5513.574275697376
 20
-5791.132841300582
 30
0.0
 10
5552.182937445333
 20
-5810.852305014809
 30
0.0
 10
5592.927839136151
 20
-5830.829147171812
 30
0.0
 10
5635.827252554632
 20
-5850.99850320878
 30
0.0
 10
5680.897895074277
 20
-5871.294987598588
 30
0.0
 10
5728.15491750786
 20
-5891.652727353746
 30
0.0
 10
5752.389693041608
 20
-5901.625887860286
 30
0.0
 10
5830.673542512454
 20
-5830.6735425124625
 30
0.0
 10
5901.625887860287
 20
-5752.389693041605
 30
0.0
 10
5891.652727353734
 20
-5728.154917507831
 30
0.0
 10
5871.294987598592
 20
-5680.897895074284
 30
0.0
 10
5850.998503208777
 20
-5635.827252554625
 30
0.0
 10
5830.829147170947
 20
-5592.9278391343105
 30
0.0
 10
5810.852305027022
 20
-5552.182937470505
 30
0.0
 10
5791.132841299352
 20
-5513.57427569589
 30
0.0
 10
5771.735066204865
 20
-5477.082040154655
 30
0.0
 10
5752.722702619953
 20
-5442.684888747741
 30
0.0
 10
5734.158853360797
 20
-5410.359964997714
 30
0.0
 10
5716.1059688113455
 20
-5380.082912878457
 30
0.0
 10
5698.625814278686
 20
-5351.827891122741
 30
0.0
 10
5681.779440012512
 20
-5325.567592456439
 30
0.0
 10
5679.650826999031
 20
-5322.365988710756
 30
0.0
 10
5673.1413381571065
 20
-5312.102431879521
 30
0.0
 10
5668.466513259746
 20
-5303.078224474469
 30
0.0
 10
5665.583607664264
 20
-5295.350295359744
 30
0.0
 10
5664.448511267782
 20
-5288.9744990155705
 30
0.0
 10
5665.015771607874
 20
-5284.005586619688
 30
0.0
 10
5667.238618947593
 20
-5280.497176789671
 30
0.0
 10
5696.8640617239225
 20
-5248.866413457423
 30
0.0
 10
5781.98201119012
 20
-5154.953228334731
 30
0.0
 10
5810.55666257112
 20
-5122.370083196473
 30
0.0
 10
5813.830301309342
 20
-5119.8140551753495
 30
0.0
 10
5818.71968579814
 20
-5118.762487763942
 30
0.0
 10
5825.1760398132055
 20
-5119.267181099466
 30
0.0
 10
5833.149331035153
 20
-5121.378735128318
 30
0.0
 10
5842.5882973763055
 20
-5125.146522476115
 30
0.0
 10
5853.440473857346
 20
-5130.618661859866
 30
0.0
 10
5856.835301566344
 20
-5132.4232129761995
 30
0.0
 10
5884.620383541891
 20
-5146.614508167711
 30
0.0
 10
5914.452703868105
 20
-5161.2410142973895
 30
0.0
 10
5946.353455965804
 20
-5176.239299253676
 30
0.0
 10
5980.342301791062
 20
-5191.545361917777
 30
0.0
 10
6016.437359021779
 20
-5207.094665359041
 30
0.0
 10
6054.655188919628
 20
-5222.822170293625
 30
0.0
 10
6095.010784850549
 20
-5238.6623687837055
 30
0.0
 10
6137.5175616440565
 20
-5254.549318238752
 30
0.0
 10
6182.187345262355
 20
-5270.416675488461
 30
0.0
 10
6229.030363677841
 20
-5286.197731265747
 30
0.0
 10
6278.055238066123
 20
-5301.825444740219
 30
0.0
 10
6303.150857204539
 20
-5309.375158358634
 30
0.0
 10
6374.103202552374
 20
-5231.091308887776
 30
0.0
 10
6437.040733904976
 20
-5146.229871558598
 30
0.0
 10
6424.74017349786
 20
-5123.089333765958
 30
0.0
 10
6399.84846362455
 20
-5078.055274246459
 30
0.0
 10
6375.232016862072
 20
-5035.191062548225
 30
0.0
 10
6350.954903961135
 20
-4994.475164130248
 30
0.0
 10
6327.080557028264
 20
-4955.884533244432
 30
0.0
 10
6303.671737289222
 20
-4919.3946281725
 30
0.0
 10
6280.79050321178
 20
-4884.979427163257
 30
0.0
 10
6258.49817893775
 20
-4852.6114449515635
 30
0.0
 10
6236.855323099444
 20
-4822.261749962585
 30
0.0
 10
6215.9216980571155
 20
-4793.89998224308
 30
0.0
 10
6195.756238813898
 20
-4767.494370899811
 30
0.0
 10
6176.417025064927
 20
-4743.011756179749
 30
0.0
 10
6173.984849861294
 20
-4740.0342095916385
 30
0.0
 10
6166.50070149716
 20
-4730.458116073153
 30
0.0
 10
6160.9638601558545
 20
-4721.935575661303
 30
0.0
 10
6157.337367026298
 20
-4714.527432799834
 30
0.0
 10
6155.58279910424
 20
-4708.293596560521
 30
0.0
 10
6155.6602893471545
 20
-4703.293009599609
 30
0.0
 10
6157.528548770723
 20
-4699.58361658224
 30
0.0
 10
6183.910979974359
 20
-4665.2013628390705
 30
0.0
 10
6259.413961403809
 20
-4563.397377374437
 30
0.0
 10
6284.657311318768
 20
-4528.17032337162
 30
0.0
 10
6287.664652034455
 20
-4525.305730616458
 30
0.0
 10
6292.427421170004
 20
-4523.779983303996
 30
0.0
 10
6298.902154673278
 20
-4523.64941304565
 30
0.0
 10
6307.044020806231
 20
-4524.969280160118
 30
0.0
 10
6316.806843685718
 20
-4527.7937440935675
 30
0.0
 10
6328.143127424682
 20
-4532.175834325474
 30
0.0
 10
6331.698485050361
 20
-4533.638944731001
 30
0.0
 10
6360.7407644340055
 20
-4545.038490678225
 30
0.0
 10
6391.863082287689
 20
-4556.670487455287
 30
0.0
 10
6425.080312545939
 20
-4568.469731075082
 30
0.0
 10
6460.405749280491
 20
-4580.370601392989
 30
0.0
 10
6497.85109720229
 20
-4592.307096398339
 30
0.0
 10
6537.426462861392
 20
-4604.212866701711
 30
0.0
 10
6579.140346525849
 20
-4616.021250197048
 30
0.0
 10
6622.999634924957
 20
-4627.665306942199
 30
0.0
 10
6669.009594307844
 20
-4639.077854080354
 30
0.0
 10
6717.173864744831
 20
-4650.19150105118
 30
0.0
 10
6767.494454747728
 20
-4660.938684821229
 30
0.0
 10
6793.209232959837
 20
-4665.992243682269
 30
0.0
 10
6856.146764312448
 20
-4581.130806353096
 30
0.0
 10
6910.463358837762
 20
-4490.509043197073
 30
0.0
 10
6895.953859650966
 20
-4468.685599174412
 30
0.0
 10
6866.767900432759
 20
-4426.308205180257
 30
0.0
 10
6838.068561136661
 20
-4386.063230094062
 30
0.0
 10
6809.917493241072
 20
-4347.922963037764
 30
0.0
 10
6782.375564531265
 20
-4311.858251801151
 30
0.0
 10
6755.5028285114995
 20
-4277.8385211651575
 30
0.0
 10
6729.3584942434245
 20
-4245.831791886886
 30
0.0
 10
6704.000896549259
 20
-4215.804700233251
 30
0.0
 10
6679.487466664714
 20
-4187.7225181588965
 30
0.0
 10
6655.874703382148
 20
-4161.549174166401
 30
0.0
 10
6633.218143824447
 20
-4137.247273707589
 30
0.0
 10
6611.57233779297
 20
-4114.77812389708
 30
0.0
 10
6608.8600235759595
 20
-4112.053309867879
 30
0.0
 10
6600.4732921296145
 20
-4103.256902677552
 30
0.0
 10
6594.127757153228
 20
-4095.318105981965
 30
0.0
 10
6589.792601600878
 20
-4088.301093839209
 30
0.0
 10
6587.4354596014755
 20
-4082.2692529555034
 30
0.0
 10
6587.022433473812
 20
-4077.285149815594
 30
0.0
 10
6588.518112621689
 20
-4073.410497093392
 30
0.0
 10
6611.403455018038
 20
-4036.6078728381003
 30
0.0
 10
6676.564333425444
 20
-3927.8935150632683
 30
0.0
 10
6698.2332746152615
 20
-3890.361807983005
 30
0.0
 10
6700.9453549733435
 20
-3887.216238087983
 30
0.0
 10
6705.535640685274
 20
-3885.2310046551434
 30
0.0
 10
6711.966398453671
 20
-3884.4664282658932
 30
0.0
 10
6720.1984288759695
 20
-3884.9818974241502
 30
0.0
 10
6730.1910869725625
 20
-3886.8358368115637
 30
0.0
 10
6741.902303359998
 20
-3890.0856759671997
 30
0.0
 10
6745.583950864869
 20
-3891.1932551088967
 30
0.0
 10
6775.60373463002
 20
-3899.691267952735
 30
0.0
 10
6807.716325077055
 20
-3908.2167328895216
 30
0.0
 10
6841.930133410082
 20
-3916.7033020066438
 30
0.0
 10
6878.251957787328
 20
-3925.0843680915173
 30
0.0
 10
6916.686977230011
 20
-3933.2930996889004
 30
0.0
 10
6957.238746244973
 20
-3941.2624762846817
 30
0.0
 10
6999.90919014015
 20
-3948.9253235971005
 30
0.0
 10
7044.698601221648
 20
-3956.2143490006083
 30
0.0
 10
7091.605635308663
 20
-3963.062176959537
 30
0.0
 10
7140.627309513575
 20
-3969.4013846282373
 30
0.0
 10
7191.759000341328
 20
-3975.1645374391474
 30
0.0
 10
7217.845290255837
 20
-3977.6732730084386
 30
0.0
 10
7272.161884781143
 20
-3887.051509852418
 30
0.0
 10
7317.334443981399
 20
-3791.542157987623
 30
0.0
 10
7300.755740423791
 20
-3771.245979430789
 30
0.0
 10
7267.556608602628
 20
-3731.933368431978
 30
0.0
 10
7235.050767098985
 20
-3694.6952110680463
 30
0.0
 10
7203.296854381519
 20
-3659.4978869947677
 30
0.0
 10
7172.3525877242
 20
-3626.3064182915427
 30
0.0
 10
7142.274734561714
 20
-3595.084490694589
 30
0.0
 10
7113.1190843339555
 20
-3565.794475446899
 30
0.0
 10
7084.940420747319
 20
-3538.3974516584244
 30
0.0
 10
7057.792494546728
 20
-3512.853229263351
 30
0.0
 10
7031.727996842386
 20
-3489.1203726083177
 30
0.0
 10
7006.798532024077
 20
-3467.156223620152
 30
0.0
 10
6983.054594654981
 20
-3446.916928914758
 30
0.0
 10
6980.088262493203
 20
-3444.4710888931013
 30
0.0
 10
6970.879716773128
 20
-3436.539082240781
 30
0.0
 10
6963.786599132306
 20
-3429.2604842134247
 30
0.0
 10
6958.784531074967
 20
-3422.702180452206
 30
0.0
 10
6955.847515564221
 20
-3416.9304248491567
 30
0.0
 10
6954.947950733374
 20
-3412.010805168075
 30
0.0
 10
6956.056645397742
 20
-3408.008207764856
 30
0.0
 10
6975.224500629124
 20
-3369.1396423873803
 30
0.0
 10
7029.415741134865
 20
-3254.5618909970344
 30
0.0
 10
7047.301589850436
 20
-3215.0869816954264
 30
0.0
 10
7049.69229103449
 20
-3211.6907282181783
 30
0.0
 10
7054.065886362092
 20
-3209.265127548157
 30
0.0
 10
7060.390736682891
 20
-3207.8739083165915
 30
0.0
 10
7068.633652441484
 20
-3207.58001526886
 30
0.0
 10
7078.759910995169
 20
-3208.4455756604707
 30
0.0
 10
7090.733274615264
 20
-3210.5318660122234
 30
0.0
 10
7094.505755721259
 20
-3211.273247297492
 30
0.0
 10
7125.213936939777
 20
-3216.7878865287726
 30
0.0
 10
7158.0075381796305
 20
-3222.124714737449
 30
0.0
 10
7192.888426910018
 20
-3227.2168790520695
 30
0.0
 10
7229.856839905675
 20
-3231.9974266559566
 30
0.0
 10
7268.911380621291
 20
-3236.3993402727406
 30
0.0
 10
7310.0490172886475
 20
-3240.3555737078095
 30
0.0
 10
7353.265081713796
 20
-3243.7990874287516
 30
0.0
 10
7398.553268964585
 20
-3246.662884191395
 30
0.0
 10
7445.905637375479
 20
-3248.880044644449
 30
0.0
 10
7495.312609827749
 20
-3250.38376297581
 30
0.0
 10
7546.762975346262
 20
-3251.107382515554
 30
0.0
 10
7572.969551731068
 20
-3251.0471342981436
 30
0.0
 10
7618.142110931322
 20
-3155.5377824333564
 30
0.0
 10
7653.735598367596
 20
-3056.0606491289745
 30
0.0
 10
7635.247352417281
 20
-3037.48719933249
 30
0.0
 10
7598.354773781091
 20
-3001.6179732634023
 30
0.0
 10
7562.355479093082
 20
-2967.7452574335953
 30
0.0
 10
7527.304529091663
 20
-2935.829845814976
 30
0.0
 10
7493.255934690599
 20
-2905.8312716330547
 30
0.0
 10
7460.262630553573
 20
-2877.7078313055404
 30
0.0
 10
7428.3764492159235
 20
-2851.4166089468176
 30
0.0
 10
7397.648095671183
 20
-2826.913501339324
 30
0.0
 10
7368.127122524423
 20
-2804.1532434490887
 30
0.0
 10
7339.861905759502
 20
-2783.0894345148045
 30
0.0
 10
7312.899620054616
 20
-2763.674563758867
 30
0.0
 10
7287.28621844452
 20
-2745.860039630524
 30
0.0
 10
7284.094435738257
 20
-2743.716728392853
 30
0.0
 10
7274.15275907364
 20
-2736.725511838678
 30
0.0
 10
7266.380369368754
 20
-2730.177209357441
 30
0.0
 10
7260.75956145623
 20
-2724.140774028113
 30
0.0
 10
7257.270957499043
 20
-2718.6846888673404
 30
0.0
 10
7255.893517266083
 20
-2713.876931271953
 30
0.0
 10
7256.604550111251
 20
-2709.7849363887512
 30
0.0
 10
7271.870321253575
 20
-2669.224755421397
 30
0.0
 10
7314.570032587634
 20
-2549.8870567959966
 30
0.0
 10
7328.500538328428
 20
-2508.8491102287985
 30
0.0
 10
7330.54683657916
 20
-2505.23488094689
 30
0.0
 10
7334.661621408579
 20
-2502.392272900109
 30
0.0
 10
7340.819652515675
 20
-2500.3878090279454
 30
0.0
 10
7348.9940698257715
 20
-2499.2873841249325
 30
0.0
 10
7359.156407431101
 20
-2499.1562297010064
 30
0.0
 10
7371.276608246888
 20
-2500.058879132306
 30
0.0
 10
7375.103591898711
 20
-2500.4269226540896
 30
0.0
 10
7406.2044339986605
 20
-2502.905079282406
 30
0.0
 10
7439.363225724585
 20
-2505.0018741899157
 30
0.0
 10
7474.575272826027
 20
-2506.6505933760254
 30
0.0
 10
7511.8342484139575
 20
-2507.784583212186
 30
0.0
 10
7551.13219382603
 20
-2508.3372860139116
 30
0.0
 10
7592.459520216556
 20
-2508.242275597591
 30
0.0
 10
7635.805010846957
 20
-2507.4332928075078
 30
0.0
 10
7681.155824266773
 20
-2505.844281000951
 30
0.0
 10
7728.497497808309
 20
-2503.4094214809447
 30
0.0
 10
7777.813952354623
 20
-2500.0631688454196
 30
0.0
 10
7829.087497418322
 20
-2495.740286262259
 30
0.0
 10
7855.161976616869
 20
-2493.1116344814163
 30
0.0
 10
7890.7554640531425
 20
-2393.6345011770422
 30
0.0
 10
7916.427094984041
 20
-2291.1476056065276
 30
0.0
 10
7896.207358556223
 20
-2274.4757570452125
 30
0.0
 10
7855.976628804808
 20
-2242.3953561610074
 30
0.0
 10
7816.830573819495
 20
-2212.214294635475
 30
0.0
 10
7778.820146343434
 20
-2183.888158332143
 30
0.0
 10
7741.995130775563
 20
-2157.3713813397853
 30
0.0
 10
7706.404119218812
 20
-2132.617272385901
 30
0.0
 10
7672.094488128313
 20
-2109.5780417597034
 30
0.0
 10
7639.112375467928
 20
-2088.2048286542113
 30
0.0
 10
7607.50265848421
 20
-2068.44772899432
 30
0.0
 10
7577.3089321474945
 20
-2050.255823775472
 30
0.0
 10
7548.573487106455
 20
-2033.57720707039
 30
0.0
 10
7521.337292314574
 20
-2018.359017124864
 30
0.0
 10
7517.950797676091
 20
-2016.5388759300497
 30
0.0
 10
7507.371733847887
 20
-2010.5557787112234
 30
0.0
 10
7498.994924440616
 20
-2004.8008355086665
 30
0.0
 10
7492.809508125749
 20
-1999.3444027833025
 30
0.0
 10
7488.802912885295
 20
-1994.256533147505
 30
0.0
 10
7486.960862752651
 20
-1989.6069389716426
 30
0.0
 10
7487.267386143631
 20
-1985.4649547560957
 30
0.0
 10
7498.484055475674
 20
-1943.6037749140282
 30
0.0
 10
7529.28101607587
 20
-1820.655416327958
 30
0.0
 10
7539.122020456412
 20
-1778.4496503542357
 30
0.0
 10
7540.804208803051
 20
-1774.6522522713908
 30
0.0
 10
7544.620555507006
 20
-1771.420012717268
 30
0.0
 10
7550.552462194518
 20
-1768.8216082873457
 30
0.0
 10
7558.579656948829
 20
-1766.9252492224218
 30
0.0
 10
7568.680204739365
 20
-1765.7986430717574
 30
0.0
 10
7580.830518591412
 20
-1765.5089585751427
 30
0.0
 10
7584.675148844452
 20
-1765.5001198731322
 30
0.0
 10
7615.869133714962
 20
-1764.917927895456
 30
0.0
 10
7649.073778636199
 20
-1763.7544962206155
 30
0.0
 10
7684.277872846244
 20
-1761.9438922111704
 30
0.0
 10
7721.4685867237085
 20
-1759.4204033375809
 30
0.0
 10
7760.631476135478
 20
-1756.1185724941283
 30
0.0
 10
7801.750487504217
 20
-1751.9732332286655
 30
0.0
 10
7844.807963570045
 20
-1746.9195448740606
 30
0.0
 10
7889.784650034378
 20
-1740.8930275506439
 30
0.0
 10
7936.659702510761
 20
-1733.8295970857841
 30
0.0
 10
7985.410694734721
 20
-1725.6655997255004
 30
0.0
 10
8036.013627075671
 20
-1716.337846741839
 30
0.0
 10
8061.704897599517
 20
-1711.1661067511816
 30
0.0
 10
8087.376528530423
 20
-1608.679211180667
 30
0.0
 10
8102.879071116545
 20
-1504.1695581734
 30
0.0
 10
8081.12257132625
 20
-1489.559869862659
 30
0.0
 10
8037.941134379468
 20
-1461.5772459607822
 30
0.0
 10
7996.025317005773
 20
-1435.3784988606626
 30
0.0
 10
7955.421473250278
 20
-1410.9144340498594
 30
0.0
 10
7916.174681546119
 20
-1388.1348253050464
 30
0.0
 10
7878.328723466961
 20
-1366.98844332599
 30
0.0
 10
7841.926063126565
 20
-1347.423084817773
 30
0.0
 10
7807.007827125315
 20
-1329.3856019402758
 30
0.0
 10
7773.613785158818
 20
-1312.8219321807824
 30
0.0
 10
7741.7823313405015
 20
-1297.6771286693347
 30
0.0
 10
7711.550465007445
 20
-1283.8953902114372
 30
0.0
 10
7682.9537764784445
 20
-1271.4200939370126
 30
0.0
 10
7679.405183702357
 20
-1269.940651739752
 30
0.0
 10
7668.290614878335
 20
-1265.0232943531855
 30
0.0
 10
7659.390059022501
 20
-1260.1171336783214
 30
0.0
 10
7652.699603245695
 20
-1255.2932519868561
 30
0.0
 10
7648.213602424367
 20
-1250.6225968419383
 30
0.0
 10
7645.924682341785
 20
-1246.1759442192413
 30
0.0
 10
7645.8237442907575
 20
-1242.0238602435843
 30
0.0
 10
7652.883289155198
 20
-1199.2648275723313
 30
0.0
 10
7671.480907455619
 20
-1073.889868929184
 30
0.0
 10
7677.137636224086
 20
-1030.922748147283
 30
0.0
 10
7678.439514273272
 20
-1026.9787522829085
 30
0.0
 10
7681.92066934678
 20
-1023.3880094552719
 30
0.0
 10
7687.5693241105955
 20
-1020.2206885226843
 30
0.0
 10
7695.371990035527
 20
-1017.5466582702996
 30
0.0
 10
7705.313474214525
 20
-1015.4354502259928
 30
0.0
 10
7717.376886938401
 20
-1013.956221621524
 30
0.0
 10
7721.202137901632
 20
-1013.5705858172522
 30
0.0
 10
7752.188850416033
 20
-1009.9336520605864
 30
0.0
 10
7785.119569650484
 20
-1005.5211982864205
 30
0.0
 10
7819.976676297375
 20
-1000.268708187808
 30
0.0
 10
7856.7409615592205
 20
-994.1120431818007
 30
0.0
 10
7895.391634937038
 20
-986.9874771291571
 30
0.0
 10
7935.906332726572
 20
-978.8317308977516
 30
0.0
 10
7978.261127195703
 20
-969.5820067601064
 30
0.0
 10
8022.430536627144
 20
-959.1760225760834
 30
0.0
 10
8068.387535658515
 20
-947.5520458630107
 30
0.0
 10
8116.103566855002
 20
-934.6489275354431
 30
0.0
 10
8165.548552572383
 20
-920.4061355115822
 30
0.0
 10
8190.609193442103
 20
-912.7411139943788
 30
0.0
  0
ENDSEC
  0
EOF
