999
DXF generated by OpenJsCad
  0
SECTION
  2
HEADER
  0
ENDSEC
  0
SECTION
  2
TABLES
  0
TABLE
  2
LTYPE
  70
1
  0
LTYPE
  2
CONTINUOUS
  3
Solid Line
  72
65
  73
0
  40
0.0
  0
ENDTAB
  0
TABLE
  2
LAYER
  70
1
  0
LAYER
  2
OpenJsCad
  62
7
  6
continuous
  0
ENDTAB
  0
TABLE
  2
STYLE
  70
0
  0
ENDTAB
  0
TABLE
  2
VIEW
  70
0
  0
ENDTAB
  0
ENDSEC
  0
SECTION
  2
BLOCKS
  0
ENDSEC
  0
SECTION
  2
ENTITIES
  0
LWPOLYLINE
  8
OpenJsCad
  90
2221
  70
1
 10
7687.146223481028
 20
-913.8054178757955
 30
0.0
 10
7703.6372924199695
 20
-809.6849063839466
 30
0.0
 10
7709.154464496889
 20
-704.4109918545248
 30
0.0
 10
7692.477706734951
 20
-695.1357948254703
 30
0.0
 10
7637.253694441131
 20
-665.9187384569686
 30
0.0
 10
7584.209973988646
 20
-639.2617258331504
 30
0.0
 10
7533.428329908245
 20
-615.0600073986051
 30
0.0
 10
7484.987103072912
 20
-593.2065566482331
 30
0.0
 10
7438.9611317778
 20
-573.5921686911827
 30
0.0
 10
7395.421695388741
 20
-556.105560248704
 30
0.0
 10
7354.436460670263
 20
-540.6334710541305
 30
0.0
 10
7316.069430838451
 20
-527.0607665997438
 30
0.0
 10
7280.380929500769
 20
-515.2705519625301
 30
0.0
 10
7265.905160080722
 20
-510.82227850528864
 30
0.0
 10
7251.969702662162
 20
-505.8844906268567
 30
0.0
 10
7241.428850123335
 20
-500.6559459297307
 30
0.0
 10
7234.287227257374
 20
-495.2766573432258
 30
0.0
 10
7230.545081933661
 20
-489.88667870306733
 30
0.0
 10
7230.198288339624
 20
-484.6259766263055
 30
0.0
 10
7232.3722469442255
 20
-455.022293370906
 30
0.0
 10
7240.315336115157
 20
-303.4591231143714
 30
0.0
 10
7241.247714204358
 20
-273.7903713817217
 30
0.0
 10
7242.14250113056
 20
-268.5947377826468
 30
0.0
 10
7246.427552774459
 20
-263.6254467076224
 30
0.0
 10
7254.092341857916
 20
-259.0221293125514
 30
0.0
 10
7265.121981968589
 20
-254.92404497578303
 30
0.0
 10
7279.497239144613
 20
-251.46996001623808
 30
0.0
 10
7294.358646721075
 20
-248.55919111153048
 30
0.0
 10
7331.08408894496
 20
-240.5640222085765
 30
0.0
 10
7370.659674151472
 20
-231.0761171007923
 30
0.0
 10
7413.037661173103
 20
-219.9729092318718
 30
0.0
 10
7458.166432282259
 20
-207.1332046373685
 30
0.0
 10
7505.990530182374
 20
-192.43728994626363
 30
0.0
 10
7556.450698660108
 20
-175.7670421432067
 30
0.0
 10
7609.483924032686
 20
-157.00603046699362
 30
0.0
 10
7665.023481995932
 20
-136.039626333685
 30
0.0
 10
7722.998985375708
 20
-112.75510519751627
 30
0.0
 10
7740.5539082056275
 20
-105.27391452942254
 30
0.0
 10
7746.071080282547
 20
7.389644451905042e-13
 30
0.0
 10
7740.553908205627
 20
105.2739145294222
 30
0.0
 10
7722.998985375677
 20
112.75510519752972
 30
0.0
 10
7665.023481995982
 20
136.0396263336667
 30
0.0
 10
7609.483924029318
 20
157.00603046826507
 30
0.0
 10
7556.450698672161
 20
175.76704213902917
 30
0.0
 10
7505.990530321889
 20
192.43729039972902
 30
0.0
 10
7458.1664322822235
 20
207.13320463738432
 30
0.0
 10
7413.0376611730535
 20
219.9729092318729
 30
0.0
 10
7370.659674151671
 20
231.07611710118056
 30
0.0
 10
7331.084088984683
 20
240.56402219196718
 30
0.0
 10
7294.358679973854
 20
248.55918459861402
 30
0.0
 10
7279.497239144636
 20
251.46996001633192
 30
0.0
 10
7265.121982241031
 20
254.92404622722256
 30
0.0
 10
7254.092341853003
 20
259.0221292920116
 30
0.0
 10
7246.427552774921
 20
263.62544670937933
 30
0.0
 10
7242.142501130538
 20
268.5947377825723
 30
0.0
 10
7241.247714204302
 20
273.79037138146555
 30
0.0
 10
7240.315336118453
 20
303.4591231146539
 30
0.0
 10
7232.372246940918
 20
455.0222933708424
 30
0.0
 10
7230.198288339707
 20
484.6259766260566
 30
0.0
 10
7230.545081933691
 20
489.88667870299554
 30
0.0
 10
7234.28722725673
 20
495.27665734492473
 30
0.0
 10
7241.428850130367
 20
500.6559459098169
 30
0.0
 10
7251.9697022604005
 20
505.8844918429628
 30
0.0
 10
7265.905160080689
 20
510.8222785053796
 30
0.0
 10
7280.3808971109365
 20
515.2705420094302
 30
0.0
 10
7316.069430800681
 20
527.0607665790733
 30
0.0
 10
7354.436460670024
 20
540.6334710544959
 30
0.0
 10
7395.421695388788
 20
556.1055602487102
 30
0.0
 10
7438.9611317778335
 20
573.592168691202
 30
0.0
 10
7484.987102886759
 20
593.206557084631
 30
0.0
 10
7533.428329896694
 20
615.0600073931904
 30
0.0
 10
7584.209973991862
 20
639.2617258347668
 30
0.0
 10
7637.253694441082
 20
665.918738456945
 30
0.0
 10
7692.47770673498
 20
695.1357948254868
 30
0.0
 10
7709.154464496883
 20
704.4109918545244
 30
0.0
 10
7703.637292419962
 20
809.6849063839474
 30
0.0
 10
7687.146223481027
 20
913.8054178758025
 30
0.0
 10
7668.905470991192
 20
919.4106366924628
 30
0.0
 10
7608.813668272804
 20
936.5075125100683
 30
0.0
 10
7551.386775811443
 20
951.553595844246
 30
0.0
 10
7496.683012292458
 20
964.66835118137
 30
0.0
 10
7444.756754591163
 20
975.9727542239799
 30
0.0
 10
7395.6585006329005
 20
985.5891832305343
 30
0.0
 10
7349.434835063696
 20
993.6413094866148
 30
0.0
 10
7306.128397833378
 20
1000.253986961745
 30
0.0
 10
7265.777855724027
 20
1005.5531412152849
 30
0.0
 10
7228.417910306461
 20
1009.6656547189425
 30
0.0
 10
7213.333623123753
 20
1011.0070410325415
 30
0.0
 10
7198.676065057954
 20
1012.9395818845503
 30
0.0
 10
7187.278479868916
 20
1015.8623038613653
 30
0.0
 10
7179.174501611814
 20
1019.6392152006651
 30
0.0
 10
7174.393491569281
 20
1024.1333741140038
 30
0.0
 10
7172.9605147836555
 20
1029.2070147860627
 30
0.0
 10
7168.932015336776
 20
1058.6157779444657
 30
0.0
 10
7145.189773958003
 20
1208.518390390349
 30
0.0
 10
7139.933297011744
 20
1237.7326610194143
 30
0.0
 10
7139.728297730323
 20
1243.0007942213897
 30
0.0
 10
7142.88653700525
 20
1248.7524066962974
 30
0.0
 10
7149.426748554383
 20
1254.8487298198052
 30
0.0
 10
7159.363324922025
 20
1261.1504523059414
 30
0.0
 10
7172.706303594516
 20
1267.517841247258
 30
0.0
 10
7186.637770874402
 20
1273.4548632448427
 30
0.0
 10
7220.898384986597
 20
1288.9109673135263
 30
0.0
 10
7257.636502310705
 20
1306.4197657660839
 30
0.0
 10
7296.779941918313
 20
1326.0912208386374
 30
0.0
 10
7338.253016410955
 20
1348.033146187714
 30
0.0
 10
7381.9765905576705
 20
1372.3511089396538
 30
0.0
 10
7427.868143879705
 20
1399.1483307790068
 30
0.0
 10
7475.841832378014
 20
1428.5255968941656
 30
0.0
 10
7525.808557211854
 20
1460.5811581965859
 30
0.0
 10
7577.6760325848145
 20
1495.410641613865
 30
0.0
 10
7593.291911230836
 20
1506.378224004237
 30
0.0
 10
7576.800842291894
 20
1610.498735496093
 30
0.0
 10
7549.516556093201
 20
1712.3250778378574
 30
0.0
 10
7530.789823444882
 20
1715.9929128527483
 30
0.0
 10
7469.240099753402
 20
1726.7148264026132
 30
0.0
 10
7410.5550538485
 20
1735.675740898766
 30
0.0
 10
7354.780098048302
 20
1743.000551898337
 30
0.0
 10
7301.956665941626
 20
1748.8152563175236
 30
0.0
 10
7252.1221868096045
 20
1753.2468404844144
 30
0.0
 10
7205.310062933265
 20
1756.4231676218096
 30
0.0
 10
7161.5496498827615
 20
1758.4728648245525
 30
0.0
 10
7120.866239814292
 20
1759.5252095979247
 30
0.0
 10
7083.281081370054
 20
1759.7100166400487
 30
0.0
 10
7068.139214440818
 20
1759.4673173403733
 30
0.0
 10
7053.359946486288
 20
1759.8571395115155
 30
0.0
 10
7041.719290824671
 20
1761.5724784467602
 30
0.0
 10
7033.264912270199
 20
1764.481603076989
 30
0.0
 10
7028.04032557603
 20
1768.4513908849551
 30
0.0
 10
7026.08485892455
 20
1773.347450761249
 30
0.0
 10
7019.0043751996
 20
1802.174016781524
 30
0.0
 10
6979.723106584515
 20
1948.7737070260068
 30
0.0
 10
6971.44170235462
 20
1977.278487366432
 30
0.0
 10
6970.687156212821
 20
1982.4963329236557
 30
0.0
 10
6973.226887109235
 20
1988.5465633616639
 30
0.0
 10
6979.094031407506
 20
1995.2931284519088
 30
0.0
 10
6988.317464802708
 20
2002.5989845007573
 30
0.0
 10
7000.921775860869
 20
2010.3262132752711
 30
0.0
 10
7014.1563373195295
 20
2017.6869465109821
 30
0.0
 10
7046.613665396466
 20
2036.6395897681325
 30
0.0
 10
7081.320359673991
 20
2057.8926521380267
 30
0.0
 10
7118.19314045481
 20
2081.547948510628
 30
0.0
 10
7157.14546536811
 20
2107.7047904405217
 30
0.0
 10
7198.087597924516
 20
2136.459894862201
 30
0.0
 10
7240.92668009703
 20
2167.9072922621963
 30
0.0
 10
7285.566803228153
 20
2202.1382425757915
 30
0.0
 10
7331.909086553125
 20
2239.2411451207677
 30
0.0
 10
7379.851754090993
 20
2279.301456477926
 30
0.0
 10
7394.235662786848
 20
2291.8412611018493
 30
0.0
 10
7366.951376588156
 20
2393.667603443616
 30
0.0
 10
7329.172805478913
 20
2492.0841459200624
 30
0.0
 10
7310.165266673826
 20
2493.7744115652167
 30
0.0
 10
7247.831973662127
 20
2498.003891318784
 30
0.0
 10
7188.531739957254
 20
2500.7814593225
 30
0.0
 10
7132.296673963248
 20
2502.2360738223915
 30
0.0
 10
7079.154812027366
 20
2502.497372499733
 30
0.0
 10
7029.13010470349
 20
2501.6955584634593
 30
0.0
 10
6982.2424059452715
 20
2499.9612859773624
 30
0.0
 10
6938.50746531742
 20
2497.4255459962383
 30
0.0
 10
6897.936923244093
 20
2494.2195515798885
 30
0.0
 10
6860.538342634298
 20
2490.4746273758515
 30
0.0
 10
6845.504793421251
 20
2488.650501527218
 30
0.0
 10
6830.765740330459
 20
2487.4933340442108
 30
0.0
 10
6819.009551655653
 20
2487.9824963255523
 30
0.0
 10
6810.297400744447
 20
2489.9919612684885
 30
0.0
 10
6804.686479063782
 20
2493.393884145127
 30
0.0
 10
6802.229947048287
 20
2498.0587209690843
 30
0.0
 10
6792.175054306642
 20
2525.9872599615665
 30
0.0
 10
6737.785132254328
 20
2667.677851120372
 30
0.0
 10
6726.569533538535
 20
2695.1608368337397
 30
0.0
 10
6725.273707501787
 20
2700.2712269383815
 30
0.0
 10
6727.167104196513
 20
2706.55378774872
 30
0.0
 10
6732.29689958321
 20
2713.8766780267633
 30
0.0
 10
6740.706136139569
 20
2722.106623150604
 30
0.0
 10
6752.433684113826
 20
2731.109030622835
 30
0.0
 10
6764.826339126408
 20
2739.8128293630093
 30
0.0
 10
6795.124771889542
 20
2762.0543626830054
 30
0.0
 10
6827.419789315137
 20
2786.8188359714227
 30
0.0
 10
6861.617925366807
 20
2814.1988012668244
 30
0.0
 10
6897.622730877716
 20
2844.28397994368
 30
0.0
 10
6935.334851271832
 20
2877.161179093663
 30
0.0
 10
6974.65210834589
 20
2912.9142077875954
 30
0.0
 10
7015.469579579257
 20
2951.623800844705
 30
0.0
 10
7057.679685641505
 20
2993.3675374676723
 30
0.0
 10
7101.17227544609
 20
3038.219767610322
 30
0.0
 10
7114.16662107808
 20
3052.194405744214
 30
0.0
 10
7076.388049968838
 20
3150.610948220661
 30
0.0
 10
7028.529103879789
 20
3244.539418597432
 30
0.0
 10
7009.449009490664
 20
3244.2335959687307
 30
0.0
 10
6947.015083761062
 20
3241.924302860745
 30
0.0
 10
6887.7493680260595
 20
3238.4880927557315
 30
0.0
 10
6831.670314989221
 20
3234.0565736950853
 30
0.0
 10
6778.792256584152
 20
3228.761603787593
 30
0.0
 10
6729.1254022302055
 20
3222.7351763905262
 30
0.0
 10
6682.675840029585
 20
3216.1093053332147
 30
0.0
 10
6639.445540986028
 20
3209.015910266095
 30
0.0
 10
6599.43236625673
 20
3201.586702205746
 30
0.0
 10
6562.630110156696
 20
3193.953076928803
 30
0.0
 10
6547.869589370989
 20
3190.567510035731
 30
0.0
 10
6533.332235293943
 20
3187.8760310676716
 30
0.0
 10
6521.589316869211
 20
3187.133657330792
 30
0.0
 10
6512.714845749788
 20
3188.2214464680123
 30
0.0
 10
6506.77906351472
 20
3191.0182322343885
 30
0.0
 10
6503.848380414034
 20
3195.4007370775876
 30
0.0
 10
6490.929242164694
 20
3222.125258124652
 30
0.0
 10
6422.026574042979
 20
3357.354358430383
 30
0.0
 10
6407.999661287834
 20
3383.5144401740317
 30
0.0
 10
6406.176752697362
 20
3388.4613843226875
 30
0.0
 10
6407.403070739995
 20
3394.9074424544074
 30
0.0
 10
6411.739314103383
 20
3402.7264268019503
 30
0.0
 10
6419.242220465441
 20
3411.790291999779
 30
0.0
 10
6429.964515886039
 20
3421.969245909587
 30
0.0
 10
6441.379487930897
 20
3431.9207495138407
 30
0.0
 10
6469.187069410521
 20
3457.2074900032885
 30
0.0
 10
6498.716579015105
 20
3485.212049458582
 30
0.0
 10
6529.8653884026235
 20
3516.0167030473813
 30
0.0
 10
6562.5281983274745
 20
3549.7005989578875
 30
0.0
 10
6596.597124676495
 20
3586.3396833622905
 30
0.0
 10
6631.961788555927
 20
3626.006625685987
 30
0.0
 10
6668.509403135099
 20
3668.7707510845726
 30
0.0
 10
6706.1248691795745
 20
3714.6979686716522
 30
0.0
 10
6744.6908673355665
 20
3763.8507071804174
 30
0.0
 10
6756.153281133707
 20
3779.1070697645027
 30
0.0
 10
6708.294335044658
 20
3873.0355401412753
 30
0.0
 10
6650.879366604284
 20
3961.4468384411257
 30
0.0
 10
6631.935762138017
 20
3959.1482781952864
 30
0.0
 10
6570.085242845943
 20
3950.325513324289
 30
0.0
 10
6511.503372664553
 20
3940.7131729475304
 30
0.0
 10
6456.194746425248
 20
3930.4440729765306
 30
0.0
 10
6404.159834624323
 20
3919.650847282554
 30
0.0
 10
6355.394993690067
 20
3908.4658333243674
 30
0.0
 10
6309.8924791707095
 20
3897.0209581256977
 30
0.0
 10
6267.64046191429
 20
3885.447624693326
 30
0.0
 10
6228.623047244651
 20
3873.8765989471494
 30
0.0
 10
6192.820328873576
 20
3862.4379081932734
 30
0.0
 10
6178.494555869775
 20
3857.527993235119
 30
0.0
 10
6164.31817509988
 20
3853.3316911888096
 30
0.0
 10
6152.717184796846
 20
3851.3659150357216
 30
0.0
 10
6143.7776240318935
 20
3851.520110321804
 30
0.0
 10
6137.582014914733
 20
3853.6811168077966
 30
0.0
 10
6134.209289906192
 20
3857.7332740300762
 30
0.0
 10
6118.567450931321
 20
3882.960977686666
 30
0.0
 10
6035.9069487909555
 20
4010.2469888178643
 30
0.0
 10
6019.222403787923
 20
4034.797551261862
 30
0.0
 10
6016.892384811714
 20
4039.526849699225
 30
0.0
 10
6017.438188405155
 20
4046.0657807905104
 30
0.0
 10
6020.933370955527
 20
4054.2951927788126
 30
0.0
 10
6027.447743711098
 20
4064.093672446788
 30
0.0
 10
6037.047310865625
 20
4075.3376500450527
 30
0.0
 10
6047.359535120298
 20
4086.4278277574117
 30
0.0
 10
6072.371599634612
 20
4114.482728595918
 30
0.0
 10
6098.812069931509
 20
4145.420550404364
 30
0.0
 10
6126.570279780919
 20
4179.312390055555
 30
0.0
 10
6155.533233539043
 20
4216.225955387307
 30
0.0
 10
6185.585699556507
 20
4256.225499570174
 30
0.0
 10
6216.610307583319
 20
4299.371756202695
 30
0.0
 10
6248.4876421948875
 20
4345.7218812359215
 30
0.0
 10
6281.096345304062
 20
4395.329391580341
 30
0.0
 10
6314.313214665211
 20
4448.244110766248
 30
0.0
 10
6324.118112025264
 20
4464.615045899454
 30
0.0
 10
6266.703143584889
 20
4553.0263441993075
 30
0.0
 10
6200.3612032022775
 20
4634.951817736813
 30
0.0
 10
6181.761638753605
 20
4630.685703380894
 30
0.0
 10
6121.1721731314765
 20
4615.446130805093
 30
0.0
 10
6063.915983732451
 20
4599.762974969269
 30
0.0
 10
6009.9837571738335
 20
4583.768804496143
 30
0.0
 10
5959.362097359749
 20
4567.5955758550135
 30
0.0
 10
5912.0335476471555
 20
4551.374520689248
 30
0.0
 10
5867.9766158801485
 20
4535.236033796891
 30
0.0
 10
5827.165802353732
 20
4519.309561862228
 30
0.0
 10
5789.571630703791
 20
4503.723493009691
 30
0.0
 10
5755.16071213635
 20
4488.605061468482
 30
0.0
 10
5741.426643081345
 20
4482.224592500993
 30
0.0
 10
5727.766555012914
 20
4476.5694429397845
 30
0.0
 10
5716.434595709003
 20
4473.401801825387
 30
0.0
 10
5707.527888996985
 20
4472.62071386451
 30
0.0
 10
5701.140333387732
 20
4474.122264630839
 30
0.0
 10
5697.3625187523185
 20
4477.799677949703
 30
0.0
 10
5679.169354312989
 20
4501.254164215322
 30
0.0
 10
5583.656663913246
 20
4619.202513997723
 30
0.0
 10
5564.497286028846
 20
4641.874576042397
 30
0.0
 10
5561.68568484239
 20
4646.334413585118
 30
0.0
 10
5561.544994048253
 20
4652.8945757385745
 30
0.0
 10
5564.1608218341735
 20
4661.444252207778
 30
0.0
 10
5569.615288152127
 20
4671.869992152192
 30
0.0
 10
5577.986952174
 20
4684.055802067394
 30
0.0
 10
5587.083445751581
 20
4696.163147580073
 30
0.0
 10
5609.025955887655
 20
4726.678833403186
 30
0.0
 10
5632.087699551267
 20
4760.210956314897
 30
0.0
 10
5656.151185106681
 20
4796.818655940936
 30
0.0
 10
5681.0969585158155
 20
4836.5574579475
 30
0.0
 10
5706.803703095154
 20
4879.47921853232
 30
0.0
 10
5733.148343171487
 20
4925.632070057065
 30
0.0
 10
5760.006143066685
 20
4975.060373055682
 30
0.0
 10
5787.250815465487
 20
5027.804665893069
 30
0.0
 10
5814.754625059994
 20
5083.9016210196005
 30
0.0
 10
5822.794581474676
 20
5101.207765310771
 30
0.0
 10
5756.452641092064
 20
5183.133238848276
 30
0.0
 10
5681.9105849489915
 20
5257.675294991352
 30
0.0
 10
5663.858841238221
 20
5251.488366966978
 30
0.0
 10
5605.194260150555
 20
5229.9989546326005
 30
0.0
 10
5549.891062326577
 20
5208.416811274959
 30
0.0
 10
5497.926128208866
 20
5186.872805778408
 30
0.0
 10
5449.272341879809
 20
5165.496771467583
 30
0.0
 10
5403.898624883667
 20
5144.417396369108
 30
0.0
 10
5361.769972832955
 20
5123.762114422652
 30
0.0
 10
5322.847494849748
 20
5103.656997745043
 30
0.0
 10
5287.088455831188
 20
5084.226650018089
 30
0.0
 10
5254.446350292153
 20
5065.594118389246
 30
0.0
 10
5241.4544585205485
 20
5057.813001165629
 30
0.0
 10
5228.460325937018
 20
5050.760963091531
 30
0.0
 10
5217.521552949726
 20
5046.4261623547445
 30
0.0
 10
5208.745284033229
 20
5044.718348910063
 30
0.0
 10
5202.235765327822
 20
5045.543992652311
 30
0.0
 10
5198.094251593239
 20
5048.806371557891
 30
0.0
 10
5177.5490898062135
 20
5070.230668172843
 30
0.0
 10
5070.2306681704285
 20
5177.5490898039525
 30
0.0
 10
5048.806371558119
 20
5198.094251593108
 30
0.0
 10
5045.543992652381
 20
5202.235765327789
 30
0.0
 10
5044.718348908448
 20
5208.74528403406
 30
0.0
 10
5046.426162373297
 20
5217.521552939632
 30
0.0
 10
5050.760961979232
 20
5228.460326571929
 30
0.0
 10
5057.813001165545
 20
5241.454458520593
 30
0.0
 10
5065.594100978835
 20
5254.446321222529
 30
0.0
 10
5084.226650003851
 20
5287.088455790554
 30
0.0
 10
5103.656997744622
 20
5322.84749484986
 30
0.0
 10
5123.762114422684
 20
5361.769972832992
 30
0.0
 10
5144.417396369121
 20
5403.898624883704
 30
0.0
 10
5165.496771037238
 20
5449.272342079555
 30
0.0
 10
5186.872805773448
 20
5497.926128197113
 30
0.0
 10
5208.416811276268
 20
5549.891062329931
 30
0.0
 10
5229.998954632581
 20
5605.194260150504
 30
0.0
 10
5251.488366966989
 20
5663.858841238251
 30
0.0
 10
5257.675294991352
 20
5681.9105849489915
 30
0.0
 10
5183.133238848277
 20
5756.452641092066
 30
0.0
 10
5101.207765310773
 20
5822.794581474676
 30
0.0
 10
5083.901621019571
 20
5814.754625059981
 30
0.0
 10
5027.804665893116
 20
5787.2508154655125
 30
0.0
 10
4975.060373052485
 20
5760.006143065032
 30
0.0
 10
4925.632070068235
 20
5733.148343177649
 30
0.0
 10
4879.479218288685
 20
5706.803703502261
 30
0.0
 10
4836.557457947464
 20
5681.096958515799
 30
0.0
 10
4796.818655940903
 20
5656.151185106645
 30
0.0
 10
4760.210956314741
 20
5632.0876995516755
 30
0.0
 10
4726.678833442111
 20
5609.025955906061
 30
0.0
 10
4696.163174670566
 20
5587.08346610522
 30
0.0
 10
4684.055802067342
 20
5577.98695217408
 30
0.0
 10
4671.869991404492
 20
5569.615289191967
 30
0.0
 10
4661.444252219756
 20
5564.1608218167785
 30
0.0
 10
4652.894575737579
 20
5561.544994049772
 30
0.0
 10
4646.334413585159
 20
5561.685684842325
 30
0.0
 10
4641.874576042551
 20
5564.4972860286325
 30
0.0
 10
4619.202513999719
 20
5583.656663915885
 30
0.0
 10
4501.254164213156
 20
5679.1693543104875
 30
0.0
 10
4477.799677949944
 20
5697.362518752213
 30
0.0
 10
4474.122264630913
 20
5701.140333387706
 30
0.0
 10
4472.620713862818
 20
5707.527888997643
 30
0.0
 10
4473.401801844891
 20
5716.434595700903
 30
0.0
 10
4476.569441767212
 20
5727.76655552808
 30
0.0
 10
4482.224592500903
 20
5741.42664308138
 30
0.0
 10
4488.605047192049
 20
5755.16068140609
 30
0.0
 10
4503.723492999779
 20
5789.5716306618915
 30
0.0
 10
4519.309561861797
 20
5827.165802353799
 30
0.0
 10
4535.23603379692
 20
5867.976615880189
 30
0.0
 10
4551.374520689257
 20
5912.033547647194
 30
0.0
 10
4567.595575406148
 20
5959.362097513417
 30
0.0
 10
4583.768804492439
 20
6009.983757161625
 30
0.0
 10
4599.76297497022
 20
6063.915983735923
 30
0.0
 10
4615.4461308050795
 20
6121.172173131425
 30
0.0
 10
4630.6857033809
 20
6181.761638753637
 30
0.0
 10
4634.951817736812
 20
6200.3612032022775
 30
0.0
 10
4553.0263441993075
 20
6266.7031435848885
 30
0.0
 10
4464.615045899456
 20
6324.118112025261
 30
0.0
 10
4448.244110766222
 20
6314.313214665193
 30
0.0
 10
4395.329391580387
 20
6281.096345304092
 30
0.0
 10
4345.721881232916
 20
6248.487642192908
 30
0.0
 10
4299.371756213161
 20
6216.610307590614
 30
0.0
 10
4256.2254992853195
 20
6185.585699935917
 30
0.0
 10
4216.225955387275
 20
6155.533233539022
 30
0.0
 10
4179.312390055527
 20
6126.570279780879
 30
0.0
 10
4145.420550404168
 20
6098.812069931897
 30
0.0
 10
4114.482728632705
 20
6072.3715996569845
 30
0.0
 10
4086.427852571966
 20
6047.3595581941645
 30
0.0
 10
4075.3376500449917
 20
6037.047310865699
 30
0.0
 10
4064.0936715944904
 20
6027.447744667085
 30
0.0
 10
4054.2951927925433
 20
6020.933370939479
 30
0.0
 10
4046.065780789362
 20
6017.438188406561
 30
0.0
 10
4039.5268496992726
 20
6016.892384811652
 30
0.0
 10
4034.797551262037
 20
6019.222403787727
 30
0.0
 10
4010.2469888195737
 20
6035.906948793787
 30
0.0
 10
3882.9609776847747
 20
6118.567450928606
 30
0.0
 10
3857.733274030327
 20
6134.209289906112
 30
0.0
 10
3853.681116807873
 20
6137.582014914714
 30
0.0
 10
3851.520110320052
 20
6143.777624032371
 30
0.0
 10
3851.365915055966
 20
6152.717184790829
 30
0.0
 10
3853.33168996881
 20
6164.318175489657
 30
0.0
 10
3857.5279932350263
 20
6178.4945558698
 30
0.0
 10
3862.437897207235
 20
6192.820296819365
 30
0.0
 10
3873.876598941672
 20
6228.623047201944
 30
0.0
 10
3885.4476246928907
 20
6267.640461914311
 30
0.0
 10
3897.020958125722
 20
6309.89247917075
 30
0.0
 10
3908.465833324372
 20
6355.394993690105
 30
0.0
 10
3919.6508468200836
 20
6404.159834730231
 30
0.0
 10
3930.444072974122
 20
6456.19474641272
 30
0.0
 10
3940.713172948114
 20
6511.503372668105
 30
0.0
 10
3950.3255133242806
 20
6570.0852428458875
 30
0.0
 10
3959.1482781952905
 20
6631.935762138049
 30
0.0
 10
3961.4468384411234
 20
6650.879366604278
 30
0.0
 10
3873.0355401412703
 20
6708.294335044652
 30
0.0
 10
3779.107069764502
 20
6756.153281133704
 30
0.0
 10
3763.8507071803915
 20
6744.6908673355465
 30
0.0
 10
3714.6979686716936
 20
6706.124869179608
 30
0.0
 10
3668.7707510817877
 20
6668.509403132817
 30
0.0
 10
3626.0066256956316
 20
6631.9617885642765
 30
0.0
 10
3586.3396830393363
 20
6596.597125024051
 30
0.0
 10
3549.700598957856
 20
6562.528198327451
 30
0.0
 10
3516.0167030473567
 20
6529.865388402581
 30
0.0
 10
3485.2120494583455
 20
6498.71657901547
 30
0.0
 10
3457.2074900375346
 20
6469.187069436617
 30
0.0
 10
3431.9207717805816
 20
6441.3795134721895
 30
0.0
 10
3421.9692459095177
 20
6429.964515886106
 30
0.0
 10
3411.790291052222
 20
6419.242221327101
 30
0.0
 10
3402.726426817282
 20
6411.739314088857
 30
0.0
 10
3394.9074424531177
 20
6407.403070741272
 30
0.0
 10
3388.461384322741
 20
6406.176752697304
 30
0.0
 10
3383.514440174226
 20
6407.999661287657
 30
0.0
 10
3357.3543584317867
 20
6422.026574045974
 30
0.0
 10
3222.1252581230538
 20
6490.929242161797
 30
0.0
 10
3195.400737077845
 20
6503.84838041398
 30
0.0
 10
3191.018232234466
 20
6506.7790635147085
 30
0.0
 10
3188.2214464662197
 20
6512.714845750079
 30
0.0
 10
3187.1336573515546
 20
6521.589316865343
 30
0.0
 10
3187.876029813613
 20
6533.3322355540595
 30
0.0
 10
3190.567510035636
 20
6547.869589371004
 30
0.0
 10
3193.953069353525
 20
6562.6300771297265
 30
0.0
 10
3201.586702204763
 20
6599.432366213684
 30
0.0
 10
3209.0159102656594
 20
6639.445540986003
 30
0.0
 10
3216.1093053332334
 20
6682.675840029628
 30
0.0
 10
3222.7351763905267
 20
6729.125402230244
 30
0.0
 10
3228.761603316586
 20
6778.792256641137
 30
0.0
 10
3234.0565736939993
 20
6831.670314976509
 30
0.0
 10
3238.48809275594
 20
6887.749368029653
 30
0.0
 10
3241.9243028607416
 20
6947.015083761006
 30
0.0
 10
3244.233595968731
 20
7009.449009490696
 30
0.0
 10
3244.539418597431
 20
7028.529103879784
 30
0.0
 10
3150.6109482206584
 20
7076.388049968833
 30
0.0
 10
3052.1944057442142
 20
7114.166621078079
 30
0.0
 10
3038.2197676102974
 20
7101.172275446068
 30
0.0
 10
2993.3675374677096
 20
7057.679685641544
 30
0.0
 10
2951.6238008421733
 20
7015.469579576697
 30
0.0
 10
2912.9142077963147
 20
6974.652108355202
 30
0.0
 10
2877.1611787361485
 20
6935.334851583727
 30
0.0
 10
2844.2839799436515
 20
6897.62273087769
 30
0.0
 10
2814.198801266804
 20
6861.617925366762
 30
0.0
 10
2786.818835971149
 20
6827.419789315476
 30
0.0
 10
2762.0543627143356
 20
6795.124771919075
 30
0.0
 10
2739.8128488379784
 20
6764.826366855292
 30
0.0
 10
2731.1090306227584
 20
6752.433684113885
 30
0.0
 10
2722.106622118169
 20
6740.706136897464
 30
0.0
 10
2713.876678043529
 20
6732.296899570367
 30
0.0
 10
2706.553787747303
 20
6727.16710419765
 30
0.0
 10
2700.2712269384406
 20
6725.273707501736
 30
0.0
 10
2695.1608368339507
 20
6726.56953353838
 30
0.0
 10
2667.6778511214548
 20
6737.785132257453
 30
0.0
 10
2525.9872599602795
 20
6792.175054303594
 30
0.0
 10
2498.0587209693454
 20
6802.22994704826
 30
0.0
 10
2493.3938841452045
 20
6804.68647906378
 30
0.0
 10
2489.9919612666745
 20
6810.29740074455
 30
0.0
 10
2487.982496346605
 20
6819.009551653978
 30
0.0
 10
2487.493332769832
 20
6830.765740458067
 30
0.0
 10
2488.6505015271214
 20
6845.504793421257
 30
0.0
 10
2490.4746232943294
 20
6860.538308996423
 30
0.0
 10
2494.2195515834105
 20
6897.936923201181
 30
0.0
 10
2497.425545995808
 20
6938.507465317351
 30
0.0
 10
2499.9612859773765
 20
6982.242405945317
 30
0.0
 10
2501.6955584634557
 20
7029.130104703529
 30
0.0
 10
2502.4973720253493
 20
7079.154812034805
 30
0.0
 10
2502.2360738226403
 20
7132.296673950493
 30
0.0
 10
2500.781459322331
 20
7188.531739960849
 30
0.0
 10
2498.003891318786
 20
7247.831973662072
 30
0.0
 10
2493.7744115652135
 20
7310.165266673858
 30
0.0
 10
2492.0841459200624
 20
7329.172805478912
 30
0.0
 10
2393.6676034436155
 20
7366.951376588156
 30
0.0
 10
2291.841261101851
 20
7394.2356627868485
 30
0.0
 10
2279.301456477905
 20
7379.851754090969
 30
0.0
 10
2239.2411451208022
 20
7331.909086553168
 30
0.0
 10
2202.138242573543
 20
7285.5668032253425
 30
0.0
 10
2167.907292269895
 20
7240.926680107203
 30
0.0
 10
2136.4598944740437
 20
7198.087598197331
 30
0.0
 10
2107.7047904404967
 20
7157.14546536808
 30
0.0
 10
2081.547948510613
 20
7118.193140454764
 30
0.0
 10
2057.89265213772
 20
7081.3203596743
 30
0.0
 10
2036.6395897962052
 20
7046.613665429112
 30
0.0
 10
2017.6869629808086
 20
7014.1563669322
 30
0.0
 10
2010.32621327519
 20
7000.921775860921
 30
0.0
 10
2002.5989833947574
 20
6988.317465448532
 30
0.0
 10
1995.2931284699262
 20
6979.094031396486
 30
0.0
 10
1988.546563360137
 20
6973.226887110217
 30
0.0
 10
1982.4963329237205
 20
6970.687156212777
 30
0.0
 10
1977.2784873666596
 20
6971.4417023544875
 30
0.0
 10
1948.7737070267576
 20
6979.723106587737
 30
0.0
 10
1802.1740167805635
 20
7019.004375196435
 30
0.0
 10
1773.3474507615126
 20
7026.084858924551
 30
0.0
 10
1768.4513908850336
 20
7028.040325576036
 30
0.0
 10
1764.4816030751751
 20
7033.2649122701105
 30
0.0
 10
1761.5724784678732
 20
7041.719290825204
 30
0.0
 10
1759.85713823078
 20
7053.359946479988
 30
0.0
 10
1759.4673173402775
 20
7068.139214440814
 30
0.0
 10
1759.7100160970015
 20
7083.281047489816
 30
0.0
 10
1759.5252096059132
 20
7120.866239771984
 30
0.0
 10
1758.4728648241323
 20
7161.549649882647
 30
0.0
 10
1756.4231676218194
 20
7205.310062933311
 30
0.0
 10
1753.2468404844074
 20
7252.122186809642
 30
0.0
 10
1748.8152558449615
 20
7301.956665899439
 30
0.0
 10
1743.000551899918
 20
7354.780098035643
 30
0.0
 10
1735.6757408982235
 20
7410.555053852059
 30
0.0
 10
1726.7148264026218
 20
7469.240099753349
 30
0.0
 10
1715.9929128527426
 20
7530.789823444913
 30
0.0
 10
1712.3250778378588
 20
7549.516556093202
 30
0.0
 10
1610.4987354960917
 20
7576.800842291894
 30
0.0
 10
1506.3782240042367
 20
7593.291911230833
 30
0.0
 10
1495.4106416138452
 20
7577.676032584787
 30
0.0
 10
1460.5811581966143
 20
7525.8085572119
 30
0.0
 10
1428.5255968922215
 20
7475.841832374984
 30
0.0
 10
1399.1483307855988
 20
7427.868143890626
 30
0.0
 10
1372.3511085251046
 20
7381.9765907884175
 30
0.0
 10
1348.0331461876908
 20
7338.253016410923
 30
0.0
 10
1326.091220838626
 20
7296.779941918265
 30
0.0
 10
1306.4197657657453
 20
7257.636502310979
 30
0.0
 10
1288.9109673380317
 20
7220.898385021998
 30
0.0
 10
1273.4548765290776
 20
7186.637802046417
 30
0.0
 10
1267.5178412471712
 20
7172.706303594558
 30
0.0
 10
1261.1504511384924
 20
7159.363325448701
 30
0.0
 10
1254.8487298388745
 20
7149.4267485453065
 30
0.0
 10
1248.7524066946746
 20
7142.886537006067
 30
0.0
 10
1243.000794221458
 20
7139.728297730286
 30
0.0
 10
1237.7326610196533
 20
7139.933297011635
 30
0.0
 10
1208.5183903907578
 20
7145.189773961284
 30
0.0
 10
1058.61577794384
 20
7168.9320153335275
 30
0.0
 10
1029.2070147863233
 20
7172.960514783683
 30
0.0
 10
1024.13337411408
 20
7174.3934915692935
 30
0.0
 10
1019.6392151988694
 20
7179.174501611537
 30
0.0
 10
1015.8623038823059
 20
7187.278479871655
 30
0.0
 10
1012.939580611488
 20
7198.676064917815
 30
0.0
 10
1011.0070410324454
 20
7213.333623123737
 30
0.0
 10
1009.6656577203184
 20
7228.417876555058
 30
0.0
 10
1005.5531412276509
 20
7265.777855682784
 30
0.0
 10
1000.2539869613378
 20
7306.128397833219
 30
0.0
 10
993.6413094866186
 20
7349.434835063743
 30
0.0
 10
985.5891832305222
 20
7395.658500632936
 30
0.0
 10
975.972753758415
 20
7444.75675449981
 30
0.0
 10
964.6683511842646
 20
7496.683012280034
 30
0.0
 10
951.5535958433336
 20
7551.386775814924
 30
0.0
 10
936.5075125100811
 20
7608.813668272751
 30
0.0
 10
919.4106366924526
 20
7668.905470991221
 30
0.0
 10
913.8054178758011
 20
7687.14622348102
 30
0.0
 10
809.6849063839456
 20
7703.63729241996
 30
0.0
 10
704.4109918545253
 20
7709.154464496889
 30
0.0
 10
695.1357948254707
 20
7692.477706734951
 30
0.0
 10
665.9187384569691
 20
7637.253694441131
 30
0.0
 10
639.2617258331509
 20
7584.209973988646
 30
0.0
 10
615.0600073986055
 20
7533.428329908245
 30
0.0
 10
593.2065566482336
 20
7484.987103072912
 30
0.0
 10
573.5921686911831
 20
7438.9611317778
 30
0.0
 10
556.1055602487045
 20
7395.421695388741
 30
0.0
 10
540.633471054131
 20
7354.436460670263
 30
0.0
 10
527.0607665997443
 20
7316.069430838451
 30
0.0
 10
515.2705519625306
 20
7280.380929500769
 30
0.0
 10
510.8222785052891
 20
7265.905160080722
 30
0.0
 10
505.88449062685714
 20
7251.969702662162
 30
0.0
 10
500.65594592973116
 20
7241.428850123335
 30
0.0
 10
495.27665734322625
 20
7234.287227257374
 30
0.0
 10
489.8866787030678
 20
7230.545081933661
 30
0.0
 10
484.62597662630594
 20
7230.198288339624
 30
0.0
 10
455.0222933709065
 20
7232.3722469442255
 30
0.0
 10
303.45912311437183
 20
7240.315336115157
 30
0.0
 10
273.79037138172214
 20
7241.247714204358
 30
0.0
 10
268.59473778264726
 20
7242.14250113056
 30
0.0
 10
263.62544670762287
 20
7246.427552774459
 30
0.0
 10
259.02212931255184
 20
7254.092341857916
 30
0.0
 10
254.9240449757835
 20
7265.121981968589
 30
0.0
 10
251.46996001623853
 20
7279.497239144613
 30
0.0
 10
248.55919111153094
 20
7294.358646721075
 30
0.0
 10
240.56402220857694
 20
7331.08408894496
 30
0.0
 10
231.07611710079274
 20
7370.659674151472
 30
0.0
 10
219.97290923187225
 20
7413.037661173103
 30
0.0
 10
207.13320463736895
 20
7458.166432282259
 30
0.0
 10
192.4372899462641
 20
7505.990530182374
 30
0.0
 10
175.76704214320716
 20
7556.450698660108
 30
0.0
 10
157.00603046699408
 20
7609.483924032686
 30
0.0
 10
136.03962633368548
 20
7665.023481995932
 30
0.0
 10
112.75510519751674
 20
7722.998985375708
 30
0.0
 10
105.273914529423
 20
7740.5539082056275
 30
0.0
 10
-1.4210854715202004e-12
 20
7746.071080282547
 30
0.0
 10
-105.27391452942288
 20
7740.553908205627
 30
0.0
 10
-112.7551051975304
 20
7722.998985375678
 30
0.0
 10
-136.03962633366737
 20
7665.023481995982
 30
0.0
 10
-157.00603046826575
 20
7609.483924029318
 30
0.0
 10
-175.76704213902974
 20
7556.450698672162
 30
0.0
 10
-192.4372903997296
 20
7505.990530321889
 30
0.0
 10
-207.1332046373849
 20
7458.1664322822235
 30
0.0
 10
-219.9729092318736
 20
7413.0376611730535
 30
0.0
 10
-231.07611710118113
 20
7370.659674151671
 30
0.0
 10
-240.56402219196775
 20
7331.084088984683
 30
0.0
 10
-248.5591845986147
 20
7294.358679973855
 30
0.0
 10
-251.4699600163326
 20
7279.497239144636
 30
0.0
 10
-254.92404622722324
 20
7265.121982241031
 30
0.0
 10
-259.02212929201227
 20
7254.092341853003
 30
0.0
 10
-263.62544670938
 20
7246.427552774921
 30
0.0
 10
-268.59473778257296
 20
7242.142501130538
 30
0.0
 10
-273.7903713814661
 20
7241.247714204302
 30
0.0
 10
-303.45912311465446
 20
7240.315336118453
 30
0.0
 10
-455.0222933708431
 20
7232.372246940918
 30
0.0
 10
-484.6259766260572
 20
7230.198288339707
 30
0.0
 10
-489.8866787029961
 20
7230.545081933691
 30
0.0
 10
-495.2766573449253
 20
7234.28722725673
 30
0.0
 10
-500.6559459098175
 20
7241.428850130367
 30
0.0
 10
-505.88449184296337
 20
7251.9697022604005
 30
0.0
 10
-510.82227850538015
 20
7265.905160080689
 30
0.0
 10
-515.2705420094309
 20
7280.3808971109365
 30
0.0
 10
-527.0607665790737
 20
7316.069430800681
 30
0.0
 10
-540.6334710544965
 20
7354.436460670024
 30
0.0
 10
-556.1055602487108
 20
7395.421695388788
 30
0.0
 10
-573.5921686912027
 20
7438.9611317778335
 30
0.0
 10
-593.2065570846316
 20
7484.987102886759
 30
0.0
 10
-615.060007393191
 20
7533.428329896694
 30
0.0
 10
-639.2617258347675
 20
7584.209973991862
 30
0.0
 10
-665.9187384569457
 20
7637.253694441082
 30
0.0
 10
-695.1357948254873
 20
7692.47770673498
 30
0.0
 10
-704.410991854525
 20
7709.154464496883
 30
0.0
 10
-809.6849063839474
 20
7703.637292419962
 30
0.0
 10
-913.8054178758025
 20
7687.146223481027
 30
0.0
 10
-919.4106366924628
 20
7668.905470991192
 30
0.0
 10
-936.5075125100683
 20
7608.813668272804
 30
0.0
 10
-951.553595844246
 20
7551.386775811443
 30
0.0
 10
-964.66835118137
 20
7496.683012292458
 30
0.0
 10
-975.9727542239799
 20
7444.756754591163
 30
0.0
 10
-985.5891832305343
 20
7395.6585006329005
 30
0.0
 10
-993.6413094866148
 20
7349.434835063696
 30
0.0
 10
-1000.253986961745
 20
7306.128397833378
 30
0.0
 10
-1005.5531412152849
 20
7265.777855724027
 30
0.0
 10
-1009.6656547189425
 20
7228.417910306461
 30
0.0
 10
-1011.0070410325415
 20
7213.333623123753
 30
0.0
 10
-1012.9395818845503
 20
7198.676065057954
 30
0.0
 10
-1015.8623038613653
 20
7187.278479868916
 30
0.0
 10
-1019.6392152006651
 20
7179.174501611814
 30
0.0
 10
-1024.1333741140038
 20
7174.393491569281
 30
0.0
 10
-1029.2070147860627
 20
7172.9605147836555
 30
0.0
 10
-1058.6157779444657
 20
7168.932015336776
 30
0.0
 10
-1208.518390390349
 20
7145.189773958003
 30
0.0
 10
-1237.7326610194143
 20
7139.933297011744
 30
0.0
 10
-1243.0007942213897
 20
7139.728297730323
 30
0.0
 10
-1248.7524066962974
 20
7142.88653700525
 30
0.0
 10
-1254.8487298198052
 20
7149.426748554383
 30
0.0
 10
-1261.1504523059414
 20
7159.363324922025
 30
0.0
 10
-1267.517841247258
 20
7172.706303594516
 30
0.0
 10
-1273.4548632448427
 20
7186.637770874402
 30
0.0
 10
-1288.9109673135263
 20
7220.898384986597
 30
0.0
 10
-1306.4197657660839
 20
7257.636502310705
 30
0.0
 10
-1326.0912208386374
 20
7296.779941918313
 30
0.0
 10
-1348.033146187714
 20
7338.253016410955
 30
0.0
 10
-1372.3511089396538
 20
7381.9765905576705
 30
0.0
 10
-1399.1483307790068
 20
7427.868143879705
 30
0.0
 10
-1428.5255968941656
 20
7475.841832378014
 30
0.0
 10
-1460.5811581965859
 20
7525.808557211854
 30
0.0
 10
-1495.410641613865
 20
7577.6760325848145
 30
0.0
 10
-1506.378224004237
 20
7593.291911230836
 30
0.0
 10
-1610.4987354960926
 20
7576.800842291894
 30
0.0
 10
-1712.3250778378574
 20
7549.516556093203
 30
0.0
 10
-1715.9929128527478
 20
7530.789823444882
 30
0.0
 10
-1726.7148264026125
 20
7469.240099753403
 30
0.0
 10
-1735.6757408987655
 20
7410.555053848501
 30
0.0
 10
-1743.0005518983364
 20
7354.7800980483025
 30
0.0
 10
-1748.815256317523
 20
7301.956665941627
 30
0.0
 10
-1753.246840484414
 20
7252.122186809605
 30
0.0
 10
-1756.423167621809
 20
7205.310062933266
 30
0.0
 10
-1758.472864824552
 20
7161.549649882762
 30
0.0
 10
-1759.5252095979242
 20
7120.866239814293
 30
0.0
 10
-1759.710016640048
 20
7083.281081370055
 30
0.0
 10
-1759.4673173403728
 20
7068.139214440819
 30
0.0
 10
-1759.857139511515
 20
7053.359946486289
 30
0.0
 10
-1761.5724784467598
 20
7041.719290824672
 30
0.0
 10
-1764.4816030769884
 20
7033.2649122702
 30
0.0
 10
-1768.4513908849551
 20
7028.040325576031
 30
0.0
 10
-1773.347450761249
 20
7026.084858924551
 30
0.0
 10
-1802.1740167815235
 20
7019.004375199601
 30
0.0
 10
-1948.7737070260064
 20
6979.723106584516
 30
0.0
 10
-1977.278487366432
 20
6971.441702354621
 30
0.0
 10
-1982.496332923655
 20
6970.687156212822
 30
0.0
 10
-1988.5465633616634
 20
6973.226887109236
 30
0.0
 10
-1995.2931284519084
 20
6979.094031407506
 30
0.0
 10
-2002.5989845007566
 20
6988.317464802709
 30
0.0
 10
-2010.3262132752707
 20
7000.92177586087
 30
0.0
 10
-2017.6869465109817
 20
7014.15633731953
 30
0.0
 10
-2036.639589768132
 20
7046.613665396466
 30
0.0
 10
-2057.892652138026
 20
7081.320359673992
 30
0.0
 10
-2081.5479485106275
 20
7118.19314045481
 30
0.0
 10
-2107.7047904405213
 20
7157.145465368111
 30
0.0
 10
-2136.4598948622006
 20
7198.087597924517
 30
0.0
 10
-2167.907292262196
 20
7240.926680097031
 30
0.0
 10
-2202.1382425757915
 20
7285.566803228154
 30
0.0
 10
-2239.2411451207677
 20
7331.909086553126
 30
0.0
 10
-2279.3014564779255
 20
7379.851754090994
 30
0.0
 10
-2291.8412611018493
 20
7394.2356627868485
 30
0.0
 10
-2393.667603443615
 20
7366.9513765881575
 30
0.0
 10
-2492.084145920061
 20
7329.172805478914
 30
0.0
 10
-2493.774411565216
 20
7310.165266673826
 30
0.0
 10
-2498.003891318783
 20
7247.831973662128
 30
0.0
 10
-2500.781459322499
 20
7188.531739957255
 30
0.0
 10
-2502.2360738223906
 20
7132.296673963249
 30
0.0
 10
-2502.497372499732
 20
7079.1548120273665
 30
0.0
 10
-2501.6955584634584
 20
7029.130104703491
 30
0.0
 10
-2499.9612859773615
 20
6982.242405945272
 30
0.0
 10
-2497.425545996238
 20
6938.507465317421
 30
0.0
 10
-2494.219551579888
 20
6897.936923244094
 30
0.0
 10
-2490.474627375851
 20
6860.538342634299
 30
0.0
 10
-2488.650501527217
 20
6845.504793421252
 30
0.0
 10
-2487.4933340442103
 20
6830.76574033046
 30
0.0
 10
-2487.982496325551
 20
6819.009551655654
 30
0.0
 10
-2489.9919612684876
 20
6810.297400744448
 30
0.0
 10
-2493.393884145126
 20
6804.686479063783
 30
0.0
 10
-2498.058720969084
 20
6802.229947048287
 30
0.0
 10
-2525.9872599615655
 20
6792.175054306643
 30
0.0
 10
-2667.6778511203715
 20
6737.785132254329
 30
0.0
 10
-2695.160836833739
 20
6726.569533538536
 30
0.0
 10
-2700.27122693838
 20
6725.273707501788
 30
0.0
 10
-2706.553787748719
 20
6727.167104196514
 30
0.0
 10
-2713.8766780267624
 20
6732.296899583211
 30
0.0
 10
-2722.106623150603
 20
6740.70613613957
 30
0.0
 10
-2731.109030622834
 20
6752.4336841138265
 30
0.0
 10
-2739.8128293630084
 20
6764.826339126408
 30
0.0
 10
-2762.0543626830045
 20
6795.124771889543
 30
0.0
 10
-2786.8188359714222
 20
6827.419789315138
 30
0.0
 10
-2814.1988012668235
 20
6861.617925366808
 30
0.0
 10
-2844.2839799436792
 20
6897.622730877717
 30
0.0
 10
-2877.161179093662
 20
6935.334851271833
 30
0.0
 10
-2912.914207787595
 20
6974.652108345891
 30
0.0
 10
-2951.623800844704
 20
7015.469579579258
 30
0.0
 10
-2993.3675374676714
 20
7057.679685641506
 30
0.0
 10
-3038.219767610321
 20
7101.172275446091
 30
0.0
 10
-3052.194405744213
 20
7114.16662107808
 30
0.0
 10
-3150.6109482206602
 20
7076.388049968837
 30
0.0
 10
-3244.53941859743
 20
7028.529103879788
 30
0.0
 10
-3244.2335959687293
 20
7009.449009490664
 30
0.0
 10
-3241.924302860744
 20
6947.015083761062
 30
0.0
 10
-3238.48809275573
 20
6887.7493680260595
 30
0.0
 10
-3234.0565736950844
 20
6831.670314989221
 30
0.0
 10
-3228.7616037875914
 20
6778.792256584151
 30
0.0
 10
-3222.735176390525
 20
6729.1254022302055
 30
0.0
 10
-3216.1093053332133
 20
6682.675840029585
 30
0.0
 10
-3209.0159102660937
 20
6639.445540986028
 30
0.0
 10
-3201.5867022057446
 20
6599.432366256729
 30
0.0
 10
-3193.9530769288017
 20
6562.630110156696
 30
0.0
 10
-3190.56751003573
 20
6547.869589370989
 30
0.0
 10
-3187.8760310676703
 20
6533.332235293943
 30
0.0
 10
-3187.1336573307904
 20
6521.589316869211
 30
0.0
 10
-3188.221446468011
 20
6512.714845749788
 30
0.0
 10
-3191.018232234387
 20
6506.77906351472
 30
0.0
 10
-3195.400737077586
 20
6503.848380414034
 30
0.0
 10
-3222.125258124651
 20
6490.929242164694
 30
0.0
 10
-3357.3543584303816
 20
6422.026574042979
 30
0.0
 10
-3383.5144401740304
 20
6407.999661287834
 30
0.0
 10
-3388.461384322686
 20
6406.176752697362
 30
0.0
 10
-3394.907442454406
 20
6407.403070739995
 30
0.0
 10
-3402.726426801949
 20
6411.739314103383
 30
0.0
 10
-3411.790291999778
 20
6419.242220465441
 30
0.0
 10
-3421.9692459095854
 20
6429.964515886039
 30
0.0
 10
-3431.9207495138394
 20
6441.379487930897
 30
0.0
 10
-3457.207490003287
 20
6469.187069410521
 30
0.0
 10
-3485.2120494585806
 20
6498.716579015105
 30
0.0
 10
-3516.01670304738
 20
6529.8653884026235
 30
0.0
 10
-3549.700598957886
 20
6562.5281983274745
 30
0.0
 10
-3586.339683362289
 20
6596.597124676495
 30
0.0
 10
-3626.0066256859855
 20
6631.961788555927
 30
0.0
 10
-3668.7707510845717
 20
6668.509403135099
 30
0.0
 10
-3714.697968671651
 20
6706.1248691795745
 30
0.0
 10
-3763.850707180416
 20
6744.6908673355665
 30
0.0
 10
-3779.1070697645014
 20
6756.1532811337065
 30
0.0
 10
-3873.0355401412744
 20
6708.294335044658
 30
0.0
 10
-3961.4468384411243
 20
6650.879366604282
 30
0.0
 10
-3959.1482781952855
 20
6631.935762138017
 30
0.0
 10
-3950.3255133242883
 20
6570.085242845943
 30
0.0
 10
-3940.7131729475295
 20
6511.503372664553
 30
0.0
 10
-3930.4440729765297
 20
6456.194746425248
 30
0.0
 10
-3919.650847282553
 20
6404.159834624323
 30
0.0
 10
-3908.4658333243665
 20
6355.394993690067
 30
0.0
 10
-3897.020958125697
 20
6309.8924791707095
 30
0.0
 10
-3885.447624693325
 20
6267.64046191429
 30
0.0
 10
-3873.8765989471485
 20
6228.623047244651
 30
0.0
 10
-3862.4379081932725
 20
6192.820328873576
 30
0.0
 10
-3857.527993235118
 20
6178.494555869775
 30
0.0
 10
-3853.3316911888087
 20
6164.31817509988
 30
0.0
 10
-3851.3659150357207
 20
6152.717184796846
 30
0.0
 10
-3851.5201103218033
 20
6143.7776240318935
 30
0.0
 10
-3853.6811168077957
 20
6137.582014914733
 30
0.0
 10
-3857.7332740300753
 20
6134.209289906192
 30
0.0
 10
-3882.960977686666
 20
6118.567450931321
 30
0.0
 10
-4010.2469888178634
 20
6035.9069487909555
 30
0.0
 10
-4034.797551261861
 20
6019.222403787923
 30
0.0
 10
-4039.526849699224
 20
6016.892384811714
 30
0.0
 10
-4046.0657807905104
 20
6017.438188405155
 30
0.0
 10
-4054.2951927788126
 20
6020.933370955527
 30
0.0
 10
-4064.093672446787
 20
6027.447743711098
 30
0.0
 10
-4075.3376500450518
 20
6037.047310865625
 30
0.0
 10
-4086.427827757411
 20
6047.359535120298
 30
0.0
 10
-4114.482728595917
 20
6072.371599634612
 30
0.0
 10
-4145.420550404364
 20
6098.812069931509
 30
0.0
 10
-4179.312390055554
 20
6126.570279780919
 30
0.0
 10
-4216.225955387306
 20
6155.533233539043
 30
0.0
 10
-4256.225499570173
 20
6185.585699556507
 30
0.0
 10
-4299.371756202694
 20
6216.610307583319
 30
0.0
 10
-4345.721881235921
 20
6248.4876421948875
 30
0.0
 10
-4395.32939158034
 20
6281.096345304062
 30
0.0
 10
-4448.244110766248
 20
6314.313214665211
 30
0.0
 10
-4464.615045899456
 20
6324.118112025266
 30
0.0
 10
-4553.026344199309
 20
6266.703143584891
 30
0.0
 10
-4634.951817736813
 20
6200.3612032022775
 30
0.0
 10
-4630.685703380894
 20
6181.761638753605
 30
0.0
 10
-4615.446130805093
 20
6121.1721731314765
 30
0.0
 10
-4599.762974969269
 20
6063.915983732451
 30
0.0
 10
-4583.768804496143
 20
6009.9837571738335
 30
0.0
 10
-4567.5955758550135
 20
5959.362097359749
 30
0.0
 10
-4551.374520689248
 20
5912.0335476471555
 30
0.0
 10
-4535.236033796891
 20
5867.9766158801485
 30
0.0
 10
-4519.309561862228
 20
5827.165802353732
 30
0.0
 10
-4503.723493009691
 20
5789.571630703791
 30
0.0
 10
-4488.605061468482
 20
5755.16071213635
 30
0.0
 10
-4482.224592500993
 20
5741.426643081345
 30
0.0
 10
-4476.5694429397845
 20
5727.766555012914
 30
0.0
 10
-4473.401801825387
 20
5716.434595709003
 30
0.0
 10
-4472.62071386451
 20
5707.527888996985
 30
0.0
 10
-4474.122264630839
 20
5701.140333387732
 30
0.0
 10
-4477.799677949703
 20
5697.3625187523185
 30
0.0
 10
-4501.254164215322
 20
5679.169354312989
 30
0.0
 10
-4619.202513997723
 20
5583.656663913246
 30
0.0
 10
-4641.874576042397
 20
5564.497286028846
 30
0.0
 10
-4646.334413585118
 20
5561.68568484239
 30
0.0
 10
-4652.8945757385745
 20
5561.544994048253
 30
0.0
 10
-4661.444252207778
 20
5564.1608218341735
 30
0.0
 10
-4671.869992152192
 20
5569.615288152127
 30
0.0
 10
-4684.055802067394
 20
5577.986952174
 30
0.0
 10
-4696.163147580073
 20
5587.083445751581
 30
0.0
 10
-4726.678833403186
 20
5609.025955887655
 30
0.0
 10
-4760.210956314897
 20
5632.087699551267
 30
0.0
 10
-4796.818655940936
 20
5656.151185106681
 30
0.0
 10
-4836.5574579475
 20
5681.0969585158155
 30
0.0
 10
-4879.47921853232
 20
5706.803703095154
 30
0.0
 10
-4925.632070057065
 20
5733.148343171487
 30
0.0
 10
-4975.060373055682
 20
5760.006143066685
 30
0.0
 10
-5027.804665893069
 20
5787.250815465487
 30
0.0
 10
-5083.9016210196005
 20
5814.754625059994
 30
0.0
 10
-5101.207765310771
 20
5822.794581474676
 30
0.0
 10
-5183.133238848278
 20
5756.452641092063
 30
0.0
 10
-5257.675294991352
 20
5681.910584948988
 30
0.0
 10
-5251.488366966979
 20
5663.85884123822
 30
0.0
 10
-5229.998954632601
 20
5605.194260150553
 30
0.0
 10
-5208.41681127496
 20
5549.8910623265765
 30
0.0
 10
-5186.872805778409
 20
5497.926128208865
 30
0.0
 10
-5165.496771467584
 20
5449.272341879807
 30
0.0
 10
-5144.417396369109
 20
5403.898624883665
 30
0.0
 10
-5123.762114422653
 20
5361.7699728329535
 30
0.0
 10
-5103.656997745044
 20
5322.847494849746
 30
0.0
 10
-5084.2266500180895
 20
5287.088455831186
 30
0.0
 10
-5065.594118389246
 20
5254.446350292151
 30
0.0
 10
-5057.813001165629
 20
5241.454458520547
 30
0.0
 10
-5050.760963091532
 20
5228.460325937016
 30
0.0
 10
-5046.426162354746
 20
5217.5215529497245
 30
0.0
 10
-5044.7183489100635
 20
5208.745284033228
 30
0.0
 10
-5045.543992652312
 20
5202.235765327821
 30
0.0
 10
-5048.806371557892
 20
5198.0942515932375
 30
0.0
 10
-5070.230668172844
 20
5177.549089806212
 30
0.0
 10
-5177.549089803953
 20
5070.230668170427
 30
0.0
 10
-5198.094251593109
 20
5048.8063715581175
 30
0.0
 10
-5202.2357653277895
 20
5045.5439926523795
 30
0.0
 10
-5208.745284034061
 20
5044.718348908446
 30
0.0
 10
-5217.521552939634
 20
5046.4261623732955
 30
0.0
 10
-5228.46032657193
 20
5050.76096197923
 30
0.0
 10
-5241.454458520594
 20
5057.813001165543
 30
0.0
 10
-5254.44632122253
 20
5065.594100978833
 30
0.0
 10
-5287.088455790555
 20
5084.2266500038495
 30
0.0
 10
-5322.847494849861
 20
5103.65699774462
 30
0.0
 10
-5361.769972832993
 20
5123.762114422683
 30
0.0
 10
-5403.8986248837045
 20
5144.417396369119
 30
0.0
 10
-5449.2723420795555
 20
5165.496771037237
 30
0.0
 10
-5497.926128197114
 20
5186.872805773446
 30
0.0
 10
-5549.891062329932
 20
5208.416811276266
 30
0.0
 10
-5605.194260150505
 20
5229.99895463258
 30
0.0
 10
-5663.858841238252
 20
5251.488366966987
 30
0.0
 10
-5681.910584948991
 20
5257.675294991349
 30
0.0
 10
-5756.4526410920635
 20
5183.133238848276
 30
0.0
 10
-5822.794581474675
 20
5101.2077653107735
 30
0.0
 10
-5814.75462505998
 20
5083.901621019571
 30
0.0
 10
-5787.250815465512
 20
5027.804665893117
 30
0.0
 10
-5760.006143065031
 20
4975.060373052485
 30
0.0
 10
-5733.148343177648
 20
4925.632070068236
 30
0.0
 10
-5706.803703502261
 20
4879.479218288686
 30
0.0
 10
-5681.096958515798
 20
4836.557457947465
 30
0.0
 10
-5656.151185106644
 20
4796.818655940904
 30
0.0
 10
-5632.087699551674
 20
4760.210956314742
 30
0.0
 10
-5609.0259559060605
 20
4726.678833442111
 30
0.0
 10
-5587.0834661052195
 20
4696.163174670567
 30
0.0
 10
-5577.986952174079
 20
4684.0558020673425
 30
0.0
 10
-5569.615289191966
 20
4671.869991404493
 30
0.0
 10
-5564.160821816778
 20
4661.444252219757
 30
0.0
 10
-5561.544994049772
 20
4652.8945757375795
 30
0.0
 10
-5561.685684842323
 20
4646.33441358516
 30
0.0
 10
-5564.497286028632
 20
4641.874576042552
 30
0.0
 10
-5583.656663915884
 20
4619.2025139997195
 30
0.0
 10
-5679.169354310487
 20
4501.254164213157
 30
0.0
 10
-5697.362518752212
 20
4477.799677949945
 30
0.0
 10
-5701.140333387705
 20
4474.122264630914
 30
0.0
 10
-5707.527888997642
 20
4472.620713862819
 30
0.0
 10
-5716.434595700902
 20
4473.401801844892
 30
0.0
 10
-5727.766555528079
 20
4476.569441767213
 30
0.0
 10
-5741.426643081379
 20
4482.224592500904
 30
0.0
 10
-5755.160681406089
 20
4488.60504719205
 30
0.0
 10
-5789.571630661891
 20
4503.72349299978
 30
0.0
 10
-5827.165802353798
 20
4519.309561861798
 30
0.0
 10
-5867.976615880188
 20
4535.23603379692
 30
0.0
 10
-5912.033547647193
 20
4551.374520689257
 30
0.0
 10
-5959.362097513416
 20
4567.595575406149
 30
0.0
 10
-6009.983757161624
 20
4583.76880449244
 30
0.0
 10
-6063.915983735922
 20
4599.762974970221
 30
0.0
 10
-6121.172173131424
 20
4615.44613080508
 30
0.0
 10
-6181.761638753636
 20
4630.685703380901
 30
0.0
 10
-6200.361203202277
 20
4634.951817736814
 30
0.0
 10
-6266.703143584889
 20
4553.026344199307
 30
0.0
 10
-6324.118112025264
 20
4464.615045899457
 30
0.0
 10
-6314.313214665194
 20
4448.24411076622
 30
0.0
 10
-6281.096345304093
 20
4395.329391580386
 30
0.0
 10
-6248.487642192909
 20
4345.721881232914
 30
0.0
 10
-6216.610307590615
 20
4299.37175621316
 30
0.0
 10
-6185.585699935918
 20
4256.225499285319
 30
0.0
 10
-6155.533233539023
 20
4216.225955387274
 30
0.0
 10
-6126.57027978088
 20
4179.312390055526
 30
0.0
 10
-6098.812069931898
 20
4145.420550404167
 30
0.0
 10
-6072.371599656985
 20
4114.4827286327045
 30
0.0
 10
-6047.359558194165
 20
4086.4278525719646
 30
0.0
 10
-6037.0473108657
 20
4075.3376500449904
 30
0.0
 10
-6027.447744667086
 20
4064.093671594489
 30
0.0
 10
-6020.93337093948
 20
4054.295192792542
 30
0.0
 10
-6017.438188406562
 20
4046.065780789361
 30
0.0
 10
-6016.892384811653
 20
4039.5268496992717
 30
0.0
 10
-6019.222403787728
 20
4034.7975512620355
 30
0.0
 10
-6035.906948793788
 20
4010.2469888195724
 30
0.0
 10
-6118.567450928607
 20
3882.9609776847733
 30
0.0
 10
-6134.209289906113
 20
3857.7332740303254
 30
0.0
 10
-6137.582014914715
 20
3853.6811168078716
 30
0.0
 10
-6143.777624032372
 20
3851.520110320051
 30
0.0
 10
-6152.71718479083
 20
3851.3659150559647
 30
0.0
 10
-6164.318175489658
 20
3853.3316899688093
 30
0.0
 10
-6178.494555869801
 20
3857.527993235025
 30
0.0
 10
-6192.8202968193655
 20
3862.4378972072336
 30
0.0
 10
-6228.623047201944
 20
3873.8765989416706
 30
0.0
 10
-6267.640461914312
 20
3885.4476246928893
 30
0.0
 10
-6309.892479170751
 20
3897.0209581257204
 30
0.0
 10
-6355.394993690106
 20
3908.4658333243706
 30
0.0
 10
-6404.1598347302315
 20
3919.6508468200823
 30
0.0
 10
-6456.194746412721
 20
3930.4440729741204
 30
0.0
 10
-6511.503372668106
 20
3940.713172948113
 30
0.0
 10
-6570.085242845888
 20
3950.325513324279
 30
0.0
 10
-6631.9357621380495
 20
3959.1482781952895
 30
0.0
 10
-6650.879366604287
 20
3961.4468384411284
 30
0.0
 10
-6708.29433504466
 20
3873.035540141279
 30
0.0
 10
-6756.153281133703
 20
3779.1070697645036
 30
0.0
 10
-6744.690867335546
 20
3763.850707180393
 30
0.0
 10
-6706.124869179607
 20
3714.6979686716954
 30
0.0
 10
-6668.509403132816
 20
3668.7707510817895
 30
0.0
 10
-6631.961788564276
 20
3626.0066256956334
 30
0.0
 10
-6596.59712502405
 20
3586.339683039338
 30
0.0
 10
-6562.52819832745
 20
3549.700598957858
 30
0.0
 10
-6529.86538840258
 20
3516.016703047358
 30
0.0
 10
-6498.716579015469
 20
3485.212049458347
 30
0.0
 10
-6469.187069436616
 20
3457.2074900375364
 30
0.0
 10
-6441.379513472189
 20
3431.9207717805834
 30
0.0
 10
-6429.964515886106
 20
3421.9692459095195
 30
0.0
 10
-6419.2422213271
 20
3411.790291052224
 30
0.0
 10
-6411.739314088856
 20
3402.726426817284
 30
0.0
 10
-6407.403070741271
 20
3394.907442453119
 30
0.0
 10
-6406.1767526973035
 20
3388.461384322743
 30
0.0
 10
-6407.999661287656
 20
3383.5144401742277
 30
0.0
 10
-6422.026574045973
 20
3357.3543584317886
 30
0.0
 10
-6490.9292421617965
 20
3222.1252581230556
 30
0.0
 10
-6503.848380413978
 20
3195.4007370778463
 30
0.0
 10
-6506.779063514708
 20
3191.018232234467
 30
0.0
 10
-6512.714845750078
 20
3188.221446466221
 30
0.0
 10
-6521.589316865342
 20
3187.133657351556
 30
0.0
 10
-6533.332235554059
 20
3187.8760298136144
 30
0.0
 10
-6547.869589371003
 20
3190.5675100356375
 30
0.0
 10
-6562.630077129726
 20
3193.953069353526
 30
0.0
 10
-6599.432366213683
 20
3201.5867022047646
 30
0.0
 10
-6639.445540986002
 20
3209.015910265661
 30
0.0
 10
-6682.675840029627
 20
3216.109305333235
 30
0.0
 10
-6729.125402230243
 20
3222.7351763905285
 30
0.0
 10
-6778.792256641136
 20
3228.7616033165878
 30
0.0
 10
-6831.670314976508
 20
3234.056573694001
 30
0.0
 10
-6887.749368029652
 20
3238.4880927559416
 30
0.0
 10
-6947.015083761006
 20
3241.9243028607434
 30
0.0
 10
-7009.449009490695
 20
3244.233595968733
 30
0.0
 10
-7028.529103879783
 20
3244.539418597433
 30
0.0
 10
-7076.388049968832
 20
3150.6109482206584
 30
0.0
 10
-7114.166621078079
 20
3052.1944057442142
 30
0.0
 10
-7101.172275446068
 20
3038.219767610298
 30
0.0
 10
-7057.679685641544
 20
2993.36753746771
 30
0.0
 10
-7015.469579576697
 20
2951.6238008421738
 30
0.0
 10
-6974.652108355202
 20
2912.914207796315
 30
0.0
 10
-6935.334851583727
 20
2877.161178736149
 30
0.0
 10
-6897.62273087769
 20
2844.283979943652
 30
0.0
 10
-6861.617925366762
 20
2814.1988012668044
 30
0.0
 10
-6827.419789315476
 20
2786.81883597115
 30
0.0
 10
-6795.124771919075
 20
2762.0543627143365
 30
0.0
 10
-6764.826366855292
 20
2739.812848837979
 30
0.0
 10
-6752.433684113885
 20
2731.1090306227593
 30
0.0
 10
-6740.706136897463
 20
2722.1066221181695
 30
0.0
 10
-6732.296899570367
 20
2713.8766780435294
 30
0.0
 10
-6727.16710419765
 20
2706.5537877473034
 30
0.0
 10
-6725.273707501736
 20
2700.2712269384406
 30
0.0
 10
-6726.56953353838
 20
2695.160836833951
 30
0.0
 10
-6737.785132257453
 20
2667.677851121455
 30
0.0
 10
-6792.175054303594
 20
2525.98725996028
 30
0.0
 10
-6802.229947048259
 20
2498.058720969346
 30
0.0
 10
-6804.686479063779
 20
2493.3938841452045
 30
0.0
 10
-6810.29740074455
 20
2489.991961266675
 30
0.0
 10
-6819.009551653978
 20
2487.982496346605
 30
0.0
 10
-6830.765740458067
 20
2487.4933327698323
 30
0.0
 10
-6845.504793421257
 20
2488.6505015271214
 30
0.0
 10
-6860.538308996423
 20
2490.47462329433
 30
0.0
 10
-6897.936923201181
 20
2494.219551583411
 30
0.0
 10
-6938.507465317351
 20
2497.425545995808
 30
0.0
 10
-6982.242405945317
 20
2499.9612859773765
 30
0.0
 10
-7029.130104703529
 20
2501.6955584634557
 30
0.0
 10
-7079.154812034805
 20
2502.4973720253497
 30
0.0
 10
-7132.296673950493
 20
2502.2360738226407
 30
0.0
 10
-7188.531739960849
 20
2500.7814593223316
 30
0.0
 10
-7247.831973662072
 20
2498.003891318787
 30
0.0
 10
-7310.165266673858
 20
2493.774411565214
 30
0.0
 10
-7329.172805478912
 20
2492.084145920063
 30
0.0
 10
-7366.951376588156
 20
2393.667603443614
 30
0.0
 10
-7394.235662786849
 20
2291.8412611018503
 30
0.0
 10
-7379.85175409097
 20
2279.301456477904
 30
0.0
 10
-7331.909086553169
 20
2239.2411451208013
 30
0.0
 10
-7285.566803225344
 20
2202.1382425735414
 30
0.0
 10
-7240.926680107203
 20
2167.9072922698942
 30
0.0
 10
-7198.087598197332
 20
2136.459894474043
 30
0.0
 10
-7157.145465368081
 20
2107.7047904404953
 30
0.0
 10
-7118.193140454765
 20
2081.547948510612
 30
0.0
 10
-7081.320359674301
 20
2057.892652137719
 30
0.0
 10
-7046.613665429113
 20
2036.6395897962043
 30
0.0
 10
-7014.156366932201
 20
2017.6869629808075
 30
0.0
 10
-7000.921775860922
 20
2010.3262132751893
 30
0.0
 10
-6988.317465448533
 20
2002.5989833947565
 30
0.0
 10
-6979.094031396487
 20
1995.2931284699253
 30
0.0
 10
-6973.226887110218
 20
1988.546563360136
 30
0.0
 10
-6970.687156212778
 20
1982.4963329237196
 30
0.0
 10
-6971.441702354488
 20
1977.2784873666585
 30
0.0
 10
-6979.723106587738
 20
1948.7737070267565
 30
0.0
 10
-7019.004375196436
 20
1802.1740167805626
 30
0.0
 10
-7026.084858924552
 20
1773.3474507615115
 30
0.0
 10
-7028.040325576037
 20
1768.4513908850329
 30
0.0
 10
-7033.264912270111
 20
1764.4816030751742
 30
0.0
 10
-7041.719290825205
 20
1761.5724784678723
 30
0.0
 10
-7053.359946479989
 20
1759.8571382307791
 30
0.0
 10
-7068.139214440815
 20
1759.4673173402766
 30
0.0
 10
-7083.281047489816
 20
1759.7100160970006
 30
0.0
 10
-7120.8662397719845
 20
1759.525209605912
 30
0.0
 10
-7161.549649882649
 20
1758.4728648241314
 30
0.0
 10
-7205.310062933312
 20
1756.4231676218183
 30
0.0
 10
-7252.122186809643
 20
1753.2468404844064
 30
0.0
 10
-7301.95666589944
 20
1748.8152558449606
 30
0.0
 10
-7354.780098035644
 20
1743.0005518999171
 30
0.0
 10
-7410.555053852059
 20
1735.6757408982226
 30
0.0
 10
-7469.24009975335
 20
1726.7148264026207
 30
0.0
 10
-7530.789823444914
 20
1715.9929128527415
 30
0.0
 10
-7549.516556093203
 20
1712.3250778378579
 30
0.0
 10
-7576.800842291894
 20
1610.498735496094
 30
0.0
 10
-7593.2919112308355
 20
1506.3782240042397
 30
0.0
 10
-7577.676032584786
 20
1495.4106416138475
 30
0.0
 10
-7525.8085572119
 20
1460.5811581966163
 30
0.0
 10
-7475.841832374983
 20
1428.5255968922233
 30
0.0
 10
-7427.868143890625
 20
1399.148330785601
 30
0.0
 10
-7381.9765907884175
 20
1372.3511085251066
 30
0.0
 10
-7338.253016410923
 20
1348.033146187693
 30
0.0
 10
-7296.779941918265
 20
1326.091220838628
 30
0.0
 10
-7257.636502310979
 20
1306.4197657657473
 30
0.0
 10
-7220.898385021998
 20
1288.9109673380337
 30
0.0
 10
-7186.637802046416
 20
1273.4548765290797
 30
0.0
 10
-7172.706303594558
 20
1267.5178412471732
 30
0.0
 10
-7159.363325448701
 20
1261.1504511384946
 30
0.0
 10
-7149.4267485453065
 20
1254.8487298388766
 30
0.0
 10
-7142.886537006067
 20
1248.7524066946767
 30
0.0
 10
-7139.728297730286
 20
1243.00079422146
 30
0.0
 10
-7139.933297011635
 20
1237.732661019655
 30
0.0
 10
-7145.189773961284
 20
1208.5183903907598
 30
0.0
 10
-7168.9320153335275
 20
1058.615777943842
 30
0.0
 10
-7172.960514783683
 20
1029.207014786325
 30
0.0
 10
-7174.3934915692935
 20
1024.133374114082
 30
0.0
 10
-7179.174501611537
 20
1019.6392151988714
 30
0.0
 10
-7187.278479871655
 20
1015.862303882308
 30
0.0
 10
-7198.676064917815
 20
1012.9395806114901
 30
0.0
 10
-7213.333623123737
 20
1011.0070410324473
 30
0.0
 10
-7228.417876555058
 20
1009.6656577203205
 30
0.0
 10
-7265.777855682784
 20
1005.553141227653
 30
0.0
 10
-7306.128397833219
 20
1000.2539869613398
 30
0.0
 10
-7349.434835063743
 20
993.6413094866207
 30
0.0
 10
-7395.658500632936
 20
985.5891832305244
 30
0.0
 10
-7444.75675449981
 20
975.9727537584171
 30
0.0
 10
-7496.683012280034
 20
964.6683511842666
 30
0.0
 10
-7551.386775814924
 20
951.5535958433356
 30
0.0
 10
-7608.813668272751
 20
936.5075125100832
 30
0.0
 10
-7668.905470991221
 20
919.4106366924548
 30
0.0
 10
-7687.146223481027
 20
913.8054178758047
 30
0.0
 10
-7703.637292419969
 20
809.6849063839475
 30
0.0
 10
-7709.154464496889
 20
704.4109918545257
 30
0.0
 10
-7692.477706734951
 20
695.1357948254712
 30
0.0
 10
-7637.253694441131
 20
665.9187384569695
 30
0.0
 10
-7584.209973988646
 20
639.2617258331513
 30
0.0
 10
-7533.428329908245
 20
615.060007398606
 30
0.0
 10
-7484.987103072912
 20
593.206556648234
 30
0.0
 10
-7438.9611317778
 20
573.5921686911836
 30
0.0
 10
-7395.421695388741
 20
556.1055602487049
 30
0.0
 10
-7354.436460670263
 20
540.6334710541314
 30
0.0
 10
-7316.069430838451
 20
527.0607665997447
 30
0.0
 10
-7280.380929500769
 20
515.270551962531
 30
0.0
 10
-7265.905160080722
 20
510.82227850528955
 30
0.0
 10
-7251.969702662162
 20
505.8844906268576
 30
0.0
 10
-7241.428850123335
 20
500.6559459297316
 30
0.0
 10
-7234.287227257374
 20
495.2766573432267
 30
0.0
 10
-7230.545081933661
 20
489.88667870306824
 30
0.0
 10
-7230.198288339624
 20
484.6259766263064
 30
0.0
 10
-7232.3722469442255
 20
455.02229337090694
 30
0.0
 10
-7240.315336115157
 20
303.4591231143723
 30
0.0
 10
-7241.247714204358
 20
273.7903713817226
 30
0.0
 10
-7242.14250113056
 20
268.5947377826477
 30
0.0
 10
-7246.427552774459
 20
263.6254467076233
 30
0.0
 10
-7254.092341857916
 20
259.0221293125523
 30
0.0
 10
-7265.121981968589
 20
254.92404497578391
 30
0.0
 10
-7279.497239144613
 20
251.46996001623896
 30
0.0
 10
-7294.358646721075
 20
248.55919111153136
 30
0.0
 10
-7331.08408894496
 20
240.5640222085774
 30
0.0
 10
-7370.659674151472
 20
231.0761171007932
 30
0.0
 10
-7413.037661173103
 20
219.9729092318727
 30
0.0
 10
-7458.166432282259
 20
207.1332046373694
 30
0.0
 10
-7505.990530182374
 20
192.43728994626454
 30
0.0
 10
-7556.450698660108
 20
175.76704214320765
 30
0.0
 10
-7609.483924032686
 20
157.00603046699456
 30
0.0
 10
-7665.023481995932
 20
136.03962633368593
 30
0.0
 10
-7722.998985375708
 20
112.75510519751722
 30
0.0
 10
-7740.5539082056275
 20
105.27391452942345
 30
0.0
 10
-7746.071080282547
 20
2.5011104298755527e-12
 30
0.0
 10
-7740.553908205629
 20
-105.27391452941919
 30
0.0
 10
-7722.998985375678
 20
-112.75510519752653
 30
0.0
 10
-7665.023481995983
 20
-136.0396263336634
 30
0.0
 10
-7609.483924029319
 20
-157.00603046826188
 30
0.0
 10
-7556.450698672162
 20
-175.76704213902588
 30
0.0
 10
-7505.99053032189
 20
-192.43729039972584
 30
0.0
 10
-7458.166432282224
 20
-207.13320463738114
 30
0.0
 10
-7413.037661173054
 20
-219.97290923186972
 30
0.0
 10
-7370.659674151671
 20
-231.0761171011775
 30
0.0
 10
-7331.084088984684
 20
-240.564022191964
 30
0.0
 10
-7294.358679973855
 20
-248.55918459861107
 30
0.0
 10
-7279.497239144637
 20
-251.4699600163289
 30
0.0
 10
-7265.121982241032
 20
-254.92404622721955
 30
0.0
 10
-7254.092341853004
 20
-259.0221292920086
 30
0.0
 10
-7246.427552774922
 20
-263.6254467093763
 30
0.0
 10
-7242.142501130538
 20
-268.59473778256927
 30
0.0
 10
-7241.247714204303
 20
-273.7903713814624
 30
0.0
 10
-7240.315336118453
 20
-303.4591231146509
 30
0.0
 10
-7232.372246940919
 20
-455.02229337083946
 30
0.0
 10
-7230.198288339707
 20
-484.62597662605356
 30
0.0
 10
-7230.54508193369
 20
-489.8866787029924
 30
0.0
 10
-7234.287227256731
 20
-495.2766573449218
 30
0.0
 10
-7241.428850130368
 20
-500.65594590981385
 30
0.0
 10
-7251.969702260401
 20
-505.88449184295973
 30
0.0
 10
-7265.90516008069
 20
-510.82227850537646
 30
0.0
 10
-7280.3808971109365
 20
-515.2705420094271
 30
0.0
 10
-7316.069430800682
 20
-527.0607665790701
 30
0.0
 10
-7354.436460670025
 20
-540.6334710544928
 30
0.0
 10
-7395.421695388789
 20
-556.105560248707
 30
0.0
 10
-7438.961131777834
 20
-573.592168691199
 30
0.0
 10
-7484.98710288676
 20
-593.2065570846279
 30
0.0
 10
-7533.428329896695
 20
-615.0600073931872
 30
0.0
 10
-7584.209973991863
 20
-639.2617258347638
 30
0.0
 10
-7637.253694441083
 20
-665.9187384569418
 30
0.0
 10
-7692.47770673498
 20
-695.1357948254835
 30
0.0
 10
-7709.154464496885
 20
-704.4109918545214
 30
0.0
 10
-7703.637292419965
 20
-809.684906383949
 30
0.0
 10
-7687.146223481026
 20
-913.8054178758034
 30
0.0
 10
-7668.905470991191
 20
-919.4106366924642
 30
0.0
 10
-7608.813668272804
 20
-936.5075125100695
 30
0.0
 10
-7551.386775811442
 20
-951.5535958442474
 30
0.0
 10
-7496.683012292458
 20
-964.6683511813711
 30
0.0
 10
-7444.7567545911625
 20
-975.9727542239812
 30
0.0
 10
-7395.6585006329
 20
-985.5891832305358
 30
0.0
 10
-7349.434835063695
 20
-993.6413094866161
 30
0.0
 10
-7306.128397833377
 20
-1000.2539869617461
 30
0.0
 10
-7265.777855724026
 20
-1005.553141215286
 30
0.0
 10
-7228.41791030646
 20
-1009.6656547189439
 30
0.0
 10
-7213.333623123752
 20
-1011.0070410325427
 30
0.0
 10
-7198.6760650579545
 20
-1012.9395818845514
 30
0.0
 10
-7187.278479868915
 20
-1015.8623038613665
 30
0.0
 10
-7179.174501611813
 20
-1019.6392152006663
 30
0.0
 10
-7174.39349156928
 20
-1024.133374114005
 30
0.0
 10
-7172.960514783655
 20
-1029.2070147860638
 30
0.0
 10
-7168.932015336777
 20
-1058.6157779444668
 30
0.0
 10
-7145.189773958002
 20
-1208.51839039035
 30
0.0
 10
-7139.933297011743
 20
-1237.7326610194157
 30
0.0
 10
-7139.728297730322
 20
-1243.000794221391
 30
0.0
 10
-7142.886537005249
 20
-1248.7524066962985
 30
0.0
 10
-7149.426748554382
 20
-1254.8487298198065
 30
0.0
 10
-7159.363324922024
 20
-1261.1504523059425
 30
0.0
 10
-7172.706303594515
 20
-1267.5178412472592
 30
0.0
 10
-7186.637770874402
 20
-1273.4548632448439
 30
0.0
 10
-7220.898384986596
 20
-1288.9109673135279
 30
0.0
 10
-7257.636502310705
 20
-1306.419765766085
 30
0.0
 10
-7296.779941918312
 20
-1326.0912208386387
 30
0.0
 10
-7338.253016410954
 20
-1348.0331461877151
 30
0.0
 10
-7381.97659055767
 20
-1372.3511089396552
 30
0.0
 10
-7427.868143879704
 20
-1399.148330779008
 30
0.0
 10
-7475.841832378014
 20
-1428.5255968941667
 30
0.0
 10
-7525.808557211853
 20
-1460.5811581965872
 30
0.0
 10
-7577.676032584814
 20
-1495.4106416138661
 30
0.0
 10
-7593.29191123084
 20
-1506.3782240042387
 30
0.0
 10
-7576.800842291899
 20
-1610.4987354960963
 30
0.0
 10
-7549.516556093202
 20
-1712.32507783786
 30
0.0
 10
-7530.789823444882
 20
-1715.992912852751
 30
0.0
 10
-7469.240099753402
 20
-1726.714826402616
 30
0.0
 10
-7410.5550538485
 20
-1735.6757408987683
 30
0.0
 10
-7354.7800980483025
 20
-1743.0005518983394
 30
0.0
 10
-7301.956665941626
 20
-1748.8152563175258
 30
0.0
 10
-7252.1221868096045
 20
-1753.2468404844167
 30
0.0
 10
-7205.310062933265
 20
-1756.423167621812
 30
0.0
 10
-7161.5496498827615
 20
-1758.4728648245552
 30
0.0
 10
-7120.866239814292
 20
-1759.5252095979274
 30
0.0
 10
-7083.281081370054
 20
-1759.710016640051
 30
0.0
 10
-7068.139214440818
 20
-1759.467317340376
 30
0.0
 10
-7053.359946486289
 20
-1759.8571395115177
 30
0.0
 10
-7041.719290824671
 20
-1761.5724784467625
 30
0.0
 10
-7033.264912270199
 20
-1764.4816030769912
 30
0.0
 10
-7028.040325576031
 20
-1768.4513908849578
 30
0.0
 10
-7026.08485892455
 20
-1773.3474507612518
 30
0.0
 10
-7019.0043751996
 20
-1802.1740167815267
 30
0.0
 10
-6979.723106584515
 20
-1948.773707026009
 30
0.0
 10
-6971.441702354621
 20
-1977.2784873664348
 30
0.0
 10
-6970.687156212822
 20
-1982.496332923658
 30
0.0
 10
-6973.226887109235
 20
-1988.5465633616666
 30
0.0
 10
-6979.094031407506
 20
-1995.2931284519111
 30
0.0
 10
-6988.317464802708
 20
-2002.5989845007596
 30
0.0
 10
-7000.921775860869
 20
-2010.3262132752734
 30
0.0
 10
-7014.15633731953
 20
-2017.6869465109844
 30
0.0
 10
-7046.613665396466
 20
-2036.6395897681348
 30
0.0
 10
-7081.320359673991
 20
-2057.8926521380295
 30
0.0
 10
-7118.19314045481
 20
-2081.5479485106302
 30
0.0
 10
-7157.14546536811
 20
-2107.704790440524
 30
0.0
 10
-7198.087597924516
 20
-2136.459894862204
 30
0.0
 10
-7240.92668009703
 20
-2167.9072922621986
 30
0.0
 10
-7285.566803228153
 20
-2202.1382425757943
 30
0.0
 10
-7331.909086553125
 20
-2239.2411451207704
 30
0.0
 10
-7379.851754090993
 20
-2279.3014564779287
 30
0.0
 10
-7394.235662786848
 20
-2291.841261101852
 30
0.0
 10
-7366.951376588157
 20
-2393.667603443616
 30
0.0
 10
-7329.172805478913
 20
-2492.0841459200624
 30
0.0
 10
-7310.165266673826
 20
-2493.7744115652167
 30
0.0
 10
-7247.831973662127
 20
-2498.003891318784
 30
0.0
 10
-7188.531739957254
 20
-2500.7814593225
 30
0.0
 10
-7132.296673963248
 20
-2502.2360738223915
 30
0.0
 10
-7079.154812027366
 20
-2502.497372499733
 30
0.0
 10
-7029.13010470349
 20
-2501.6955584634593
 30
0.0
 10
-6982.2424059452715
 20
-2499.9612859773624
 30
0.0
 10
-6938.50746531742
 20
-2497.4255459962383
 30
0.0
 10
-6897.936923244093
 20
-2494.2195515798885
 30
0.0
 10
-6860.538342634298
 20
-2490.4746273758515
 30
0.0
 10
-6845.504793421251
 20
-2488.650501527218
 30
0.0
 10
-6830.765740330459
 20
-2487.4933340442108
 30
0.0
 10
-6819.009551655653
 20
-2487.9824963255523
 30
0.0
 10
-6810.297400744447
 20
-2489.9919612684885
 30
0.0
 10
-6804.686479063782
 20
-2493.393884145127
 30
0.0
 10
-6802.229947048287
 20
-2498.0587209690843
 30
0.0
 10
-6792.175054306642
 20
-2525.9872599615665
 30
0.0
 10
-6737.785132254328
 20
-2667.677851120372
 30
0.0
 10
-6726.569533538535
 20
-2695.1608368337397
 30
0.0
 10
-6725.273707501787
 20
-2700.2712269383815
 30
0.0
 10
-6727.167104196513
 20
-2706.55378774872
 30
0.0
 10
-6732.29689958321
 20
-2713.8766780267633
 30
0.0
 10
-6740.706136139569
 20
-2722.106623150604
 30
0.0
 10
-6752.433684113826
 20
-2731.109030622835
 30
0.0
 10
-6764.826339126408
 20
-2739.8128293630093
 30
0.0
 10
-6795.124771889542
 20
-2762.0543626830054
 30
0.0
 10
-6827.419789315137
 20
-2786.8188359714227
 30
0.0
 10
-6861.617925366807
 20
-2814.1988012668244
 30
0.0
 10
-6897.622730877716
 20
-2844.28397994368
 30
0.0
 10
-6935.334851271832
 20
-2877.161179093663
 30
0.0
 10
-6974.65210834589
 20
-2912.9142077875954
 30
0.0
 10
-7015.469579579257
 20
-2951.623800844705
 30
0.0
 10
-7057.679685641505
 20
-2993.3675374676723
 30
0.0
 10
-7101.17227544609
 20
-3038.219767610322
 30
0.0
 10
-7114.16662107808
 20
-3052.194405744214
 30
0.0
 10
-7076.388049968837
 20
-3150.6109482206625
 30
0.0
 10
-7028.529103879788
 20
-3244.539418597433
 30
0.0
 10
-7009.449009490663
 20
-3244.233595968732
 30
0.0
 10
-6947.015083761061
 20
-3241.9243028607466
 30
0.0
 10
-6887.749368026059
 20
-3238.488092755733
 30
0.0
 10
-6831.67031498922
 20
-3234.056573695087
 30
0.0
 10
-6778.792256584151
 20
-3228.7616037875946
 30
0.0
 10
-6729.125402230205
 20
-3222.7351763905276
 30
0.0
 10
-6682.675840029584
 20
-3216.109305333216
 30
0.0
 10
-6639.4455409860275
 20
-3209.0159102660964
 30
0.0
 10
-6599.432366256729
 20
-3201.5867022057478
 30
0.0
 10
-6562.630110156695
 20
-3193.9530769288044
 30
0.0
 10
-6547.869589370988
 20
-3190.5675100357325
 30
0.0
 10
-6533.332235293942
 20
-3187.876031067673
 30
0.0
 10
-6521.58931686921
 20
-3187.1336573307935
 30
0.0
 10
-6512.714845749788
 20
-3188.2214464680137
 30
0.0
 10
-6506.779063514719
 20
-3191.0182322343903
 30
0.0
 10
-6503.848380414033
 20
-3195.400737077589
 30
0.0
 10
-6490.929242164693
 20
-3222.1252581246536
 30
0.0
 10
-6422.026574042978
 20
-3357.3543584303843
 30
0.0
 10
-6407.999661287833
 20
-3383.514440174033
 30
0.0
 10
-6406.176752697361
 20
-3388.461384322689
 30
0.0
 10
-6407.403070739994
 20
-3394.907442454409
 30
0.0
 10
-6411.739314103382
 20
-3402.7264268019517
 30
0.0
 10
-6419.24222046544
 20
-3411.790291999781
 30
0.0
 10
-6429.9645158860385
 20
-3421.969245909588
 30
0.0
 10
-6441.379487930896
 20
-3431.920749513842
 30
0.0
 10
-6469.187069410521
 20
-3457.20749000329
 30
0.0
 10
-6498.716579015104
 20
-3485.2120494585834
 30
0.0
 10
-6529.865388402623
 20
-3516.0167030473826
 30
0.0
 10
-6562.528198327474
 20
-3549.700598957889
 30
0.0
 10
-6596.597124676494
 20
-3586.339683362292
 30
0.0
 10
-6631.961788555926
 20
-3626.006625685988
 30
0.0
 10
-6668.509403135098
 20
-3668.7707510845744
 30
0.0
 10
-6706.124869179574
 20
-3714.6979686716536
 30
0.0
 10
-6744.690867335566
 20
-3763.8507071804192
 30
0.0
 10
-6756.153281133702
 20
-3779.107069764502
 30
0.0
 10
-6708.294335044653
 20
-3873.035540141272
 30
0.0
 10
-6650.879366604282
 20
-3961.4468384411243
 30
0.0
 10
-6631.935762138017
 20
-3959.1482781952855
 30
0.0
 10
-6570.085242845943
 20
-3950.3255133242883
 30
0.0
 10
-6511.503372664553
 20
-3940.7131729475295
 30
0.0
 10
-6456.194746425248
 20
-3930.4440729765297
 30
0.0
 10
-6404.159834624323
 20
-3919.650847282553
 30
0.0
 10
-6355.394993690067
 20
-3908.4658333243665
 30
0.0
 10
-6309.8924791707095
 20
-3897.020958125697
 30
0.0
 10
-6267.64046191429
 20
-3885.447624693325
 30
0.0
 10
-6228.623047244651
 20
-3873.8765989471485
 30
0.0
 10
-6192.820328873576
 20
-3862.4379081932725
 30
0.0
 10
-6178.494555869775
 20
-3857.527993235118
 30
0.0
 10
-6164.31817509988
 20
-3853.3316911888087
 30
0.0
 10
-6152.717184796846
 20
-3851.3659150357207
 30
0.0
 10
-6143.7776240318935
 20
-3851.5201103218033
 30
0.0
 10
-6137.582014914733
 20
-3853.6811168077957
 30
0.0
 10
-6134.209289906192
 20
-3857.7332740300753
 30
0.0
 10
-6118.567450931321
 20
-3882.960977686666
 30
0.0
 10
-6035.9069487909555
 20
-4010.2469888178634
 30
0.0
 10
-6019.222403787923
 20
-4034.797551261861
 30
0.0
 10
-6016.892384811714
 20
-4039.526849699224
 30
0.0
 10
-6017.438188405155
 20
-4046.0657807905104
 30
0.0
 10
-6020.933370955527
 20
-4054.2951927788126
 30
0.0
 10
-6027.447743711098
 20
-4064.093672446787
 30
0.0
 10
-6037.047310865625
 20
-4075.3376500450518
 30
0.0
 10
-6047.359535120298
 20
-4086.427827757411
 30
0.0
 10
-6072.371599634612
 20
-4114.482728595917
 30
0.0
 10
-6098.812069931509
 20
-4145.420550404364
 30
0.0
 10
-6126.570279780919
 20
-4179.312390055554
 30
0.0
 10
-6155.533233539043
 20
-4216.225955387306
 30
0.0
 10
-6185.585699556507
 20
-4256.225499570173
 30
0.0
 10
-6216.610307583319
 20
-4299.371756202694
 30
0.0
 10
-6248.4876421948875
 20
-4345.721881235921
 30
0.0
 10
-6281.096345304062
 20
-4395.32939158034
 30
0.0
 10
-6314.313214665211
 20
-4448.244110766248
 30
0.0
 10
-6324.118112025266
 20
-4464.615045899456
 30
0.0
 10
-6266.703143584891
 20
-4553.026344199309
 30
0.0
 10
-6200.3612032022775
 20
-4634.951817736813
 30
0.0
 10
-6181.761638753605
 20
-4630.685703380894
 30
0.0
 10
-6121.1721731314765
 20
-4615.446130805093
 30
0.0
 10
-6063.915983732451
 20
-4599.762974969269
 30
0.0
 10
-6009.9837571738335
 20
-4583.768804496143
 30
0.0
 10
-5959.362097359749
 20
-4567.5955758550135
 30
0.0
 10
-5912.0335476471555
 20
-4551.374520689248
 30
0.0
 10
-5867.9766158801485
 20
-4535.236033796891
 30
0.0
 10
-5827.165802353732
 20
-4519.309561862228
 30
0.0
 10
-5789.571630703791
 20
-4503.723493009691
 30
0.0
 10
-5755.16071213635
 20
-4488.605061468482
 30
0.0
 10
-5741.426643081345
 20
-4482.224592500993
 30
0.0
 10
-5727.766555012914
 20
-4476.5694429397845
 30
0.0
 10
-5716.434595709003
 20
-4473.401801825387
 30
0.0
 10
-5707.527888996985
 20
-4472.62071386451
 30
0.0
 10
-5701.140333387732
 20
-4474.122264630839
 30
0.0
 10
-5697.3625187523185
 20
-4477.799677949703
 30
0.0
 10
-5679.169354312989
 20
-4501.254164215322
 30
0.0
 10
-5583.656663913246
 20
-4619.202513997723
 30
0.0
 10
-5564.497286028846
 20
-4641.874576042397
 30
0.0
 10
-5561.68568484239
 20
-4646.334413585118
 30
0.0
 10
-5561.544994048253
 20
-4652.8945757385745
 30
0.0
 10
-5564.1608218341735
 20
-4661.444252207778
 30
0.0
 10
-5569.615288152127
 20
-4671.869992152192
 30
0.0
 10
-5577.986952174
 20
-4684.055802067394
 30
0.0
 10
-5587.083445751581
 20
-4696.163147580073
 30
0.0
 10
-5609.025955887655
 20
-4726.678833403186
 30
0.0
 10
-5632.087699551267
 20
-4760.210956314897
 30
0.0
 10
-5656.151185106681
 20
-4796.818655940936
 30
0.0
 10
-5681.0969585158155
 20
-4836.5574579475
 30
0.0
 10
-5706.803703095154
 20
-4879.47921853232
 30
0.0
 10
-5733.148343171487
 20
-4925.632070057065
 30
0.0
 10
-5760.006143066685
 20
-4975.060373055682
 30
0.0
 10
-5787.250815465487
 20
-5027.804665893069
 30
0.0
 10
-5814.754625059994
 20
-5083.9016210196005
 30
0.0
 10
-5822.794581474676
 20
-5101.207765310771
 30
0.0
 10
-5756.452641092066
 20
-5183.133238848275
 30
0.0
 10
-5681.910584948992
 20
-5257.675294991351
 30
0.0
 10
-5663.858841238223
 20
-5251.488366966975
 30
0.0
 10
-5605.194260150557
 20
-5229.9989546326
 30
0.0
 10
-5549.891062326579
 20
-5208.416811274957
 30
0.0
 10
-5497.926128208868
 20
-5186.8728057784065
 30
0.0
 10
-5449.2723418798105
 20
-5165.496771467581
 30
0.0
 10
-5403.898624883669
 20
-5144.417396369107
 30
0.0
 10
-5361.769972832957
 20
-5123.762114422651
 30
0.0
 10
-5322.84749484975
 20
-5103.656997745041
 30
0.0
 10
-5287.08845583119
 20
-5084.226650018087
 30
0.0
 10
-5254.446350292154
 20
-5065.594118389245
 30
0.0
 10
-5241.45445852055
 20
-5057.813001165628
 30
0.0
 10
-5228.460325937019
 20
-5050.760963091529
 30
0.0
 10
-5217.521552949728
 20
-5046.426162354743
 30
0.0
 10
-5208.745284033231
 20
-5044.718348910061
 30
0.0
 10
-5202.235765327824
 20
-5045.543992652309
 30
0.0
 10
-5198.094251593241
 20
-5048.806371557889
 30
0.0
 10
-5177.549089806215
 20
-5070.230668172841
 30
0.0
 10
-5070.230668170429
 20
-5177.549089803951
 30
0.0
 10
-5048.806371558121
 20
-5198.094251593107
 30
0.0
 10
-5045.543992652383
 20
-5202.235765327787
 30
0.0
 10
-5044.71834890845
 20
-5208.745284034058
 30
0.0
 10
-5046.426162373298
 20
-5217.521552939631
 30
0.0
 10
-5050.760961979234
 20
-5228.460326571927
 30
0.0
 10
-5057.813001165546
 20
-5241.454458520591
 30
0.0
 10
-5065.594100978836
 20
-5254.446321222527
 30
0.0
 10
-5084.226650003853
 20
-5287.088455790552
 30
0.0
 10
-5103.656997744623
 20
-5322.847494849858
 30
0.0
 10
-5123.762114422686
 20
-5361.76997283299
 30
0.0
 10
-5144.417396369123
 20
-5403.898624883702
 30
0.0
 10
-5165.49677103724
 20
-5449.272342079553
 30
0.0
 10
-5186.87280577345
 20
-5497.926128197111
 30
0.0
 10
-5208.41681127627
 20
-5549.891062329929
 30
0.0
 10
-5229.998954632583
 20
-5605.1942601505025
 30
0.0
 10
-5251.488366966991
 20
-5663.85884123825
 30
0.0
 10
-5257.675294991356
 20
-5681.910584948992
 30
0.0
 10
-5183.133238848281
 20
-5756.452641092069
 30
0.0
 10
-5101.2077653107735
 20
-5822.794581474675
 30
0.0
 10
-5083.901621019571
 20
-5814.75462505998
 30
0.0
 10
-5027.804665893117
 20
-5787.250815465512
 30
0.0
 10
-4975.060373052485
 20
-5760.006143065031
 30
0.0
 10
-4925.632070068236
 20
-5733.148343177648
 30
0.0
 10
-4879.479218288686
 20
-5706.803703502261
 30
0.0
 10
-4836.557457947465
 20
-5681.096958515798
 30
0.0
 10
-4796.818655940904
 20
-5656.151185106644
 30
0.0
 10
-4760.210956314742
 20
-5632.087699551674
 30
0.0
 10
-4726.678833442111
 20
-5609.0259559060605
 30
0.0
 10
-4696.163174670567
 20
-5587.0834661052195
 30
0.0
 10
-4684.0558020673425
 20
-5577.986952174079
 30
0.0
 10
-4671.869991404493
 20
-5569.615289191966
 30
0.0
 10
-4661.444252219757
 20
-5564.160821816778
 30
0.0
 10
-4652.8945757375795
 20
-5561.544994049772
 30
0.0
 10
-4646.33441358516
 20
-5561.685684842323
 30
0.0
 10
-4641.874576042552
 20
-5564.497286028632
 30
0.0
 10
-4619.2025139997195
 20
-5583.656663915884
 30
0.0
 10
-4501.254164213157
 20
-5679.169354310487
 30
0.0
 10
-4477.799677949945
 20
-5697.362518752212
 30
0.0
 10
-4474.122264630914
 20
-5701.140333387705
 30
0.0
 10
-4472.620713862819
 20
-5707.527888997642
 30
0.0
 10
-4473.401801844892
 20
-5716.434595700902
 30
0.0
 10
-4476.569441767213
 20
-5727.766555528079
 30
0.0
 10
-4482.224592500904
 20
-5741.426643081379
 30
0.0
 10
-4488.60504719205
 20
-5755.160681406089
 30
0.0
 10
-4503.72349299978
 20
-5789.571630661891
 30
0.0
 10
-4519.309561861798
 20
-5827.165802353798
 30
0.0
 10
-4535.23603379692
 20
-5867.976615880188
 30
0.0
 10
-4551.374520689257
 20
-5912.033547647193
 30
0.0
 10
-4567.595575406149
 20
-5959.362097513416
 30
0.0
 10
-4583.76880449244
 20
-6009.983757161624
 30
0.0
 10
-4599.762974970221
 20
-6063.915983735922
 30
0.0
 10
-4615.44613080508
 20
-6121.172173131424
 30
0.0
 10
-4630.685703380901
 20
-6181.761638753636
 30
0.0
 10
-4634.951817736814
 20
-6200.361203202277
 30
0.0
 10
-4553.026344199309
 20
-6266.703143584887
 30
0.0
 10
-4464.615045899459
 20
-6324.11811202526
 30
0.0
 10
-4448.244110766224
 20
-6314.3132146651915
 30
0.0
 10
-4395.32939158039
 20
-6281.09634530409
 30
0.0
 10
-4345.721881232917
 20
-6248.487642192907
 30
0.0
 10
-4299.371756213163
 20
-6216.610307590613
 30
0.0
 10
-4256.225499285322
 20
-6185.585699935916
 30
0.0
 10
-4216.225955387276
 20
-6155.53323353902
 30
0.0
 10
-4179.312390055529
 20
-6126.570279780878
 30
0.0
 10
-4145.420550404171
 20
-6098.812069931895
 30
0.0
 10
-4114.482728632708
 20
-6072.371599656984
 30
0.0
 10
-4086.427852571968
 20
-6047.359558194164
 30
0.0
 10
-4075.337650044994
 20
-6037.047310865698
 30
0.0
 10
-4064.093671594492
 20
-6027.447744667084
 30
0.0
 10
-4054.2951927925455
 20
-6020.933370939478
 30
0.0
 10
-4046.0657807893645
 20
-6017.43818840656
 30
0.0
 10
-4039.526849699275
 20
-6016.892384811651
 30
0.0
 10
-4034.797551262039
 20
-6019.222403787726
 30
0.0
 10
-4010.246988819576
 20
-6035.906948793786
 30
0.0
 10
-3882.960977684777
 20
-6118.5674509286055
 30
0.0
 10
-3857.733274030329
 20
-6134.20928990611
 30
0.0
 10
-3853.6811168078752
 20
-6137.582014914713
 30
0.0
 10
-3851.5201103200543
 20
-6143.77762403237
 30
0.0
 10
-3851.3659150559683
 20
-6152.7171847908285
 30
0.0
 10
-3853.3316899688125
 20
-6164.318175489656
 30
0.0
 10
-3857.5279932350286
 20
-6178.494555869799
 30
0.0
 10
-3862.4378972072373
 20
-6192.820296819364
 30
0.0
 10
-3873.8765989416743
 20
-6228.623047201943
 30
0.0
 10
-3885.447624692893
 20
-6267.64046191431
 30
0.0
 10
-3897.0209581257236
 20
-6309.8924791707495
 30
0.0
 10
-3908.465833324374
 20
-6355.394993690104
 30
0.0
 10
-3919.650846820086
 20
-6404.159834730229
 30
0.0
 10
-3930.444072974124
 20
-6456.194746412719
 30
0.0
 10
-3940.713172948116
 20
-6511.503372668103
 30
0.0
 10
-3950.325513324283
 20
-6570.085242845887
 30
0.0
 10
-3959.148278195293
 20
-6631.935762138048
 30
0.0
 10
-3961.4468384411266
 20
-6650.8793666042775
 30
0.0
 10
-3873.03554014127
 20
-6708.294335044654
 30
0.0
 10
-3779.107069764502
 20
-6756.153281133705
 30
0.0
 10
-3763.8507071803906
 20
-6744.6908673355465
 30
0.0
 10
-3714.6979686716927
 20
-6706.124869179609
 30
0.0
 10
-3668.7707510817877
 20
-6668.509403132818
 30
0.0
 10
-3626.0066256956306
 20
-6631.961788564277
 30
0.0
 10
-3586.3396830393353
 20
-6596.597125024052
 30
0.0
 10
-3549.700598957855
 20
-6562.528198327452
 30
0.0
 10
-3516.016703047356
 20
-6529.865388402582
 30
0.0
 10
-3485.212049458345
 20
-6498.716579015471
 30
0.0
 10
-3457.207490037534
 20
-6469.187069436618
 30
0.0
 10
-3431.920771780581
 20
-6441.37951347219
 30
0.0
 10
-3421.9692459095168
 20
-6429.964515886107
 30
0.0
 10
-3411.7902910522216
 20
-6419.242221327102
 30
0.0
 10
-3402.7264268172817
 20
-6411.739314088858
 30
0.0
 10
-3394.907442453117
 20
-6407.403070741273
 30
0.0
 10
-3388.4613843227403
 20
-6406.176752697305
 30
0.0
 10
-3383.5144401742255
 20
-6407.999661287657
 30
0.0
 10
-3357.354358431786
 20
-6422.0265740459745
 30
0.0
 10
-3222.1252581230533
 20
-6490.929242161798
 30
0.0
 10
-3195.400737077844
 20
-6503.8483804139805
 30
0.0
 10
-3191.0182322344654
 20
-6506.779063514709
 30
0.0
 10
-3188.221446466219
 20
-6512.71484575008
 30
0.0
 10
-3187.1336573515537
 20
-6521.589316865344
 30
0.0
 10
-3187.876029813612
 20
-6533.33223555406
 30
0.0
 10
-3190.567510035635
 20
-6547.869589371005
 30
0.0
 10
-3193.953069353524
 20
-6562.630077129728
 30
0.0
 10
-3201.586702204762
 20
-6599.432366213685
 30
0.0
 10
-3209.015910265659
 20
-6639.445540986004
 30
0.0
 10
-3216.1093053332324
 20
-6682.6758400296285
 30
0.0
 10
-3222.735176390526
 20
-6729.125402230245
 30
0.0
 10
-3228.761603316585
 20
-6778.792256641138
 30
0.0
 10
-3234.056573693999
 20
-6831.67031497651
 30
0.0
 10
-3238.4880927559393
 20
-6887.749368029654
 30
0.0
 10
-3241.9243028607407
 20
-6947.015083761007
 30
0.0
 10
-3244.2335959687302
 20
-7009.449009490697
 30
0.0
 10
-3244.539418597431
 20
-7028.529103879787
 30
0.0
 10
-3150.6109482206602
 20
-7076.388049968835
 30
0.0
 10
-3052.1944057442147
 20
-7114.166621078079
 30
0.0
 10
-3038.2197676102983
 20
-7101.172275446068
 30
0.0
 10
-2993.3675374677105
 20
-7057.679685641544
 30
0.0
 10
-2951.623800842174
 20
-7015.469579576697
 30
0.0
 10
-2912.9142077963156
 20
-6974.652108355202
 30
0.0
 10
-2877.1611787361494
 20
-6935.334851583727
 30
0.0
 10
-2844.2839799436524
 20
-6897.62273087769
 30
0.0
 10
-2814.1988012668044
 20
-6861.617925366762
 30
0.0
 10
-2786.81883597115
 20
-6827.419789315476
 30
0.0
 10
-2762.0543627143365
 20
-6795.124771919075
 30
0.0
 10
-2739.8128488379793
 20
-6764.826366855292
 30
0.0
 10
-2731.1090306227593
 20
-6752.433684113885
 30
0.0
 10
-2722.10662211817
 20
-6740.706136897463
 30
0.0
 10
-2713.87667804353
 20
-6732.296899570367
 30
0.0
 10
-2706.553787747304
 20
-6727.16710419765
 30
0.0
 10
-2700.2712269384415
 20
-6725.273707501736
 30
0.0
 10
-2695.1608368339516
 20
-6726.56953353838
 30
0.0
 10
-2667.6778511214557
 20
-6737.785132257453
 30
0.0
 10
-2525.9872599602804
 20
-6792.175054303594
 30
0.0
 10
-2498.0587209693463
 20
-6802.229947048259
 30
0.0
 10
-2493.393884145205
 20
-6804.686479063779
 30
0.0
 10
-2489.9919612666754
 20
-6810.29740074455
 30
0.0
 10
-2487.9824963466053
 20
-6819.009551653978
 30
0.0
 10
-2487.4933327698327
 20
-6830.765740458067
 30
0.0
 10
-2488.650501527122
 20
-6845.504793421257
 30
0.0
 10
-2490.47462329433
 20
-6860.538308996423
 30
0.0
 10
-2494.219551583411
 20
-6897.936923201181
 30
0.0
 10
-2497.425545995809
 20
-6938.507465317351
 30
0.0
 10
-2499.961285977377
 20
-6982.242405945317
 30
0.0
 10
-2501.695558463456
 20
-7029.130104703529
 30
0.0
 10
-2502.49737202535
 20
-7079.154812034805
 30
0.0
 10
-2502.236073822641
 20
-7132.296673950493
 30
0.0
 10
-2500.781459322332
 20
-7188.531739960849
 30
0.0
 10
-2498.003891318787
 20
-7247.831973662072
 30
0.0
 10
-2493.7744115652145
 20
-7310.165266673858
 30
0.0
 10
-2492.0841459200633
 20
-7329.172805478912
 30
0.0
 10
-2393.6676034436177
 20
-7366.951376588155
 30
0.0
 10
-2291.841261101854
 20
-7394.2356627868485
 30
0.0
 10
-2279.301456477908
 20
-7379.851754090969
 30
0.0
 10
-2239.241145120805
 20
-7331.909086553167
 30
0.0
 10
-2202.138242573545
 20
-7285.5668032253425
 30
0.0
 10
-2167.907292269898
 20
-7240.926680107203
 30
0.0
 10
-2136.459894474046
 20
-7198.087598197331
 30
0.0
 10
-2107.704790440499
 20
-7157.14546536808
 30
0.0
 10
-2081.5479485106157
 20
-7118.193140454764
 30
0.0
 10
-2057.8926521377225
 20
-7081.3203596743
 30
0.0
 10
-2036.6395897962075
 20
-7046.613665429111
 30
0.0
 10
-2017.6869629808111
 20
-7014.1563669322
 30
0.0
 10
-2010.3262132751925
 20
-7000.921775860921
 30
0.0
 10
-2002.59898339476
 20
-6988.317465448532
 30
0.0
 10
-1995.2931284699284
 20
-6979.094031396485
 30
0.0
 10
-1988.5465633601393
 20
-6973.226887110217
 30
0.0
 10
-1982.496332923723
 20
-6970.687156212777
 30
0.0
 10
-1977.278487366662
 20
-6971.4417023544875
 30
0.0
 10
-1948.77370702676
 20
-6979.723106587737
 30
0.0
 10
-1802.174016780566
 20
-7019.004375196435
 30
0.0
 10
-1773.347450761515
 20
-7026.084858924551
 30
0.0
 10
-1768.4513908850363
 20
-7028.040325576036
 30
0.0
 10
-1764.4816030751776
 20
-7033.2649122701105
 30
0.0
 10
-1761.5724784678757
 20
-7041.719290825204
 30
0.0
 10
-1759.8571382307825
 20
-7053.359946479988
 30
0.0
 10
-1759.4673173402798
 20
-7068.139214440814
 30
0.0
 10
-1759.710016097004
 20
-7083.281047489816
 30
0.0
 10
-1759.5252096059157
 20
-7120.866239771984
 30
0.0
 10
-1758.4728648241348
 20
-7161.549649882647
 30
0.0
 10
-1756.423167621822
 20
-7205.310062933311
 30
0.0
 10
-1753.2468404844099
 20
-7252.122186809642
 30
0.0
 10
-1748.815255844964
 20
-7301.956665899439
 30
0.0
 10
-1743.0005518999205
 20
-7354.780098035643
 30
0.0
 10
-1735.675740898226
 20
-7410.555053852059
 30
0.0
 10
-1726.7148264026243
 20
-7469.240099753349
 30
0.0
 10
-1715.9929128527451
 20
-7530.789823444913
 30
0.0
 10
-1712.3250778378615
 20
-7549.516556093202
 30
0.0
 10
-1610.4987354960913
 20
-7576.800842291895
 30
0.0
 10
-1506.378224004236
 20
-7593.291911230834
 30
0.0
 10
-1495.4106416138447
 20
-7577.676032584788
 30
0.0
 10
-1460.5811581966136
 20
-7525.808557211901
 30
0.0
 10
-1428.5255968922206
 20
-7475.841832374985
 30
0.0
 10
-1399.1483307855983
 20
-7427.868143890627
 30
0.0
 10
-1372.3511085251039
 20
-7381.976590788418
 30
0.0
 10
-1348.0331461876901
 20
-7338.253016410924
 30
0.0
 10
-1326.0912208386253
 20
-7296.779941918266
 30
0.0
 10
-1306.4197657657446
 20
-7257.63650231098
 30
0.0
 10
-1288.910967338031
 20
-7220.898385021999
 30
0.0
 10
-1273.454876529077
 20
-7186.637802046418
 30
0.0
 10
-1267.5178412471705
 20
-7172.706303594559
 30
0.0
 10
-1261.150451138492
 20
-7159.363325448702
 30
0.0
 10
-1254.8487298388739
 20
-7149.426748545307
 30
0.0
 10
-1248.752406694674
 20
-7142.886537006068
 30
0.0
 10
-1243.0007942214572
 20
-7139.728297730286
 30
0.0
 10
-1237.7326610196526
 20
-7139.933297011636
 30
0.0
 10
-1208.518390390757
 20
-7145.189773961285
 30
0.0
 10
-1058.6157779438392
 20
-7168.932015333528
 30
0.0
 10
-1029.2070147863224
 20
-7172.960514783685
 30
0.0
 10
-1024.1333741140793
 20
-7174.3934915692935
 30
0.0
 10
-1019.6392151988687
 20
-7179.174501611538
 30
0.0
 10
-1015.8623038823052
 20
-7187.278479871656
 30
0.0
 10
-1012.9395806114874
 20
-7198.676064917816
 30
0.0
 10
-1011.0070410324447
 20
-7213.333623123738
 30
0.0
 10
-1009.6656577203178
 20
-7228.417876555058
 30
0.0
 10
-1005.5531412276501
 20
-7265.777855682785
 30
0.0
 10
-1000.2539869613371
 20
-7306.12839783322
 30
0.0
 10
-993.641309486618
 20
-7349.434835063744
 30
0.0
 10
-985.5891832305215
 20
-7395.658500632937
 30
0.0
 10
-975.9727537584143
 20
-7444.756754499811
 30
0.0
 10
-964.6683511842638
 20
-7496.683012280035
 30
0.0
 10
-951.5535958433328
 20
-7551.3867758149245
 30
0.0
 10
-936.5075125100803
 20
-7608.813668272752
 30
0.0
 10
-919.4106366924518
 20
-7668.905470991222
 30
0.0
 10
-913.8054178758003
 20
-7687.14622348102
 30
0.0
 10
-809.6849063839464
 20
-7703.63729241996
 30
0.0
 10
-704.4109918545262
 20
-7709.154464496889
 30
0.0
 10
-695.1357948254716
 20
-7692.477706734951
 30
0.0
 10
-665.91873845697
 20
-7637.253694441131
 30
0.0
 10
-639.2617258331518
 20
-7584.209973988646
 30
0.0
 10
-615.0600073986064
 20
-7533.428329908245
 30
0.0
 10
-593.2065566482345
 20
-7484.987103072912
 30
0.0
 10
-573.592168691184
 20
-7438.9611317778
 30
0.0
 10
-556.1055602487054
 20
-7395.421695388741
 30
0.0
 10
-540.6334710541319
 20
-7354.436460670263
 30
0.0
 10
-527.0607665997452
 20
-7316.069430838451
 30
0.0
 10
-515.2705519625315
 20
-7280.380929500769
 30
0.0
 10
-510.82227850528994
 20
-7265.905160080722
 30
0.0
 10
-505.884490626858
 20
-7251.969702662162
 30
0.0
 10
-500.655945929732
 20
-7241.428850123335
 30
0.0
 10
-495.2766573432271
 20
-7234.287227257374
 30
0.0
 10
-489.88667870306864
 20
-7230.545081933661
 30
0.0
 10
-484.6259766263068
 20
-7230.198288339624
 30
0.0
 10
-455.02229337090733
 20
-7232.3722469442255
 30
0.0
 10
-303.4591231143727
 20
-7240.315336115157
 30
0.0
 10
-273.790371381723
 20
-7241.247714204358
 30
0.0
 10
-268.5947377826481
 20
-7242.14250113056
 30
0.0
 10
-263.6254467076237
 20
-7246.427552774459
 30
0.0
 10
-259.0221293125527
 20
-7254.092341857916
 30
0.0
 10
-254.92404497578437
 20
-7265.121981968589
 30
0.0
 10
-251.4699600162394
 20
-7279.497239144613
 30
0.0
 10
-248.55919111153182
 20
-7294.358646721075
 30
0.0
 10
-240.56402220857782
 20
-7331.08408894496
 30
0.0
 10
-231.07611710079365
 20
-7370.659674151472
 30
0.0
 10
-219.97290923187316
 20
-7413.037661173103
 30
0.0
 10
-207.13320463736986
 20
-7458.166432282259
 30
0.0
 10
-192.43728994626503
 20
-7505.990530182374
 30
0.0
 10
-175.7670421432081
 20
-7556.450698660108
 30
0.0
 10
-157.006030466995
 20
-7609.483924032686
 30
0.0
 10
-136.0396263336864
 20
-7665.023481995932
 30
0.0
 10
-112.7551051975177
 20
-7722.998985375708
 30
0.0
 10
-105.2739145294239
 20
-7740.5539082056275
 30
0.0
 10
3.979039320256561e-12
 20
-7746.071080282548
 30
0.0
 10
105.27391452942544
 20
-7740.553908205627
 30
0.0
 10
112.75510519753279
 20
-7722.998985375678
 30
0.0
 10
136.03962633366976
 20
-7665.023481995982
 30
0.0
 10
157.00603046826814
 20
-7609.483924029319
 30
0.0
 10
175.76704213903213
 20
-7556.450698672162
 30
0.0
 10
192.43729039973198
 20
-7505.990530321889
 30
0.0
 10
207.13320463738728
 20
-7458.1664322822235
 30
0.0
 10
219.97290923187597
 20
-7413.0376611730535
 30
0.0
 10
231.0761171011835
 20
-7370.659674151671
 30
0.0
 10
240.56402219197003
 20
-7331.084088984684
 30
0.0
 10
248.55918459861698
 20
-7294.358679973855
 30
0.0
 10
251.46996001633488
 20
-7279.497239144636
 30
0.0
 10
254.92404622722552
 20
-7265.121982241031
 30
0.0
 10
259.02212929201454
 20
-7254.092341853003
 30
0.0
 10
263.6254467093823
 20
-7246.427552774921
 30
0.0
 10
268.59473778257524
 20
-7242.142501130538
 30
0.0
 10
273.7903713814684
 20
-7241.247714204302
 30
0.0
 10
303.45912311465685
 20
-7240.315336118453
 30
0.0
 10
455.0222933708454
 20
-7232.372246940918
 30
0.0
 10
484.62597662605947
 20
-7230.198288339707
 30
0.0
 10
489.8866787029985
 20
-7230.545081933691
 30
0.0
 10
495.2766573449277
 20
-7234.28722725673
 30
0.0
 10
500.6559459098199
 20
-7241.428850130367
 30
0.0
 10
505.88449184296576
 20
-7251.9697022604005
 30
0.0
 10
510.8222785053824
 20
-7265.905160080689
 30
0.0
 10
515.2705420094331
 20
-7280.3808971109365
 30
0.0
 10
527.0607665790762
 20
-7316.069430800681
 30
0.0
 10
540.6334710544988
 20
-7354.436460670024
 30
0.0
 10
556.1055602487132
 20
-7395.421695388788
 30
0.0
 10
573.5921686912052
 20
-7438.9611317778335
 30
0.0
 10
593.206557084634
 20
-7484.987102886759
 30
0.0
 10
615.0600073931935
 20
-7533.428329896694
 30
0.0
 10
639.2617258347699
 20
-7584.209973991862
 30
0.0
 10
665.9187384569482
 20
-7637.253694441082
 30
0.0
 10
695.1357948254898
 20
-7692.47770673498
 30
0.0
 10
704.4109918545271
 20
-7709.154464496877
 30
0.0
 10
809.6849063839479
 20
-7703.637292419956
 30
0.0
 10
913.8054178758033
 20
-7687.146223481027
 30
0.0
 10
919.4106366924635
 20
-7668.905470991191
 30
0.0
 10
936.5075125100689
 20
-7608.813668272803
 30
0.0
 10
951.5535958442467
 20
-7551.386775811442
 30
0.0
 10
964.6683511813707
 20
-7496.683012292458
 30
0.0
 10
975.9727542239805
 20
-7444.7567545911625
 30
0.0
 10
985.5891832305351
 20
-7395.6585006329
 30
0.0
 10
993.6413094866155
 20
-7349.434835063695
 30
0.0
 10
1000.2539869617455
 20
-7306.128397833377
 30
0.0
 10
1005.5531412152853
 20
-7265.777855724026
 30
0.0
 10
1009.6656547189432
 20
-7228.41791030646
 30
0.0
 10
1011.007041032542
 20
-7213.333623123752
 30
0.0
 10
1012.939581884551
 20
-7198.6760650579545
 30
0.0
 10
1015.8623038613661
 20
-7187.278479868915
 30
0.0
 10
1019.6392152006658
 20
-7179.174501611813
 30
0.0
 10
1024.1333741140043
 20
-7174.39349156928
 30
0.0
 10
1029.2070147860634
 20
-7172.960514783655
 30
0.0
 10
1058.6157779444663
 20
-7168.932015336777
 30
0.0
 10
1208.5183903903496
 20
-7145.189773958002
 30
0.0
 10
1237.732661019415
 20
-7139.933297011743
 30
0.0
 10
1243.0007942213902
 20
-7139.728297730322
 30
0.0
 10
1248.7524066962978
 20
-7142.886537005249
 30
0.0
 10
1254.8487298198058
 20
-7149.426748554382
 30
0.0
 10
1261.1504523059418
 20
-7159.363324922024
 30
0.0
 10
1267.5178412472587
 20
-7172.706303594515
 30
0.0
 10
1273.4548632448432
 20
-7186.637770874402
 30
0.0
 10
1288.9109673135272
 20
-7220.898384986596
 30
0.0
 10
1306.4197657660845
 20
-7257.636502310705
 30
0.0
 10
1326.091220838638
 20
-7296.779941918312
 30
0.0
 10
1348.0331461877147
 20
-7338.253016410954
 30
0.0
 10
1372.3511089396545
 20
-7381.97659055767
 30
0.0
 10
1399.1483307790072
 20
-7427.868143879704
 30
0.0
 10
1428.5255968941663
 20
-7475.841832378014
 30
0.0
 10
1460.5811581965866
 20
-7525.808557211853
 30
0.0
 10
1495.4106416138657
 20
-7577.676032584814
 30
0.0
 10
1506.3782240042387
 20
-7593.291911230841
 30
0.0
 10
1610.4987354960926
 20
-7576.8008422919
 30
0.0
 10
1712.3250778378565
 20
-7549.516556093203
 30
0.0
 10
1715.992912852747
 20
-7530.789823444882
 30
0.0
 10
1726.714826402612
 20
-7469.240099753403
 30
0.0
 10
1735.6757408987646
 20
-7410.555053848501
 30
0.0
 10
1743.0005518983355
 20
-7354.7800980483025
 30
0.0
 10
1748.8152563175222
 20
-7301.956665941626
 30
0.0
 10
1753.246840484413
 20
-7252.122186809605
 30
0.0
 10
1756.423167621808
 20
-7205.310062933266
 30
0.0
 10
1758.4728648245512
 20
-7161.549649882762
 30
0.0
 10
1759.5252095979238
 20
-7120.866239814293
 30
0.0
 10
1759.7100166400471
 20
-7083.281081370055
 30
0.0
 10
1759.4673173403723
 20
-7068.139214440819
 30
0.0
 10
1759.8571395115146
 20
-7053.359946486289
 30
0.0
 10
1761.5724784467589
 20
-7041.719290824672
 30
0.0
 10
1764.4816030769875
 20
-7033.2649122702
 30
0.0
 10
1768.4513908849542
 20
-7028.040325576031
 30
0.0
 10
1773.3474507612482
 20
-7026.08485892455
 30
0.0
 10
1802.174016781523
 20
-7019.004375199601
 30
0.0
 10
1948.7737070260055
 20
-6979.723106584516
 30
0.0
 10
1977.2784873664311
 20
-6971.441702354621
 30
0.0
 10
1982.496332923654
 20
-6970.687156212822
 30
0.0
 10
1988.546563361663
 20
-6973.226887109236
 30
0.0
 10
1995.2931284519075
 20
-6979.094031407505
 30
0.0
 10
2002.5989845007557
 20
-6988.317464802709
 30
0.0
 10
2010.3262132752698
 20
-7000.92177586087
 30
0.0
 10
2017.6869465109808
 20
-7014.15633731953
 30
0.0
 10
2036.6395897681311
 20
-7046.613665396466
 30
0.0
 10
2057.8926521380254
 20
-7081.320359673992
 30
0.0
 10
2081.5479485106266
 20
-7118.19314045481
 30
0.0
 10
2107.7047904405204
 20
-7157.145465368111
 30
0.0
 10
2136.4598948621997
 20
-7198.087597924517
 30
0.0
 10
2167.907292262195
 20
-7240.926680097031
 30
0.0
 10
2202.1382425757906
 20
-7285.566803228154
 30
0.0
 10
2239.2411451207668
 20
-7331.909086553126
 30
0.0
 10
2279.3014564779246
 20
-7379.851754090994
 30
0.0
 10
2291.8412611018484
 20
-7394.2356627868485
 30
0.0
 10
2393.6676034436186
 20
-7366.951376588157
 30
0.0
 10
2492.0841459200647
 20
-7329.172805478913
 30
0.0
 10
2493.774411565219
 20
-7310.165266673826
 30
0.0
 10
2498.003891318787
 20
-7247.831973662126
 30
0.0
 10
2500.7814593225025
 20
-7188.531739957253
 30
0.0
 10
2502.2360738223942
 20
-7132.2966739632475
 30
0.0
 10
2502.497372499736
 20
-7079.154812027365
 30
0.0
 10
2501.695558463462
 20
-7029.130104703489
 30
0.0
 10
2499.9612859773647
 20
-6982.242405945271
 30
0.0
 10
2497.4255459962415
 20
-6938.50746531742
 30
0.0
 10
2494.2195515798912
 20
-6897.936923244092
 30
0.0
 10
2490.474627375854
 20
-6860.538342634297
 30
0.0
 10
2488.65050152722
 20
-6845.504793421252
 30
0.0
 10
2487.4933340442135
 20
-6830.765740330458
 30
0.0
 10
2487.9824963255546
 20
-6819.009551655652
 30
0.0
 10
2489.9919612684907
 20
-6810.297400744446
 30
0.0
 10
2493.3938841451295
 20
-6804.686479063781
 30
0.0
 10
2498.058720969087
 20
-6802.229947048286
 30
0.0
 10
2525.9872599615687
 20
-6792.175054306641
 30
0.0
 10
2667.6778511203747
 20
-6737.785132254327
 30
0.0
 10
2695.160836833742
 20
-6726.569533538535
 30
0.0
 10
2700.2712269383837
 20
-6725.273707501786
 30
0.0
 10
2706.5537877487222
 20
-6727.167104196512
 30
0.0
 10
2713.8766780267656
 20
-6732.296899583209
 30
0.0
 10
2722.106623150606
 20
-6740.706136139568
 30
0.0
 10
2731.109030622837
 20
-6752.433684113825
 30
0.0
 10
2739.8128293630116
 20
-6764.826339126407
 30
0.0
 10
2762.054362683008
 20
-6795.124771889541
 30
0.0
 10
2786.8188359714254
 20
-6827.419789315136
 30
0.0
 10
2814.198801266827
 20
-6861.617925366806
 30
0.0
 10
2844.2839799436824
 20
-6897.622730877715
 30
0.0
 10
2877.1611790936654
 20
-6935.334851271831
 30
0.0
 10
2912.914207787598
 20
-6974.652108345889
 30
0.0
 10
2951.623800844707
 20
-7015.469579579256
 30
0.0
 10
2993.3675374676745
 20
-7057.679685641505
 30
0.0
 10
3038.219767610324
 20
-7101.172275446089
 30
0.0
 10
3052.194405744215
 20
-7114.166621078076
 30
0.0
 10
3150.6109482206607
 20
-7076.388049968832
 30
0.0
 10
3244.539418597433
 20
-7028.529103879788
 30
0.0
 10
3244.233595968732
 20
-7009.449009490663
 30
0.0
 10
3241.9243028607466
 20
-6947.015083761061
 30
0.0
 10
3238.488092755733
 20
-6887.749368026059
 30
0.0
 10
3234.056573695087
 20
-6831.67031498922
 30
0.0
 10
3228.7616037875946
 20
-6778.792256584151
 30
0.0
 10
3222.7351763905276
 20
-6729.125402230205
 30
0.0
 10
3216.109305333216
 20
-6682.675840029584
 30
0.0
 10
3209.0159102660964
 20
-6639.4455409860275
 30
0.0
 10
3201.5867022057478
 20
-6599.432366256729
 30
0.0
 10
3193.9530769288044
 20
-6562.630110156695
 30
0.0
 10
3190.5675100357325
 20
-6547.869589370988
 30
0.0
 10
3187.876031067673
 20
-6533.332235293942
 30
0.0
 10
3187.1336573307935
 20
-6521.58931686921
 30
0.0
 10
3188.2214464680137
 20
-6512.714845749788
 30
0.0
 10
3191.0182322343903
 20
-6506.779063514719
 30
0.0
 10
3195.400737077589
 20
-6503.848380414033
 30
0.0
 10
3222.1252581246536
 20
-6490.929242164693
 30
0.0
 10
3357.3543584303843
 20
-6422.026574042978
 30
0.0
 10
3383.514440174033
 20
-6407.999661287833
 30
0.0
 10
3388.461384322689
 20
-6406.176752697361
 30
0.0
 10
3394.907442454409
 20
-6407.403070739994
 30
0.0
 10
3402.7264268019517
 20
-6411.739314103382
 30
0.0
 10
3411.790291999781
 20
-6419.24222046544
 30
0.0
 10
3421.969245909588
 20
-6429.9645158860385
 30
0.0
 10
3431.920749513842
 20
-6441.379487930896
 30
0.0
 10
3457.20749000329
 20
-6469.187069410521
 30
0.0
 10
3485.2120494585834
 20
-6498.716579015104
 30
0.0
 10
3516.0167030473826
 20
-6529.865388402623
 30
0.0
 10
3549.700598957889
 20
-6562.528198327474
 30
0.0
 10
3586.339683362292
 20
-6596.597124676494
 30
0.0
 10
3626.006625685988
 20
-6631.961788555926
 30
0.0
 10
3668.7707510845744
 20
-6668.509403135098
 30
0.0
 10
3714.6979686716536
 20
-6706.124869179574
 30
0.0
 10
3763.8507071804192
 20
-6744.690867335566
 30
0.0
 10
3779.107069764502
 20
-6756.153281133702
 30
0.0
 10
3873.0355401412708
 20
-6708.294335044654
 30
0.0
 10
3961.446838441123
 20
-6650.879366604283
 30
0.0
 10
3959.1482781952845
 20
-6631.935762138018
 30
0.0
 10
3950.3255133242874
 20
-6570.085242845944
 30
0.0
 10
3940.7131729475286
 20
-6511.503372664554
 30
0.0
 10
3930.444072976529
 20
-6456.194746425249
 30
0.0
 10
3919.6508472825517
 20
-6404.159834624324
 30
0.0
 10
3908.465833324365
 20
-6355.394993690068
 30
0.0
 10
3897.020958125696
 20
-6309.89247917071
 30
0.0
 10
3885.447624693324
 20
-6267.64046191429
 30
0.0
 10
3873.876598947147
 20
-6228.623047244651
 30
0.0
 10
3862.4379081932716
 20
-6192.820328873577
 30
0.0
 10
3857.5279932351173
 20
-6178.4945558697755
 30
0.0
 10
3853.331691188808
 20
-6164.31817509988
 30
0.0
 10
3851.36591503572
 20
-6152.717184796847
 30
0.0
 10
3851.5201103218023
 20
-6143.777624031894
 30
0.0
 10
3853.6811168077957
 20
-6137.582014914734
 30
0.0
 10
3857.7332740300744
 20
-6134.209289906193
 30
0.0
 10
3882.960977686665
 20
-6118.567450931321
 30
0.0
 10
4010.2469888178625
 20
-6035.906948790956
 30
0.0
 10
4034.79755126186
 20
-6019.222403787924
 30
0.0
 10
4039.526849699223
 20
-6016.892384811715
 30
0.0
 10
4046.0657807905095
 20
-6017.438188405156
 30
0.0
 10
4054.2951927788117
 20
-6020.933370955528
 30
0.0
 10
4064.093672446786
 20
-6027.447743711099
 30
0.0
 10
4075.3376500450518
 20
-6037.047310865626
 30
0.0
 10
4086.42782775741
 20
-6047.3595351202985
 30
0.0
 10
4114.482728595916
 20
-6072.371599634613
 30
0.0
 10
4145.420550404363
 20
-6098.8120699315095
 30
0.0
 10
4179.312390055553
 20
-6126.57027978092
 30
0.0
 10
4216.2259553873055
 20
-6155.533233539044
 30
0.0
 10
4256.225499570172
 20
-6185.585699556508
 30
0.0
 10
4299.371756202693
 20
-6216.61030758332
 30
0.0
 10
4345.72188123592
 20
-6248.487642194888
 30
0.0
 10
4395.329391580339
 20
-6281.096345304063
 30
0.0
 10
4448.244110766247
 20
-6314.3132146652115
 30
0.0
 10
4464.6150458994525
 20
-6324.118112025264
 30
0.0
 10
4553.026344199303
 20
-6266.70314358489
 30
0.0
 10
4634.951817736808
 20
-6200.36120320228
 30
0.0
 10
4630.685703380889
 20
-6181.761638753607
 30
0.0
 10
4615.44613080509
 20
-6121.172173131478
 30
0.0
 10
4599.762974969265
 20
-6063.915983732454
 30
0.0
 10
4583.76880449614
 20
-6009.983757173835
 30
0.0
 10
4567.595575855011
 20
-5959.362097359751
 30
0.0
 10
4551.3745206892445
 20
-5912.033547647158
 30
0.0
 10
4535.2360337968885
 20
-5867.976615880151
 30
0.0
 10
4519.309561862225
 20
-5827.165802353735
 30
0.0
 10
4503.723493009687
 20
-5789.571630703794
 30
0.0
 10
4488.605061468478
 20
-5755.160712136351
 30
0.0
 10
4482.224592500989
 20
-5741.426643081347
 30
0.0
 10
4476.569442939781
 20
-5727.766555012916
 30
0.0
 10
4473.401801825383
 20
-5716.4345957090045
 30
0.0
 10
4472.620713864508
 20
-5707.527888996987
 30
0.0
 10
4474.122264630836
 20
-5701.140333387735
 30
0.0
 10
4477.799677949701
 20
-5697.36251875232
 30
0.0
 10
4501.254164215318
 20
-5679.169354312991
 30
0.0
 10
4619.2025139977195
 20
-5583.656663913249
 30
0.0
 10
4641.874576042394
 20
-5564.497286028849
 30
0.0
 10
4646.334413585114
 20
-5561.685684842393
 30
0.0
 10
4652.894575738571
 20
-5561.544994048256
 30
0.0
 10
4661.444252207774
 20
-5564.160821834175
 30
0.0
 10
4671.869992152189
 20
-5569.615288152129
 30
0.0
 10
4684.055802067391
 20
-5577.986952174002
 30
0.0
 10
4696.16314758007
 20
-5587.083445751584
 30
0.0
 10
4726.6788334031835
 20
-5609.025955887657
 30
0.0
 10
4760.210956314893
 20
-5632.08769955127
 30
0.0
 10
4796.818655940933
 20
-5656.151185106683
 30
0.0
 10
4836.557457947496
 20
-5681.096958515818
 30
0.0
 10
4879.479218532318
 20
-5706.8037030951555
 30
0.0
 10
4925.632070057061
 20
-5733.14834317149
 30
0.0
 10
4975.0603730556795
 20
-5760.006143066687
 30
0.0
 10
5027.804665893065
 20
-5787.25081546549
 30
0.0
 10
5083.901621019597
 20
-5814.754625059997
 30
0.0
 10
5101.207765310768
 20
-5822.79458147468
 30
0.0
 10
5183.133238848277
 20
-5756.452641092064
 30
0.0
 10
5257.675294991352
 20
-5681.91058494899
 30
0.0
 10
5251.488366966978
 20
-5663.8588412382205
 30
0.0
 10
5229.9989546326005
 20
-5605.194260150554
 30
0.0
 10
5208.416811274959
 20
-5549.8910623265765
 30
0.0
 10
5186.872805778408
 20
-5497.9261282088655
 30
0.0
 10
5165.496771467583
 20
-5449.272341879808
 30
0.0
 10
5144.417396369108
 20
-5403.898624883666
 30
0.0
 10
5123.762114422652
 20
-5361.769972832954
 30
0.0
 10
5103.656997745043
 20
-5322.847494849747
 30
0.0
 10
5084.226650018089
 20
-5287.088455831187
 30
0.0
 10
5065.594118389246
 20
-5254.446350292152
 30
0.0
 10
5057.813001165629
 20
-5241.454458520548
 30
0.0
 10
5050.760963091531
 20
-5228.460325937016
 30
0.0
 10
5046.4261623547445
 20
-5217.521552949725
 30
0.0
 10
5044.718348910063
 20
-5208.745284033228
 30
0.0
 10
5045.543992652311
 20
-5202.235765327822
 30
0.0
 10
5048.806371557891
 20
-5198.094251593238
 30
0.0
 10
5070.230668172843
 20
-5177.549089806213
 30
0.0
 10
5177.5490898039525
 20
-5070.230668170428
 30
0.0
 10
5198.094251593108
 20
-5048.806371558118
 30
0.0
 10
5202.235765327789
 20
-5045.54399265238
 30
0.0
 10
5208.74528403406
 20
-5044.718348908447
 30
0.0
 10
5217.521552939632
 20
-5046.426162373296
 30
0.0
 10
5228.460326571929
 20
-5050.760961979231
 30
0.0
 10
5241.454458520593
 20
-5057.813001165544
 30
0.0
 10
5254.446321222529
 20
-5065.594100978834
 30
0.0
 10
5287.088455790554
 20
-5084.22665000385
 30
0.0
 10
5322.84749484986
 20
-5103.656997744621
 30
0.0
 10
5361.769972832992
 20
-5123.762114422684
 30
0.0
 10
5403.898624883704
 20
-5144.41739636912
 30
0.0
 10
5449.272342079555
 20
-5165.4967710372375
 30
0.0
 10
5497.926128197113
 20
-5186.872805773447
 30
0.0
 10
5549.891062329931
 20
-5208.416811276267
 30
0.0
 10
5605.194260150504
 20
-5229.9989546325805
 30
0.0
 10
5663.858841238251
 20
-5251.488366966988
 30
0.0
 10
5681.910584948991
 20
-5257.675294991351
 30
0.0
 10
5756.4526410920635
 20
-5183.133238848278
 30
0.0
 10
5822.794581474676
 20
-5101.207765310775
 30
0.0
 10
5814.75462505998
 20
-5083.901621019572
 30
0.0
 10
5787.250815465512
 20
-5027.804665893118
 30
0.0
 10
5760.006143065031
 20
-4975.060373052486
 30
0.0
 10
5733.148343177648
 20
-4925.632070068237
 30
0.0
 10
5706.803703502261
 20
-4879.479218288687
 30
0.0
 10
5681.096958515798
 20
-4836.557457947466
 30
0.0
 10
5656.151185106644
 20
-4796.818655940905
 30
0.0
 10
5632.087699551674
 20
-4760.210956314743
 30
0.0
 10
5609.0259559060605
 20
-4726.678833442112
 30
0.0
 10
5587.0834661052195
 20
-4696.163174670568
 30
0.0
 10
5577.986952174079
 20
-4684.055802067343
 30
0.0
 10
5569.615289191966
 20
-4671.869991404494
 30
0.0
 10
5564.160821816778
 20
-4661.444252219757
 30
0.0
 10
5561.544994049772
 20
-4652.89457573758
 30
0.0
 10
5561.685684842323
 20
-4646.33441358516
 30
0.0
 10
5564.497286028632
 20
-4641.874576042553
 30
0.0
 10
5583.656663915884
 20
-4619.20251399972
 30
0.0
 10
5679.169354310487
 20
-4501.254164213158
 30
0.0
 10
5697.362518752212
 20
-4477.799677949946
 30
0.0
 10
5701.140333387705
 20
-4474.122264630915
 30
0.0
 10
5707.527888997642
 20
-4472.62071386282
 30
0.0
 10
5716.434595700902
 20
-4473.401801844893
 30
0.0
 10
5727.766555528079
 20
-4476.569441767214
 30
0.0
 10
5741.426643081379
 20
-4482.224592500905
 30
0.0
 10
5755.160681406089
 20
-4488.605047192051
 30
0.0
 10
5789.571630661891
 20
-4503.723492999781
 30
0.0
 10
5827.165802353798
 20
-4519.309561861799
 30
0.0
 10
5867.976615880188
 20
-4535.236033796921
 30
0.0
 10
5912.033547647193
 20
-4551.374520689258
 30
0.0
 10
5959.362097513416
 20
-4567.59557540615
 30
0.0
 10
6009.983757161624
 20
-4583.76880449244
 30
0.0
 10
6063.915983735922
 20
-4599.762974970222
 30
0.0
 10
6121.172173131424
 20
-4615.446130805081
 30
0.0
 10
6181.761638753636
 20
-4630.685703380902
 30
0.0
 10
6200.361203202277
 20
-4634.9518177368145
 30
0.0
 10
6266.703143584888
 20
-4553.026344199311
 30
0.0
 10
6324.1181120252595
 20
-4464.615045899459
 30
0.0
 10
6314.313214665191
 20
-4448.244110766224
 30
0.0
 10
6281.0963453040895
 20
-4395.32939158039
 30
0.0
 10
6248.487642192907
 20
-4345.721881232917
 30
0.0
 10
6216.610307590612
 20
-4299.371756213162
 30
0.0
 10
6185.585699935915
 20
-4256.225499285322
 30
0.0
 10
6155.533233539019
 20
-4216.225955387276
 30
0.0
 10
6126.570279780877
 20
-4179.312390055529
 30
0.0
 10
6098.812069931895
 20
-4145.420550404171
 30
0.0
 10
6072.371599656984
 20
-4114.482728632708
 30
0.0
 10
6047.359558194163
 20
-4086.427852571968
 30
0.0
 10
6037.047310865697
 20
-4075.3376500449936
 30
0.0
 10
6027.4477446670835
 20
-4064.093671594492
 30
0.0
 10
6020.933370939477
 20
-4054.2951927925455
 30
0.0
 10
6017.438188406559
 20
-4046.0657807893645
 30
0.0
 10
6016.89238481165
 20
-4039.526849699275
 30
0.0
 10
6019.222403787725
 20
-4034.797551262039
 30
0.0
 10
6035.906948793786
 20
-4010.246988819576
 30
0.0
 10
6118.567450928605
 20
-3882.960977684777
 30
0.0
 10
6134.209289906109
 20
-3857.733274030329
 30
0.0
 10
6137.582014914712
 20
-3853.6811168078752
 30
0.0
 10
6143.777624032369
 20
-3851.5201103200543
 30
0.0
 10
6152.717184790828
 20
-3851.3659150559683
 30
0.0
 10
6164.318175489655
 20
-3853.3316899688125
 30
0.0
 10
6178.494555869798
 20
-3857.5279932350286
 30
0.0
 10
6192.820296819363
 20
-3862.4378972072373
 30
0.0
 10
6228.623047201942
 20
-3873.8765989416743
 30
0.0
 10
6267.6404619143095
 20
-3885.447624692893
 30
0.0
 10
6309.892479170749
 20
-3897.0209581257236
 30
0.0
 10
6355.394993690103
 20
-3908.465833324374
 30
0.0
 10
6404.159834730229
 20
-3919.650846820086
 30
0.0
 10
6456.194746412718
 20
-3930.444072974124
 30
0.0
 10
6511.503372668102
 20
-3940.713172948116
 30
0.0
 10
6570.085242845886
 20
-3950.325513324283
 30
0.0
 10
6631.935762138047
 20
-3959.148278195293
 30
0.0
 10
6650.879366604277
 20
-3961.446838441126
 30
0.0
 10
6708.294335044653
 20
-3873.0355401412694
 30
0.0
 10
6756.153281133705
 20
-3779.107069764502
 30
0.0
 10
6744.6908673355465
 20
-3763.850707180391
 30
0.0
 10
6706.124869179609
 20
-3714.697968671693
 30
0.0
 10
6668.509403132818
 20
-3668.770751081788
 30
0.0
 10
6631.961788564277
 20
-3626.006625695631
 30
0.0
 10
6596.597125024052
 20
-3586.339683039336
 30
0.0
 10
6562.528198327452
 20
-3549.7005989578556
 30
0.0
 10
6529.865388402582
 20
-3516.0167030473563
 30
0.0
 10
6498.716579015471
 20
-3485.2120494583455
 30
0.0
 10
6469.187069436618
 20
-3457.2074900375346
 30
0.0
 10
6441.37951347219
 20
-3431.920771780581
 30
0.0
 10
6429.964515886107
 20
-3421.969245909517
 30
0.0
 10
6419.242221327102
 20
-3411.7902910522216
 30
0.0
 10
6411.739314088858
 20
-3402.7264268172817
 30
0.0
 10
6407.403070741273
 20
-3394.9074424531177
 30
0.0
 10
6406.176752697305
 20
-3388.461384322741
 30
0.0
 10
6407.999661287657
 20
-3383.5144401742255
 30
0.0
 10
6422.0265740459745
 20
-3357.3543584317863
 30
0.0
 10
6490.929242161798
 20
-3222.1252581230538
 30
0.0
 10
6503.8483804139805
 20
-3195.4007370778445
 30
0.0
 10
6506.779063514709
 20
-3191.018232234466
 30
0.0
 10
6512.71484575008
 20
-3188.2214464662193
 30
0.0
 10
6521.589316865344
 20
-3187.133657351554
 30
0.0
 10
6533.33223555406
 20
-3187.8760298136126
 30
0.0
 10
6547.869589371005
 20
-3190.5675100356357
 30
0.0
 10
6562.630077129728
 20
-3193.9530693535244
 30
0.0
 10
6599.432366213685
 20
-3201.5867022047623
 30
0.0
 10
6639.445540986004
 20
-3209.0159102656594
 30
0.0
 10
6682.6758400296285
 20
-3216.109305333233
 30
0.0
 10
6729.125402230245
 20
-3222.7351763905262
 30
0.0
 10
6778.792256641138
 20
-3228.7616033165855
 30
0.0
 10
6831.67031497651
 20
-3234.056573693999
 30
0.0
 10
6887.749368029654
 20
-3238.4880927559398
 30
0.0
 10
6947.015083761007
 20
-3241.924302860741
 30
0.0
 10
7009.449009490697
 20
-3244.2335959687307
 30
0.0
 10
7028.529103879786
 20
-3244.5394185974314
 30
0.0
 10
7076.388049968834
 20
-3150.610948220661
 30
0.0
 10
7114.166621078079
 20
-3052.1944057442142
 30
0.0
 10
7101.172275446068
 20
-3038.2197676102987
 30
0.0
 10
7057.679685641544
 20
-2993.367537467711
 30
0.0
 10
7015.469579576697
 20
-2951.6238008421747
 30
0.0
 10
6974.652108355202
 20
-2912.914207796316
 30
0.0
 10
6935.334851583727
 20
-2877.16117873615
 30
0.0
 10
6897.62273087769
 20
-2844.283979943653
 30
0.0
 10
6861.617925366762
 20
-2814.198801266805
 30
0.0
 10
6827.419789315476
 20
-2786.8188359711507
 30
0.0
 10
6795.124771919075
 20
-2762.0543627143375
 30
0.0
 10
6764.826366855292
 20
-2739.8128488379793
 30
0.0
 10
6752.433684113885
 20
-2731.10903062276
 30
0.0
 10
6740.706136897463
 20
-2722.1066221181704
 30
0.0
 10
6732.296899570367
 20
-2713.8766780435303
 30
0.0
 10
6727.16710419765
 20
-2706.5537877473043
 30
0.0
 10
6725.273707501736
 20
-2700.2712269384415
 30
0.0
 10
6726.56953353838
 20
-2695.160836833952
 30
0.0
 10
6737.785132257453
 20
-2667.677851121456
 30
0.0
 10
6792.175054303594
 20
-2525.9872599602804
 30
0.0
 10
6802.229947048259
 20
-2498.0587209693467
 30
0.0
 10
6804.686479063779
 20
-2493.3938841452054
 30
0.0
 10
6810.29740074455
 20
-2489.991961266676
 30
0.0
 10
6819.009551653978
 20
-2487.982496346606
 30
0.0
 10
6830.765740458067
 20
-2487.493332769833
 30
0.0
 10
6845.504793421257
 20
-2488.6505015271223
 30
0.0
 10
6860.5383089964225
 20
-2490.4746232943303
 30
0.0
 10
6897.936923201181
 20
-2494.2195515834114
 30
0.0
 10
6938.507465317351
 20
-2497.425545995809
 30
0.0
 10
6982.242405945317
 20
-2499.9612859773774
 30
0.0
 10
7029.130104703529
 20
-2501.6955584634566
 30
0.0
 10
7079.154812034805
 20
-2502.4973720253506
 30
0.0
 10
7132.296673950493
 20
-2502.2360738226416
 30
0.0
 10
7188.531739960849
 20
-2500.7814593223325
 30
0.0
 10
7247.831973662072
 20
-2498.0038913187877
 30
0.0
 10
7310.165266673858
 20
-2493.774411565215
 30
0.0
 10
7329.1728054789155
 20
-2492.0841459200647
 30
0.0
 10
7366.951376588158
 20
-2393.6676034436196
 30
0.0
 10
7394.2356627868485
 20
-2291.8412611018543
 30
0.0
 10
7379.851754090969
 20
-2279.3014564779082
 30
0.0
 10
7331.909086553167
 20
-2239.241145120805
 30
0.0
 10
7285.5668032253425
 20
-2202.138242573546
 30
0.0
 10
7240.926680107203
 20
-2167.9072922698983
 30
0.0
 10
7198.087598197331
 20
-2136.459894474047
 30
0.0
 10
7157.14546536808
 20
-2107.7047904404994
 30
0.0
 10
7118.193140454763
 20
-2081.5479485106157
 30
0.0
 10
7081.3203596743
 20
-2057.892652137723
 30
0.0
 10
7046.613665429111
 20
-2036.6395897962084
 30
0.0
 10
7014.1563669322
 20
-2017.6869629808116
 30
0.0
 10
7000.921775860921
 20
-2010.3262132751931
 30
0.0
 10
6988.317465448532
 20
-2002.5989833947606
 30
0.0
 10
6979.094031396485
 20
-1995.2931284699293
 30
0.0
 10
6973.226887110217
 20
-1988.54656336014
 30
0.0
 10
6970.687156212777
 20
-1982.4963329237235
 30
0.0
 10
6971.4417023544875
 20
-1977.2784873666626
 30
0.0
 10
6979.723106587737
 20
-1948.7737070267606
 30
0.0
 10
7019.004375196435
 20
-1802.1740167805667
 30
0.0
 10
7026.084858924551
 20
-1773.3474507615156
 30
0.0
 10
7028.040325576036
 20
-1768.4513908850367
 30
0.0
 10
7033.2649122701105
 20
-1764.4816030751783
 30
0.0
 10
7041.719290825204
 20
-1761.5724784678762
 30
0.0
 10
7053.359946479988
 20
-1759.8571382307832
 30
0.0
 10
7068.139214440814
 20
-1759.4673173402807
 30
0.0
 10
7083.281047489816
 20
-1759.7100160970044
 30
0.0
 10
7120.866239771984
 20
-1759.5252096059162
 30
0.0
 10
7161.549649882647
 20
-1758.4728648241355
 30
0.0
 10
7205.310062933311
 20
-1756.4231676218224
 30
0.0
 10
7252.122186809642
 20
-1753.2468404844105
 30
0.0
 10
7301.956665899439
 20
-1748.8152558449644
 30
0.0
 10
7354.780098035643
 20
-1743.0005518999212
 30
0.0
 10
7410.555053852059
 20
-1735.6757408982264
 30
0.0
 10
7469.240099753349
 20
-1726.714826402625
 30
0.0
 10
7530.789823444913
 20
-1715.9929128527458
 30
0.0
 10
7549.516556093202
 20
-1712.3250778378622
 30
0.0
 10
7576.800842291889
 20
-1610.4987354960836
 30
0.0
 10
7593.291911230832
 20
-1506.3782240042292
 30
0.0
 10
7577.676032584788
 20
-1495.4106416138382
 30
0.0
 10
7525.808557211902
 20
-1460.5811581966072
 30
0.0
 10
7475.841832374985
 20
-1428.5255968922143
 30
0.0
 10
7427.868143890627
 20
-1399.148330785592
 30
0.0
 10
7381.976590788418
 20
-1372.3511085250975
 30
0.0
 10
7338.253016410925
 20
-1348.033146187684
 30
0.0
 10
7296.779941918266
 20
-1326.0912208386194
 30
0.0
 10
7257.636502310981
 20
-1306.4197657657385
 30
0.0
 10
7220.898385021999
 20
-1288.9109673380249
 30
0.0
 10
7186.637802046418
 20
-1273.454876529071
 30
0.0
 10
7172.706303594559
 20
-1267.5178412471644
 30
0.0
 10
7159.363325448702
 20
-1261.1504511384858
 30
0.0
 10
7149.426748545307
 20
-1254.8487298388677
 30
0.0
 10
7142.886537006068
 20
-1248.752406694668
 30
0.0
 10
7139.728297730286
 20
-1243.000794221451
 30
0.0
 10
7139.933297011636
 20
-1237.7326610196465
 30
0.0
 10
7145.189773961286
 20
-1208.518390390751
 30
0.0
 10
7168.932015333528
 20
-1058.6157779438333
 30
0.0
 10
7172.960514783685
 20
-1029.2070147863164
 30
0.0
 10
7174.393491569294
 20
-1024.1333741140734
 30
0.0
 10
7179.174501611538
 20
-1019.6392151988626
 30
0.0
 10
7187.278479871656
 20
-1015.8623038822993
 30
0.0
 10
7198.676064917816
 20
-1012.9395806114813
 30
0.0
 10
7213.333623123738
 20
-1011.0070410324386
 30
0.0
 10
7228.417876555058
 20
-1009.6656577203117
 30
0.0
 10
7265.777855682786
 20
-1005.5531412276441
 30
0.0
 10
7306.12839783322
 20
-1000.253986961331
 30
0.0
 10
7349.434835063744
 20
-993.6413094866118
 30
0.0
 10
7395.658500632937
 20
-985.5891832305153
 30
0.0
 10
7444.756754499811
 20
-975.9727537584081
 30
0.0
 10
7496.683012280035
 20
-964.6683511842575
 30
0.0
 10
7551.3867758149245
 20
-951.5535958433264
 30
0.0
 10
7608.813668272752
 20
-936.507512510074
 30
0.0
 10
7668.9054709912225
 20
-919.4106366924455
 30
0.0
 10
7687.146223481028
 20
-913.8054178757955
 30
0.0
  0
ENDSEC
  0
EOF
