999
DXF generated by OpenJsCad
  0
SECTION
  2
HEADER
  0
ENDSEC
  0
SECTION
  2
TABLES
  0
TABLE
  2
LTYPE
  70
1
  0
LTYPE
  2
CONTINUOUS
  3
Solid Line
  72
65
  73
0
  40
0.0
  0
ENDTAB
  0
TABLE
  2
LAYER
  70
1
  0
LAYER
  2
OpenJsCad
  62
7
  6
continuous
  0
ENDTAB
  0
TABLE
  2
STYLE
  70
0
  0
ENDTAB
  0
TABLE
  2
VIEW
  70
0
  0
ENDTAB
  0
ENDSEC
  0
SECTION
  2
BLOCKS
  0
ENDSEC
  0
SECTION
  2
ENTITIES
  0
LWPOLYLINE
  8
OpenJsCad
  90
1185
  70
1
 10
4136.405081066739
 20
-927.0142325881799
 30
0.0
 10
4166.224272273246
 20
-828.713533032464
 30
0.0
 10
4176.292980951384
 20
-726.4842182401421
 30
0.0
 10
4127.296071522641
 20
-691.2027634841704
 30
0.0
 10
4080.371369482814
 20
-659.6923975023135
 30
0.0
 10
4035.8763980024078
 20
-631.8815953259073
 30
0.0
 10
3993.999322678785
 20
-607.5753183071671
 30
0.0
 10
3954.918074693935
 20
-586.5702977777562
 30
0.0
 10
3918.8000177560916
 20
-568.6554982437701
 30
0.0
 10
3885.8016344872685
 20
-553.6125934405142
 30
0.0
 10
3856.068232702977
 20
-541.2164544510397
 30
0.0
 10
3829.7336720544463
 20
-531.2356491126839
 30
0.0
 10
3806.920111354647
 20
-523.432951806512
 30
0.0
 10
3766.7903470513006
 20
-511.1589038895206
 30
0.0
 10
3748.0489098178655
 20
-503.2978150040319
 30
0.0
 10
3733.855461250795
 20
-494.8977822694617
 30
0.0
 10
3724.2206161713993
 20
-486.2479247209537
 30
0.0
 10
3719.1409448848817
 20
-477.6373292068148
 30
0.0
 10
3718.5989917281054
 20
-469.3544407709975
 30
0.0
 10
3723.989366112335
 20
-428.41048237268103
 30
0.0
 10
3736.0126936220904
 20
-306.3355895378875
 30
0.0
 10
3738.7136637989865
 20
-265.12674794521155
 30
0.0
 10
3740.861114849943
 20
-257.108742703806
 30
0.0
 10
3747.5230255286046
 20
-249.65459207482732
 30
0.0
 10
3758.660243262316
 20
-243.0506041806575
 30
0.0
 10
3774.219733778357
 20
-237.58098012209828
 30
0.0
 10
3794.1346819141145
 20
-233.52721289158836
 30
0.0
 10
3835.8879120944534
 20
-229.31793599544287
 30
0.0
 10
3859.7853472644856
 20
-226.11587025074317
 30
0.0
 10
3887.56105524481
 20
-221.46446119656056
 30
0.0
 10
3919.1415047984315
 20
-215.10720947060958
 30
0.0
 10
3954.4405585277286
 20
-206.79101508299442
 30
0.0
 10
3993.359621132182
 20
-196.2667267329105
 30
0.0
 10
4035.7878107237616
 20
-183.28968485560148
 30
0.0
 10
4081.6021485950287
 20
-167.6202584505001
 30
0.0
 10
4130.6677800278485
 20
-149.02437135360017
 30
0.0
 10
4182.838204522041
 20
-127.27402344994638
 30
0.0
 10
4237.7767224445515
 20
-102.22931479232261
 30
0.0
 10
4247.845431122689
 20
-2.8421709430404007e-13
 30
0.0
 10
4237.7767224445515
 20
102.22931479232238
 30
0.0
 10
4182.83820452205
 20
127.27402344994326
 30
0.0
 10
4130.667780027833
 20
149.02437135360643
 30
0.0
 10
4081.602148595767
 20
167.62025845022097
 30
0.0
 10
4035.7878101214214
 20
183.28968506162542
 30
0.0
 10
3993.359621139054
 20
196.2667267572829
 30
0.0
 10
3954.440558527712
 20
206.79101508299019
 30
0.0
 10
3919.1415047984206
 20
215.10720947060452
 30
0.0
 10
3887.5610552448593
 20
221.46446119658128
 30
0.0
 10
3859.785347267454
 20
226.11587024193545
 30
0.0
 10
3835.88791200945
 20
229.31793600401238
 30
0.0
 10
3794.1346819141095
 20
233.5272128915903
 30
0.0
 10
3774.2197337798875
 20
237.58098013350315
 30
0.0
 10
3758.660243256011
 20
243.05060414300584
 30
0.0
 10
3747.5230255286424
 20
249.6545920750524
 30
0.0
 10
3740.8611148499353
 20
257.1087427038031
 30
0.0
 10
3738.713663798934
 20
265.12674794500174
 30
0.0
 10
3736.0126936223064
 20
306.3355895379196
 30
0.0
 10
3723.9893661121173
 20
428.4104823726705
 30
0.0
 10
3718.598991728198
 20
469.35444077080206
 30
0.0
 10
3719.14094488489
 20
477.63732920681355
 30
0.0
 10
3724.2206161713184
 20
486.24792472116707
 30
0.0
 10
3733.855461264324
 20
494.89778223376345
 30
0.0
 10
3748.048909814139
 20
503.297815014919
 30
0.0
 10
3766.790347051305
 20
511.1589038895236
 30
0.0
 10
3806.9201114363455
 20
523.4329518315003
 30
0.0
 10
3829.7336720532535
 20
531.2356491034662
 30
0.0
 10
3856.068232702925
 20
541.2164544510504
 30
0.0
 10
3885.8016344872804
 20
553.6125934405111
 30
0.0
 10
3918.800017756109
 20
568.6554982437692
 30
0.0
 10
3954.91807468244
 20
586.5702978003194
 30
0.0
 10
3993.9993232293577
 20
607.5753186267431
 30
0.0
 10
4035.8763980017375
 20
631.8815953254893
 30
0.0
 10
4080.371369482828
 20
659.6923975023227
 30
0.0
 10
4127.296071522634
 20
691.2027634841658
 30
0.0
 10
4176.292980951384
 20
726.4842182401419
 30
0.0
 10
4166.224272273247
 20
828.7135330324644
 30
0.0
 10
4136.405081066739
 20
927.014232588178
 30
0.0
 10
4077.6362110843656
 20
940.8597410389705
 30
0.0
 10
4022.2249442915613
 20
952.0142171922379
 30
0.0
 10
3970.4742176074474
 20
960.6805596966312
 30
0.0
 10
3922.483235316971
 20
967.1109686235394
 30
0.0
 10
3878.338596845676
 20
971.561331050688
 30
0.0
 10
3838.1141663109265
 20
974.2906656698486
 30
0.0
 10
3801.870964960047
 20
975.5605629552806
 30
0.0
 10
3769.6570866030384
 20
975.6346217991183
 30
0.0
 10
3741.5076361775336
 20
974.7778835103983
 30
0.0
 10
3717.4446913964534
 20
973.2562641368829
 30
0.0
 10
3675.672548726202
 20
969.2390098448475
 30
0.0
 10
3655.3494099795607
 20
969.3296714414564
 30
0.0
 10
3639.021819993848
 20
971.6586921426069
 30
0.0
 10
3626.810226649945
 20
975.9630229055227
 30
0.0
 10
3618.822090070388
 20
981.9742698205582
 30
0.0
 10
3615.151666464747
 20
989.4192644222679
 30
0.0
 10
3604.463148496429
 20
1029.309356537556
 30
0.0
 10
3568.855215699752
 20
1146.6929797010132
 30
0.0
 10
3555.5806458196357
 20
1185.7986015449967
 30
0.0
 10
3554.4962741261816
 20
1194.0280664181155
 30
0.0
 10
3557.798497101551
 20
1203.464206461105
 30
0.0
 10
3565.5607078602106
 20
1213.8275244188146
 30
0.0
 10
3577.842668175808
 20
1224.8351573735797
 30
0.0
 10
3594.690371591678
 20
1236.201470655377
 30
0.0
 10
3631.6545058411334
 20
1256.0686048641403
 30
0.0
 10
3652.5074795644014
 20
1268.172080383014
 30
0.0
 10
3676.388870486245
 20
1283.098725271792
 30
0.0
 10
3703.132586545445
 20
1301.0573748552326
 30
0.0
 10
3732.562189990491
 20
1322.2488996787026
 30
0.0
 10
3764.491244566261
 20
1346.865754741496
 30
0.0
 10
3798.7236816038753
 20
1375.0915433464263
 30
0.0
 10
3835.0541807787995
 20
1407.1005937564016
 30
0.0
 10
3873.268575507209
 20
1443.0575574819902
 30
0.0
 10
3913.144265108914
 20
1483.117015848557
 30
0.0
 10
3954.31664229234
 20
1527.2793701826806
 30
0.0
 10
3924.4974510858324
 20
1625.5800697383943
 30
0.0
 10
3876.0737121462266
 20
1716.1745133012405
 30
0.0
 10
3815.732944819442
 20
1718.2887464200915
 30
0.0
 10
3759.210259635901
 20
1718.418690559895
 30
0.0
 10
3706.763189104067
 20
1716.8224457897647
 30
0.0
 10
3658.4398295332294
 20
1713.7667200233302
 30
0.0
 10
3614.2751952728604
 20
1709.5193782496865
 30
0.0
 10
3574.2911991220344
 20
1704.3488723635148
 30
0.0
 10
3538.4966560520584
 20
1698.5236711062519
 30
0.0
 10
3506.8873101711124
 20
1692.3116910281144
 30
0.0
 10
3479.445884890967
 20
1685.9797293772913
 30
0.0
 10
3456.142156060093
 20
1679.7928998473735
 30
0.0
 10
3415.95638083166
 20
1667.7034952052657
 30
0.0
 10
3396.0060582972847
 20
1663.8275670822568
 30
0.0
 10
3379.537828976269
 20
1662.9264815156396
 30
0.0
 10
3366.721144699698
 20
1664.765742092102
 30
0.0
 10
3357.713761828245
 20
1669.1030764456236
 30
0.0
 10
3352.6614179887315
 20
1675.688953440502
 30
0.0
 10
3334.3961059800554
 20
1712.7273422087912
 30
0.0
 10
3276.571960785109
 20
1820.9087088922772
 30
0.0
 10
3255.9233296848224
 20
1856.6731870653339
 30
0.0
 10
3253.25430493728
 20
1864.532974655623
 30
0.0
 10
3254.6521770245563
 20
1874.4320336572446
 30
0.0
 10
3260.2434560425113
 20
1886.1105555627687
 30
0.0
 10
3270.1419392767657
 20
1899.3027715298426
 30
0.0
 10
3284.4484610773675
 20
1913.7375081737157
 30
0.0
 10
3316.8264542417573
 20
1940.43424582324
 30
0.0
 10
3334.9174729856823
 20
1956.3733698125384
 30
0.0
 10
3355.42794571941
 20
1975.6722316503933
 30
0.0
 10
3378.154230043349
 20
1998.503250995649
 30
0.0
 10
3402.8840905085303
 20
2025.0290174247089
 30
0.0
 10
3429.397127072412
 20
2055.4019160589737
 30
0.0
 10
3457.46521924314
 20
2089.7637712155274
 30
0.0
 10
3486.8529821116945
 20
2128.245505480359
 30
0.0
 10
3517.31824232889
 20
2170.966824803626
 30
0.0
 10
3548.6125191036454
 20
2218.035913035493
 30
0.0
 10
3580.3781326763255
 20
2269.3820324372373
 30
0.0
 10
3531.954393736719
 20
2359.9764760000835
 30
0.0
 10
3466.7870041951173
 20
2439.3831699098923
 30
0.0
 10
3407.193201372796
 20
2429.6848789037185
 30
0.0
 10
3351.731232891835
 20
2418.7852973496397
 30
0.0
 10
3300.6033300201634
 20
2406.9878080963167
 30
0.0
 10
3253.80463277722
 20
2394.5633774640733
 30
0.0
 10
3211.31722485459
 20
2381.7815544520618
 30
0.0
 10
3173.11022563648
 20
2368.90990770211
 30
0.0
 10
3139.1399050637765
 20
2356.213467119658
 30
0.0
 10
3109.3498210943717
 20
2343.95417103023
 30
0.0
 10
3083.670979543773
 20
2332.39031975254
 30
0.0
 10
3062.0220158931934
 20
2321.7760364554406
 30
0.0
 10
3024.966924912166
 20
2302.0790705038403
 30
0.0
 10
3006.1560982967835
 20
2294.3855024053355
 30
0.0
 10
2990.1800944577817
 20
2290.288938783941
 30
0.0
 10
2977.2508572376114
 20
2289.592447421466
 30
0.0
 10
2967.5703767466143
 20
2292.0891878866732
 30
0.0
 10
2961.3302714135943
 20
2297.562855715209
 30
0.0
 10
2936.190091061748
 20
2330.3261766275014
 30
0.0
 10
2858.371882940219
 20
2425.14793757818
 30
0.0
 10
2831.1427059330613
 20
2456.1968632410694
 30
0.0
 10
2826.991597255672
 20
2463.3849263192537
 30
0.0
 10
2826.4313990144756
 20
2473.366488993531
 30
0.0
 10
2829.6368765746925
 20
2485.911415799431
 30
0.0
 10
2836.7714895680447
 20
2500.7812453174797
 30
0.0
 10
2847.9870381437718
 20
2517.729686489298
 30
0.0
 10
2874.534622103576
 20
2550.2300869234145
 30
0.0
 10
2889.1684581633895
 20
2569.3923277869926
 30
0.0
 10
2905.519806744249
 20
2592.3217621364224
 30
0.0
 10
2923.3553009714046
 20
2619.1477679738373
 30
0.0
 10
2942.4350637877105
 20
2649.98840568044
 30
0.0
 10
2962.5132012132362
 20
2684.9501344249793
 30
0.0
 10
2983.338307475724
 20
2724.127549309841
 30
0.0
 10
3004.653978791718
 20
2767.6031359625363
 30
0.0
 10
3026.199341632667
 20
2815.44705454028
 30
0.0
 10
3047.7095840740517
 20
2867.7169339733455
 30
0.0
 10
3068.847699320752
 20
2924.2736158693397
 30
0.0
 10
3003.6803097791494
 20
3003.680309779148
 30
0.0
 10
2924.273615869338
 20
3068.8476993207487
 30
0.0
 10
2867.716933973354
 20
3047.7095840740544
 30
0.0
 10
2815.4470545402655
 20
3026.19934163266
 30
0.0
 10
2767.603135963257
 20
3004.653978792042
 30
0.0
 10
2724.1275487382422
 20
2983.338307195486
 30
0.0
 10
2684.950134412606
 20
2962.5132012353292
 30
0.0
 10
2649.9884056804317
 20
2942.435063787695
 30
0.0
 10
2619.147767973834
 20
2923.355300971393
 30
0.0
 10
2592.3217621364433
 20
2905.519806744298
 30
0.0
 10
2569.3923277953204
 20
2889.16845815926
 30
0.0
 10
2550.230086857249
 20
2874.5346220495285
 30
0.0
 10
2517.7296864892937
 20
2847.987038143769
 30
0.0
 10
2500.7812453104984
 20
2836.7714895771915
 30
0.0
 10
2485.9114158215975
 20
2829.6368765436105
 30
0.0
 10
2473.3664889934
 20
2826.431399014661
 30
0.0
 10
2463.384926319251
 20
2826.9915972556637
 30
0.0
 10
2456.1968632411813
 20
2831.142705932875
 30
0.0
 10
2425.1479375783106
 20
2858.371882940394
 30
0.0
 10
2330.326176627356
 20
2936.190091061586
 30
0.0
 10
2297.5628557154137
 20
2961.330271413521
 30
0.0
 10
2292.0891878866805
 20
2967.5703767466184
 30
0.0
 10
2289.592447421259
 20
2977.2508572377046
 30
0.0
 10
2290.2889388187505
 20
2990.180094442105
 30
0.0
 10
2294.3855023950027
 20
3006.156098301846
 30
0.0
 10
2302.079070503842
 20
3024.966924912171
 30
0.0
 10
2321.776036495542
 20
3062.0220159686323
 30
0.0
 10
2332.390319758215
 20
3083.6709795364113
 30
0.0
 10
2343.9541710301864
 20
3109.349821094342
 30
0.0
 10
2356.21346711967
 20
3139.1399050637824
 30
0.0
 10
2368.9099077021237
 20
3173.1102256364916
 30
0.0
 10
2381.78155442798
 20
3211.3172248624164
 30
0.0
 10
2394.563377627414
 20
3253.804633392508
 30
0.0
 10
2406.98780809614
 20
3300.603330019394
 30
0.0
 10
2418.7852973496438
 20
3351.7312328918506
 30
0.0
 10
2429.6848789037176
 20
3407.1932013727874
 30
0.0
 10
2439.3831699098937
 20
3466.7870041951173
 30
0.0
 10
2359.9764760000853
 20
3531.9543937367207
 30
0.0
 10
2269.382032437238
 20
3580.378132676325
 30
0.0
 10
2218.035913035501
 20
3548.61251910365
 30
0.0
 10
2170.966824803613
 20
3517.3182423288804
 30
0.0
 10
2128.2455054810025
 20
3486.8529821121533
 30
0.0
 10
2089.7637707095832
 20
3457.465218856773
 30
0.0
 10
2055.401916042528
 20
3429.3971270916663
 30
0.0
 10
2025.0290174247032
 20
3402.8840905085135
 30
0.0
 10
1998.5032509956475
 20
3378.1542300433366
 30
0.0
 10
1975.6722316504038
 20
3355.427945719462
 30
0.0
 10
1956.3733698215112
 20
3334.9174729832566
 30
0.0
 10
1940.4342457688895
 20
3316.82645417584
 30
0.0
 10
1913.7375081737118
 20
3284.4484610773643
 30
0.0
 10
1899.3027715212108
 20
3270.1419392843745
 30
0.0
 10
1886.1105555905726
 20
3260.243456016351
 30
0.0
 10
1874.4320336570788
 20
3254.6521770247123
 30
0.0
 10
1864.5329746556215
 20
3253.2543049372716
 30
0.0
 10
1856.6731870654792
 20
3255.9233296846614
 30
0.0
 10
1820.908708892371
 20
3276.5719607853057
 30
0.0
 10
1712.7273422086791
 20
3334.3961059798676
 30
0.0
 10
1675.6889534407164
 20
3352.6614179887
 30
0.0
 10
1669.1030764456298
 20
3357.7137618282513
 30
0.0
 10
1664.7657420918802
 20
3366.721144699749
 30
0.0
 10
1662.9264815528381
 20
3379.5378289676846
 30
0.0
 10
1663.8275670711348
 20
3396.006058300234
 30
0.0
 10
1667.7034952052659
 20
3415.9563808316652
 30
0.0
 10
1679.7928998719863
 20
3456.142156141905
 30
0.0
 10
1685.9797293842928
 20
3479.4458848848535
 30
0.0
 10
1692.311691028077
 20
3506.8873101710747
 30
0.0
 10
1698.5236711062612
 20
3538.4966560520666
 30
0.0
 10
1704.3488723635255
 20
3574.291199122048
 30
0.0
 10
1709.5193782245399
 20
3614.2751952758376
 30
0.0
 10
1713.7667200634949
 20
3658.439830168561
 30
0.0
 10
1716.82244578974
 20
3706.763189103278
 30
0.0
 10
1718.4186905598954
 20
3759.2102596359173
 30
0.0
 10
1718.2887464200917
 20
3815.7329448194328
 30
0.0
 10
1716.1745133012407
 20
3876.0737121462253
 30
0.0
 10
1625.5800697383934
 20
3924.497451085833
 30
0.0
 10
1527.2793701826802
 20
3954.316642292341
 30
0.0
 10
1483.1170158485625
 20
3913.1442651089205
 30
0.0
 10
1443.0575574819777
 20
3873.268575507197
 30
0.0
 10
1407.1005937569414
 20
3835.054180779375
 30
0.0
 10
1375.0915429255786
 20
3798.723681126228
 30
0.0
 10
1346.8657547216083
 20
3764.4912445819364
 30
0.0
 10
1322.2488996786994
 20
3732.5621899904736
 30
0.0
 10
1301.0573748552324
 20
3703.1325865454332
 30
0.0
 10
1283.098725271791
 20
3676.388870486298
 30
0.0
 10
1268.1720803922865
 20
3652.5074795637734
 30
0.0
 10
1256.0686048236928
 20
3631.6545057658795
 30
0.0
 10
1236.2014706553725
 20
3594.6903715916737
 30
0.0
 10
1224.835157363628
 20
3577.8426681815868
 30
0.0
 10
1213.827524451187
 20
3565.560707839977
 30
0.0
 10
1203.4642064609109
 20
3557.798497101672
 30
0.0
 10
1194.0280664181146
 20
3554.4962741261734
 30
0.0
 10
1185.7986015451695
 20
3555.580645819506
 30
0.0
 10
1146.6929797010655
 20
3568.855215699964
 30
0.0
 10
1029.3093565374816
 20
3604.4631484962233
 30
0.0
 10
989.4192644224833
 20
3615.1516664647575
 30
0.0
 10
981.9742698205617
 20
3618.8220900703955
 30
0.0
 10
975.9630229052937
 20
3626.810226649952
 30
0.0
 10
971.6586921807643
 20
3639.021819992686
 30
0.0
 10
969.3296714299714
 20
3655.349409980284
 30
0.0
 10
969.2390098448458
 20
3675.672548726207
 30
0.0
 10
973.2562641450608
 20
3717.4446914814957
 30
0.0
 10
974.777883518457
 20
3741.5076361729043
 30
0.0
 10
975.6346217990878
 20
3769.657086602994
 30
0.0
 10
975.5605629552872
 20
3801.870964960056
 30
0.0
 10
974.2906656698553
 20
3838.114166310942
 30
0.0
 10
971.5613310254425
 20
3878.33859684369
 30
0.0
 10
967.1109685389843
 20
3922.48323594793
 30
0.0
 10
960.6805596967603
 20
3970.4742176066684
 30
0.0
 10
952.0142171922339
 20
4022.2249442915777
 30
0.0
 10
940.8597410389712
 20
4077.636211084357
 30
0.0
 10
927.0142325881768
 20
4136.405081066736
 30
0.0
 10
828.7135330324637
 20
4166.2242722732435
 30
0.0
 10
726.4842182401424
 20
4176.292980951384
 30
0.0
 10
691.2027634841706
 20
4127.296071522641
 30
0.0
 10
659.6923975023137
 20
4080.371369482814
 30
0.0
 10
631.8815953259075
 20
4035.8763980024078
 30
0.0
 10
607.5753183071673
 20
3993.999322678785
 30
0.0
 10
586.5702977777564
 20
3954.918074693935
 30
0.0
 10
568.6554982437704
 20
3918.8000177560916
 30
0.0
 10
553.6125934405144
 20
3885.8016344872685
 30
0.0
 10
541.2164544510399
 20
3856.068232702977
 30
0.0
 10
531.2356491126841
 20
3829.7336720544463
 30
0.0
 10
523.4329518065123
 20
3806.920111354647
 30
0.0
 10
511.15890388952084
 20
3766.7903470513006
 30
0.0
 10
503.29781500403215
 20
3748.0489098178655
 30
0.0
 10
494.8977822694619
 20
3733.855461250795
 30
0.0
 10
486.2479247209539
 20
3724.2206161713993
 30
0.0
 10
477.637329206815
 20
3719.1409448848817
 30
0.0
 10
469.3544407709977
 20
3718.5989917281054
 30
0.0
 10
428.41048237268126
 20
3723.989366112335
 30
0.0
 10
306.3355895378877
 20
3736.0126936220904
 30
0.0
 10
265.1267479452118
 20
3738.7136637989865
 30
0.0
 10
257.10874270380623
 20
3740.861114849943
 30
0.0
 10
249.65459207482755
 20
3747.5230255286046
 30
0.0
 10
243.05060418065773
 20
3758.660243262316
 30
0.0
 10
237.5809801220985
 20
3774.219733778357
 30
0.0
 10
233.5272128915886
 20
3794.1346819141145
 30
0.0
 10
229.3179359954431
 20
3835.8879120944534
 30
0.0
 10
226.1158702507434
 20
3859.7853472644856
 30
0.0
 10
221.4644611965608
 20
3887.56105524481
 30
0.0
 10
215.1072094706098
 20
3919.1415047984315
 30
0.0
 10
206.79101508299468
 20
3954.4405585277286
 30
0.0
 10
196.26672673291077
 20
3993.359621132182
 30
0.0
 10
183.28968485560173
 20
4035.7878107237616
 30
0.0
 10
167.62025845050036
 20
4081.6021485950287
 30
0.0
 10
149.02437135360043
 20
4130.6677800278485
 30
0.0
 10
127.27402344994664
 20
4182.838204522041
 30
0.0
 10
102.2293147923229
 20
4237.7767224445515
 30
0.0
 10
5.115907697472721e-13
 20
4247.845431122689
 30
0.0
 10
-102.22931479232216
 20
4237.7767224445515
 30
0.0
 10
-127.27402344994303
 20
4182.83820452205
 30
0.0
 10
-149.0243713536062
 20
4130.667780027833
 30
0.0
 10
-167.62025845022075
 20
4081.602148595767
 30
0.0
 10
-183.2896850616252
 20
4035.7878101214214
 30
0.0
 10
-196.26672675728267
 20
3993.359621139054
 30
0.0
 10
-206.79101508298996
 20
3954.440558527712
 30
0.0
 10
-215.1072094706043
 20
3919.1415047984206
 30
0.0
 10
-221.46446119658106
 20
3887.5610552448593
 30
0.0
 10
-226.11587024193523
 20
3859.785347267454
 30
0.0
 10
-229.31793600401215
 20
3835.88791200945
 30
0.0
 10
-233.52721289159018
 20
3794.1346819141095
 30
0.0
 10
-237.58098013350292
 20
3774.2197337798875
 30
0.0
 10
-243.05060414300561
 20
3758.660243256011
 30
0.0
 10
-249.65459207505228
 20
3747.5230255286424
 30
0.0
 10
-257.1087427038029
 20
3740.861114849935
 30
0.0
 10
-265.1267479450015
 20
3738.713663798934
 30
0.0
 10
-306.33558953791936
 20
3736.012693622306
 30
0.0
 10
-428.4104823726703
 20
3723.9893661121173
 30
0.0
 10
-469.35444077080183
 20
3718.598991728198
 30
0.0
 10
-477.6373292068133
 20
3719.14094488489
 30
0.0
 10
-486.24792472116684
 20
3724.2206161713184
 30
0.0
 10
-494.8977822337632
 20
3733.855461264324
 30
0.0
 10
-503.2978150149188
 20
3748.048909814139
 30
0.0
 10
-511.15890388952334
 20
3766.790347051305
 30
0.0
 10
-523.4329518315001
 20
3806.9201114363455
 30
0.0
 10
-531.235649103466
 20
3829.7336720532535
 30
0.0
 10
-541.2164544510501
 20
3856.068232702925
 30
0.0
 10
-553.6125934405111
 20
3885.8016344872804
 30
0.0
 10
-568.655498243769
 20
3918.800017756109
 30
0.0
 10
-586.5702978003192
 20
3954.91807468244
 30
0.0
 10
-607.5753186267428
 20
3993.9993232293577
 30
0.0
 10
-631.8815953254891
 20
4035.8763980017375
 30
0.0
 10
-659.6923975023225
 20
4080.371369482828
 30
0.0
 10
-691.2027634841655
 20
4127.296071522634
 30
0.0
 10
-726.4842182401417
 20
4176.292980951384
 30
0.0
 10
-828.7135330324642
 20
4166.224272273247
 30
0.0
 10
-927.0142325881777
 20
4136.405081066739
 30
0.0
 10
-940.8597410389702
 20
4077.6362110843656
 30
0.0
 10
-952.0142171922377
 20
4022.2249442915613
 30
0.0
 10
-960.680559696631
 20
3970.4742176074474
 30
0.0
 10
-967.1109686235394
 20
3922.4832353169704
 30
0.0
 10
-971.5613310506877
 20
3878.338596845676
 30
0.0
 10
-974.2906656698484
 20
3838.1141663109265
 30
0.0
 10
-975.5605629552804
 20
3801.870964960047
 30
0.0
 10
-975.6346217991183
 20
3769.6570866030384
 30
0.0
 10
-974.777883510398
 20
3741.5076361775336
 30
0.0
 10
-973.2562641368827
 20
3717.4446913964534
 30
0.0
 10
-969.2390098448473
 20
3675.672548726202
 30
0.0
 10
-969.3296714414564
 20
3655.3494099795607
 30
0.0
 10
-971.6586921426067
 20
3639.021819993848
 30
0.0
 10
-975.9630229055225
 20
3626.810226649945
 30
0.0
 10
-981.974269820558
 20
3618.822090070388
 30
0.0
 10
-989.4192644222677
 20
3615.151666464747
 30
0.0
 10
-1029.309356537556
 20
3604.463148496429
 30
0.0
 10
-1146.692979701013
 20
3568.855215699752
 30
0.0
 10
-1185.7986015449965
 20
3555.5806458196357
 30
0.0
 10
-1194.0280664181153
 20
3554.4962741261816
 30
0.0
 10
-1203.4642064611046
 20
3557.798497101551
 30
0.0
 10
-1213.8275244188144
 20
3565.5607078602106
 30
0.0
 10
-1224.8351573735792
 20
3577.842668175808
 30
0.0
 10
-1236.2014706553769
 20
3594.690371591678
 30
0.0
 10
-1256.06860486414
 20
3631.6545058411334
 30
0.0
 10
-1268.1720803830137
 20
3652.5074795644014
 30
0.0
 10
-1283.0987252717919
 20
3676.388870486245
 30
0.0
 10
-1301.0573748552324
 20
3703.132586545445
 30
0.0
 10
-1322.2488996787024
 20
3732.562189990491
 30
0.0
 10
-1346.8657547414957
 20
3764.491244566261
 30
0.0
 10
-1375.0915433464259
 20
3798.7236816038753
 30
0.0
 10
-1407.1005937564014
 20
3835.0541807787995
 30
0.0
 10
-1443.05755748199
 20
3873.2685755072084
 30
0.0
 10
-1483.1170158485568
 20
3913.144265108914
 30
0.0
 10
-1527.2793701826802
 20
3954.3166422923405
 30
0.0
 10
-1625.5800697383947
 20
3924.4974510858324
 30
0.0
 10
-1716.174513301241
 20
3876.0737121462266
 30
0.0
 10
-1718.288746420092
 20
3815.7329448194414
 30
0.0
 10
-1718.4186905598954
 20
3759.210259635901
 30
0.0
 10
-1716.8224457897652
 20
3706.7631891040664
 30
0.0
 10
-1713.7667200233307
 20
3658.4398295332294
 30
0.0
 10
-1709.519378249687
 20
3614.2751952728604
 30
0.0
 10
-1704.3488723635153
 20
3574.291199122034
 30
0.0
 10
-1698.5236711062523
 20
3538.496656052058
 30
0.0
 10
-1692.3116910281149
 20
3506.887310171112
 30
0.0
 10
-1685.9797293772917
 20
3479.4458848909667
 30
0.0
 10
-1679.7928998473742
 20
3456.1421560600925
 30
0.0
 10
-1667.703495205266
 20
3415.9563808316598
 30
0.0
 10
-1663.8275670822575
 20
3396.0060582972847
 30
0.0
 10
-1662.92648151564
 20
3379.5378289762684
 30
0.0
 10
-1664.7657420921025
 20
3366.7211446996976
 30
0.0
 10
-1669.1030764456243
 20
3357.7137618282445
 30
0.0
 10
-1675.6889534405027
 20
3352.6614179887315
 30
0.0
 10
-1712.7273422087917
 20
3334.396105980055
 30
0.0
 10
-1820.9087088922777
 20
3276.5719607851083
 30
0.0
 10
-1856.6731870653343
 20
3255.9233296848224
 30
0.0
 10
-1864.5329746556238
 20
3253.25430493728
 30
0.0
 10
-1874.432033657245
 20
3254.652177024556
 30
0.0
 10
-1886.1105555627692
 20
3260.243456042511
 30
0.0
 10
-1899.3027715298433
 20
3270.1419392767652
 30
0.0
 10
-1913.7375081737162
 20
3284.4484610773675
 30
0.0
 10
-1940.4342458232406
 20
3316.826454241757
 30
0.0
 10
-1956.3733698125388
 20
3334.917472985682
 30
0.0
 10
-1975.672231650394
 20
3355.4279457194098
 30
0.0
 10
-1998.5032509956495
 20
3378.1542300433484
 30
0.0
 10
-2025.0290174247095
 20
3402.88409050853
 30
0.0
 10
-2055.401916058974
 20
3429.3971270724114
 30
0.0
 10
-2089.763771215528
 20
3457.4652192431395
 30
0.0
 10
-2128.2455054803595
 20
3486.852982111694
 30
0.0
 10
-2170.9668248036264
 20
3517.3182423288895
 30
0.0
 10
-2218.0359130354936
 20
3548.612519103645
 30
0.0
 10
-2269.382032437238
 20
3580.378132676326
 30
0.0
 10
-2359.9764760000835
 20
3531.95439373672
 30
0.0
 10
-2439.3831699098923
 20
3466.7870041951173
 30
0.0
 10
-2429.6848789037185
 20
3407.193201372796
 30
0.0
 10
-2418.7852973496397
 20
3351.731232891835
 30
0.0
 10
-2406.9878080963167
 20
3300.6033300201634
 30
0.0
 10
-2394.5633774640733
 20
3253.80463277722
 30
0.0
 10
-2381.7815544520618
 20
3211.31722485459
 30
0.0
 10
-2368.90990770211
 20
3173.11022563648
 30
0.0
 10
-2356.213467119658
 20
3139.1399050637765
 30
0.0
 10
-2343.95417103023
 20
3109.3498210943717
 30
0.0
 10
-2332.39031975254
 20
3083.670979543773
 30
0.0
 10
-2321.7760364554406
 20
3062.0220158931934
 30
0.0
 10
-2302.0790705038403
 20
3024.966924912166
 30
0.0
 10
-2294.3855024053355
 20
3006.1560982967835
 30
0.0
 10
-2290.288938783941
 20
2990.1800944577817
 30
0.0
 10
-2289.592447421466
 20
2977.2508572376114
 30
0.0
 10
-2292.0891878866732
 20
2967.5703767466143
 30
0.0
 10
-2297.562855715209
 20
2961.3302714135943
 30
0.0
 10
-2330.3261766275014
 20
2936.190091061748
 30
0.0
 10
-2425.14793757818
 20
2858.371882940219
 30
0.0
 10
-2456.1968632410694
 20
2831.1427059330613
 30
0.0
 10
-2463.3849263192537
 20
2826.991597255672
 30
0.0
 10
-2473.366488993531
 20
2826.4313990144756
 30
0.0
 10
-2485.911415799431
 20
2829.6368765746925
 30
0.0
 10
-2500.7812453174797
 20
2836.7714895680447
 30
0.0
 10
-2517.729686489298
 20
2847.9870381437718
 30
0.0
 10
-2550.2300869234145
 20
2874.534622103576
 30
0.0
 10
-2569.3923277869926
 20
2889.1684581633895
 30
0.0
 10
-2592.3217621364224
 20
2905.519806744249
 30
0.0
 10
-2619.1477679738373
 20
2923.3553009714046
 30
0.0
 10
-2649.98840568044
 20
2942.4350637877105
 30
0.0
 10
-2684.9501344249793
 20
2962.5132012132362
 30
0.0
 10
-2724.127549309841
 20
2983.338307475724
 30
0.0
 10
-2767.6031359625363
 20
3004.653978791718
 30
0.0
 10
-2815.44705454028
 20
3026.199341632667
 30
0.0
 10
-2867.7169339733455
 20
3047.7095840740517
 30
0.0
 10
-2924.2736158693397
 20
3068.847699320752
 30
0.0
 10
-3003.6803097791485
 20
3003.680309779149
 30
0.0
 10
-3068.847699320749
 20
2924.273615869338
 30
0.0
 10
-3047.709584074055
 20
2867.7169339733537
 30
0.0
 10
-3026.1993416326604
 20
2815.4470545402655
 30
0.0
 10
-3004.653978792043
 20
2767.6031359632566
 30
0.0
 10
-2983.3383071954863
 20
2724.127548738242
 30
0.0
 10
-2962.5132012353297
 20
2684.9501344126056
 30
0.0
 10
-2942.435063787696
 20
2649.9884056804312
 30
0.0
 10
-2923.3553009713933
 20
2619.1477679738337
 30
0.0
 10
-2905.5198067442984
 20
2592.321762136443
 30
0.0
 10
-2889.1684581592604
 20
2569.39232779532
 30
0.0
 10
-2874.534622049529
 20
2550.2300868572484
 30
0.0
 10
-2847.9870381437695
 20
2517.7296864892933
 30
0.0
 10
-2836.771489577192
 20
2500.781245310498
 30
0.0
 10
-2829.636876543611
 20
2485.911415821597
 30
0.0
 10
-2826.4313990146616
 20
2473.3664889933993
 30
0.0
 10
-2826.991597255664
 20
2463.3849263192506
 30
0.0
 10
-2831.1427059328753
 20
2456.196863241181
 30
0.0
 10
-2858.3718829403942
 20
2425.14793757831
 30
0.0
 10
-2936.1900910615864
 20
2330.3261766273554
 30
0.0
 10
-2961.3302714135216
 20
2297.562855715413
 30
0.0
 10
-2967.570376746619
 20
2292.08918788668
 30
0.0
 10
-2977.2508572377046
 20
2289.5924474212584
 30
0.0
 10
-2990.1800944421057
 20
2290.2889388187505
 30
0.0
 10
-3006.1560983018467
 20
2294.3855023950023
 30
0.0
 10
-3024.9669249121716
 20
2302.0790705038416
 30
0.0
 10
-3062.022015968633
 20
2321.7760364955416
 30
0.0
 10
-3083.670979536412
 20
2332.390319758215
 30
0.0
 10
-3109.349821094342
 20
2343.954171030186
 30
0.0
 10
-3139.139905063783
 20
2356.2134671196695
 30
0.0
 10
-3173.110225636492
 20
2368.9099077021233
 30
0.0
 10
-3211.317224862417
 20
2381.7815544279797
 30
0.0
 10
-3253.8046333925085
 20
2394.5633776274135
 30
0.0
 10
-3300.6033300193944
 20
2406.9878080961394
 30
0.0
 10
-3351.731232891851
 20
2418.7852973496433
 30
0.0
 10
-3407.193201372788
 20
2429.684878903717
 30
0.0
 10
-3466.7870041951173
 20
2439.3831699098932
 30
0.0
 10
-3531.954393736721
 20
2359.976476000085
 30
0.0
 10
-3580.3781326763255
 20
2269.3820324372364
 30
0.0
 10
-3548.612519103651
 20
2218.035913035499
 30
0.0
 10
-3517.318242328881
 20
2170.9668248036114
 30
0.0
 10
-3486.852982112154
 20
2128.2455054810007
 30
0.0
 10
-3457.465218856774
 20
2089.763770709582
 30
0.0
 10
-3429.397127091667
 20
2055.401916042526
 30
0.0
 10
-3402.8840905085144
 20
2025.0290174247018
 30
0.0
 10
-3378.1542300433375
 20
1998.5032509956459
 30
0.0
 10
-3355.4279457194625
 20
1975.6722316504026
 30
0.0
 10
-3334.9174729832575
 20
1956.3733698215099
 30
0.0
 10
-3316.826454175841
 20
1940.4342457688879
 30
0.0
 10
-3284.4484610773648
 20
1913.7375081737102
 30
0.0
 10
-3270.1419392843754
 20
1899.3027715212095
 30
0.0
 10
-3260.2434560163515
 20
1886.1105555905713
 30
0.0
 10
-3254.6521770247127
 20
1874.4320336570775
 30
0.0
 10
-3253.254304937272
 20
1864.5329746556201
 30
0.0
 10
-3255.9233296846623
 20
1856.6731870654778
 30
0.0
 10
-3276.5719607853066
 20
1820.9087088923695
 30
0.0
 10
-3334.396105979868
 20
1712.7273422086778
 30
0.0
 10
-3352.661417988701
 20
1675.688953440715
 30
0.0
 10
-3357.713761828252
 20
1669.1030764456284
 30
0.0
 10
-3366.7211446997494
 20
1664.7657420918788
 30
0.0
 10
-3379.537828967685
 20
1662.9264815528368
 30
0.0
 10
-3396.006058300235
 20
1663.8275670711332
 30
0.0
 10
-3415.9563808316657
 20
1667.7034952052647
 30
0.0
 10
-3456.1421561419056
 20
1679.792899871985
 30
0.0
 10
-3479.4458848848544
 20
1685.9797293842914
 30
0.0
 10
-3506.887310171075
 20
1692.3116910280753
 30
0.0
 10
-3538.496656052067
 20
1698.5236711062596
 30
0.0
 10
-3574.2911991220485
 20
1704.348872363524
 30
0.0
 10
-3614.275195275838
 20
1709.5193782245385
 30
0.0
 10
-3658.4398301685615
 20
1713.7667200634933
 30
0.0
 10
-3706.7631891032784
 20
1716.8224457897386
 30
0.0
 10
-3759.210259635918
 20
1718.4186905598938
 30
0.0
 10
-3815.7329448194337
 20
1718.2887464200899
 30
0.0
 10
-3876.073712146228
 20
1716.17451330124
 30
0.0
 10
-3924.4974510858347
 20
1625.5800697383947
 30
0.0
 10
-3954.316642292342
 20
1527.2793701826809
 30
0.0
 10
-3913.1442651089205
 20
1483.1170158485627
 30
0.0
 10
-3873.268575507197
 20
1443.057557481978
 30
0.0
 10
-3835.054180779375
 20
1407.1005937569419
 30
0.0
 10
-3798.723681126228
 20
1375.0915429255788
 30
0.0
 10
-3764.4912445819364
 20
1346.8657547216083
 30
0.0
 10
-3732.5621899904736
 20
1322.2488996786994
 30
0.0
 10
-3703.1325865454332
 20
1301.0573748552326
 30
0.0
 10
-3676.388870486298
 20
1283.0987252717912
 30
0.0
 10
-3652.5074795637734
 20
1268.1720803922865
 30
0.0
 10
-3631.6545057658795
 20
1256.0686048236932
 30
0.0
 10
-3594.6903715916737
 20
1236.2014706553728
 30
0.0
 10
-3577.8426681815868
 20
1224.835157363628
 30
0.0
 10
-3565.560707839977
 20
1213.8275244511872
 30
0.0
 10
-3557.798497101672
 20
1203.4642064609109
 30
0.0
 10
-3554.4962741261734
 20
1194.0280664181146
 30
0.0
 10
-3555.580645819506
 20
1185.7986015451697
 30
0.0
 10
-3568.855215699964
 20
1146.6929797010657
 30
0.0
 10
-3604.4631484962233
 20
1029.3093565374818
 30
0.0
 10
-3615.1516664647575
 20
989.4192644224835
 30
0.0
 10
-3618.8220900703955
 20
981.974269820562
 30
0.0
 10
-3626.810226649952
 20
975.9630229052939
 30
0.0
 10
-3639.021819992686
 20
971.6586921807645
 30
0.0
 10
-3655.349409980284
 20
969.3296714299717
 30
0.0
 10
-3675.672548726207
 20
969.239009844846
 30
0.0
 10
-3717.4446914814957
 20
973.256264145061
 30
0.0
 10
-3741.5076361729043
 20
974.7778835184572
 30
0.0
 10
-3769.657086602994
 20
975.634621799088
 30
0.0
 10
-3801.870964960056
 20
975.5605629552874
 30
0.0
 10
-3838.114166310942
 20
974.2906656698556
 30
0.0
 10
-3878.33859684369
 20
971.5613310254428
 30
0.0
 10
-3922.48323594793
 20
967.1109685389845
 30
0.0
 10
-3970.4742176066684
 20
960.6805596967605
 30
0.0
 10
-4022.2249442915777
 20
952.0142171922341
 30
0.0
 10
-4077.636211084357
 20
940.8597410389714
 30
0.0
 10
-4136.405081066738
 20
927.0142325881776
 30
0.0
 10
-4166.224272273244
 20
828.7135330324645
 30
0.0
 10
-4176.292980951384
 20
726.4842182401426
 30
0.0
 10
-4127.296071522641
 20
691.2027634841709
 30
0.0
 10
-4080.371369482814
 20
659.692397502314
 30
0.0
 10
-4035.8763980024078
 20
631.8815953259077
 30
0.0
 10
-3993.999322678785
 20
607.5753183071675
 30
0.0
 10
-3954.918074693935
 20
586.5702977777567
 30
0.0
 10
-3918.8000177560916
 20
568.6554982437706
 30
0.0
 10
-3885.8016344872685
 20
553.6125934405146
 30
0.0
 10
-3856.068232702977
 20
541.2164544510401
 30
0.0
 10
-3829.7336720544463
 20
531.2356491126843
 30
0.0
 10
-3806.920111354647
 20
523.4329518065125
 30
0.0
 10
-3766.7903470513006
 20
511.15890388952107
 30
0.0
 10
-3748.0489098178655
 20
503.2978150040324
 30
0.0
 10
-3733.855461250795
 20
494.89778226946214
 30
0.0
 10
-3724.2206161713993
 20
486.24792472095413
 30
0.0
 10
-3719.1409448848817
 20
477.63732920681525
 30
0.0
 10
-3718.5989917281054
 20
469.35444077099794
 30
0.0
 10
-3723.989366112335
 20
428.4104823726815
 30
0.0
 10
-3736.0126936220904
 20
306.3355895378879
 30
0.0
 10
-3738.7136637989865
 20
265.126747945212
 30
0.0
 10
-3740.861114849943
 20
257.10874270380646
 30
0.0
 10
-3747.5230255286046
 20
249.65459207482778
 30
0.0
 10
-3758.660243262316
 20
243.05060418065796
 30
0.0
 10
-3774.219733778357
 20
237.58098012209874
 30
0.0
 10
-3794.1346819141145
 20
233.52721289158882
 30
0.0
 10
-3835.8879120944534
 20
229.31793599544335
 30
0.0
 10
-3859.7853472644856
 20
226.11587025074365
 30
0.0
 10
-3887.56105524481
 20
221.46446119656105
 30
0.0
 10
-3919.1415047984315
 20
215.10720947061006
 30
0.0
 10
-3954.4405585277286
 20
206.7910150829949
 30
0.0
 10
-3993.359621132182
 20
196.266726732911
 30
0.0
 10
-4035.7878107237616
 20
183.28968485560196
 30
0.0
 10
-4081.6021485950287
 20
167.62025845050061
 30
0.0
 10
-4130.6677800278485
 20
149.02437135360069
 30
0.0
 10
-4182.838204522041
 20
127.2740234499469
 30
0.0
 10
-4237.7767224445515
 20
102.22931479232318
 30
0.0
 10
-4247.845431122689
 20
-1.7053025658242404e-13
 30
0.0
 10
-4237.7767224445515
 20
-102.2293147923229
 30
0.0
 10
-4182.83820452205
 20
-127.27402344994371
 30
0.0
 10
-4130.667780027833
 20
-149.02437135360688
 30
0.0
 10
-4081.602148595767
 20
-167.62025845022143
 30
0.0
 10
-4035.7878101214214
 20
-183.28968506162587
 30
0.0
 10
-3993.359621139054
 20
-196.26672675728324
 30
0.0
 10
-3954.440558527712
 20
-206.79101508299064
 30
0.0
 10
-3919.141504798421
 20
-215.10720947060486
 30
0.0
 10
-3887.5610552448593
 20
-221.46446119658174
 30
0.0
 10
-3859.785347267454
 20
-226.1158702419359
 30
0.0
 10
-3835.88791200945
 20
-229.31793600401272
 30
0.0
 10
-3794.1346819141095
 20
-233.52721289159075
 30
0.0
 10
-3774.2197337798875
 20
-237.5809801335036
 30
0.0
 10
-3758.660243256011
 20
-243.05060414300618
 30
0.0
 10
-3747.5230255286424
 20
-249.65459207505285
 30
0.0
 10
-3740.8611148499353
 20
-257.10874270380356
 30
0.0
 10
-3738.713663798934
 20
-265.1267479450022
 30
0.0
 10
-3736.0126936223064
 20
-306.33558953792004
 30
0.0
 10
-3723.9893661121173
 20
-428.41048237267086
 30
0.0
 10
-3718.598991728198
 20
-469.3544407708025
 30
0.0
 10
-3719.14094488489
 20
-477.637329206814
 30
0.0
 10
-3724.2206161713184
 20
-486.2479247211675
 30
0.0
 10
-3733.855461264324
 20
-494.8977822337638
 30
0.0
 10
-3748.048909814139
 20
-503.29781501491937
 30
0.0
 10
-3766.790347051305
 20
-511.1589038895239
 30
0.0
 10
-3806.9201114363455
 20
-523.4329518315006
 30
0.0
 10
-3829.7336720532535
 20
-531.2356491034667
 30
0.0
 10
-3856.068232702925
 20
-541.2164544510508
 30
0.0
 10
-3885.8016344872804
 20
-553.6125934405115
 30
0.0
 10
-3918.800017756109
 20
-568.6554982437697
 30
0.0
 10
-3954.91807468244
 20
-586.5702978003198
 30
0.0
 10
-3993.9993232293577
 20
-607.5753186267434
 30
0.0
 10
-4035.876398001738
 20
-631.8815953254898
 30
0.0
 10
-4080.371369482828
 20
-659.6923975023232
 30
0.0
 10
-4127.296071522634
 20
-691.2027634841662
 30
0.0
 10
-4176.292980951384
 20
-726.4842182401424
 30
0.0
 10
-4166.224272273247
 20
-828.7135330324638
 30
0.0
 10
-4136.405081066739
 20
-927.0142325881773
 30
0.0
 10
-4077.636211084366
 20
-940.85974103897
 30
0.0
 10
-4022.2249442915618
 20
-952.0142171922373
 30
0.0
 10
-3970.474217607448
 20
-960.6805596966308
 30
0.0
 10
-3922.483235316971
 20
-967.1109686235391
 30
0.0
 10
-3878.3385968456755
 20
-971.5613310506874
 30
0.0
 10
-3838.1141663109265
 20
-974.2906656698482
 30
0.0
 10
-3801.8709649600473
 20
-975.5605629552801
 30
0.0
 10
-3769.657086603039
 20
-975.634621799118
 30
0.0
 10
-3741.507636177534
 20
-974.7778835103977
 30
0.0
 10
-3717.444691396454
 20
-973.2562641368824
 30
0.0
 10
-3675.6725487262024
 20
-969.239009844847
 30
0.0
 10
-3655.349409979561
 20
-969.3296714414562
 30
0.0
 10
-3639.0218199938486
 20
-971.6586921426066
 30
0.0
 10
-3626.8102266499454
 20
-975.9630229055222
 30
0.0
 10
-3618.8220900703886
 20
-981.9742698205577
 30
0.0
 10
-3615.1516664647474
 20
-989.4192644222674
 30
0.0
 10
-3604.4631484964293
 20
-1029.3093565375555
 30
0.0
 10
-3568.8552156997525
 20
-1146.6929797010127
 30
0.0
 10
-3555.580645819636
 20
-1185.7986015449962
 30
0.0
 10
-3554.496274126182
 20
-1194.028066418115
 30
0.0
 10
-3557.7984971015517
 20
-1203.4642064611044
 30
0.0
 10
-3565.560707860211
 20
-1213.8275244188142
 30
0.0
 10
-3577.8426681758083
 20
-1224.835157373579
 30
0.0
 10
-3594.6903715916783
 20
-1236.2014706553766
 30
0.0
 10
-3631.654505841134
 20
-1256.0686048641398
 30
0.0
 10
-3652.507479564402
 20
-1268.1720803830137
 30
0.0
 10
-3676.3888704862457
 20
-1283.0987252717916
 30
0.0
 10
-3703.1325865454455
 20
-1301.0573748552322
 30
0.0
 10
-3732.5621899904913
 20
-1322.2488996787022
 30
0.0
 10
-3764.4912445662612
 20
-1346.8657547414955
 30
0.0
 10
-3798.723681603876
 20
-1375.0915433464256
 30
0.0
 10
-3835.0541807788
 20
-1407.1005937564012
 30
0.0
 10
-3873.268575507209
 20
-1443.0575574819898
 30
0.0
 10
-3913.1442651089146
 20
-1483.1170158485565
 30
0.0
 10
-3954.3166422923405
 20
-1527.27937018268
 30
0.0
 10
-3924.4974510858324
 20
-1625.5800697383947
 30
0.0
 10
-3876.073712146226
 20
-1716.174513301241
 30
0.0
 10
-3815.732944819442
 20
-1718.288746420092
 30
0.0
 10
-3759.2102596359014
 20
-1718.4186905598954
 30
0.0
 10
-3706.7631891040674
 20
-1716.8224457897652
 30
0.0
 10
-3658.4398295332294
 20
-1713.7667200233307
 30
0.0
 10
-3614.275195272861
 20
-1709.519378249687
 30
0.0
 10
-3574.2911991220344
 20
-1704.3488723635153
 30
0.0
 10
-3538.4966560520584
 20
-1698.5236711062523
 30
0.0
 10
-3506.8873101711124
 20
-1692.3116910281149
 30
0.0
 10
-3479.445884890967
 20
-1685.9797293772917
 30
0.0
 10
-3456.142156060093
 20
-1679.792899847374
 30
0.0
 10
-3415.95638083166
 20
-1667.703495205266
 30
0.0
 10
-3396.0060582972847
 20
-1663.8275670822572
 30
0.0
 10
-3379.537828976269
 20
-1662.92648151564
 30
0.0
 10
-3366.721144699698
 20
-1664.7657420921025
 30
0.0
 10
-3357.713761828245
 20
-1669.103076445624
 30
0.0
 10
-3352.6614179887315
 20
-1675.6889534405025
 30
0.0
 10
-3334.3961059800554
 20
-1712.7273422087917
 30
0.0
 10
-3276.571960785109
 20
-1820.9087088922777
 30
0.0
 10
-3255.923329684823
 20
-1856.6731870653343
 30
0.0
 10
-3253.25430493728
 20
-1864.5329746556235
 30
0.0
 10
-3254.6521770245563
 20
-1874.432033657245
 30
0.0
 10
-3260.2434560425113
 20
-1886.1105555627692
 30
0.0
 10
-3270.1419392767657
 20
-1899.302771529843
 30
0.0
 10
-3284.4484610773675
 20
-1913.7375081737162
 30
0.0
 10
-3316.8264542417573
 20
-1940.4342458232404
 30
0.0
 10
-3334.9174729856823
 20
-1956.3733698125388
 30
0.0
 10
-3355.42794571941
 20
-1975.6722316503938
 30
0.0
 10
-3378.154230043349
 20
-1998.5032509956495
 30
0.0
 10
-3402.8840905085303
 20
-2025.0290174247093
 30
0.0
 10
-3429.397127072412
 20
-2055.401916058974
 30
0.0
 10
-3457.46521924314
 20
-2089.763771215528
 30
0.0
 10
-3486.8529821116945
 20
-2128.2455054803595
 30
0.0
 10
-3517.31824232889
 20
-2170.966824803626
 30
0.0
 10
-3548.6125191036454
 20
-2218.0359130354936
 30
0.0
 10
-3580.3781326763255
 20
-2269.3820324372377
 30
0.0
 10
-3531.954393736719
 20
-2359.9764760000835
 30
0.0
 10
-3466.787004195118
 20
-2439.3831699098923
 30
0.0
 10
-3407.1932013727965
 20
-2429.6848789037185
 30
0.0
 10
-3351.7312328918356
 20
-2418.7852973496397
 30
0.0
 10
-3300.603330020164
 20
-2406.9878080963167
 30
0.0
 10
-3253.8046327772204
 20
-2394.5633774640733
 30
0.0
 10
-3211.3172248545907
 20
-2381.7815544520618
 30
0.0
 10
-3173.110225636481
 20
-2368.90990770211
 30
0.0
 10
-3139.139905063777
 20
-2356.213467119658
 30
0.0
 10
-3109.349821094372
 20
-2343.95417103023
 30
0.0
 10
-3083.6709795437732
 20
-2332.3903197525397
 30
0.0
 10
-3062.022015893194
 20
-2321.7760364554406
 30
0.0
 10
-3024.9669249121666
 20
-2302.07907050384
 30
0.0
 10
-3006.156098296784
 20
-2294.3855024053355
 30
0.0
 10
-2990.180094457782
 20
-2290.288938783941
 30
0.0
 10
-2977.250857237612
 20
-2289.592447421466
 30
0.0
 10
-2967.570376746615
 20
-2292.0891878866732
 30
0.0
 10
-2961.3302714135943
 20
-2297.562855715209
 30
0.0
 10
-2936.190091061748
 20
-2330.3261766275014
 30
0.0
 10
-2858.3718829402196
 20
-2425.14793757818
 30
0.0
 10
-2831.1427059330617
 20
-2456.1968632410694
 30
0.0
 10
-2826.9915972556723
 20
-2463.3849263192537
 30
0.0
 10
-2826.431399014476
 20
-2473.366488993531
 30
0.0
 10
-2829.636876574693
 20
-2485.911415799431
 30
0.0
 10
-2836.771489568045
 20
-2500.7812453174797
 30
0.0
 10
-2847.987038143772
 20
-2517.729686489298
 30
0.0
 10
-2874.5346221035766
 20
-2550.2300869234145
 30
0.0
 10
-2889.16845816339
 20
-2569.3923277869926
 30
0.0
 10
-2905.5198067442493
 20
-2592.3217621364224
 30
0.0
 10
-2923.355300971405
 20
-2619.1477679738373
 30
0.0
 10
-2942.435063787711
 20
-2649.98840568044
 30
0.0
 10
-2962.513201213237
 20
-2684.9501344249793
 30
0.0
 10
-2983.338307475725
 20
-2724.127549309841
 30
0.0
 10
-3004.6539787917186
 20
-2767.6031359625363
 30
0.0
 10
-3026.1993416326677
 20
-2815.44705454028
 30
0.0
 10
-3047.709584074052
 20
-2867.7169339733455
 30
0.0
 10
-3068.8476993207523
 20
-2924.27361586934
 30
0.0
 10
-3003.68030977915
 20
-3003.6803097791485
 30
0.0
 10
-2924.2736158693383
 20
-3068.8476993207487
 30
0.0
 10
-2867.7169339733537
 20
-3047.7095840740544
 30
0.0
 10
-2815.4470545402655
 20
-3026.1993416326604
 30
0.0
 10
-2767.6031359632566
 20
-3004.6539787920424
 30
0.0
 10
-2724.127548738242
 20
-2983.338307195486
 30
0.0
 10
-2684.9501344126056
 20
-2962.5132012353297
 30
0.0
 10
-2649.9884056804312
 20
-2942.435063787695
 30
0.0
 10
-2619.1477679738337
 20
-2923.355300971393
 30
0.0
 10
-2592.321762136443
 20
-2905.519806744298
 30
0.0
 10
-2569.39232779532
 20
-2889.16845815926
 30
0.0
 10
-2550.2300868572484
 20
-2874.5346220495285
 30
0.0
 10
-2517.7296864892933
 20
-2847.987038143769
 30
0.0
 10
-2500.781245310498
 20
-2836.7714895771915
 30
0.0
 10
-2485.911415821597
 20
-2829.6368765436105
 30
0.0
 10
-2473.3664889933993
 20
-2826.431399014661
 30
0.0
 10
-2463.3849263192506
 20
-2826.9915972556637
 30
0.0
 10
-2456.196863241181
 20
-2831.142705932875
 30
0.0
 10
-2425.14793757831
 20
-2858.371882940394
 30
0.0
 10
-2330.3261766273554
 20
-2936.190091061586
 30
0.0
 10
-2297.562855715413
 20
-2961.3302714135216
 30
0.0
 10
-2292.08918788668
 20
-2967.5703767466184
 30
0.0
 10
-2289.5924474212584
 20
-2977.2508572377046
 30
0.0
 10
-2290.28893881875
 20
-2990.180094442105
 30
0.0
 10
-2294.3855023950023
 20
-3006.156098301846
 30
0.0
 10
-2302.0790705038416
 20
-3024.966924912171
 30
0.0
 10
-2321.7760364955416
 20
-3062.0220159686323
 30
0.0
 10
-2332.3903197582144
 20
-3083.6709795364113
 30
0.0
 10
-2343.954171030186
 20
-3109.349821094342
 30
0.0
 10
-2356.2134671196695
 20
-3139.1399050637824
 30
0.0
 10
-2368.9099077021233
 20
-3173.1102256364916
 30
0.0
 10
-2381.7815544279797
 20
-3211.3172248624164
 30
0.0
 10
-2394.5633776274135
 20
-3253.804633392508
 30
0.0
 10
-2406.9878080961394
 20
-3300.603330019394
 30
0.0
 10
-2418.785297349643
 20
-3351.7312328918506
 30
0.0
 10
-2429.684878903717
 20
-3407.1932013727874
 30
0.0
 10
-2439.383169909895
 20
-3466.7870041951187
 30
0.0
 10
-2359.976476000086
 20
-3531.954393736723
 30
0.0
 10
-2269.3820324372364
 20
-3580.3781326763255
 30
0.0
 10
-2218.035913035499
 20
-3548.612519103651
 30
0.0
 10
-2170.9668248036114
 20
-3517.318242328881
 30
0.0
 10
-2128.2455054810007
 20
-3486.852982112154
 30
0.0
 10
-2089.7637707095823
 20
-3457.465218856774
 30
0.0
 10
-2055.4019160425264
 20
-3429.397127091667
 30
0.0
 10
-2025.0290174247023
 20
-3402.8840905085144
 30
0.0
 10
-1998.503250995646
 20
-3378.1542300433375
 30
0.0
 10
-1975.6722316504026
 20
-3355.4279457194625
 30
0.0
 10
-1956.3733698215099
 20
-3334.9174729832575
 30
0.0
 10
-1940.4342457688883
 20
-3316.826454175841
 30
0.0
 10
-1913.7375081737105
 20
-3284.4484610773648
 30
0.0
 10
-1899.3027715212097
 20
-3270.1419392843754
 30
0.0
 10
-1886.1105555905717
 20
-3260.2434560163515
 30
0.0
 10
-1874.4320336570777
 20
-3254.6521770247127
 30
0.0
 10
-1864.5329746556201
 20
-3253.254304937272
 30
0.0
 10
-1856.673187065478
 20
-3255.9233296846623
 30
0.0
 10
-1820.9087088923698
 20
-3276.5719607853066
 30
0.0
 10
-1712.727342208678
 20
-3334.396105979868
 30
0.0
 10
-1675.6889534407153
 20
-3352.6614179887006
 30
0.0
 10
-1669.1030764456286
 20
-3357.713761828252
 30
0.0
 10
-1664.765742091879
 20
-3366.7211446997494
 30
0.0
 10
-1662.926481552837
 20
-3379.537828967685
 30
0.0
 10
-1663.8275670711334
 20
-3396.006058300235
 30
0.0
 10
-1667.7034952052647
 20
-3415.9563808316657
 30
0.0
 10
-1679.7928998719851
 20
-3456.1421561419056
 30
0.0
 10
-1685.9797293842917
 20
-3479.445884884854
 30
0.0
 10
-1692.3116910280755
 20
-3506.887310171075
 30
0.0
 10
-1698.5236711062598
 20
-3538.496656052067
 30
0.0
 10
-1704.3488723635242
 20
-3574.2911991220485
 30
0.0
 10
-1709.5193782245387
 20
-3614.275195275838
 30
0.0
 10
-1713.7667200634935
 20
-3658.4398301685615
 30
0.0
 10
-1716.8224457897386
 20
-3706.7631891032784
 30
0.0
 10
-1718.418690559894
 20
-3759.210259635918
 30
0.0
 10
-1718.28874642009
 20
-3815.7329448194337
 30
0.0
 10
-1716.1745133012384
 20
-3876.073712146225
 30
0.0
 10
-1625.5800697383947
 20
-3924.4974510858297
 30
0.0
 10
-1527.279370182682
 20
-3954.31664229234
 30
0.0
 10
-1483.1170158485645
 20
-3913.1442651089196
 30
0.0
 10
-1443.0575574819798
 20
-3873.268575507196
 30
0.0
 10
-1407.1005937569437
 20
-3835.0541807793743
 30
0.0
 10
-1375.0915429255808
 20
-3798.723681126227
 30
0.0
 10
-1346.8657547216103
 20
-3764.491244581936
 30
0.0
 10
-1322.2488996787013
 20
-3732.562189990473
 30
0.0
 10
-1301.0573748552345
 20
-3703.1325865454323
 30
0.0
 10
-1283.098725271793
 20
-3676.3888704862975
 30
0.0
 10
-1268.1720803922885
 20
-3652.5074795637724
 30
0.0
 10
-1256.0686048236948
 20
-3631.654505765879
 30
0.0
 10
-1236.2014706553746
 20
-3594.6903715916733
 30
0.0
 10
-1224.8351573636298
 20
-3577.8426681815863
 30
0.0
 10
-1213.827524451189
 20
-3565.560707839977
 30
0.0
 10
-1203.4642064609127
 20
-3557.798497101672
 30
0.0
 10
-1194.0280664181166
 20
-3554.4962741261725
 30
0.0
 10
-1185.7986015451716
 20
-3555.5806458195057
 30
0.0
 10
-1146.6929797010673
 20
-3568.855215699963
 30
0.0
 10
-1029.3093565374836
 20
-3604.463148496223
 30
0.0
 10
-989.4192644224854
 20
-3615.1516664647575
 30
0.0
 10
-981.9742698205639
 20
-3618.8220900703946
 30
0.0
 10
-975.9630229052958
 20
-3626.8102266499513
 30
0.0
 10
-971.6586921807664
 20
-3639.0218199926853
 30
0.0
 10
-969.3296714299735
 20
-3655.3494099802833
 30
0.0
 10
-969.2390098448478
 20
-3675.672548726207
 30
0.0
 10
-973.2562641450629
 20
-3717.4446914814953
 30
0.0
 10
-974.777883518459
 20
-3741.5076361729034
 30
0.0
 10
-975.6346217990899
 20
-3769.6570866029933
 30
0.0
 10
-975.5605629552892
 20
-3801.8709649600555
 30
0.0
 10
-974.2906656698576
 20
-3838.1141663109415
 30
0.0
 10
-971.5613310254447
 20
-3878.3385968436896
 30
0.0
 10
-967.1109685389864
 20
-3922.483235947929
 30
0.0
 10
-960.6805596967624
 20
-3970.4742176066675
 30
0.0
 10
-952.0142171922362
 20
-4022.2249442915772
 30
0.0
 10
-940.8597410389735
 20
-4077.636211084356
 30
0.0
 10
-927.0142325881801
 20
-4136.40508106674
 30
0.0
 10
-828.7135330324656
 20
-4166.224272273249
 30
0.0
 10
-726.4842182401429
 20
-4176.292980951384
 30
0.0
 10
-691.2027634841712
 20
-4127.296071522641
 30
0.0
 10
-659.6923975023143
 20
-4080.371369482814
 30
0.0
 10
-631.881595325908
 20
-4035.8763980024078
 30
0.0
 10
-607.5753183071678
 20
-3993.999322678785
 30
0.0
 10
-586.5702977777569
 20
-3954.918074693935
 30
0.0
 10
-568.6554982437708
 20
-3918.8000177560916
 30
0.0
 10
-553.6125934405148
 20
-3885.8016344872685
 30
0.0
 10
-541.2164544510404
 20
-3856.068232702977
 30
0.0
 10
-531.2356491126845
 20
-3829.7336720544463
 30
0.0
 10
-523.4329518065127
 20
-3806.920111354647
 30
0.0
 10
-511.1589038895213
 20
-3766.7903470513006
 30
0.0
 10
-503.2978150040326
 20
-3748.0489098178655
 30
0.0
 10
-494.89778226946237
 20
-3733.855461250795
 30
0.0
 10
-486.24792472095436
 20
-3724.2206161713993
 30
0.0
 10
-477.6373292068155
 20
-3719.1409448848817
 30
0.0
 10
-469.35444077099817
 20
-3718.5989917281054
 30
0.0
 10
-428.4104823726817
 20
-3723.989366112335
 30
0.0
 10
-306.33558953788815
 20
-3736.0126936220904
 30
0.0
 10
-265.12674794521223
 20
-3738.7136637989865
 30
0.0
 10
-257.1087427038067
 20
-3740.861114849943
 30
0.0
 10
-249.654592074828
 20
-3747.5230255286046
 30
0.0
 10
-243.05060418065818
 20
-3758.660243262316
 30
0.0
 10
-237.58098012209896
 20
-3774.219733778357
 30
0.0
 10
-233.52721289158907
 20
-3794.1346819141145
 30
0.0
 10
-229.31793599544358
 20
-3835.8879120944534
 30
0.0
 10
-226.11587025074388
 20
-3859.7853472644856
 30
0.0
 10
-221.46446119656127
 20
-3887.56105524481
 30
0.0
 10
-215.1072094706103
 20
-3919.1415047984315
 30
0.0
 10
-206.79101508299516
 20
-3954.4405585277286
 30
0.0
 10
-196.26672673291125
 20
-3993.359621132182
 30
0.0
 10
-183.28968485560222
 20
-4035.7878107237616
 30
0.0
 10
-167.62025845050084
 20
-4081.6021485950287
 30
0.0
 10
-149.02437135360094
 20
-4130.6677800278485
 30
0.0
 10
-127.27402344994715
 20
-4182.838204522041
 30
0.0
 10
-102.22931479232335
 20
-4237.7767224445515
 30
0.0
 10
-5.684341886080802e-14
 20
-4247.845431122689
 30
0.0
 10
102.22931479232273
 20
-4237.7767224445515
 30
0.0
 10
127.27402344994348
 20
-4182.83820452205
 30
0.0
 10
149.02437135360665
 20
-4130.667780027833
 30
0.0
 10
167.6202584502212
 20
-4081.602148595767
 30
0.0
 10
183.28968506162565
 20
-4035.7878101214214
 30
0.0
 10
196.26672675728312
 20
-3993.359621139054
 30
0.0
 10
206.7910150829904
 20
-3954.440558527712
 30
0.0
 10
215.10720947060463
 20
-3919.1415047984206
 30
0.0
 10
221.4644611965815
 20
-3887.5610552448593
 30
0.0
 10
226.11587024193568
 20
-3859.785347267454
 30
0.0
 10
229.3179360040125
 20
-3835.88791200945
 30
0.0
 10
233.52721289159052
 20
-3794.1346819141095
 30
0.0
 10
237.58098013350337
 20
-3774.2197337798875
 30
0.0
 10
243.05060414300607
 20
-3758.660243256011
 30
0.0
 10
249.65459207505262
 20
-3747.5230255286424
 30
0.0
 10
257.10874270380333
 20
-3740.8611148499353
 30
0.0
 10
265.12674794500197
 20
-3738.713663798934
 30
0.0
 10
306.3355895379198
 20
-3736.0126936223064
 30
0.0
 10
428.41048237267063
 20
-3723.9893661121173
 30
0.0
 10
469.3544407708023
 20
-3718.598991728198
 30
0.0
 10
477.6373292068138
 20
-3719.14094488489
 30
0.0
 10
486.2479247211673
 20
-3724.2206161713184
 30
0.0
 10
494.89778223376356
 20
-3733.855461264324
 30
0.0
 10
503.29781501491914
 20
-3748.048909814139
 30
0.0
 10
511.1589038895237
 20
-3766.790347051305
 30
0.0
 10
523.4329518315004
 20
-3806.9201114363455
 30
0.0
 10
531.2356491034665
 20
-3829.7336720532535
 30
0.0
 10
541.2164544510506
 20
-3856.068232702925
 30
0.0
 10
553.6125934405113
 20
-3885.8016344872804
 30
0.0
 10
568.6554982437694
 20
-3918.800017756109
 30
0.0
 10
586.5702978003196
 20
-3954.91807468244
 30
0.0
 10
607.5753186267432
 20
-3993.9993232293577
 30
0.0
 10
631.8815953254896
 20
-4035.8763980017375
 30
0.0
 10
659.6923975023229
 20
-4080.371369482828
 30
0.0
 10
691.202763484166
 20
-4127.296071522634
 30
0.0
 10
726.4842182401421
 20
-4176.292980951384
 30
0.0
 10
828.7135330324654
 20
-4166.224272273247
 30
0.0
 10
927.0142325881793
 20
-4136.405081066739
 30
0.0
 10
940.8597410389715
 20
-4077.636211084365
 30
0.0
 10
952.0142171922388
 20
-4022.2249442915613
 30
0.0
 10
960.6805596966323
 20
-3970.474217607447
 30
0.0
 10
967.1109686235404
 20
-3922.4832353169704
 30
0.0
 10
971.561331050689
 20
-3878.3385968456755
 30
0.0
 10
974.2906656698497
 20
-3838.114166310926
 30
0.0
 10
975.5605629552816
 20
-3801.8709649600464
 30
0.0
 10
975.6346217991193
 20
-3769.657086603038
 30
0.0
 10
974.7778835103993
 20
-3741.5076361775336
 30
0.0
 10
973.2562641368838
 20
-3717.4446913964534
 30
0.0
 10
969.2390098448482
 20
-3675.6725487262015
 30
0.0
 10
969.3296714414574
 20
-3655.3494099795603
 30
0.0
 10
971.6586921426078
 20
-3639.0218199938477
 30
0.0
 10
975.9630229055236
 20
-3626.8102266499445
 30
0.0
 10
981.9742698205591
 20
-3618.8220900703877
 30
0.0
 10
989.419264422269
 20
-3615.1516664647465
 30
0.0
 10
1029.3093565375568
 20
-3604.4631484964284
 30
0.0
 10
1146.692979701014
 20
-3568.855215699752
 30
0.0
 10
1185.7986015449976
 20
-3555.5806458196353
 30
0.0
 10
1194.0280664181164
 20
-3554.4962741261816
 30
0.0
 10
1203.464206461106
 20
-3557.798497101551
 30
0.0
 10
1213.8275244188155
 20
-3565.56070786021
 30
0.0
 10
1224.8351573735802
 20
-3577.8426681758083
 30
0.0
 10
1236.201470655378
 20
-3594.6903715916774
 30
0.0
 10
1256.0686048641412
 20
-3631.654505841133
 30
0.0
 10
1268.1720803830149
 20
-3652.507479564401
 30
0.0
 10
1283.098725271793
 20
-3676.3888704862447
 30
0.0
 10
1301.0573748552335
 20
-3703.1325865454446
 30
0.0
 10
1322.2488996787035
 20
-3732.5621899904904
 30
0.0
 10
1346.8657547414969
 20
-3764.4912445662603
 30
0.0
 10
1375.0915433464272
 20
-3798.723681603875
 30
0.0
 10
1407.1005937564025
 20
-3835.054180778799
 30
0.0
 10
1443.0575574819911
 20
-3873.2685755072084
 30
0.0
 10
1483.1170158485581
 20
-3913.1442651089137
 30
0.0
 10
1527.2793701826818
 20
-3954.316642292341
 30
0.0
 10
1625.580069738393
 20
-3924.497451085834
 30
0.0
 10
1716.174513301239
 20
-3876.073712146228
 30
0.0
 10
1718.2887464200899
 20
-3815.7329448194423
 30
0.0
 10
1718.4186905598933
 20
-3759.210259635902
 30
0.0
 10
1716.8224457897632
 20
-3706.763189104068
 30
0.0
 10
1713.7667200233286
 20
-3658.4398295332303
 30
0.0
 10
1709.5193782496851
 20
-3614.275195272861
 30
0.0
 10
1704.3488723635132
 20
-3574.291199122035
 30
0.0
 10
1698.5236711062503
 20
-3538.4966560520593
 30
0.0
 10
1692.311691028113
 20
-3506.8873101711133
 30
0.0
 10
1685.9797293772897
 20
-3479.4458848909676
 30
0.0
 10
1679.7928998473722
 20
-3456.142156060094
 30
0.0
 10
1667.7034952052643
 20
-3415.9563808316607
 30
0.0
 10
1663.8275670822554
 20
-3396.0060582972856
 30
0.0
 10
1662.9264815156384
 20
-3379.53782897627
 30
0.0
 10
1664.7657420921012
 20
-3366.7211446996985
 30
0.0
 10
1669.1030764456223
 20
-3357.713761828246
 30
0.0
 10
1675.6889534405007
 20
-3352.661417988732
 30
0.0
 10
1712.7273422087897
 20
-3334.396105980056
 30
0.0
 10
1820.9087088922763
 20
-3276.5719607851097
 30
0.0
 10
1856.6731870653325
 20
-3255.923329684823
 30
0.0
 10
1864.5329746556217
 20
-3253.2543049372807
 30
0.0
 10
1874.4320336572437
 20
-3254.6521770245563
 30
0.0
 10
1886.1105555627673
 20
-3260.2434560425118
 30
0.0
 10
1899.3027715298417
 20
-3270.1419392767666
 30
0.0
 10
1913.7375081737148
 20
-3284.4484610773684
 30
0.0
 10
1940.4342458232386
 20
-3316.8264542417583
 30
0.0
 10
1956.373369812537
 20
-3334.917472985683
 30
0.0
 10
1975.672231650392
 20
-3355.4279457194107
 30
0.0
 10
1998.5032509956475
 20
-3378.1542300433493
 30
0.0
 10
2025.0290174247075
 20
-3402.8840905085312
 30
0.0
 10
2055.4019160589723
 20
-3429.397127072413
 30
0.0
 10
2089.763771215526
 20
-3457.465219243141
 30
0.0
 10
2128.2455054803577
 20
-3486.8529821116954
 30
0.0
 10
2170.966824803624
 20
-3517.318242328891
 30
0.0
 10
2218.035913035491
 20
-3548.6125191036463
 30
0.0
 10
2269.3820324372373
 20
-3580.37813267633
 30
0.0
 10
2359.9764760000885
 20
-3531.954393736721
 30
0.0
 10
2439.3831699098946
 20
-3466.787004195115
 30
0.0
 10
2429.6848789037213
 20
-3407.1932013727937
 30
0.0
 10
2418.7852973496424
 20
-3351.7312328918333
 30
0.0
 10
2406.9878080963194
 20
-3300.6033300201616
 30
0.0
 10
2394.563377464076
 20
-3253.804632777218
 30
0.0
 10
2381.7815544520645
 20
-3211.3172248545884
 30
0.0
 10
2368.9099077021124
 20
-3173.1102256364784
 30
0.0
 10
2356.213467119661
 20
-3139.139905063775
 30
0.0
 10
2343.954171030233
 20
-3109.34982109437
 30
0.0
 10
2332.3903197525424
 20
-3083.670979543771
 30
0.0
 10
2321.7760364554433
 20
-3062.022015893192
 30
0.0
 10
2302.0790705038426
 20
-3024.966924912165
 30
0.0
 10
2294.385502405338
 20
-3006.1560982967812
 30
0.0
 10
2290.2889387839436
 20
-2990.18009445778
 30
0.0
 10
2289.592447421469
 20
-2977.250857237609
 30
0.0
 10
2292.089187886675
 20
-2967.570376746612
 30
0.0
 10
2297.5628557152113
 20
-2961.330271413592
 30
0.0
 10
2330.326176627504
 20
-2936.190091061746
 30
0.0
 10
2425.1479375781823
 20
-2858.371882940217
 30
0.0
 10
2456.1968632410717
 20
-2831.1427059330595
 30
0.0
 10
2463.3849263192565
 20
-2826.99159725567
 30
0.0
 10
2473.3664889935335
 20
-2826.4313990144738
 30
0.0
 10
2485.911415799433
 20
-2829.6368765746906
 30
0.0
 10
2500.781245317482
 20
-2836.7714895680424
 30
0.0
 10
2517.7296864893
 20
-2847.9870381437695
 30
0.0
 10
2550.230086923417
 20
-2874.534622103574
 30
0.0
 10
2569.392327786995
 20
-2889.168458163387
 30
0.0
 10
2592.3217621364247
 20
-2905.519806744247
 30
0.0
 10
2619.14776797384
 20
-2923.3553009714024
 30
0.0
 10
2649.988405680442
 20
-2942.4350637877083
 30
0.0
 10
2684.950134424982
 20
-2962.5132012132344
 30
0.0
 10
2724.1275493098437
 20
-2983.338307475722
 30
0.0
 10
2767.603135962539
 20
-3004.653978791716
 30
0.0
 10
2815.447054540283
 20
-3026.199341632665
 30
0.0
 10
2867.7169339733477
 20
-3047.7095840740494
 30
0.0
 10
2924.27361586934
 20
-3068.8476993207482
 30
0.0
 10
3003.6803097791462
 20
-3003.680309779147
 30
0.0
 10
3068.8476993207487
 20
-2924.2736158693383
 30
0.0
 10
3047.7095840740544
 20
-2867.7169339733537
 30
0.0
 10
3026.1993416326604
 20
-2815.4470545402655
 30
0.0
 10
3004.6539787920424
 20
-2767.6031359632566
 30
0.0
 10
2983.338307195486
 20
-2724.127548738242
 30
0.0
 10
2962.5132012353297
 20
-2684.9501344126056
 30
0.0
 10
2942.435063787695
 20
-2649.9884056804312
 30
0.0
 10
2923.355300971393
 20
-2619.1477679738337
 30
0.0
 10
2905.519806744298
 20
-2592.321762136443
 30
0.0
 10
2889.16845815926
 20
-2569.39232779532
 30
0.0
 10
2874.5346220495285
 20
-2550.2300868572484
 30
0.0
 10
2847.987038143769
 20
-2517.7296864892933
 30
0.0
 10
2836.7714895771915
 20
-2500.781245310498
 30
0.0
 10
2829.6368765436105
 20
-2485.911415821597
 30
0.0
 10
2826.431399014661
 20
-2473.3664889933993
 30
0.0
 10
2826.9915972556637
 20
-2463.3849263192506
 30
0.0
 10
2831.142705932875
 20
-2456.196863241181
 30
0.0
 10
2858.371882940394
 20
-2425.14793757831
 30
0.0
 10
2936.190091061586
 20
-2330.3261766273554
 30
0.0
 10
2961.3302714135216
 20
-2297.562855715413
 30
0.0
 10
2967.5703767466184
 20
-2292.08918788668
 30
0.0
 10
2977.2508572377046
 20
-2289.5924474212584
 30
0.0
 10
2990.180094442105
 20
-2290.28893881875
 30
0.0
 10
3006.156098301846
 20
-2294.3855023950023
 30
0.0
 10
3024.966924912171
 20
-2302.0790705038416
 30
0.0
 10
3062.0220159686323
 20
-2321.7760364955416
 30
0.0
 10
3083.6709795364113
 20
-2332.3903197582144
 30
0.0
 10
3109.349821094342
 20
-2343.954171030186
 30
0.0
 10
3139.1399050637824
 20
-2356.2134671196695
 30
0.0
 10
3173.1102256364916
 20
-2368.9099077021233
 30
0.0
 10
3211.3172248624164
 20
-2381.7815544279797
 30
0.0
 10
3253.804633392508
 20
-2394.5633776274135
 30
0.0
 10
3300.603330019394
 20
-2406.9878080961394
 30
0.0
 10
3351.7312328918506
 20
-2418.785297349643
 30
0.0
 10
3407.1932013727874
 20
-2429.684878903717
 30
0.0
 10
3466.7870041951187
 20
-2439.383169909895
 30
0.0
 10
3531.954393736723
 20
-2359.976476000086
 30
0.0
 10
3580.3781326763255
 20
-2269.3820324372373
 30
0.0
 10
3548.612519103651
 20
-2218.0359130354996
 30
0.0
 10
3517.318242328881
 20
-2170.966824803612
 30
0.0
 10
3486.8529821121538
 20
-2128.245505481001
 30
0.0
 10
3457.465218856774
 20
-2089.763770709583
 30
0.0
 10
3429.397127091667
 20
-2055.401916042527
 30
0.0
 10
3402.8840905085144
 20
-2025.0290174247023
 30
0.0
 10
3378.1542300433375
 20
-1998.5032509956463
 30
0.0
 10
3355.4279457194625
 20
-1975.672231650403
 30
0.0
 10
3334.9174729832575
 20
-1956.37336982151
 30
0.0
 10
3316.826454175841
 20
-1940.4342457688883
 30
0.0
 10
3284.4484610773648
 20
-1913.7375081737107
 30
0.0
 10
3270.141939284375
 20
-1899.30277152121
 30
0.0
 10
3260.2434560163515
 20
-1886.1105555905717
 30
0.0
 10
3254.6521770247127
 20
-1874.432033657078
 30
0.0
 10
3253.254304937272
 20
-1864.5329746556206
 30
0.0
 10
3255.9233296846623
 20
-1856.6731870654783
 30
0.0
 10
3276.571960785306
 20
-1820.90870889237
 30
0.0
 10
3334.396105979868
 20
-1712.7273422086782
 30
0.0
 10
3352.6614179887006
 20
-1675.6889534407153
 30
0.0
 10
3357.713761828252
 20
-1669.1030764456289
 30
0.0
 10
3366.7211446997494
 20
-1664.765742091879
 30
0.0
 10
3379.537828967685
 20
-1662.9264815528372
 30
0.0
 10
3396.006058300235
 20
-1663.8275670711337
 30
0.0
 10
3415.9563808316657
 20
-1667.7034952052652
 30
0.0
 10
3456.1421561419056
 20
-1679.7928998719854
 30
0.0
 10
3479.445884884854
 20
-1685.9797293842919
 30
0.0
 10
3506.887310171075
 20
-1692.3116910280758
 30
0.0
 10
3538.496656052067
 20
-1698.52367110626
 30
0.0
 10
3574.2911991220485
 20
-1704.3488723635244
 30
0.0
 10
3614.275195275838
 20
-1709.519378224539
 30
0.0
 10
3658.4398301685615
 20
-1713.7667200634937
 30
0.0
 10
3706.7631891032784
 20
-1716.8224457897388
 30
0.0
 10
3759.210259635918
 20
-1718.4186905598942
 30
0.0
 10
3815.732944819433
 20
-1718.2887464200903
 30
0.0
 10
3876.073712146226
 20
-1716.1745133012394
 30
0.0
 10
3924.4974510858365
 20
-1625.5800697383975
 30
0.0
 10
3954.3166422923437
 20
-1527.2793701826836
 30
0.0
 10
3913.1442651089196
 20
-1483.117015848565
 30
0.0
 10
3873.268575507196
 20
-1443.0575574819802
 30
0.0
 10
3835.0541807793743
 20
-1407.100593756944
 30
0.0
 10
3798.723681126227
 20
-1375.0915429255808
 30
0.0
 10
3764.491244581936
 20
-1346.8657547216105
 30
0.0
 10
3732.562189990473
 20
-1322.2488996787017
 30
0.0
 10
3703.1325865454323
 20
-1301.057374855235
 30
0.0
 10
3676.3888704862975
 20
-1283.0987252717935
 30
0.0
 10
3652.5074795637724
 20
-1268.1720803922888
 30
0.0
 10
3631.654505765879
 20
-1256.068604823695
 30
0.0
 10
3594.6903715916733
 20
-1236.2014706553748
 30
0.0
 10
3577.8426681815863
 20
-1224.8351573636303
 30
0.0
 10
3565.5607078399767
 20
-1213.8275244511892
 30
0.0
 10
3557.798497101672
 20
-1203.464206460913
 30
0.0
 10
3554.4962741261725
 20
-1194.0280664181166
 30
0.0
 10
3555.5806458195057
 20
-1185.7986015451718
 30
0.0
 10
3568.855215699963
 20
-1146.6929797010678
 30
0.0
 10
3604.463148496223
 20
-1029.3093565374838
 30
0.0
 10
3615.1516664647575
 20
-989.4192644224855
 30
0.0
 10
3618.8220900703946
 20
-981.974269820564
 30
0.0
 10
3626.8102266499513
 20
-975.963022905296
 30
0.0
 10
3639.0218199926853
 20
-971.6586921807666
 30
0.0
 10
3655.3494099802833
 20
-969.3296714299737
 30
0.0
 10
3675.672548726207
 20
-969.239009844848
 30
0.0
 10
3717.4446914814953
 20
-973.2562641450631
 30
0.0
 10
3741.5076361729034
 20
-974.7778835184592
 30
0.0
 10
3769.6570866029933
 20
-975.6346217990902
 30
0.0
 10
3801.8709649600555
 20
-975.5605629552895
 30
0.0
 10
3838.1141663109415
 20
-974.2906656698578
 30
0.0
 10
3878.3385968436896
 20
-971.5613310254449
 30
0.0
 10
3922.483235947929
 20
-967.1109685389866
 30
0.0
 10
3970.4742176066675
 20
-960.6805596967627
 30
0.0
 10
4022.2249442915772
 20
-952.0142171922364
 30
0.0
 10
4077.636211084356
 20
-940.8597410389738
 30
0.0
 10
4136.405081066739
 20
-927.0142325881799
 30
0.0
  0
ENDSEC
  0
EOF
